<svg width="190" height="250" viewBox="0 0 190 250" fill="none" xmlns="http://www.w3.org/2000/svg">
<g filter="url(#filter0_d_709_8555)">
<path d="M121.659 10L38.3411 10C33.7344 10 30 13.731 30 18.3333L30 151.667C30 156.269 33.7344 160 38.3411 160H121.659C126.266 160 130 156.269 130 151.667V18.3333C130 13.731 126.266 10 121.659 10Z" fill="white" stroke="black"/>
<path d="M39.2618 10L30 28.5065V29.0631L39.5404 10H39.2618ZM44.8329 10L30 39.6382V40.1948L45.1114 10H44.8329ZM47.6184 10L30 45.2041V46.3173L48.1755 10H47.6184ZM50.4039 10L30 50.7699V52.4397L51.2396 10H50.4039ZM53.1894 10L30 56.3358V58.5622L54.3036 10H53.1894ZM55.9749 10L30 61.9017V64.6846L57.3677 10H55.9749ZM64.3315 10L30 78.5993V79.1558L64.61 10H64.3315ZM67.117 10L30 84.1651V85.2783L67.6741 10H67.117ZM69.9025 10L30 89.731V90.2876L70.1811 10H69.9025ZM78.2591 10L30 106.429V109.212L79.6518 10H78.2591ZM81.0446 10L30 111.994V114.221L82.1588 10H81.0446ZM83.8301 10L30 117.56V119.23L84.6657 10H83.8301ZM86.6156 10L30 123.126V124.239L87.1727 10H86.6156ZM89.4011 10L30 128.692V129.249L89.6797 10H89.4011ZM94.9721 10L30 139.824V140.38L95.2507 10H94.9721ZM97.7577 10L30 145.39V146.503L98.3148 10H97.7577ZM100.543 10L30 150.955V151.669C30 151.963 30.014 152.252 30.0435 152.538L101.379 10H100.543ZM103.329 10L30.7225 155.078C30.8896 155.451 31.0876 155.806 31.3057 156.147L104.443 10H103.329ZM106.114 10L32.3242 157.443C32.6237 157.755 32.9455 158.042 33.2904 158.304L107.507 10H106.114ZM114.471 10L39.4011 160H39.6797L114.749 10H114.471ZM117.256 10L42.1866 160H42.7437L117.813 10H117.256ZM120.042 10L44.9721 160H45.2507L120.32 10H120.042ZM36.9812 10.1131C36.7703 10.1474 36.5597 10.1851 36.3545 10.2348L30 22.9406V24.0538L36.9812 10.1131ZM33.8823 11.2784C33.3867 11.5912 32.9242 11.9584 32.507 12.3655L30.0783 17.2269C30.0306 17.5893 30 17.9556 30 18.3314V19.0445L33.8823 11.2784ZM127.302 12.1829L53.3287 160H54.7214L128.207 13.1656C127.93 12.8155 127.63 12.4839 127.302 12.1829ZM129.138 14.6353L56.3928 160H57.507L129.634 15.8789C129.503 15.4484 129.335 15.0327 129.138 14.6353ZM130 19.0445L59.4568 160H60.2925L130 20.7143V19.0445ZM130 25.167L62.5209 160H63.078L130 26.2801V25.167ZM130 31.2894L65.585 160H65.8635L130 31.846V31.2894ZM130 42.4212L71.156 160H71.4345L130 42.9777V42.4212ZM130 47.4304L73.663 160H74.2201L130 48.5436V47.4304ZM130 52.4397L76.1699 160H77.0056L130 54.1095V52.4397ZM130 57.449L78.6769 160H79.7911L130 59.6753V57.449ZM130 62.4583L81.1838 160H82.5766L130 65.2412V62.4583ZM130 79.1558L89.5404 160H89.8189L130 79.7124V79.1558ZM130 84.1651L92.0474 160H92.6045L130 85.2783V84.1651ZM130 90.2876L95.1114 160H95.39L130 90.8442V90.2876ZM130 106.985L103.468 160H104.861L130 109.768V106.985ZM130 113.108L106.532 160H107.646L130 115.334V113.108ZM130 119.23L109.596 160H110.432L130 120.9V119.23ZM130 125.353L112.66 160H113.217L130 126.466V125.353ZM130 131.475L115.724 160H116.003L130 132.032V131.475ZM130 142.607L121.295 160H121.574L130 143.163V142.607ZM130 147.616L123.968 159.678C124.192 159.614 124.413 159.543 124.629 159.461L130 148.729V147.616ZM129.922 152.773L127.493 157.635C128.793 156.366 129.671 154.671 129.922 152.773Z" fill="#67AD98"/>
<path d="M39.6797 10L114.749 160H115.028L39.9582 10H39.6797ZM42.1866 10L117.256 160H117.813L42.7437 10H42.1866ZM45.2507 10L120.32 160H120.599L45.5292 10H45.2507ZM52.493 10L126.71 158.304C127.054 158.042 127.376 157.755 127.676 157.443L53.8858 10H52.493ZM55.5571 10L128.694 156.147C128.912 155.806 129.11 155.451 129.278 155.078L56.6713 10H55.5571ZM58.6212 10L129.956 152.538C129.986 152.252 130 151.963 130 151.669V150.955L59.4568 10H58.6212ZM61.6852 10L130 146.503V145.39L62.2423 10H61.6852ZM64.7493 10L130 140.38V139.824L65.0279 10H64.7493ZM70.3203 10L130 129.249V128.692L70.5989 10H70.3203ZM72.8273 10L130 124.239V123.126L73.3844 10H72.8273ZM75.3343 10L130 119.23V117.56L76.1699 10H75.3343ZM77.8412 10L130 114.221V111.994L78.9554 10L77.8412 10ZM80.3482 10L130 109.212V106.429L81.7409 10H80.3482ZM89.8189 10L130 90.2876V89.731L90.0975 10H89.8189ZM92.3259 10L130 85.2783V84.1651L92.883 10H92.3259ZM95.39 10L130 79.1558V78.5993L95.6685 10H95.39ZM102.632 10L130 64.6846V61.9017L104.025 10H102.632ZM105.696 10L130 58.5622V56.3358L106.811 10H105.696ZM108.76 10L130 52.4397V50.7699L109.596 10H108.76ZM111.825 10L130 46.3173V45.2041L112.382 10H111.825ZM114.889 10L130 40.1948V39.6382L115.167 10H114.889ZM120.46 10L130 29.0631V28.5065L120.738 10H120.46ZM123.019 10.1131L130 24.0538V22.9406L123.646 10.2348C123.44 10.1851 123.23 10.1474 123.019 10.1131ZM126.118 11.2784L130 19.0445V18.3314C130 17.9556 129.969 17.5893 129.922 17.2269L127.493 12.3655C127.076 11.9584 126.613 11.5912 126.118 11.2784ZM32.6985 12.1829C32.3697 12.4839 32.0699 12.8155 31.7932 13.1656L105.279 160H106.671L32.6985 12.1829ZM30.8618 14.6353C30.6653 15.0327 30.4975 15.4484 30.3656 15.8789L102.493 160H103.607L30.8618 14.6353ZM30 19.0445V20.7143L99.7075 160H100.543L30 19.0445ZM30 25.167V26.2801L96.922 160H97.4791L30 25.167ZM30 31.2894V31.846L94.1365 160H94.415L30 31.2894ZM30 42.4212V42.9777L88.5655 160H88.844L30 42.4212ZM30 47.4304V48.5436L85.7799 160H86.337L30 47.4304ZM30 52.4397V54.1095L82.9944 160H83.8301L30 52.4397ZM30 57.449V59.6753L80.2089 160H81.3231L30 57.449ZM30 62.4583V65.2412L77.4234 160H78.8162L30 62.4583ZM30 79.1558V79.7124L70.1811 160H70.4596L30 79.1558ZM30 84.1651V85.2783L67.3955 160H67.9526L30 84.1651ZM30 90.2876V90.8442L64.61 160H64.8886L30 90.2876ZM30 106.985V109.768L55.1393 160H56.532L30 106.985ZM30 113.108V115.334L52.3538 160H53.468L30 113.108ZM30 119.23V120.9L49.5682 160H50.4039L30 119.23ZM30 125.353V126.466L46.7827 160H47.3398L30 125.353ZM30 131.475V132.032L43.9972 160H44.2758L30 131.475ZM30 142.607V143.163L38.4262 160H38.7047L30 142.607ZM30 147.616V148.729L35.3708 159.461C35.5868 159.543 35.8082 159.614 36.0324 159.678L30 147.616ZM30.0783 152.773C30.3286 154.671 31.2065 156.366 32.507 157.635L30.0783 152.773Z" fill="#AA0000"/>
</g>
<g filter="url(#filter1_d_709_8555)">
<path d="M90.9051 48.6518L11.9085 75.1358C7.54074 76.6001 5.18595 81.3246 6.64889 85.6882L49.0311 212.106C50.494 216.47 55.2207 218.82 59.5884 217.356L138.585 190.872C142.953 189.408 145.308 184.683 143.845 180.32L101.462 53.9016C99.9995 49.5379 95.2728 47.1875 90.9051 48.6518Z" fill="white" stroke="black"/>
<path d="M12.7815 74.8431L9.88259 95.3338L10.0595 95.8615L13.0456 74.7545L12.7815 74.8431ZM18.0636 73.0722L13.421 105.888L13.5979 106.416L18.3277 72.9837L18.0636 73.0722ZM20.7046 72.1868L15.1902 111.165L15.544 112.221L21.2328 72.0097L20.7046 72.1868ZM23.3457 71.3014L16.9594 116.443L17.4902 118.026L24.138 71.0358L23.3457 71.3014ZM25.9867 70.416L18.7286 121.72L19.4363 123.831L27.0431 70.0618L25.9867 70.416ZM28.6278 69.5306L20.4978 126.997L21.3824 129.636L29.9483 69.0878L28.6278 69.5306ZM36.5509 66.8743L25.8054 142.829L25.9823 143.356L36.815 66.7857L36.5509 66.8743ZM39.1919 65.9889L27.5746 148.106L27.9284 149.161L39.7201 65.8118L39.1919 65.9889ZM41.833 65.1034L29.3438 153.383L29.5207 153.911L42.0971 65.0149L41.833 65.1034ZM49.7561 62.4472L34.6514 169.214L35.536 171.853L51.0766 62.0045L49.7561 62.4472ZM52.3972 61.5618L36.4206 174.492L37.1283 176.603L53.4536 61.2076L52.3972 61.5618ZM55.0382 60.6763L38.1898 179.769L38.7206 181.352L55.8305 60.4107L55.0382 60.6763ZM57.6793 59.7909L39.959 185.046L40.3128 186.101L58.2075 59.6138L57.6793 59.7909ZM60.3203 58.9055L41.7282 190.323L41.9051 190.851L60.5844 58.817L60.3203 58.9055ZM65.6024 57.1347L45.2666 200.878L45.4435 201.405L65.8665 57.0461L65.6024 57.1347ZM68.2434 56.2492L47.0358 206.155L47.3896 207.21L68.7717 56.0722L68.2434 56.2492ZM70.8845 55.3638L48.805 211.432L49.0317 212.108C49.1253 212.387 49.2303 212.657 49.3494 212.919L71.6768 55.0982L70.8845 55.3638ZM73.5255 54.4784L50.8003 215.111C51.0775 215.412 51.378 215.685 51.6933 215.94L74.582 54.1242L73.5255 54.4784ZM76.1666 53.593L53.0708 216.844C53.4539 217.045 53.8504 217.215 54.2606 217.354L77.4871 53.1503L76.1666 53.593ZM84.0897 50.9367L60.5935 217.019L60.8576 216.931L84.3538 50.8482L84.0897 50.9367ZM86.7308 50.0513L63.2345 216.134L63.7627 215.957L87.259 49.8742L86.7308 50.0513ZM89.3718 49.1659L65.8756 215.248L66.1397 215.16L89.6359 49.0773L89.3718 49.1659ZM10.6551 75.6752C10.466 75.7748 10.2783 75.8775 10.0995 75.9899L8.11339 90.0566L8.46723 91.112L10.6551 75.6752ZM8.08732 77.7652C7.71681 78.2192 7.39502 78.7144 7.12885 79.233L6.37148 84.6143C6.44136 84.9731 6.5288 85.3301 6.64827 85.6864L6.87495 86.3625L8.08732 77.7652ZM96.9489 48.9279L73.7987 212.592L75.1192 212.149L98.1196 49.5719C97.7459 49.3279 97.3563 49.1088 96.9489 48.9279ZM99.4699 50.6693L76.7039 211.618L77.7603 211.264L100.336 51.6907C100.074 51.3245 99.7825 50.9836 99.4699 50.6693ZM101.688 54.5759L79.609 210.644L80.4013 210.378L102.219 56.1591L101.688 54.5759ZM103.635 60.3808L82.5142 209.67L83.0424 209.493L103.988 61.4363L103.635 60.3808ZM105.581 66.1857L85.4193 208.696L85.6834 208.608L105.758 66.7135L105.581 66.1857ZM109.119 76.7401L90.7014 206.925L90.9655 206.837L109.296 77.2678L109.119 76.7401ZM110.711 81.4896L93.0783 206.128L93.6066 205.951L111.065 82.545L110.711 81.4896ZM112.304 86.2391L95.4553 205.332L96.2476 205.066L112.834 87.8222L112.304 86.2391ZM113.896 90.9885L97.8322 204.535L98.8886 204.181L114.604 93.0994L113.896 90.9885ZM115.488 95.738L100.209 203.738L101.53 203.295L116.373 98.3766L115.488 95.738ZM120.796 111.57L108.132 201.082L108.396 200.993L120.973 112.097L120.796 111.57ZM122.388 116.319L110.509 200.285L111.037 200.108L122.742 117.375L122.388 116.319ZM124.334 122.124L113.414 199.311L113.678 199.222L124.511 122.652L124.334 122.124ZM129.642 137.956L121.338 196.654L122.658 196.212L130.526 140.594L129.642 137.956ZM131.588 143.76L124.243 195.68L125.299 195.326L132.296 145.871L131.588 143.76ZM133.534 149.565L127.148 194.707L127.94 194.441L134.065 151.149L133.534 149.565ZM135.48 155.37L130.053 193.733L130.581 193.555L135.834 156.426L135.48 155.37ZM137.426 161.175L132.958 192.759L133.222 192.67L137.603 161.703L137.426 161.175ZM140.965 171.73L138.24 190.988L138.504 190.899L141.142 172.257L140.965 171.73ZM142.557 176.479L140.672 189.833C140.864 189.701 141.051 189.563 141.23 189.417L142.911 177.534L142.557 176.479ZM144.122 181.394L143.365 186.775C144.194 185.158 144.488 183.272 144.122 181.394Z" fill="#67AD98"/>
<path d="M13.1776 74.7103L132.034 193.068L132.298 192.98L13.4417 74.6217L13.1776 74.7103ZM15.5546 73.9134L134.411 192.272L134.939 192.095L16.0828 73.7363L15.5546 73.9134ZM18.4597 72.9394L137.316 191.298L137.58 191.209L18.7238 72.8509L18.4597 72.9394ZM25.3264 70.6373L142.835 187.659C143.078 187.301 143.292 186.926 143.477 186.535L26.647 70.1946L25.3264 70.6373ZM28.2316 69.6634L144.031 184.983C144.129 184.59 144.204 184.191 144.244 183.783L29.288 69.3092L28.2316 69.6634ZM31.1367 68.6894L144.08 181.16C144.017 180.879 143.939 180.601 143.845 180.322L143.619 179.645L31.9291 68.4238L31.1367 68.6894ZM34.0419 67.7154L142.203 175.424L141.849 174.368L34.5701 67.5384L34.0419 67.7154ZM36.947 66.7415L140.257 169.619L140.08 169.091L37.2112 66.6529L36.947 66.7415ZM42.2291 64.9706L136.719 159.064L136.542 158.537L42.4932 64.8821L42.2291 64.9706ZM44.6061 64.1738L135.126 154.315L134.773 153.259L45.1343 63.9967L44.6061 64.1738ZM46.983 63.3769L133.534 149.565L133.003 147.982L47.7753 63.1112L46.983 63.3769ZM49.36 62.58L131.942 144.816L131.234 142.705L50.4164 62.2258L49.36 62.58ZM51.7369 61.7831L130.35 140.066L129.465 137.428L53.0574 61.3404L51.7369 61.7831ZM60.7165 58.7727L124.334 122.124L124.157 121.596L60.9806 58.6841L60.7165 58.7727ZM63.0934 57.9758L122.742 117.375L122.388 116.319L63.6216 57.7987L63.0934 57.9758ZM65.9986 57.0018L120.796 111.57L120.619 111.042L66.2627 56.9133L65.9986 57.0018ZM72.8653 54.6997L116.196 97.8489L115.311 95.2103L74.1858 54.257L72.8653 54.6997ZM75.7704 53.7258L114.25 92.044L113.542 89.9331L76.8268 53.3716L75.7704 53.7258ZM78.6756 52.7518L112.304 86.2391L111.773 84.6559L79.4679 52.4862L78.6756 52.7518ZM81.5807 51.7779L110.358 80.4342L110.004 79.3787L82.1089 51.6008L81.5807 51.7779ZM84.4859 50.8039L108.411 74.6293L108.235 74.1015L84.75 50.7153L84.4859 50.8039ZM89.768 49.0331L104.873 64.0749L104.696 63.5471L90.0321 48.9445L89.768 49.0331ZM92.2304 48.3268L103.281 59.3254L102.927 58.27L92.8633 48.243C92.6529 48.2611 92.4413 48.2923 92.2304 48.3268ZM95.539 48.4466L101.688 54.5759L101.462 53.8998C101.342 53.5434 101.197 53.2059 101.036 52.8775L97.1885 49.0402C96.6635 48.7868 96.1083 48.5856 95.539 48.4466ZM7.25237 78.999C7.03635 79.389 6.85754 79.7986 6.70641 80.2185L123.054 196.079L124.375 195.636L7.25237 78.999ZM6.29049 81.9081C6.23053 82.3473 6.20356 82.7948 6.21535 83.2449L120.413 196.964L121.47 196.61L6.29049 81.9081ZM6.87495 86.3625L7.40571 87.9457L117.772 197.85L118.564 197.584L6.87495 86.3625ZM8.82107 92.1675L9.17491 93.2229L115.131 198.735L115.659 198.558L8.82107 92.1675ZM10.7672 97.9724L10.9441 98.5001L112.49 199.621L112.754 199.532L10.7672 97.9724ZM14.3056 108.527L14.4825 109.054L107.208 201.391L107.472 201.303L14.3056 108.527ZM15.8979 113.276L16.2517 114.332L104.567 202.277L105.095 202.1L15.8979 113.276ZM17.4902 118.026L18.0209 119.609L101.926 203.162L102.718 202.897L17.4902 118.026ZM19.0824 122.775L19.7901 124.886L99.2848 204.048L100.341 203.694L19.0824 122.775ZM20.6747 127.525L21.5593 130.163L96.6438 204.933L97.9643 204.49L20.6747 127.525ZM25.9823 143.356L26.1592 143.884L89.777 207.235L90.0411 207.147L25.9823 143.356ZM27.5746 148.106L27.9284 149.161L87.136 208.121L87.6642 207.944L27.5746 148.106ZM29.5207 153.911L29.6976 154.438L84.4949 209.006L84.759 208.918L29.5207 153.911ZM34.8283 169.742L35.7129 172.381L75.5154 212.017L76.8359 211.574L34.8283 169.742ZM36.7744 175.547L37.4821 177.658L72.8743 212.902L73.9308 212.548L36.7744 175.547ZM38.7206 181.352L39.2513 182.935L70.2333 213.787L71.0256 213.522L38.7206 181.352ZM40.6667 187.157L41.0205 188.212L67.5922 214.673L68.1205 214.496L40.6667 187.157ZM42.6128 192.962L42.7897 193.49L64.9512 215.558L65.2153 215.47L42.6128 192.962ZM46.1512 203.516L46.3281 204.044L59.6691 217.329L59.9332 217.241L46.1512 203.516ZM47.7435 208.266L48.0973 209.321L56.6008 217.789C56.8316 217.798 57.0643 217.795 57.2972 217.785L47.7435 208.266ZM49.457 213.13C50.2975 214.85 51.6686 216.178 53.305 216.968L49.457 213.13Z" fill="#AA0000"/>
</g>
<g filter="url(#filter2_d_709_8555)">
<path d="M126.21 75.3312L42.9317 72.7497C38.3272 72.6069 34.479 76.2204 34.3364 80.8205L30.2051 214.09C30.0625 218.69 33.6796 222.535 38.284 222.678L121.562 225.259C126.166 225.402 130.015 221.788 130.157 217.188L134.288 83.919C134.431 79.3188 130.814 75.474 126.21 75.3312Z" fill="white" stroke="black"/>
<path d="M43.852 72.7782L34.0212 90.9888L34.0039 91.5451L44.1304 72.7868L43.852 72.7782ZM49.4204 72.9508L33.6763 102.115L33.659 102.672L49.6988 72.9594L49.4204 72.9508ZM52.2045 73.0371L33.5038 107.678L33.4693 108.791L52.7614 73.0544L52.2045 73.0371ZM54.9887 73.1234L33.3314 113.242L33.2796 114.911L55.824 73.1493L54.9887 73.1234ZM57.7729 73.2097L33.1589 118.805L33.0899 121.03L58.8866 73.2442L57.7729 73.2097ZM60.5571 73.296L32.9865 124.368L32.9002 127.15L61.9492 73.3392L60.5571 73.296ZM68.9096 73.555L32.4691 141.058L32.4518 141.614L69.188 73.5636L68.9096 73.555ZM71.6938 73.6413L32.2966 146.621L32.2621 147.733L72.2506 73.6585L71.6938 73.6413ZM74.478 73.7276L32.1242 152.184L32.1069 152.74L74.7564 73.7362L74.478 73.7276ZM82.8305 73.9865L31.6068 168.873L31.5206 171.655L84.2226 74.0296L82.8305 73.9865ZM85.6147 74.0728L31.4344 174.437L31.3654 176.662L86.7283 74.1073L85.6147 74.0728ZM88.3988 74.1591L31.2619 180L31.2102 181.669L89.2341 74.185L88.3988 74.1591ZM91.183 74.2454L31.0894 185.563L31.055 186.676L91.7399 74.2627L91.183 74.2454ZM93.9672 74.3317L30.917 191.126L30.8997 191.683L94.2456 74.3404L93.9672 74.3317ZM99.5356 74.5043L30.5721 202.253L30.5548 202.809L99.814 74.513L99.5356 74.5043ZM102.32 74.5906L30.3996 207.816L30.3651 208.928L102.877 74.6079L102.32 74.5906ZM105.104 74.677L30.2272 213.379L30.2051 214.092C30.1959 214.386 30.201 214.675 30.2216 214.962L105.939 74.7028L105.104 74.677ZM107.888 74.7633L30.8216 217.522C30.9771 217.9 31.164 218.261 31.3714 218.609L109.002 74.7978L107.888 74.7633ZM110.672 74.8496L32.3492 219.936C32.639 220.256 32.9517 220.554 33.2883 220.826L112.064 74.8927L110.672 74.8496ZM119.025 75.1085L39.3435 222.71L39.6219 222.719L119.303 75.1171L119.025 75.1085ZM121.809 75.1948L42.1277 222.797L42.6845 222.814L122.366 75.2121L121.809 75.1948ZM124.593 75.2811L44.9119 222.883L45.1903 222.892L124.872 75.2897L124.593 75.2811ZM41.5689 72.8205C41.3571 72.8483 41.1454 72.8795 40.9387 72.9228L34.1936 85.4256L34.1592 86.5383L41.5689 72.8205ZM38.4354 73.8893C37.9304 74.1865 37.4567 74.5392 37.0271 74.9332L34.449 79.7171C34.39 80.0778 34.3481 80.4429 34.3365 80.8186L34.3144 81.5314L38.4354 73.8893ZM131.782 77.6879L53.2644 223.142L54.6565 223.185L132.656 78.6982C132.39 78.3397 132.101 77.999 131.782 77.6879ZM133.542 80.1961L56.327 223.237L57.4407 223.271L133.999 81.4545C133.881 81.0201 133.726 80.5993 133.542 80.1961ZM134.266 84.6298L59.3896 223.332L60.2249 223.358L134.215 86.2988L134.266 84.6298ZM134.077 90.7494L62.4522 223.427L63.009 223.444L134.042 91.862L134.077 90.7494ZM133.887 96.8689L65.5148 223.522L65.7932 223.53L133.87 97.4252L133.887 96.8689ZM133.542 107.995L71.0832 223.694L71.3616 223.703L133.525 108.552L133.542 107.995ZM133.387 113.002L73.5889 223.772L74.1458 223.789L133.352 114.115L133.387 113.002ZM133.232 118.009L76.0947 223.85L76.9299 223.876L133.18 119.678L133.232 118.009ZM133.076 123.016L78.6004 223.927L79.7141 223.962L133.007 125.241L133.076 123.016ZM132.921 128.023L81.1062 224.005L82.4983 224.048L132.835 130.804L132.921 128.023ZM132.404 144.712L89.4587 224.264L89.7371 224.273L132.387 145.269L132.404 144.712ZM132.249 149.719L91.9645 224.342L92.5213 224.359L132.214 150.832L132.249 149.719ZM132.059 155.839L95.0271 224.437L95.3055 224.445L132.042 156.395L132.059 155.839ZM131.542 172.528L103.38 224.696L104.772 224.739L131.455 175.31L131.542 172.528ZM131.352 178.648L106.442 224.791L107.556 224.825L131.283 180.873L131.352 178.648ZM131.162 184.767L109.505 224.885L110.34 224.911L131.11 186.436L131.162 184.767ZM130.972 190.887L112.567 224.98L113.124 224.998L130.938 191.999L130.972 190.887ZM130.783 197.006L115.63 225.075L115.908 225.084L130.765 197.563L130.783 197.006ZM130.438 208.133L121.198 225.248L121.477 225.257L130.421 208.689L130.438 208.133ZM130.283 213.14L123.879 225.009C124.105 224.952 124.329 224.887 124.547 224.812L130.248 214.252L130.283 213.14ZM130.045 218.292L127.466 223.076C128.806 221.848 129.736 220.181 130.045 218.292Z" fill="#67AD98"/>
<path d="M44.2696 72.7911L114.656 225.045L114.934 225.054L44.548 72.7998L44.2696 72.7911ZM46.7754 72.8688L117.161 225.123L117.718 225.14L47.3322 72.8861L46.7754 72.8688ZM49.838 72.9637L120.224 225.218L120.502 225.226L50.1164 72.9724L49.838 72.9637ZM57.0768 73.1881L126.663 223.721C127.015 223.47 127.346 223.192 127.655 222.89L58.4689 73.2313L57.0768 73.1881ZM60.1394 73.2831L128.713 221.626C128.942 221.292 129.151 220.943 129.329 220.575L61.2531 73.3176L60.1394 73.2831ZM63.202 73.378L130.087 218.058C130.125 217.773 130.148 217.485 130.157 217.19L130.179 216.477L64.0373 73.4039L63.202 73.378ZM66.2646 73.473L130.317 212.027L130.352 210.914L66.8215 73.4902L66.2646 73.473ZM69.3272 73.5679L130.507 205.907L130.524 205.351L69.6056 73.5765L69.3272 73.5679ZM74.8956 73.7405L130.852 194.781L130.869 194.225L75.174 73.7491L74.8956 73.7405ZM77.4013 73.8182L131.007 189.774L131.041 188.662L77.9582 73.8355L77.4013 73.8182ZM79.9071 73.8959L131.162 184.767L131.214 183.098L80.7424 73.9218L79.9071 73.8959ZM82.4129 73.9735L131.317 179.76L131.386 177.535L83.5265 74.0081L82.4129 73.9735ZM84.9186 74.0512L131.473 174.754L131.559 171.972L86.3107 74.0944L84.9186 74.0512ZM94.3848 74.3447L132.059 155.839L132.076 155.282L94.6632 74.3533L94.3848 74.3447ZM96.8906 74.4223L132.214 150.832L132.249 149.719L97.4474 74.4396L96.8906 74.4223ZM99.9532 74.5173L132.404 144.712L132.421 144.156L100.232 74.5259L99.9532 74.5173ZM107.192 74.7417L132.852 130.248L132.938 127.466L108.584 74.7848L107.192 74.7417ZM110.255 74.8366L133.042 124.129L133.111 121.903L111.368 74.8712L110.255 74.8366ZM113.317 74.9316L133.232 118.009L133.283 116.34L114.152 74.9575L113.317 74.9316ZM116.38 75.0265L133.421 111.889L133.456 110.777L116.937 75.0438L116.38 75.0265ZM119.442 75.1214L133.611 105.77L133.628 105.214L119.721 75.1301L119.442 75.1214ZM125.011 75.2941L133.956 94.6436L133.973 94.0873L125.289 75.3027L125.011 75.2941ZM127.565 75.4864L134.111 89.6367L134.146 88.5241L128.188 75.6275C127.984 75.5714 127.775 75.5272 127.565 75.4864ZM130.627 76.7472L134.266 84.6298L134.288 83.9171C134.3 83.5414 134.281 83.1744 134.244 82.8107L131.968 77.8763C131.563 77.4565 131.112 77.0751 130.627 76.7472ZM37.2241 74.7566C36.8862 75.0474 36.5763 75.3695 36.2888 75.7108L105.189 224.752L106.581 224.795L37.2241 74.7566ZM35.3123 77.151C35.1037 77.5421 34.923 77.9525 34.7779 78.3787L102.405 224.665L103.519 224.7L35.3123 77.151ZM34.3144 81.5314L34.2626 83.2004L99.621 224.579L100.456 224.605L34.3144 81.5314ZM34.1247 87.6509L34.0902 88.7635L96.8368 224.493L97.3936 224.51L34.1247 87.6509ZM33.935 93.7704L33.9177 94.3267L94.0526 224.406L94.331 224.415L33.935 93.7704ZM33.5901 104.897L33.5728 105.453L88.4843 224.234L88.7627 224.242L33.5901 104.897ZM33.4348 109.904L33.4003 111.016L85.7001 224.148L86.2569 224.165L33.4348 109.904ZM33.2796 114.911L33.2279 116.579L82.9159 224.061L83.7512 224.087L33.2796 114.911ZM33.1244 119.917L33.0554 122.143L80.1317 223.975L81.2454 224.009L33.1244 119.917ZM32.9692 124.924L32.883 127.706L77.3476 223.889L78.7396 223.932L32.9692 124.924ZM32.4518 141.614L32.4346 142.17L70.1087 223.664L70.3871 223.673L32.4518 141.614ZM32.2966 146.621L32.2621 147.733L67.3245 223.578L67.8813 223.595L32.2966 146.621ZM32.1069 152.74L32.0897 153.297L64.5403 223.492L64.8188 223.5L32.1069 152.74ZM31.5896 169.43L31.5033 172.211L55.0741 223.198L56.4662 223.241L31.5896 169.43ZM31.3999 175.549L31.3309 177.775L52.29 223.112L53.4036 223.146L31.3999 175.549ZM31.2102 181.669L31.1584 183.338L49.5058 223.026L50.341 223.051L31.2102 181.669ZM31.0205 187.788L30.986 188.901L46.7216 222.939L47.2784 222.956L31.0205 187.788ZM30.8308 193.908L30.8135 194.464L43.9374 222.853L44.2158 222.862L30.8308 193.908ZM30.4859 205.034L30.4686 205.591L38.3691 222.68L38.6475 222.689L30.4859 205.034ZM30.3306 210.041L30.2961 211.154L35.3319 222.047C35.5452 222.135 35.7643 222.214 35.9864 222.284L30.3306 210.041ZM30.2492 215.198C30.4405 217.103 31.2655 218.824 32.526 220.133L30.2492 215.198Z" fill="#AA0000"/>
</g>
<g filter="url(#filter3_d_709_8555)">
<path d="M177.707 48.8664L102.25 13.5369C98.0785 11.5835 93.0375 13.5432 90.9911 17.9139L31.7053 144.536C29.6589 148.906 31.3821 154.033 35.554 155.986L111.011 191.316C115.183 193.269 120.224 191.31 122.27 186.939L181.556 60.3172C183.602 55.9465 181.879 50.8198 177.707 48.8664Z" fill="white" stroke="black"/>
<path d="M103.084 13.9273L86.4676 27.5749L86.2201 28.1035L103.337 14.0454L103.084 13.9273ZM108.13 16.2896L81.518 38.1463L81.2705 38.6749L108.382 16.4077L108.13 16.2896ZM110.652 17.4708L79.0432 43.432L78.5482 44.4892L111.157 17.707L110.652 17.4708ZM113.175 18.6519L76.5683 48.7177L75.8259 50.3035L113.932 19.0063L113.175 18.6519ZM115.698 19.8331L74.0935 54.0034L73.1036 56.1177L116.707 20.3055L115.698 19.8331ZM118.221 21.0142L71.6187 59.2891L70.3813 61.932L119.482 21.6048L118.221 21.0142ZM125.789 24.5577L64.1942 75.1462L63.9468 75.6748L126.041 24.6758L125.789 24.5577ZM128.311 25.7388L61.7194 80.4319L61.2245 81.4891L128.816 25.9751L128.311 25.7388ZM130.834 26.92L59.2446 85.7176L58.9971 86.2462L131.086 27.0381L130.834 26.92ZM138.402 30.4635L51.8201 101.575L50.5827 104.218L139.663 31.054L138.402 30.4635ZM140.925 31.6446L49.3453 106.86L48.3554 108.975L141.934 32.1171L140.925 31.6446ZM143.447 32.8258L46.8705 112.146L46.1281 113.732L144.204 33.1801L143.447 32.8258ZM145.97 34.0069L44.3957 117.432L43.9007 118.489L146.475 34.2431L145.97 34.0069ZM148.493 35.1881L41.9209 122.718L41.6734 123.246L148.745 35.3062L148.493 35.1881ZM153.538 37.5504L36.9712 133.289L36.7237 133.817L153.79 37.6685L153.538 37.5504ZM156.061 38.7315L34.4964 138.575L34.0014 139.632L156.565 38.9677L156.061 38.7315ZM158.584 39.9127L32.0216 143.86L31.7045 144.538C31.5736 144.817 31.4578 145.097 31.3572 145.382L159.34 40.267L158.584 39.9127ZM161.106 41.0938L30.843 148.081C30.8283 148.507 30.85 148.928 30.8955 149.345L162.115 41.5663L161.106 41.0938ZM163.629 42.275L31.2417 151.007C31.3746 151.43 31.538 151.839 31.734 152.234L164.89 42.8655L163.629 42.275ZM171.197 45.8184L36.5141 156.436L36.7663 156.554L171.449 45.9365L171.197 45.8184ZM173.72 46.9996L39.0368 157.617L39.5413 157.853L174.224 47.2358L173.72 46.9996ZM176.242 48.1807L41.5595 158.798L41.8117 158.916L176.495 48.2988L176.242 48.1807ZM100.969 13.0676C100.762 13.0108 100.555 12.9573 100.347 12.9175L88.9425 22.2893L88.4475 23.3464L100.969 13.0676ZM97.644 12.8603C97.056 12.9471 96.4739 13.0997 95.915 13.3095L91.554 16.8964C91.3495 17.2203 91.159 17.5551 90.9919 17.912L90.6748 18.5893L97.644 12.8603ZM181.847 53.3321L49.1275 162.342L50.3889 162.932L182.23 54.6492C182.135 54.1994 182.01 53.7574 181.847 53.3321ZM182.42 56.4399L51.9025 163.641L52.9116 164.113L182.316 57.8313C182.388 57.3666 182.421 56.9006 182.42 56.4399ZM181.239 60.9926L54.6775 164.94L55.4343 165.295L180.497 62.5783L181.239 60.9926ZM178.517 66.8069L57.4524 166.24L57.957 166.476L178.022 67.864L178.517 66.8069ZM175.795 72.6211L60.2274 167.539L60.4796 167.657L175.547 73.1497L175.795 72.6211ZM170.845 83.1925L65.2728 169.901L65.525 170.019L170.598 83.7211L170.845 83.1925ZM168.618 87.9497L67.5432 170.964L68.0477 171.2L168.123 89.0068L168.618 87.9497ZM166.391 92.7068L69.8136 172.027L70.5704 172.382L165.648 94.2925L166.391 92.7068ZM164.163 97.4639L72.084 173.09L73.0931 173.563L163.173 99.5782L164.163 97.4639ZM161.936 102.221L74.3545 174.153L75.6158 174.744L160.698 104.864L161.936 102.221ZM154.511 118.078L81.9225 177.697L82.1748 177.815L154.264 118.607L154.511 118.078ZM152.284 122.835L84.193 178.76L84.6975 178.996L151.789 123.892L152.284 122.835ZM149.562 128.65L86.9679 180.059L87.2202 180.177L149.314 129.178L149.562 128.65ZM142.137 144.507L94.536 183.602L95.7973 184.193L140.9 147.149L142.137 144.507ZM139.415 150.321L97.311 184.902L98.32 185.374L138.425 152.435L139.415 150.321ZM136.693 156.135L100.086 186.201L100.843 186.555L135.95 157.721L136.693 156.135ZM133.97 161.949L102.861 187.5L103.365 187.736L133.475 163.007L133.97 161.949ZM131.248 167.764L105.636 188.8L105.888 188.918L131.001 168.292L131.248 167.764ZM126.298 178.335L110.681 191.162L110.933 191.28L126.051 178.864L126.298 178.335ZM124.071 183.092L113.245 191.989C113.476 192.024 113.708 192.05 113.94 192.063L123.576 184.149L124.071 183.092ZM121.707 187.957L117.346 191.543C119.088 190.89 120.637 189.653 121.707 187.957Z" fill="#67AD98"/>
<path d="M103.463 14.1045L104.753 188.386L105.005 188.504L103.715 14.2226L103.463 14.1045ZM105.733 15.1675L107.023 189.449L107.528 189.685L106.238 15.4038L105.733 15.1675ZM108.508 16.4668L109.798 190.748L110.051 190.867L108.76 16.5849L108.508 16.4668ZM115.067 19.5378L116.339 191.847C116.768 191.745 117.187 191.608 117.597 191.439L116.328 20.1284L115.067 19.5378ZM117.842 20.8371L119.095 190.641C119.445 190.409 119.782 190.156 120.099 189.872L118.851 21.3095L117.842 20.8371ZM120.617 22.1363L121.843 187.748C121.997 187.489 122.138 187.221 122.269 186.941L122.586 186.264L121.374 22.4907L120.617 22.1363ZM123.392 23.4356L124.566 182.035L125.061 180.978L123.897 23.6718L123.392 23.4356ZM126.167 24.7349L127.288 176.221L127.536 175.692L126.419 24.853L126.167 24.7349ZM131.212 27.0972L132.238 165.649L132.486 165.121L131.465 27.2153L131.212 27.0972ZM133.483 28.1602L134.465 160.892L134.96 159.835L133.987 28.3964L133.483 28.1602ZM135.753 29.2232L136.693 156.135L137.435 154.549L136.51 29.5776L135.753 29.2232ZM138.024 30.2863L138.92 151.378L139.91 149.264L139.033 30.7587L138.024 30.2863ZM140.294 31.3493L141.147 146.621L142.385 143.978L141.555 31.9399L140.294 31.3493ZM148.871 35.3652L149.562 128.65L149.809 128.121L149.123 35.4833L148.871 35.3652ZM151.142 36.4283L151.789 123.892L152.284 122.835L151.646 36.6645L151.142 36.4283ZM153.917 37.7275L154.511 118.078L154.759 117.55L154.169 37.8456L153.917 37.7275ZM160.476 40.7985L160.946 104.335L162.183 101.692L161.737 41.3891L160.476 40.7985ZM163.251 42.0978L163.668 98.5211L164.658 96.4068L164.26 42.5703L163.251 42.0978ZM166.026 43.3971L166.391 92.7068L167.133 91.1211L166.782 43.7514L166.026 43.3971ZM168.8 44.6963L169.113 86.8925L169.608 85.8354L169.305 44.9326L168.8 44.6963ZM171.575 45.9956L171.835 81.0783L172.083 80.5497L171.828 46.1137L171.575 45.9956ZM176.621 48.3579L176.785 70.5069L177.032 69.9783L176.873 48.476L176.621 48.3579ZM178.888 49.5504L179.012 65.7497L179.507 64.6926L179.402 49.9318C179.238 49.7976 179.064 49.6725 178.888 49.5504ZM181.177 51.9712L181.239 60.9926L181.557 60.3154C181.724 59.9584 181.859 59.5977 181.977 59.2333L181.939 53.5867C181.742 53.0232 181.486 52.4783 181.177 51.9712ZM96.1697 13.2172C95.7381 13.3637 95.3192 13.5515 94.9128 13.7666L96.1757 184.37L97.4371 184.961L96.1697 13.2172ZM93.4158 14.7674C93.0612 15.0615 92.7243 15.3851 92.4135 15.738L93.6531 183.189L94.6621 183.662L93.4158 14.7674ZM90.6748 18.5893L89.9324 20.175L91.1304 182.008L91.8872 182.362L90.6748 18.5893ZM87.9525 24.4035L87.4576 25.4607L88.6077 180.827L89.1122 181.063L87.9525 24.4035ZM85.2302 30.2178L84.9827 30.7464L86.085 179.646L86.3372 179.764L85.2302 30.2178ZM80.2806 40.7892L80.0331 41.3178L81.0396 177.283L81.2919 177.401L80.2806 40.7892ZM78.0532 45.5463L77.5583 46.6035L78.5169 176.102L79.0214 176.338L78.0532 45.5463ZM75.8259 50.3035L75.0835 51.8892L75.9942 174.921L76.751 175.275L75.8259 50.3035ZM73.5986 55.0606L72.6086 57.1749L73.4715 173.74L74.4806 174.212L73.5986 55.0606ZM71.3712 59.8177L70.1338 62.4606L70.9488 172.559L72.2102 173.149L71.3712 59.8177ZM63.9468 75.6748L63.6993 76.2034L64.3898 169.488L64.6421 169.606L63.9468 75.6748ZM61.7194 80.4319L61.2245 81.4891L61.8671 168.307L62.3717 168.543L61.7194 80.4319ZM58.9971 86.2462L58.7496 86.7748L59.3444 167.125L59.5967 167.244L58.9971 86.2462ZM51.5727 102.103L50.3352 104.746L50.7673 163.109L52.0286 163.7L51.5727 102.103ZM48.8504 107.918L47.8604 110.032L48.2446 161.928L49.2537 162.401L48.8504 107.918ZM46.1281 113.732L45.3856 115.318L45.7219 160.747L46.4787 161.102L46.1281 113.732ZM43.4057 119.546L42.9108 120.603L43.1992 159.566L43.7037 159.802L43.4057 119.546ZM40.6834 125.36L40.436 125.889L40.6765 158.385L40.9288 158.503L40.6834 125.36ZM35.7338 135.932L35.4863 136.46L35.6311 156.023L35.8834 156.141L35.7338 135.932ZM33.5065 140.689L33.0115 141.746L33.1038 154.215C33.263 154.384 33.4317 154.546 33.6063 154.702L33.5065 140.689ZM31.2843 145.62C30.6672 147.528 30.7087 149.51 31.3222 151.266L31.2843 145.62Z" fill="#AA0000"/>
</g>
<g filter="url(#filter4_d_709_8555)">
<path d="M159.084 72.991L78.9228 50.2742C74.4907 49.0182 69.8805 51.5896 68.6257 56.0176L32.2721 184.299C31.0173 188.727 33.5929 193.335 38.0251 194.591L118.186 217.308C122.618 218.564 127.229 215.992 128.483 211.564L164.837 83.2828C166.092 78.8548 163.516 74.247 159.084 72.991Z" fill="white" stroke="black"/>
<path d="M79.8087 50.5253L65.852 65.8053L65.7002 66.3408L80.0767 50.6012L79.8087 50.5253ZM85.1687 52.0442L62.8169 76.5153L62.6651 77.0508L85.4367 52.1202L85.1687 52.0442ZM87.8487 52.8037L61.2993 81.8703L60.9958 82.9413L88.3847 52.9556L87.8487 52.8037ZM90.5286 53.5632L59.7818 87.2253L59.3265 88.8318L91.3326 53.791L90.5286 53.5632ZM93.2086 54.3226L58.2643 92.5803L57.6572 94.7223L94.2806 54.6264L93.2086 54.3226ZM95.8886 55.0821L56.7467 97.9353L55.9879 100.613L97.2286 55.4619L95.8886 55.0821ZM103.929 57.3605L52.1941 114L52.0423 114.536L104.197 57.4365L103.929 57.3605ZM106.609 58.12L50.6765 119.355L50.373 120.426L107.145 58.2719L106.609 58.12ZM109.289 58.8795L49.159 124.71L49.0072 125.246L109.557 58.9554L109.289 58.8795ZM117.328 61.1579L44.6064 140.775L43.8476 143.453L118.668 61.5377L117.328 61.1579ZM120.008 61.9174L43.0888 146.13L42.4818 148.272L121.08 62.2212L120.008 61.9174ZM122.688 62.6769L41.5713 151.485L41.116 153.092L123.492 62.9047L122.688 62.6769ZM125.368 63.4364L40.0537 156.84L39.7502 157.911L125.904 63.5882L125.368 63.4364ZM128.048 64.1958L38.5362 162.195L38.3844 162.731L128.316 64.2718L128.048 64.1958ZM133.408 65.7148L35.5011 172.905L35.3494 173.441L133.676 65.7907L133.408 65.7148ZM136.088 66.4743L33.9836 178.26L33.6801 179.331L136.624 66.6261L136.088 66.4743ZM138.768 67.2337L32.466 183.615L32.2716 184.301C32.1913 184.584 32.126 184.866 32.0763 185.15L139.572 67.4616L138.768 67.2337ZM141.448 67.9932L32.0372 187.778C32.0962 188.183 32.19 188.578 32.3067 188.966L142.52 68.297L141.448 67.9932ZM144.128 68.7527L32.9332 190.491C33.1365 190.872 33.3677 191.237 33.6281 191.582L145.468 69.1324L144.128 68.7527ZM152.168 71.0311L39.0449 194.88L39.3129 194.956L152.436 71.1071L152.168 71.0311ZM154.848 71.7906L41.7249 195.64L42.2609 195.792L155.384 71.9425L154.848 71.7906ZM157.528 72.5501L44.4049 196.399L44.6729 196.475L157.796 72.626L157.528 72.5501ZM77.5837 50.0122C77.3714 49.9877 77.1585 49.9666 76.9475 49.9585L67.3695 60.4503L67.066 61.5213L77.5837 50.0122ZM74.2845 50.2885C73.7223 50.4543 73.1772 50.6815 72.6648 50.9594L69.0027 54.9745C68.8579 55.3101 68.7287 55.6541 68.6262 56.0157L68.4318 56.7019L74.2845 50.2885ZM163.918 76.6296L52.4448 198.678L53.7848 199.057L164.521 77.8219C164.35 77.4096 164.152 77.0089 163.918 76.6296ZM165.016 79.4899L55.3928 199.513L56.4648 199.817L165.154 80.8217C165.145 80.3716 165.097 79.9258 165.016 79.4899ZM164.643 83.967L58.3408 200.348L59.1448 200.576L164.188 85.5735L164.643 83.967ZM162.974 89.8575L61.2888 201.184L61.8248 201.336L162.67 90.9285L162.974 89.8575ZM161.304 95.748L64.2368 202.019L64.5047 202.095L161.153 96.2835L161.304 95.748ZM158.269 106.458L69.5967 203.538L69.8647 203.614L158.118 106.993L158.269 106.458ZM156.904 111.277L72.0087 204.222L72.5447 204.374L156.6 112.348L156.904 111.277ZM155.538 116.097L74.4207 204.905L75.2247 205.133L155.083 117.703L155.538 116.097ZM154.172 120.916L76.8327 205.589L77.9046 205.893L153.565 123.058L154.172 120.916ZM152.806 125.736L79.2446 206.272L80.5846 206.652L152.047 128.413L152.806 125.736ZM148.254 141.801L87.2846 208.551L87.5526 208.627L148.102 142.336L148.254 141.801ZM146.888 146.62L89.6966 209.234L90.2326 209.386L146.584 147.691L146.888 146.62ZM145.219 152.511L92.6445 210.07L92.9125 210.146L145.067 153.046L145.219 152.511ZM140.666 168.576L100.684 212.348L102.024 212.728L139.907 171.253L140.666 168.576ZM138.997 174.466L103.632 213.184L104.704 213.487L138.39 176.608L138.997 174.466ZM137.327 180.357L106.58 214.019L107.384 214.247L136.872 181.963L137.327 180.357ZM135.658 186.247L109.528 214.854L110.064 215.006L135.354 187.318L135.658 186.247ZM133.989 192.138L112.476 215.69L112.744 215.766L133.837 192.673L133.989 192.138ZM130.954 202.848L117.836 217.209L118.104 217.285L130.802 203.383L130.954 202.848ZM129.588 207.667L120.495 217.628C120.728 217.627 120.961 217.619 121.191 217.599L129.284 208.738L129.588 207.667ZM128.106 212.608L124.444 216.623C126.041 215.756 127.348 214.365 128.106 212.608Z" fill="#67AD98"/>
<path d="M80.2107 50.6392L111.538 215.424L111.806 215.5L80.4787 50.7151L80.2107 50.6392ZM82.6227 51.3227L113.95 216.107L114.486 216.259L83.1587 51.4746L82.6227 51.3227ZM85.5707 52.1581L116.898 216.943L117.166 217.019L85.8387 52.2341L85.5707 52.1581ZM92.5386 54.1328L123.508 217.053C123.911 216.896 124.299 216.706 124.672 216.488L93.8786 54.5125L92.5386 54.1328ZM95.4866 54.9682L126.005 215.519C126.308 215.25 126.596 214.963 126.858 214.649L96.5586 55.272L95.4866 54.9682ZM98.4346 55.8036L128.204 212.391C128.31 212.124 128.403 211.85 128.483 211.566L128.677 210.88L99.2386 56.0315L98.4346 55.8036ZM101.383 56.639L129.891 206.596L130.195 205.525L101.919 56.7909L101.383 56.639ZM104.331 57.4745L131.561 200.706L131.712 200.17L104.599 57.5504L104.331 57.4745ZM109.691 58.9934L134.596 189.996L134.747 189.46L109.959 59.0694L109.691 58.9934ZM112.102 59.6769L135.961 185.176L136.265 184.105L112.638 59.8288L112.102 59.6769ZM114.514 60.3605L137.327 180.357L137.783 178.75L115.318 60.5883L114.514 60.3605ZM116.926 61.044L138.693 175.537L139.3 173.395L117.998 61.3478L116.926 61.044ZM119.338 61.7275L140.059 170.718L140.818 168.04L120.678 62.1073L119.338 61.7275ZM128.45 64.3097L145.219 152.511L145.37 151.975L128.718 64.3857L128.45 64.3097ZM130.862 64.9933L146.584 147.691L146.888 146.62L131.398 65.1452L130.862 64.9933ZM133.81 65.8287L148.254 141.801L148.405 141.265L134.078 65.9046L133.81 65.8287ZM140.778 67.8033L152.199 127.878L152.958 125.2L142.118 68.1831L140.778 67.8033ZM143.726 68.6388L153.868 121.987L154.476 119.845L144.798 68.9426L143.726 68.6388ZM146.674 69.4742L155.538 116.097L155.993 114.49L147.478 69.702L146.674 69.4742ZM149.622 70.3096L157.207 110.206L157.511 109.135L150.158 70.4615L149.622 70.3096ZM152.57 71.145L158.876 104.316L159.028 103.78L152.838 71.221L152.57 71.145ZM157.93 72.664L161.911 93.606L162.063 93.0705L158.198 72.7399L157.93 72.664ZM160.362 73.4705L163.277 88.7865L163.581 87.7155L160.931 73.7585C160.747 73.6548 160.555 73.5611 160.362 73.4705ZM163.025 75.4366L164.643 83.967L164.837 83.2809C164.94 82.9193 165.01 82.5586 165.063 82.1969L164.052 76.8575C163.762 76.3521 163.417 75.8727 163.025 75.4366ZM72.8989 50.8359C72.5005 51.0359 72.1217 51.2732 71.7599 51.5346L102.426 212.842L103.766 213.221L72.8989 50.8359ZM70.4631 52.6947C70.1657 53.0234 69.8909 53.3777 69.6466 53.7559L99.7465 212.082L100.818 212.386L70.4631 52.6947ZM68.4318 56.7019L67.9765 58.3084L97.0665 211.323L97.8705 211.551L68.4318 56.7019ZM66.7625 62.5923L66.459 63.6633L94.3865 210.563L94.9225 210.715L66.7625 62.5923ZM65.0932 68.4828L64.9414 69.0183L91.7065 209.804L91.9745 209.88L65.0932 68.4828ZM62.0581 79.1928L61.9064 79.7283L86.3466 208.285L86.6146 208.361L62.0581 79.1928ZM60.6923 84.0123L60.3888 85.0833L83.6666 207.525L84.2026 207.677L60.6923 84.0123ZM59.3265 88.8318L58.8713 90.4383L80.9866 206.766L81.7906 206.994L59.3265 88.8318ZM57.9607 93.6513L57.3537 95.7933L78.3066 206.006L79.3786 206.31L57.9607 93.6513ZM56.595 98.4708L55.8362 101.148L75.6267 205.247L76.9667 205.627L56.595 98.4708ZM52.0423 114.536L51.8906 115.071L68.6587 203.272L68.9267 203.348L52.0423 114.536ZM50.6765 119.355L50.373 120.426L65.9787 202.513L66.5147 202.665L50.6765 119.355ZM49.0072 125.246L48.8555 125.781L63.2988 201.753L63.5668 201.829L49.0072 125.246ZM44.4546 141.311L43.6958 143.988L54.1868 199.171L55.5268 199.551L44.4546 141.311ZM42.7853 147.201L42.1783 149.343L51.5068 198.412L52.5788 198.715L42.7853 147.201ZM41.116 153.092L40.6608 154.698L48.8269 197.652L49.6309 197.88L41.116 153.092ZM39.4467 158.982L39.1432 160.053L46.1469 196.893L46.6829 197.045L39.4467 158.982ZM37.7774 164.873L37.6257 165.408L43.4669 196.133L43.7349 196.209L37.7774 164.873ZM34.7423 175.583L34.5906 176.118L38.1069 194.614L38.3749 194.69L34.7423 175.583ZM33.3765 180.402L33.073 181.473L35.3144 193.263C35.4998 193.4 35.6933 193.529 35.8916 193.652L33.3765 180.402ZM32.0458 185.385C31.7692 187.279 32.1518 189.149 33.0569 190.725L32.0458 185.385Z" fill="#AA0000"/>
</g>
<g filter="url(#filter5_d_709_8555)">
<path d="M159.272 81.7658L76.3059 89.4113C71.7187 89.8341 68.3424 93.892 68.7647 98.4749L80.9999 231.246C81.4222 235.829 85.4833 239.201 90.0705 238.778L173.037 231.133C177.624 230.71 181 226.652 180.578 222.069L168.343 89.2985C167.92 84.7156 163.859 81.343 159.272 81.7658Z" fill="white" stroke="black"/>
<path d="M77.2228 89.3269L69.6982 108.605L69.7493 109.159L77.5001 89.3013L77.2228 89.3269ZM82.7703 88.8156L70.7197 119.69L70.7708 120.244L83.0477 88.7901L82.7703 88.8156ZM85.544 88.56L71.2305 125.232L71.3326 126.341L86.0988 88.5089L85.544 88.56ZM88.3178 88.3044L71.7412 130.775L71.8944 132.437L89.1499 88.2277L88.3178 88.3044ZM91.0916 88.0488L72.252 136.317L72.4563 138.534L92.2011 87.9466L91.0916 88.0488ZM93.8653 87.7932L72.7627 141.859L73.0181 144.631L95.2522 87.6654L93.8653 87.7932ZM102.187 87.0264L74.2949 158.487L74.346 159.041L102.464 87.0008L102.187 87.0264ZM104.96 86.7708L74.8057 164.029L74.9078 165.137L105.515 86.7196L104.96 86.7708ZM107.734 86.5151L75.3164 169.571L75.3675 170.126L108.012 86.4896L107.734 86.5151ZM116.055 85.7483L76.8487 186.198L77.104 188.97L117.442 85.6205L116.055 85.7483ZM118.829 85.4927L77.3594 191.741L77.5637 193.958L119.939 85.3905L118.829 85.4927ZM121.603 85.2371L77.8702 197.283L78.0234 198.946L122.435 85.1604L121.603 85.2371ZM124.377 84.9815L78.3809 202.826L78.4831 203.934L124.931 84.9304L124.377 84.9815ZM127.15 84.7259L78.8917 208.368L78.9427 208.922L127.428 84.7003L127.15 84.7259ZM132.698 84.2147L79.9131 219.453L79.9642 220.007L132.975 84.1891L132.698 84.2147ZM135.472 83.959L80.4239 224.995L80.526 226.104L136.027 83.9079L135.472 83.959ZM138.246 83.7034L80.9346 230.538L81.0001 231.248C81.0271 231.541 81.0675 231.827 81.1232 232.11L139.078 83.6268L138.246 83.7034ZM141.019 83.4478L82.0323 234.576C82.233 234.933 82.4628 235.268 82.7113 235.588L142.129 83.3456L141.019 83.4478ZM143.793 83.1922L83.8443 236.785C84.1712 237.067 84.518 237.324 84.8855 237.553L145.18 83.0644L143.793 83.1922ZM152.114 82.4254L91.126 238.681L91.4034 238.656L152.392 82.3998L152.114 82.4254ZM154.888 82.1698L93.8998 238.426L94.4546 238.374L155.443 82.1187L154.888 82.1698ZM157.662 81.9142L96.6736 238.17L96.9509 238.144L157.939 81.8886L157.662 81.9142ZM74.9621 89.6487C74.7552 89.7023 74.549 89.7591 74.3492 89.8275L69.1875 103.063L69.2896 104.171L74.9621 89.6487ZM71.9832 91.0935C71.5184 91.4504 71.0916 91.8585 70.7135 92.3022L68.7412 97.366C68.7268 97.7313 68.73 98.0987 68.7645 98.473L68.83 99.1831L71.9832 91.0935ZM165.091 83.4216L104.995 237.403L106.382 237.275L166.083 84.3171C165.775 83.9939 165.446 83.6913 165.091 83.4216ZM167.145 85.6952L108.046 237.122L109.155 237.02L167.753 86.888C167.583 86.4715 167.377 86.0729 167.145 85.6952ZM168.408 90.0067L111.097 236.841L111.929 236.764L168.561 91.6694L168.408 90.0067ZM168.97 96.1033L114.148 236.56L114.703 236.509L169.072 97.2118L168.97 96.1033ZM169.532 102.2L117.199 236.278L117.477 236.253L169.583 102.754L169.532 102.2ZM170.553 113.285L122.747 235.767L123.024 235.742L170.604 113.839L170.553 113.285ZM171.013 118.273L125.243 235.537L125.798 235.486L171.115 119.381L171.013 118.273ZM171.473 123.261L127.74 235.307L128.572 235.23L171.626 124.924L171.473 123.261ZM171.932 128.249L130.236 235.077L131.346 234.975L172.136 130.466L171.932 128.249ZM172.392 133.237L132.732 234.847L134.119 234.719L172.647 136.008L172.392 133.237ZM173.924 149.864L141.054 234.08L141.331 234.055L173.975 150.419L173.924 149.864ZM174.384 154.853L143.55 233.85L144.105 233.799L174.486 155.961L174.384 154.853ZM174.946 160.949L146.601 233.569L146.879 233.543L174.997 161.503L174.946 160.949ZM176.478 177.576L154.923 232.802L156.309 232.674L176.733 180.348L176.478 177.576ZM177.04 183.673L157.974 232.521L159.083 232.419L177.244 185.89L177.04 183.673ZM177.601 189.77L161.025 232.24L161.857 232.163L177.755 191.432L177.601 189.77ZM178.163 195.866L164.076 231.959L164.631 231.908L178.265 196.975L178.163 195.866ZM178.725 201.963L167.127 231.677L167.405 231.652L178.776 202.517L178.725 201.963ZM179.747 213.048L172.675 231.166L172.952 231.141L179.798 213.602L179.747 213.048ZM180.206 218.036L175.306 230.601C175.524 230.516 175.737 230.425 175.945 230.323L180.308 219.144L180.206 218.036ZM180.601 223.178L178.629 228.242C179.808 226.859 180.526 225.091 180.601 223.178Z" fill="#67AD98"/>
<path d="M77.6388 89.2885L166.156 231.767L166.434 231.741L77.9162 89.263L77.6388 89.2885ZM80.1352 89.0585L168.653 231.537L169.207 231.486L80.69 89.0073L80.1352 89.0585ZM83.1863 88.7773L171.704 231.256L171.981 231.23L83.4637 88.7517L83.1863 88.7773ZM90.3981 88.1127L177.911 228.981C178.23 228.688 178.524 228.372 178.794 228.035L91.785 87.9849L90.3981 88.1127ZM93.4493 87.8315L179.689 226.651C179.875 226.291 180.039 225.919 180.172 225.532L94.5588 87.7293L93.4493 87.8315ZM96.5004 87.5504L180.615 222.941C180.618 222.653 180.605 222.364 180.578 222.071L180.513 221.361L97.3325 87.4737L96.5004 87.5504ZM99.5515 87.2692L180.104 216.927L180.002 215.819L100.106 87.2181L99.5515 87.2692ZM102.603 86.988L179.542 210.831L179.491 210.276L102.88 86.9625L102.603 86.988ZM108.15 86.4768L178.521 199.746L178.47 199.192L108.428 86.4512L108.15 86.4768ZM110.647 86.2468L178.061 194.758L177.959 193.649L111.201 86.1956L110.647 86.2468ZM113.143 86.0167L177.601 189.77L177.448 188.107L113.975 85.94L113.143 86.0167ZM115.639 85.7867L177.142 184.781L176.937 182.564L116.749 85.6844L115.639 85.7867ZM118.136 85.5566L176.682 179.793L176.427 177.022L119.523 85.4288L118.136 85.5566ZM127.567 84.6875L174.946 160.949L174.895 160.395L127.844 84.662L127.567 84.6875ZM130.063 84.4575L174.486 155.961L174.384 154.853L130.618 84.4064L130.063 84.4575ZM133.114 84.1763L173.924 149.864L173.873 149.31L133.391 84.1508L133.114 84.1763ZM140.326 83.5117L172.596 135.454L172.341 132.683L141.713 83.3839L140.326 83.5117ZM143.377 83.2306L172.034 129.358L171.83 127.141L144.487 83.1283L143.377 83.2306ZM146.428 82.9494L171.473 123.261L171.319 121.598L147.26 82.8727L146.428 82.9494ZM149.479 82.6682L170.911 117.164L170.809 116.056L150.034 82.6171L149.479 82.6682ZM152.53 82.387L170.349 111.068L170.298 110.514L152.808 82.3615L152.53 82.387ZM158.078 81.8758L169.327 99.983L169.276 99.4288L158.355 81.8503L158.078 81.8758ZM160.637 81.7536L168.868 94.9949L168.766 93.8864L161.272 81.8173C161.063 81.7866 160.85 81.7684 160.637 81.7536ZM163.829 82.6296L168.408 90.0067L168.343 89.2966C168.308 88.9224 168.244 88.5605 168.163 88.204L165.299 83.5859C164.846 83.2188 164.352 82.8956 163.829 82.6296ZM70.8874 92.1028C70.5876 92.4328 70.3196 92.7904 70.0761 93.1644L156.726 232.636L158.112 232.508L70.8874 92.1028ZM69.2835 94.7134C69.1243 95.1271 68.9954 95.5566 68.9035 95.9973L153.952 232.892L155.061 232.789L69.2835 94.7134ZM68.83 99.1831L68.9832 100.846L151.178 233.147L152.01 233.071L68.83 99.1831ZM69.3918 105.28L69.4939 106.388L148.404 233.403L148.959 233.352L69.3918 105.28ZM69.9536 111.376L70.0047 111.931L145.63 233.658L145.908 233.633L69.9536 111.376ZM70.9751 122.461L71.0262 123.015L140.083 234.17L140.36 234.144L70.9751 122.461ZM71.4348 127.449L71.5369 128.558L137.309 234.425L137.864 234.374L71.4348 127.449ZM71.8944 132.437L72.0477 134.1L134.535 234.681L135.368 234.604L71.8944 132.437ZM72.3541 137.426L72.5584 139.642L131.762 234.937L132.871 234.834L72.3541 137.426ZM72.8138 142.414L73.0692 145.185L128.988 235.192L130.375 235.064L72.8138 142.414ZM74.346 159.041L74.3971 159.595L121.776 235.857L122.053 235.831L74.346 159.041ZM74.8057 164.029L74.9078 165.137L119.002 236.112L119.557 236.061L74.8057 164.029ZM75.3675 170.126L75.4186 170.68L116.229 236.368L116.506 236.342L75.3675 170.126ZM76.8997 186.753L77.1551 189.524L106.798 237.237L108.185 237.109L76.8997 186.753ZM77.4616 192.849L77.6659 195.066L104.024 237.493L105.134 237.39L77.4616 192.849ZM78.0234 198.946L78.1766 200.609L101.25 237.748L102.082 237.672L78.0234 198.946ZM78.5852 205.043L78.6874 206.151L98.4765 238.004L99.0313 237.953L78.5852 205.043ZM79.147 211.139L79.1981 211.693L95.7028 238.259L95.9801 238.234L79.147 211.139ZM80.1685 222.224L80.2196 222.778L90.1552 238.771L90.4326 238.745L80.1685 222.224ZM80.6282 227.212L80.7303 228.321L87.0633 238.514C87.2858 238.576 87.5129 238.627 87.742 238.67L80.6282 227.212ZM81.1794 232.34C81.6027 234.207 82.6325 235.814 84.0439 236.958L81.1794 232.34Z" fill="#AA0000"/>
</g>
<defs>
<filter id="filter0_d_709_8555" x="25.5" y="9.5" width="109" height="159" filterUnits="userSpaceOnUse" color-interpolation-filters="sRGB">
<feFlood flood-opacity="0" result="BackgroundImageFix"/>
<feColorMatrix in="SourceAlpha" type="matrix" values="0 0 0 0 0 0 0 0 0 0 0 0 0 0 0 0 0 0 127 0" result="hardAlpha"/>
<feOffset dy="4"/>
<feGaussianBlur stdDeviation="2"/>
<feComposite in2="hardAlpha" operator="out"/>
<feColorMatrix type="matrix" values="0 0 0 0 0 0 0 0 0 0 0 0 0 0 0 0 0 0 0.25 0"/>
<feBlend mode="normal" in2="BackgroundImageFix" result="effect1_dropShadow_709_8555"/>
<feBlend mode="normal" in="SourceGraphic" in2="effect1_dropShadow_709_8555" result="shape"/>
</filter>
<filter id="filter1_d_709_8555" x="1.71466" y="47.7168" width="147.064" height="178.574" filterUnits="userSpaceOnUse" color-interpolation-filters="sRGB">
<feFlood flood-opacity="0" result="BackgroundImageFix"/>
<feColorMatrix in="SourceAlpha" type="matrix" values="0 0 0 0 0 0 0 0 0 0 0 0 0 0 0 0 0 0 127 0" result="hardAlpha"/>
<feOffset dy="4"/>
<feGaussianBlur stdDeviation="2"/>
<feComposite in2="hardAlpha" operator="out"/>
<feColorMatrix type="matrix" values="0 0 0 0 0 0 0 0 0 0 0 0 0 0 0 0 0 0 0.25 0"/>
<feBlend mode="normal" in2="BackgroundImageFix" result="effect1_dropShadow_709_8555"/>
<feBlend mode="normal" in="SourceGraphic" in2="effect1_dropShadow_709_8555" result="shape"/>
</filter>
<filter id="filter2_d_709_8555" x="25.701" y="72.2451" width="113.091" height="161.519" filterUnits="userSpaceOnUse" color-interpolation-filters="sRGB">
<feFlood flood-opacity="0" result="BackgroundImageFix"/>
<feColorMatrix in="SourceAlpha" type="matrix" values="0 0 0 0 0 0 0 0 0 0 0 0 0 0 0 0 0 0 127 0" result="hardAlpha"/>
<feOffset dy="4"/>
<feGaussianBlur stdDeviation="2"/>
<feComposite in2="hardAlpha" operator="out"/>
<feColorMatrix type="matrix" values="0 0 0 0 0 0 0 0 0 0 0 0 0 0 0 0 0 0 0.25 0"/>
<feBlend mode="normal" in2="BackgroundImageFix" result="effect1_dropShadow_709_8555"/>
<feBlend mode="normal" in="SourceGraphic" in2="effect1_dropShadow_709_8555" result="shape"/>
</filter>
<filter id="filter3_d_709_8555" x="26.3443" y="12.2793" width="160.573" height="188.294" filterUnits="userSpaceOnUse" color-interpolation-filters="sRGB">
<feFlood flood-opacity="0" result="BackgroundImageFix"/>
<feColorMatrix in="SourceAlpha" type="matrix" values="0 0 0 0 0 0 0 0 0 0 0 0 0 0 0 0 0 0 127 0" result="hardAlpha"/>
<feOffset dy="4"/>
<feGaussianBlur stdDeviation="2"/>
<feComposite in2="hardAlpha" operator="out"/>
<feColorMatrix type="matrix" values="0 0 0 0 0 0 0 0 0 0 0 0 0 0 0 0 0 0 0.25 0"/>
<feBlend mode="normal" in2="BackgroundImageFix" result="effect1_dropShadow_709_8555"/>
<feBlend mode="normal" in="SourceGraphic" in2="effect1_dropShadow_709_8555" result="shape"/>
</filter>
<filter id="filter4_d_709_8555" x="27.4544" y="49.4561" width="142.2" height="176.67" filterUnits="userSpaceOnUse" color-interpolation-filters="sRGB">
<feFlood flood-opacity="0" result="BackgroundImageFix"/>
<feColorMatrix in="SourceAlpha" type="matrix" values="0 0 0 0 0 0 0 0 0 0 0 0 0 0 0 0 0 0 127 0" result="hardAlpha"/>
<feOffset dy="4"/>
<feGaussianBlur stdDeviation="2"/>
<feComposite in2="hardAlpha" operator="out"/>
<feColorMatrix type="matrix" values="0 0 0 0 0 0 0 0 0 0 0 0 0 0 0 0 0 0 0.25 0"/>
<feBlend mode="normal" in2="BackgroundImageFix" result="effect1_dropShadow_709_8555"/>
<feBlend mode="normal" in="SourceGraphic" in2="effect1_dropShadow_709_8555" result="shape"/>
</filter>
<filter id="filter5_d_709_8555" x="64.229" y="81.2295" width="120.885" height="166.085" filterUnits="userSpaceOnUse" color-interpolation-filters="sRGB">
<feFlood flood-opacity="0" result="BackgroundImageFix"/>
<feColorMatrix in="SourceAlpha" type="matrix" values="0 0 0 0 0 0 0 0 0 0 0 0 0 0 0 0 0 0 127 0" result="hardAlpha"/>
<feOffset dy="4"/>
<feGaussianBlur stdDeviation="2"/>
<feComposite in2="hardAlpha" operator="out"/>
<feColorMatrix type="matrix" values="0 0 0 0 0 0 0 0 0 0 0 0 0 0 0 0 0 0 0.25 0"/>
<feBlend mode="normal" in2="BackgroundImageFix" result="effect1_dropShadow_709_8555"/>
<feBlend mode="normal" in="SourceGraphic" in2="effect1_dropShadow_709_8555" result="shape"/>
</filter>
</defs>
</svg>
