<svg width="190" height="250" viewBox="0 0 190 250" fill="none" xmlns="http://www.w3.org/2000/svg">
<g clip-path="url(#clip0_709_5318)">
<g filter="url(#filter0_d_709_5318)">
<path d="M97.1001 6.53189L15.1992 21.8325C10.6709 22.6785 7.68516 27.0318 8.53035 31.5559L33.0159 162.622C33.861 167.146 38.2171 170.127 42.7454 169.281L124.646 153.981C129.175 153.135 132.16 148.782 131.315 144.258L106.83 13.1917C105.984 8.66764 101.628 5.68592 97.1001 6.53189Z" fill="white" stroke="black"/>
<path d="M16.1043 21.6634L10.3986 41.556L10.5008 42.1031L16.3781 21.6122L16.1043 21.6634ZM21.5806 20.6403L12.4428 52.4984L12.545 53.0455L21.8544 20.5892L21.5806 20.6403ZM24.3188 20.1288L13.4649 57.9696L13.6693 59.0639L24.8664 20.0265L24.3188 20.1288ZM27.0569 19.6173L14.487 63.4408L14.7937 65.0822L27.8783 19.4638L27.0569 19.6173ZM29.795 19.1057L15.5092 68.912L15.918 71.1005L30.8903 18.9011L29.795 19.1057ZM32.5332 18.5942L16.5313 74.3833L17.0424 77.1189L33.9023 18.3384L32.5332 18.5942ZM40.7476 17.0596L19.5977 90.7969L19.6999 91.344L41.0214 17.0084L40.7476 17.0596ZM43.4858 16.548L20.6198 96.2681L20.8242 97.3623L44.0334 16.4457L43.4858 16.548ZM46.2239 16.0365L21.6419 101.739L21.7441 102.286L46.4977 15.9854L46.2239 16.0365ZM54.4383 14.5019L24.7083 118.153L25.2193 120.889L55.8074 14.2461L54.4383 14.5019ZM57.1765 13.9904L25.7304 123.624L26.1392 125.813L58.2717 13.7858L57.1765 13.9904ZM59.9146 13.4788L26.7525 129.095L27.0592 130.737L60.7361 13.3254L59.9146 13.4788ZM62.6528 12.9673L27.7746 134.567L27.9791 135.661L63.2004 12.865L62.6528 12.9673ZM65.3909 12.4558L28.7968 140.038L28.899 140.585L65.6647 12.4046L65.3909 12.4558ZM70.8672 11.4327L30.841 150.98L30.9432 151.527L71.141 11.3815L70.8672 11.4327ZM73.6053 10.9212L31.8631 156.451L32.0676 157.546L74.153 10.8188L73.6053 10.9212ZM76.3435 10.4096L32.8853 161.923L33.0162 162.624C33.0703 162.913 33.1371 163.194 33.2187 163.47L77.1649 10.2562L76.3435 10.4096ZM79.0816 9.89808L34.3525 165.842C34.5853 166.178 34.8451 166.491 35.1222 166.786L80.1769 9.69347L79.0816 9.89808ZM81.8198 9.38654L36.3613 167.873C36.713 168.124 37.0821 168.348 37.4692 168.542L83.1888 9.13078L81.8198 9.38654ZM90.0342 7.85194L43.7874 169.087L44.0612 169.036L90.308 7.80078L90.0342 7.85194ZM92.7723 7.3404L46.5256 168.575L47.0732 168.473L93.32 7.23809L92.7723 7.3404ZM95.5105 6.82887L49.2637 168.064L49.5375 168.013L95.7843 6.77771L95.5105 6.82887ZM13.8832 22.1934C13.6822 22.2658 13.4821 22.3416 13.2895 22.4281L9.37643 36.0848L9.58086 37.1791L13.8832 22.1934ZM11.0511 23.908C10.6213 24.3064 10.2341 24.7523 9.89873 25.2291L8.40417 30.4539C8.42375 30.8189 8.46097 31.1845 8.52999 31.554L8.66095 32.255L11.0511 23.908ZM103.048 7.64141L57.4781 166.529L58.8472 166.273L104.118 8.44118C103.782 8.14787 103.426 7.877 103.048 7.64141ZM105.303 9.71487L60.4901 165.966L61.5854 165.762L106.02 10.8462C105.811 10.4473 105.57 10.0694 105.303 9.71487ZM106.96 13.8908L63.5021 165.404L64.3235 165.25L107.267 15.5322L106.96 13.8908ZM108.085 19.9092L66.514 164.841L67.0616 164.739L108.289 21.0034L108.085 19.9092ZM109.209 25.9275L69.526 164.278L69.7998 164.227L109.311 26.4746L109.209 25.9275ZM111.253 36.8699L75.0023 163.255L75.2761 163.204L111.355 37.417L111.253 36.8699ZM112.173 41.794L77.4666 162.795L78.0142 162.693L112.378 42.8882L112.173 41.794ZM113.093 46.7181L79.9309 162.335L80.7524 162.181L113.4 48.3594L113.093 46.7181ZM114.013 51.6422L82.3952 161.874L83.4905 161.67L114.422 53.8306L114.013 51.6422ZM114.933 56.5662L84.8596 161.414L86.2286 161.158L115.444 59.3018L114.933 56.5662ZM117.999 72.9799L93.074 159.879L93.3478 159.828L118.101 73.527L117.999 72.9799ZM118.919 77.9039L95.5383 159.419L96.086 159.316L119.124 78.9982L118.919 77.9039ZM120.043 83.9223L98.5503 158.856L98.8241 158.805L120.146 84.4694L120.043 83.9223ZM123.11 100.336L106.765 157.321L108.134 157.066L123.621 103.071L123.11 100.336ZM124.234 106.354L109.777 156.759L110.872 156.554L124.643 108.543L124.234 106.354ZM125.358 112.373L112.789 156.196L113.61 156.043L125.665 114.014L125.358 112.373ZM126.483 118.391L115.801 155.633L116.348 155.531L126.687 119.485L126.483 118.391ZM127.607 124.409L118.813 155.071L119.086 155.02L127.709 124.956L127.607 124.409ZM129.651 135.352L124.289 154.048L124.563 153.997L129.754 135.899L129.651 135.352ZM130.571 140.276L126.857 153.241C127.065 153.137 127.27 153.025 127.467 152.905L130.776 141.37L130.571 140.276ZM131.441 145.359L129.947 150.584C130.992 149.098 131.544 147.271 131.441 145.359Z" fill="#8267AD"/>
<path d="M16.515 21.5867L117.854 155.25L118.128 155.199L16.7889 21.5355L16.515 21.5867ZM18.9794 21.1263L120.319 154.789L120.866 154.687L19.527 21.024L18.9794 21.1263ZM21.9913 20.5636L123.33 154.227L123.604 154.176L22.2651 20.5124L21.9913 20.5636ZM29.1105 19.2336L129.3 151.386C129.591 151.066 129.854 150.724 130.091 150.363L30.4796 18.9778L29.1105 19.2336ZM32.1225 18.6709L130.855 148.902C131.006 148.526 131.136 148.141 131.231 147.743L33.2177 18.4663L32.1225 18.6709ZM35.1344 18.1082L131.432 145.122C131.409 144.835 131.37 144.549 131.316 144.259L131.185 143.558L35.9559 17.9548L35.1344 18.1082ZM38.1464 17.5455L130.367 139.181L130.162 138.087L38.694 17.4432L38.1464 17.5455ZM41.1583 16.9828L129.243 133.163L129.14 132.616L41.4321 16.9317L41.1583 16.9828ZM46.6346 15.9598L127.198 122.221L127.096 121.674L46.9084 15.9086L46.6346 15.9598ZM49.0989 15.4994L126.278 117.297L126.074 116.202L49.6466 15.3971L49.0989 15.4994ZM51.5633 15.039L125.358 112.373L125.052 110.731L52.3847 14.8856L51.5633 15.039ZM54.0276 14.5786L124.439 107.448L124.03 105.26L55.1229 14.374L54.0276 14.5786ZM56.4919 14.1182L123.519 102.524L123.008 99.7888L57.861 13.8625L56.4919 14.1182ZM65.8016 12.379L120.043 83.9223L119.941 83.3751L66.0754 12.3279L65.8016 12.379ZM68.2659 11.9186L119.124 78.9982L118.919 77.9039L68.8136 11.8163L68.2659 11.9186ZM71.2779 11.356L117.999 72.9799L117.897 72.4327L71.5517 11.3048L71.2779 11.356ZM78.3971 10.026L115.342 58.7547L114.831 56.0191L79.7661 9.7702L78.3971 10.026ZM81.409 9.46328L114.217 52.7364L113.808 50.5479L82.5043 9.25866L81.409 9.46328ZM84.421 8.90059L113.093 46.7181L112.786 45.0767L85.2424 8.74712L84.421 8.90059ZM87.4329 8.3379L111.969 40.6997L111.764 39.6055L87.9806 8.23559L87.4329 8.3379ZM90.4449 7.77521L110.844 34.6814L110.742 34.1343L90.7187 7.72405L90.4449 7.77521ZM95.9212 6.75214L108.8 23.739L108.698 23.1919L96.195 6.70098L95.9212 6.75214ZM98.4576 6.3933L107.88 18.8149L107.676 17.7207L99.0961 6.39788C98.8852 6.38669 98.6713 6.38831 98.4576 6.3933ZM101.718 6.96975L106.96 13.8908L106.829 13.1898C106.76 12.8204 106.663 12.466 106.549 12.1185L103.269 7.78577C102.785 7.46219 102.262 7.18616 101.718 6.96975ZM10.0534 25.0144C9.78555 25.3708 9.55178 25.7517 9.34401 26.1467L108.545 156.989L109.914 156.733L10.0534 25.0144ZM8.69835 27.7625C8.57821 28.1892 8.48958 28.6287 8.439 29.0761L105.806 157.501L106.902 157.296L8.69835 27.7625ZM8.66095 32.255L8.96759 33.8963L103.068 158.012L103.89 157.859L8.66095 32.255ZM9.78528 38.2733L9.98971 39.3675L100.33 158.524L100.878 158.421L9.78528 38.2733ZM10.9096 44.2916L11.0118 44.8387L97.5919 159.035L97.8658 158.984L10.9096 44.2916ZM12.9539 55.234L13.0561 55.7812L92.1157 160.058L92.3895 160.007L12.9539 55.234ZM13.8738 60.1581L14.0782 61.2524L89.3775 160.57L89.9251 160.467L13.8738 60.1581ZM14.7937 65.0822L15.1003 66.7236L86.6394 161.081L87.4608 160.928L14.7937 65.0822ZM15.7136 70.0063L16.1224 72.1948L83.9012 161.593L84.9965 161.388L15.7136 70.0063ZM16.6335 74.9304L17.1446 77.666L81.1631 162.104L82.5322 161.849L16.6335 74.9304ZM19.6999 91.344L19.8021 91.8911L74.0439 163.434L74.3177 163.383L19.6999 91.344ZM20.6198 96.2681L20.8242 97.3623L71.3058 163.946L71.8534 163.844L20.6198 96.2681ZM21.7441 102.286L21.8463 102.834L68.5676 164.457L68.8414 164.406L21.7441 102.286ZM24.8105 118.7L25.3215 121.436L59.2579 166.197L60.627 165.941L24.8105 118.7ZM25.9348 124.718L26.3437 126.907L56.5198 166.708L57.6151 166.504L25.9348 124.718ZM27.0592 130.737L27.3658 132.378L53.7817 167.22L54.6031 167.066L27.0592 130.737ZM28.1835 136.755L28.3879 137.849L51.0435 167.731L51.5911 167.629L28.1835 136.755ZM29.3078 142.773L29.41 143.32L48.3054 168.243L48.5792 168.192L29.3078 142.773ZM31.3521 153.716L31.4543 154.263L42.8291 169.266L43.1029 169.215L31.3521 153.716ZM32.272 158.64L32.4764 159.734L39.7267 169.297C39.954 169.338 40.1848 169.367 40.4169 169.389L32.272 158.64ZM33.296 163.695C33.8905 165.514 35.0648 167.019 36.5761 168.028L33.296 163.695Z" fill="#AA0000"/>
</g>
<g filter="url(#filter1_d_709_5318)">
<path d="M129.305 96.2274L47.1448 82.3857C42.6021 81.6204 38.2998 84.6791 37.5352 89.2175L15.3844 220.698C14.6198 225.236 17.6825 229.536 22.2252 230.301L104.385 244.143C108.928 244.908 113.23 241.85 113.995 237.311L136.146 105.831C136.91 101.292 133.847 96.9927 129.305 96.2274Z" fill="white" stroke="black"/>
<path d="M48.0527 82.5387L35.8451 99.2493L35.7527 99.7982L48.3274 82.585L48.0527 82.5387ZM53.5464 83.4642L33.9958 110.226L33.9033 110.775L53.821 83.5105L53.5464 83.4642ZM56.2932 83.927L33.0711 115.715L32.8862 116.813L56.8425 84.0195L56.2932 83.927ZM59.04 84.3897L32.1465 121.203L31.8691 122.85L59.864 84.5285L59.04 84.3897ZM61.7868 84.8525L31.2218 126.692L30.8519 128.887L62.8855 85.0376L61.7868 84.8525ZM64.5336 85.3152L30.2972 132.18L29.8348 134.925L65.907 85.5466L64.5336 85.3152ZM72.774 86.7035L27.5232 148.646L27.4307 149.195L73.0487 86.7498L72.774 86.7035ZM75.5208 87.1663L26.5985 154.135L26.4136 155.232L76.0702 87.2588L75.5208 87.1663ZM78.2676 87.629L25.6738 159.623L25.5814 160.172L78.5423 87.6753L78.2676 87.629ZM86.508 89.0173L22.8999 176.089L22.4375 178.833L87.8815 89.2487L86.508 89.0173ZM89.2549 89.4801L21.9752 181.577L21.6053 183.772L90.3536 89.6652L89.2549 89.4801ZM92.0017 89.9428L21.0505 187.066L20.7731 188.712L92.8257 90.0817L92.0017 89.9428ZM94.7485 90.4056L20.1259 192.554L19.9409 193.652L95.2978 90.4981L94.7485 90.4056ZM97.4953 90.8684L19.2012 198.043L19.1088 198.591L97.77 90.9146L97.4953 90.8684ZM102.989 91.7939L17.3519 209.02L17.2594 209.569L103.264 91.8401L102.989 91.7939ZM105.736 92.2566L16.4272 214.508L16.2423 215.606L106.285 92.3492L105.736 92.2566ZM108.483 92.7194L15.5026 219.997L15.3841 220.7C15.3352 220.99 15.301 221.277 15.2825 221.565L109.307 92.8582L108.483 92.7194ZM111.229 93.1822L15.5302 224.182C15.633 224.578 15.7693 224.96 15.9276 225.333L112.328 93.3673L111.229 93.1822ZM113.976 93.6449L16.7166 226.78C16.9603 227.137 17.2298 227.474 17.5264 227.79L115.35 93.8763L113.976 93.6449ZM122.217 95.0332L23.2705 230.477L23.5452 230.524L122.491 95.0795L122.217 95.0332ZM124.963 95.496L26.0173 230.94L26.5666 231.033L125.513 95.5885L124.963 95.496ZM127.71 95.9587L28.7641 231.403L29.0388 231.449L127.985 96.005L127.71 95.9587ZM45.785 82.2713C45.5713 82.2701 45.3574 82.2723 45.1468 82.2872L36.7698 93.7608L36.5848 94.8585L45.785 82.2713ZM42.5356 82.9056C41.9949 83.1317 41.4778 83.417 40.9988 83.7491L37.7963 88.1395C37.6889 88.4889 37.598 88.845 37.5355 89.2156L37.417 89.9188L42.5356 82.9056ZM134.506 99.3173L37.0045 232.791L38.3779 233.023L135.236 100.437C135.021 100.046 134.781 99.6688 134.506 99.3173ZM135.91 102.041L40.026 233.3L41.1247 233.485L136.193 103.35C136.134 102.903 136.038 102.465 135.91 102.041ZM136.027 106.532L43.0475 233.809L43.8715 233.948L135.75 108.178L136.027 106.532ZM135.01 112.569L46.069 234.318L46.6183 234.411L134.825 113.667L135.01 112.569ZM133.993 118.607L49.0905 234.827L49.3651 234.874L133.901 119.156L133.993 118.607ZM132.144 129.584L54.5841 235.753L54.8588 235.799L132.051 130.133L132.144 129.584ZM131.312 134.523L57.0562 236.169L57.6056 236.262L131.127 135.621L131.312 134.523ZM130.479 139.463L59.5283 236.586L60.3524 236.725L130.202 141.11L130.479 139.463ZM129.647 144.403L62.0004 237.002L63.0992 237.187L129.277 146.598L129.647 144.403ZM128.815 149.342L64.4726 237.419L65.846 237.65L128.353 152.087L128.815 149.342ZM126.041 165.808L72.713 238.807L72.9877 238.853L125.949 166.357L126.041 165.808ZM125.209 170.748L75.1851 239.224L75.7345 239.316L125.024 171.845L125.209 170.748ZM124.192 176.785L78.2066 239.733L78.4813 239.779L124.099 177.334L124.192 176.785ZM121.418 193.25L86.447 241.121L87.8204 241.352L120.955 195.995L121.418 193.25ZM120.401 199.288L89.4685 241.63L90.5672 241.815L120.031 201.483L120.401 199.288ZM119.384 205.325L92.49 242.139L93.314 242.278L119.106 206.972L119.384 205.325ZM118.366 211.363L95.5115 242.648L96.0609 242.741L118.181 212.46L118.366 211.363ZM117.349 217.4L98.533 243.157L98.8077 243.203L117.257 217.949L117.349 217.4ZM115.5 228.377L104.027 244.083L104.301 244.129L115.407 228.926L115.5 228.377ZM114.668 233.317L106.715 244.209C106.947 244.183 107.177 244.149 107.404 244.105L114.483 234.414L114.668 233.317ZM113.734 238.389L110.531 242.78C112.024 241.744 113.172 240.219 113.734 238.389Z" fill="#8267AD"/>
<path d="M48.4648 82.6081L97.5716 242.995L97.8463 243.041L48.7395 82.6544L48.4648 82.6081ZM50.9369 83.0246L100.044 243.412L100.593 243.504L51.4863 83.1171L50.9369 83.0246ZM53.9584 83.5336L103.065 243.921L103.34 243.967L54.2331 83.5799L53.9584 83.5336ZM61.1001 84.7368L109.647 243.31C110.031 243.109 110.396 242.879 110.743 242.621L62.4735 84.9682L61.1001 84.7368ZM64.1216 85.2458L111.963 241.513C112.235 241.212 112.489 240.895 112.716 240.555L65.2203 85.4309L64.1216 85.2458ZM67.1431 85.7549L113.807 238.163C113.884 237.886 113.946 237.603 113.994 237.313L114.113 236.61L67.9671 85.8937L67.1431 85.7549ZM70.1645 86.2639L114.853 232.219L115.038 231.121L70.7139 86.3564L70.1645 86.2639ZM73.186 86.7729L115.87 226.182L115.962 225.633L73.4607 86.8192L73.186 86.7729ZM78.6796 87.6984L117.719 215.205L117.812 214.656L78.9543 87.7447L78.6796 87.6984ZM81.1518 88.1149L118.551 210.265L118.736 209.167L81.7011 88.2075L81.1518 88.1149ZM83.6239 88.5314L119.384 205.325L119.661 203.679L84.4479 88.6702L83.6239 88.5314ZM86.096 88.9479L120.216 200.386L120.586 198.19L87.1947 89.133L86.096 88.9479ZM88.5682 89.3644L121.048 195.446L121.51 192.702L89.9416 89.5958L88.5682 89.3644ZM97.9073 90.9378L124.192 176.785L124.284 176.236L98.182 90.984L97.9073 90.9378ZM100.379 91.3543L125.024 171.845L125.209 170.748L100.929 91.4468L100.379 91.3543ZM103.401 91.8633L126.041 165.808L126.134 165.259L103.676 91.9096L103.401 91.8633ZM110.543 93.0665L128.445 151.538L128.908 148.794L111.916 93.2978L110.543 93.0665ZM113.564 93.5755L129.462 145.5L129.832 143.305L114.663 93.7606L113.564 93.5755ZM116.586 94.0845L130.479 139.463L130.757 137.816L117.41 94.2234L116.586 94.0845ZM119.607 94.5936L131.497 133.426L131.681 132.328L120.156 94.6861L119.607 94.5936ZM122.629 95.1026L132.514 127.388L132.606 126.839L122.903 95.1489L122.629 95.1026ZM128.122 96.0281L134.363 116.411L134.455 115.862L128.397 96.0744L128.122 96.0281ZM130.627 96.5648L135.195 111.472L135.38 110.374L131.225 96.789C131.031 96.7058 130.829 96.6337 130.627 96.5648ZM133.489 98.2288L136.027 106.532L136.146 105.829C136.208 105.458 136.239 105.092 136.252 104.727L134.665 99.5292C134.321 99.0584 133.926 98.6195 133.489 98.2288ZM41.2179 83.6008C40.8437 83.8431 40.4931 84.1203 40.162 84.4195L88.2325 241.422L89.6059 241.653L41.2179 83.6008ZM38.9993 85.7141C38.7396 86.0733 38.505 86.4554 38.3035 86.858L85.4856 240.959L86.5844 241.144L38.9993 85.7141ZM37.417 89.9188L37.1396 91.5654L82.7388 240.496L83.5629 240.635L37.417 89.9188ZM36.3999 95.9562L36.215 97.0539L79.992 240.033L80.5414 240.126L36.3999 95.9562ZM35.3828 101.994L35.2903 102.542L77.2452 239.571L77.5199 239.617L35.3828 101.994ZM33.5335 112.971L33.441 113.519L71.7516 238.645L72.0263 238.691L33.5335 112.971ZM32.7013 117.91L32.5163 119.008L69.0048 238.182L69.5542 238.275L32.7013 117.91ZM31.8691 122.85L31.5917 124.497L66.258 237.72L67.082 237.858L31.8691 122.85ZM31.0369 127.79L30.667 129.985L63.5112 237.257L64.6099 237.442L31.0369 127.79ZM30.2047 132.729L29.7424 135.474L60.7644 236.794L62.1378 237.025L30.2047 132.729ZM27.4307 149.195L27.3382 149.744L53.6227 235.591L53.8974 235.637L27.4307 149.195ZM26.5985 154.135L26.4136 155.232L50.8759 235.128L51.4252 235.221L26.5985 154.135ZM25.5814 160.172L25.4889 160.721L48.1291 234.665L48.4038 234.712L25.5814 160.172ZM22.8074 176.637L22.3451 179.382L38.7899 233.092L40.1633 233.323L22.8074 176.637ZM21.7903 182.675L21.4204 184.87L36.0431 232.629L37.1418 232.814L21.7903 182.675ZM20.7731 188.712L20.4957 190.359L33.2963 232.166L34.1204 232.305L20.7731 188.712ZM19.756 194.75L19.5711 195.847L30.5495 231.704L31.0989 231.796L19.756 194.75ZM18.7389 200.787L18.6464 201.336L27.8027 231.241L28.0774 231.287L18.7389 200.787ZM16.8896 211.764L16.7971 212.313L22.3091 230.315L22.5838 230.362L16.8896 211.764ZM16.0574 216.704L15.8724 217.801L19.3858 229.276C19.5851 229.393 19.7916 229.5 20.002 229.6L16.0574 216.704ZM15.2779 221.802C15.2094 223.715 15.7936 225.532 16.8651 226.999L15.2779 221.802Z" fill="#AA0000"/>
</g>
<path d="M161.636 88.188L78.339 90.0659C73.7335 90.1697 70.0841 93.9839 70.1878 98.5851L73.1931 231.885C73.2968 236.486 77.1144 240.132 81.7199 240.028L165.017 238.15C169.622 238.046 173.271 234.232 173.168 229.631L170.162 96.3312C170.059 91.73 166.241 88.0841 161.636 88.188Z" fill="white" stroke="black"/>
<path d="M79.2595 90.0452L70.4171 108.756L70.4297 109.312L79.538 90.0389L79.2595 90.0452ZM84.8291 89.9196L70.668 119.885L70.6806 120.441L85.1076 89.9133L84.8291 89.9196ZM87.6139 89.8568L70.7935 125.449L70.8186 126.562L88.1709 89.8442L87.6139 89.8568ZM90.3987 89.794L70.9189 131.013L70.9566 132.683L91.2342 89.7752L90.3987 89.794ZM93.1835 89.7312L71.0444 136.578L71.0946 138.804L94.2974 89.7061L93.1835 89.7312ZM95.9683 89.6684L71.1698 142.142L71.2326 144.925L97.3607 89.6371L95.9683 89.6684ZM104.323 89.4801L71.5462 158.836L71.5587 159.392L104.601 89.4738L104.323 89.4801ZM107.108 89.4173L71.6716 164.4L71.6967 165.513L107.665 89.4048L107.108 89.4173ZM109.892 89.3545L71.7971 169.965L71.8096 170.521L110.171 89.3483L109.892 89.3545ZM118.247 89.1662L72.1734 186.658L72.2362 189.44L119.639 89.1348L118.247 89.1662ZM121.032 89.1034L72.2989 192.222L72.3491 194.448L122.146 89.0783L121.032 89.1034ZM123.816 89.0406L72.4243 197.787L72.462 199.456L124.652 89.0218L123.816 89.0406ZM126.601 88.9778L72.5498 203.351L72.5749 204.464L127.158 88.9653L126.601 88.9778ZM129.386 88.915L72.6752 208.916L72.6878 209.472L129.665 88.9088L129.386 88.915ZM134.956 88.7895L72.9261 220.045L72.9387 220.601L135.234 88.7832L134.956 88.7895ZM137.74 88.7267L73.0516 225.609L73.0767 226.722L138.297 88.7141L137.74 88.7267ZM140.525 88.6639L73.177 231.174L73.1931 231.887C73.1998 232.181 73.2202 232.469 73.2562 232.755L141.361 88.6451L140.525 88.6639ZM143.31 88.6011L73.9923 235.278C74.1678 235.648 74.3737 235.998 74.5994 236.335L144.424 88.576L143.31 88.6011ZM146.095 88.5383L75.6468 237.607C75.9534 237.912 76.2815 238.192 76.6322 238.446L147.487 88.5069L146.095 88.5383ZM154.449 88.35L82.7796 240.004L83.0581 239.998L154.728 88.3437L154.449 88.35ZM157.234 88.2872L85.5644 239.941L86.1214 239.929L157.791 88.2747L157.234 88.2872ZM160.019 88.2244L88.3492 239.878L88.6277 239.872L160.297 88.2181L160.019 88.2244ZM76.982 90.2096C76.7719 90.2487 76.5622 90.2911 76.3581 90.3454L70.2917 103.191L70.3168 104.304L76.982 90.2096ZM73.9101 91.4445C73.4217 91.7683 72.9676 92.1459 72.5596 92.5623L70.2412 97.4772C70.2016 97.8406 70.1793 98.2074 70.1878 98.5832L70.2039 99.2961L73.9101 91.4445ZM167.326 90.2431L96.7037 239.69L98.0961 239.659L168.253 91.2052C167.969 90.8614 167.661 90.5367 167.326 90.2431ZM169.218 92.6535L99.767 239.621L100.881 239.596L169.742 93.8857C169.6 93.4582 169.423 93.0464 169.218 92.6535ZM170.178 97.0422L102.83 239.552L103.666 239.533L170.216 98.7115L170.178 97.0422ZM170.316 103.163L105.894 239.483L106.45 239.47L170.342 104.276L170.316 103.163ZM170.454 109.284L108.957 239.414L109.235 239.407L170.467 109.84L170.454 109.284ZM170.705 120.413L114.526 239.288L114.805 239.282L170.718 120.969L170.705 120.413ZM170.818 125.421L117.033 239.232L117.59 239.219L170.843 126.534L170.818 125.421ZM170.931 130.429L119.539 239.175L120.375 239.156L170.969 132.098L170.931 130.429ZM171.044 135.437L122.045 239.119L123.159 239.094L171.094 137.663L171.044 135.437ZM171.157 140.445L124.552 239.062L125.944 239.031L171.22 143.227L171.157 140.445ZM171.533 157.138L132.906 238.874L133.185 238.868L171.546 157.695L171.533 157.138ZM171.646 162.146L135.412 238.817L135.969 238.805L171.671 163.259L171.646 162.146ZM171.784 168.267L138.476 238.748L138.754 238.742L171.797 168.824L171.784 168.267ZM172.161 184.96L146.83 238.56L148.223 238.528L172.223 187.743L172.161 184.96ZM172.299 191.081L149.893 238.491L151.007 238.466L172.349 193.307L172.299 191.081ZM172.437 197.202L152.957 238.422L153.792 238.403L172.474 198.872L172.437 197.202ZM172.575 203.323L156.02 238.353L156.577 238.34L172.6 204.436L172.575 203.323ZM172.713 209.444L159.083 238.284L159.362 238.277L172.725 210.001L172.713 209.444ZM172.963 220.573L164.653 238.158L164.931 238.152L172.976 221.129L172.963 220.573ZM173.076 225.581L167.317 237.776C167.54 237.707 167.76 237.63 167.974 237.544L173.101 226.694L173.076 225.581ZM173.114 230.739L170.796 235.653C172.067 234.356 172.907 232.641 173.114 230.739Z" fill="#8267AD"/>
<path d="M79.6772 90.0357L158.109 238.306L158.387 238.299L79.9557 90.0295L79.6772 90.0357ZM82.1835 89.9792L160.615 238.249L161.172 238.237L82.7405 89.9667L82.1835 89.9792ZM85.2468 89.9102L163.678 238.18L163.957 238.174L85.5253 89.9039L85.2468 89.9102ZM92.4873 89.7469L170.028 236.341C170.367 236.071 170.682 235.776 170.974 235.458L93.8797 89.7155L92.4873 89.7469ZM95.5506 89.6779L171.963 234.14C172.174 233.793 172.364 233.434 172.522 233.057L96.6645 89.6528L95.5506 89.6779ZM98.6139 89.6088L173.144 230.503C173.167 230.216 173.174 229.927 173.168 229.633L173.152 228.92L99.4493 89.59L98.6139 89.6088ZM101.677 89.5397L173.051 224.468L173.026 223.355L102.234 89.5272L101.677 89.5397ZM104.74 89.4707L172.913 218.347L172.901 217.791L105.019 89.4644L104.74 89.4707ZM110.31 89.3451L172.662 207.218L172.65 206.662L110.589 89.3388L110.31 89.3451ZM112.816 89.2886L172.549 202.21L172.524 201.097L113.373 89.2761L112.816 89.2886ZM115.323 89.2321L172.437 197.202L172.399 195.533L116.158 89.2133L115.323 89.2321ZM117.829 89.1756L172.324 192.194L172.273 189.968L118.943 89.1505L117.829 89.1756ZM120.335 89.1191L172.211 187.186L172.148 184.404L121.728 89.0877L120.335 89.1191ZM129.804 88.9056L171.784 168.267L171.772 167.711L130.082 88.8993L129.804 88.9056ZM132.31 88.8491L171.671 163.259L171.646 162.146L132.867 88.8366L132.31 88.8491ZM135.373 88.7801L171.533 157.138L171.521 156.582L135.652 88.7738L135.373 88.7801ZM142.614 88.6168L171.207 142.671L171.144 139.888L144.006 88.5854L142.614 88.6168ZM145.677 88.5478L171.069 136.55L171.019 134.324L146.791 88.5226L145.677 88.5478ZM148.74 88.4787L170.931 130.429L170.894 128.76L149.576 88.4599L148.74 88.4787ZM151.804 88.4096L170.793 124.308L170.768 123.195L152.361 88.3971L151.804 88.4096ZM154.867 88.3406L170.655 118.187L170.643 117.631L155.145 88.3343L154.867 88.3406ZM160.437 88.215L170.404 107.058L170.392 106.502L160.715 88.2087L160.437 88.215ZM162.998 88.2704L170.291 102.05L170.266 100.937L163.627 88.3779C163.421 88.3329 163.209 88.2999 162.998 88.2704ZM166.122 89.3656L170.178 97.0422L170.162 96.3293C170.154 95.9535 170.115 95.5881 170.059 95.2268L167.522 90.4214C167.095 90.0238 166.625 89.6671 166.122 89.3656ZM72.747 92.3754C72.4251 92.6838 72.1329 93.022 71.8641 93.3783L148.64 238.519L150.033 238.488L72.747 92.3754ZM70.966 94.8686C70.7786 95.2703 70.6202 95.6898 70.498 96.1231L145.856 238.582L146.969 238.557L70.966 94.8686ZM70.2039 99.2961L70.2415 100.965L143.071 238.645L143.906 238.626L70.2039 99.2961ZM70.3419 105.417L70.3669 106.53L140.286 238.707L140.843 238.695L70.3419 105.417ZM70.4798 111.538L70.4924 112.094L137.501 238.77L137.78 238.764L70.4798 111.538ZM70.7308 122.667L70.7433 123.223L131.931 238.896L132.21 238.889L70.7308 122.667ZM70.8437 127.675L70.8687 128.788L129.147 238.959L129.704 238.946L70.8437 127.675ZM70.9566 132.683L70.9942 134.352L126.362 239.021L127.197 239.003L70.9566 132.683ZM71.0695 137.691L71.1196 139.917L123.577 239.084L124.691 239.059L71.0695 137.691ZM71.1824 142.699L71.2451 145.481L120.792 239.147L122.185 239.116L71.1824 142.699ZM71.5587 159.392L71.5713 159.949L113.552 239.31L113.83 239.304L71.5587 159.392ZM71.6716 164.4L71.6967 165.513L110.767 239.373L111.324 239.36L71.6716 164.4ZM71.8096 170.521L71.8222 171.078L107.982 239.436L108.261 239.429L71.8096 170.521ZM72.186 187.214L72.2487 189.997L98.5138 239.649L99.9062 239.618L72.186 187.214ZM72.324 193.335L72.3742 195.561L95.729 239.712L96.8429 239.687L72.324 193.335ZM72.462 199.456L72.4996 201.126L92.9442 239.775L93.7796 239.756L72.462 199.456ZM72.6 205.577L72.6251 206.69L90.1594 239.838L90.7163 239.825L72.6 205.577ZM72.738 211.698L72.7505 212.254L87.3746 239.9L87.653 239.894L72.738 211.698ZM72.9889 222.827L73.0014 223.383L81.8049 240.026L82.0834 240.02L72.9889 222.827ZM73.1018 227.835L73.1269 228.948L78.7382 239.556C78.9559 239.633 79.1789 239.699 79.4045 239.758L73.1018 227.835ZM73.2963 232.989C73.5893 234.88 74.5052 236.555 75.8339 237.794L73.2963 232.989Z" fill="#AA0000"/>
<g filter="url(#filter2_d_709_5318)">
<path d="M173.757 22.8545L91.5402 9.35178C86.9945 8.60521 82.7048 11.6816 81.9589 16.2232L60.3505 147.794C59.6047 152.335 62.6851 156.622 67.2308 157.369L149.447 170.872C153.993 171.618 158.283 168.542 159.029 164L180.637 32.4294C181.383 27.8879 178.302 23.6011 173.757 22.8545Z" fill="white" stroke="black"/>
<path d="M92.4488 9.501L80.3102 26.2618L80.22 26.8111L92.7237 9.54614L92.4488 9.501ZM97.9462 10.4039L78.5062 37.2464L78.416 37.7956L98.2211 10.449L97.9462 10.4039ZM100.695 10.8553L77.6041 42.7387L77.4237 43.8372L101.245 10.9456L100.695 10.8553ZM103.444 11.3067L76.7021 48.231L76.4315 49.8787L104.268 11.4421L103.444 11.3067ZM106.192 11.7581L75.8001 53.7233L75.4393 55.9202L107.292 11.9387L106.192 11.7581ZM108.941 12.2096L74.8981 59.2156L74.4471 61.9617L110.315 12.4353L108.941 12.2096ZM117.187 13.5639L72.192 75.6924L72.1018 76.2416L117.462 13.609L117.187 13.5639ZM119.936 14.0153L71.29 81.1847L71.1096 82.2831L120.485 14.1056L119.936 14.0153ZM122.684 14.4667L70.388 86.677L70.2978 87.2262L122.959 14.5119L122.684 14.4667ZM130.931 15.821L67.6819 103.154L67.2309 105.9L132.305 16.0467L130.931 15.821ZM133.679 16.2724L66.7799 108.646L66.4191 110.843L134.779 16.453L133.679 16.2724ZM136.428 16.7239L65.8779 114.138L65.6073 115.786L137.252 16.8593L136.428 16.7239ZM139.177 17.1753L64.9759 119.631L64.7955 120.729L139.726 17.2656L139.177 17.1753ZM141.925 17.6267L64.0739 125.123L63.9837 125.672L142.2 17.6719L141.925 17.6267ZM147.423 18.5296L62.2698 136.108L62.1796 136.657L147.698 18.5747L147.423 18.5296ZM150.171 18.981L61.3678 141.6L61.1874 142.698L150.721 19.0713L150.171 18.981ZM152.92 19.4324L60.4658 147.092L60.3502 147.796C60.3025 148.086 60.2695 148.374 60.2522 148.661L153.745 19.5678L152.92 19.4324ZM155.669 19.8838L60.5107 151.277C60.6151 151.673 60.753 152.055 60.9128 152.427L156.768 20.0644L155.669 19.8838ZM158.417 20.3353L61.7078 153.871C61.953 154.227 62.2238 154.563 62.5217 154.877L159.792 20.561L158.417 20.3353ZM166.664 21.6896L68.2768 157.541L68.5517 157.586L166.938 21.7347L166.664 21.6896ZM169.412 22.141L71.0255 157.992L71.5753 158.082L169.962 22.2313L169.412 22.141ZM172.161 22.5924L73.7742 158.443L74.0491 158.489L172.436 22.6376L172.161 22.5924ZM90.18 9.24295C89.9663 9.24265 89.7524 9.24571 89.5418 9.26153L81.2122 20.7696L81.0318 21.868L90.18 9.24295ZM86.9332 9.89069C86.3935 10.119 85.8776 10.4064 85.3999 10.7405L82.2155 15.1441C82.1096 15.4939 82.0201 15.8504 81.9592 16.2213L81.8436 16.925L86.9332 9.89069ZM178.971 25.923L82.0203 159.798L83.3946 160.023L179.705 27.0394C179.489 26.6491 179.247 26.2733 178.971 25.923ZM180.386 28.6407L85.0439 160.294L86.1433 160.475L180.674 29.9483C180.614 29.5021 180.515 29.0646 180.386 28.6407ZM180.522 33.1312L88.0674 160.791L88.892 160.926L180.251 34.7789L180.522 33.1312ZM179.529 39.1727L91.091 161.287L91.6407 161.378L179.349 40.2712L179.529 39.1727ZM178.537 45.2143L94.1145 161.784L94.3894 161.829L178.447 45.7635L178.537 45.2143ZM176.733 56.1988L99.6119 162.687L99.8868 162.732L176.643 56.7481L176.733 56.1988ZM175.921 61.1419L102.086 163.093L102.635 163.183L175.741 62.2403L175.921 61.1419ZM175.11 66.0849L104.56 163.499L105.384 163.635L174.839 67.7326L175.11 66.0849ZM174.298 71.028L107.033 163.906L108.133 164.086L173.937 73.2249L174.298 71.028ZM173.486 75.9711L109.507 164.312L110.882 164.538L173.035 78.7172L173.486 75.9711ZM170.78 92.4479L117.753 165.666L118.028 165.711L170.69 92.9971L170.78 92.4479ZM169.968 97.391L120.227 166.073L120.777 166.163L169.788 98.4894L169.968 97.391ZM168.976 103.432L123.251 166.569L123.526 166.614L168.886 103.982L168.976 103.432ZM166.27 119.909L131.497 167.923L132.871 168.149L165.819 122.655L166.27 119.909ZM165.278 125.951L134.52 168.42L135.62 168.601L164.917 128.148L165.278 125.951ZM164.285 131.992L137.544 168.917L138.368 169.052L164.015 133.64L164.285 131.992ZM163.293 138.034L140.567 169.413L141.117 169.503L163.113 139.132L163.293 138.034ZM162.301 144.075L143.591 169.91L143.866 169.955L162.211 144.625L162.301 144.075ZM160.497 155.06L149.088 170.813L149.363 170.858L160.407 155.609L160.497 155.06ZM159.685 160.003L151.778 170.928C152.009 170.901 152.239 170.867 152.466 170.821L159.505 161.101L159.685 160.003ZM158.772 165.079L155.588 169.483C157.076 168.441 158.218 166.911 158.772 165.079Z" fill="#8267AD"/>
<path d="M92.8611 9.56871L142.629 169.752L142.904 169.797L93.136 9.61386L92.8611 9.56871ZM95.3349 9.975L145.103 170.158L145.653 170.248L95.8847 10.0653L95.3349 9.975ZM98.3585 10.4716L148.126 170.655L148.401 170.7L98.6334 10.5167L98.3585 10.4716ZM105.505 11.6453L154.706 170.017C155.089 169.814 155.453 169.582 155.799 169.324L106.879 11.871L105.505 11.6453ZM108.529 12.1419L157.014 168.21C157.285 167.908 157.537 167.59 157.763 167.249L109.628 12.3224L108.529 12.1419ZM111.552 12.6384L158.844 164.853C158.92 164.575 158.981 164.293 159.028 164.002L159.144 163.298L112.377 12.7739L111.552 12.6384ZM114.576 13.135L159.865 158.905L160.046 157.806L115.126 13.2253L114.576 13.135ZM117.599 13.6316L160.858 152.863L160.948 152.314L117.874 13.6767L117.599 13.6316ZM123.097 14.5344L162.662 141.878L162.752 141.329L123.372 14.5796L123.097 14.5344ZM125.571 14.9407L163.474 136.935L163.654 135.837L126.12 15.031L125.571 14.9407ZM128.044 15.347L164.285 131.992L164.556 130.345L128.869 15.4824L128.044 15.347ZM130.518 15.7533L165.097 127.049L165.458 124.852L131.618 15.9339L130.518 15.7533ZM132.992 16.1596L165.909 122.106L166.36 119.36L134.366 16.3853L132.992 16.1596ZM142.338 17.6944L168.976 103.432L169.066 102.883L142.612 17.7396L142.338 17.6944ZM144.811 18.1007L169.788 98.4894L169.968 97.391L145.361 18.191L144.811 18.1007ZM147.835 18.5973L170.78 92.4479L170.87 91.8987L148.11 18.6424L147.835 18.5973ZM154.982 19.771L173.125 78.168L173.576 75.4218L156.356 19.9967L154.982 19.771ZM158.005 20.2676L174.117 72.1265L174.478 69.9295L159.105 20.4481L158.005 20.2676ZM161.029 20.7641L175.11 66.0849L175.38 64.4373L161.853 20.8996L161.029 20.7641ZM164.052 21.2607L176.102 60.0434L176.282 58.945L164.602 21.351L164.052 21.2607ZM167.076 21.7573L177.094 54.0019L177.184 53.4527L167.351 21.8024L167.076 21.7573ZM172.573 22.6601L178.898 43.0173L178.988 42.4681L172.848 22.7053L172.573 22.6601ZM175.08 23.1864L179.71 38.0743L179.89 36.9758L175.679 23.4082C175.485 23.3258 175.283 23.2545 175.08 23.1864ZM177.949 24.8386L180.522 33.1312L180.637 32.4275C180.698 32.0567 180.727 31.6903 180.739 31.325L179.13 26.1342C178.785 25.6649 178.388 25.2276 177.949 24.8386ZM85.6185 10.5913C85.2452 10.8351 84.8957 11.1137 84.5659 11.4143L133.283 168.217L134.658 168.443L85.6185 10.5913ZM83.4086 12.7137C83.1503 13.074 82.9173 13.457 82.7174 13.8605L130.535 167.765L131.634 167.946L83.4086 12.7137ZM81.8436 16.925L81.573 18.5726L127.786 167.314L128.611 167.449L81.8436 16.925ZM80.8514 22.9665L80.671 24.0649L125.037 166.863L125.587 166.953L80.8514 22.9665ZM79.8592 29.008L79.769 29.5572L122.289 166.411L122.564 166.456L79.8592 29.008ZM78.0552 39.9926L77.965 40.5418L116.791 165.508L117.066 165.553L78.0552 39.9926ZM77.2433 44.9356L77.0629 46.0341L114.043 165.057L114.592 165.147L77.2433 44.9356ZM76.4315 49.8787L76.1609 51.5264L111.294 164.605L112.118 164.741L76.4315 49.8787ZM75.6197 54.8217L75.2589 57.0186L108.545 164.154L109.645 164.335L75.6197 54.8217ZM74.8079 59.7648L74.3569 62.5109L105.796 163.703L107.171 163.928L74.8079 59.7648ZM72.1018 76.2416L72.0116 76.7909L98.6499 162.529L98.9248 162.574L72.1018 76.2416ZM71.29 81.1847L71.1096 82.2831L95.9012 162.077L96.4509 162.168L71.29 81.1847ZM70.2978 87.2262L70.2076 87.7754L93.1525 161.626L93.4274 161.671L70.2978 87.2262ZM67.5917 103.703L67.1407 106.449L83.807 160.091L85.1813 160.317L67.5917 103.703ZM66.5995 109.745L66.2387 111.941L81.0583 159.64L82.1577 159.82L66.5995 109.745ZM65.6073 115.786L65.3367 117.434L78.3096 159.188L79.1342 159.324L65.6073 115.786ZM64.6151 121.828L64.4347 122.926L75.5609 158.737L76.1106 158.827L64.6151 121.828ZM63.6229 127.869L63.5327 128.418L72.8122 158.285L73.0871 158.331L63.6229 127.869ZM61.8188 138.854L61.7286 139.403L67.3148 157.383L67.5897 157.428L61.8188 138.854ZM61.007 143.797L60.8266 144.895L64.3872 156.355C64.5871 156.471 64.7939 156.578 65.0048 156.677L61.007 143.797ZM60.2485 148.898C60.1879 150.811 60.7796 152.626 61.8572 154.089L60.2485 148.898Z" fill="#AA0000"/>
</g>
<g filter="url(#filter3_d_709_5318)">
<path d="M127.748 10.0622L47.0158 30.6596C42.5521 31.7985 39.856 36.3368 40.9938 40.7964L73.9558 169.991C75.0935 174.451 79.6344 177.143 84.0981 176.004L164.83 155.406C169.293 154.267 171.99 149.729 170.852 145.27L137.89 16.0748C136.752 11.6153 132.211 8.92338 127.748 10.0622Z" fill="white" stroke="black"/>
<path d="M47.908 30.432L43.5087 50.6537L43.6463 51.1931L48.1779 30.3632L47.908 30.432ZM53.3061 29.0548L46.2606 61.4399L46.3982 61.9793L53.576 28.9859L53.3061 29.0548ZM56.0051 28.3661L47.6366 66.8331L47.9118 67.9117L56.545 28.2284L56.0051 28.3661ZM58.7042 27.6775L49.0126 72.2262L49.4254 73.8441L59.5139 27.4709L58.7042 27.6775ZM61.4033 26.9889L50.3885 77.6193L50.9389 79.7765L62.4829 26.7135L61.4033 26.9889ZM64.1023 26.3003L51.7645 83.0124L52.4525 85.7089L65.4518 25.956L64.1023 26.3003ZM72.1995 24.2344L55.8924 99.1917L56.03 99.731L72.4694 24.1656L72.1995 24.2344ZM74.8985 23.5458L57.2684 104.585L57.5436 105.663L75.4383 23.4081L74.8985 23.5458ZM77.5976 22.8572L58.6443 109.978L58.7819 110.517L77.8675 22.7883L77.5976 22.8572ZM85.6947 20.7913L62.7722 126.157L63.4602 128.854L87.0443 20.447L85.6947 20.7913ZM88.3938 20.1027L64.1482 131.55L64.6986 133.708L89.4734 19.8272L88.3938 20.1027ZM91.0929 19.4141L65.5242 136.943L65.9369 138.561L91.9026 19.2075L91.0929 19.4141ZM93.7919 18.7255L66.9001 142.336L67.1753 143.415L94.3317 18.5877L93.7919 18.7255ZM96.491 18.0368L68.2761 147.73L68.4137 148.269L96.7609 17.968L96.491 18.0368ZM101.889 16.6596L71.028 158.516L71.1656 159.055L102.159 16.5907L101.889 16.6596ZM104.588 15.971L72.404 163.909L72.6792 164.987L105.128 15.8332L104.588 15.971ZM107.287 15.2823L73.7799 169.302L73.9562 169.993C74.029 170.278 74.114 170.555 74.2134 170.825L108.097 15.0758L107.287 15.2823ZM109.986 14.5937L75.4991 173.118C75.7533 173.438 76.0329 173.733 76.3286 174.01L111.066 14.3183L109.986 14.5937ZM112.685 13.9051L77.6358 175.014C78.0031 175.241 78.386 175.441 78.7849 175.609L114.035 13.5608L112.685 13.9051ZM120.782 11.8392L85.1252 175.742L85.3951 175.673L121.052 11.7704L120.782 11.8392ZM123.482 11.1506L87.8243 175.053L88.3641 174.915L124.021 11.0129L123.482 11.1506ZM126.181 10.462L90.5233 174.364L90.7932 174.296L126.45 10.3931L126.181 10.462ZM45.7261 31.1054C45.5302 31.1908 45.3354 31.2794 45.1489 31.3783L42.1327 45.2606L42.4079 46.3393L45.7261 31.1054ZM43.0115 33.0006C42.6085 33.4262 42.2512 33.8964 41.9476 34.394L40.7961 39.7049C40.8394 40.0679 40.9004 40.4303 40.9933 40.7945L41.1696 41.4855L43.0115 33.0006ZM133.755 10.7824L98.6205 172.299L99.97 171.954L134.875 11.5108C134.52 11.24 134.148 10.9928 133.755 10.7824ZM136.141 12.7047L101.589 171.541L102.669 171.266L136.929 13.787C136.695 13.4025 136.429 13.0411 136.141 12.7047ZM138.066 16.764L104.558 170.784L105.368 170.577L138.478 18.3819L138.066 16.764ZM139.579 22.6964L107.527 170.026L108.067 169.888L139.854 23.775L139.579 22.6964ZM141.093 28.6288L110.496 169.269L110.766 169.2L141.23 29.1681L141.093 28.6288ZM143.845 39.415L115.894 167.891L116.164 167.823L143.982 39.9543L143.845 39.415ZM145.083 44.2688L118.324 167.272L118.863 167.134L145.358 45.3474L145.083 44.2688ZM146.321 49.1226L120.753 166.652L121.562 166.445L146.734 50.7405L146.321 49.1226ZM147.56 53.9764L123.182 166.032L124.261 165.757L148.11 56.1336L147.56 53.9764ZM148.798 58.8302L125.611 165.412L126.961 165.068L149.486 61.5267L148.798 58.8302ZM152.926 75.0095L133.708 163.346L133.978 163.278L153.064 75.5488L152.926 75.0095ZM154.164 79.8633L136.137 162.727L136.677 162.589L154.44 80.9419L154.164 79.8633ZM155.678 85.7957L139.106 161.969L139.376 161.9L155.816 86.335L155.678 85.7957ZM159.806 101.975L147.203 159.903L148.553 159.559L160.494 104.672L159.806 101.975ZM161.319 107.907L150.172 159.146L151.252 158.87L161.87 110.065L161.319 107.907ZM162.833 113.84L153.141 158.388L153.951 158.182L163.246 115.458L162.833 113.84ZM164.347 119.772L156.11 157.631L156.65 157.493L164.622 120.851L164.347 119.772ZM165.86 125.705L159.079 156.873L159.349 156.805L165.998 126.244L165.86 125.705ZM168.612 136.491L164.477 155.496L164.747 155.427L168.75 137.03L168.612 136.491ZM169.85 141.345L166.987 154.524C167.189 154.406 167.386 154.282 167.575 154.15L170.126 142.423L169.85 141.345ZM171.049 146.361L169.898 151.672C170.844 150.121 171.276 148.262 171.049 146.361Z" fill="#8267AD"/>
<path d="M48.3128 30.3287L158.135 157.114L158.405 157.046L48.5827 30.2599L48.3128 30.3287ZM50.742 29.709L160.564 156.495L161.104 156.357L51.2818 29.5712L50.742 29.709ZM53.7109 28.9515L163.533 155.737L163.803 155.668L53.9809 28.8826L53.7109 28.9515ZM60.7285 27.1611L169.304 152.514C169.574 152.176 169.815 151.817 170.028 151.441L62.078 26.8168L60.7285 27.1611ZM63.6975 26.4036L170.694 149.934C170.821 149.549 170.925 149.157 170.995 148.753L64.7771 26.1281L63.6975 26.4036ZM66.6664 25.6461L171.025 146.125C170.983 145.84 170.925 145.557 170.852 145.271L170.676 144.58L67.4761 25.4395L66.6664 25.6461ZM69.6354 24.8886L169.575 140.266L169.3 139.187L70.1752 24.7509L69.6354 24.8886ZM72.6043 24.1311L168.062 134.334L167.924 133.794L72.8742 24.0623L72.6043 24.1311ZM78.0024 22.7539L165.31 123.547L165.172 123.008L78.2723 22.685L78.0024 22.7539ZM80.4316 22.1341L164.071 118.694L163.796 117.615L80.9714 21.9964L80.4316 22.1341ZM82.8607 21.5144L162.833 113.84L162.42 112.222L83.6705 21.3078L82.8607 21.5144ZM85.2899 20.8946L161.595 108.986L161.044 106.829L86.3695 20.6192L85.2899 20.8946ZM87.719 20.2748L160.356 104.132L159.668 101.436L89.0686 19.9305L87.719 20.2748ZM96.8958 17.9335L155.678 85.7957L155.54 85.2564L97.1657 17.8647L96.8958 17.9335ZM99.325 17.3138L154.44 80.9419L154.164 79.8633L99.8648 17.1761L99.325 17.3138ZM102.294 16.5563L152.926 75.0095L152.788 74.4702L102.564 16.4874L102.294 16.5563ZM109.311 14.7659L149.349 60.9874L148.661 58.2908L110.661 14.4216L109.311 14.7659ZM112.28 14.0084L147.835 55.055L147.285 52.8977L113.36 13.7329L112.28 14.0084ZM115.249 13.2509L146.321 49.1226L145.909 47.5046L116.059 13.0443L115.249 13.2509ZM118.218 12.4934L144.808 43.1902L144.533 42.1115L118.758 12.3557L118.218 12.4934ZM121.187 11.7359L143.294 37.2578L143.157 36.7184L121.457 11.6671L121.187 11.7359ZM126.585 10.3587L140.542 26.4715L140.405 25.9322L126.855 10.2898L126.585 10.3587ZM129.093 9.83558L139.304 21.6178L139.029 20.5391L129.731 9.79861C129.519 9.80116 129.306 9.8167 129.093 9.83558ZM132.384 10.1987L138.066 16.764L137.889 16.073C137.796 15.7088 137.676 15.3615 137.54 15.0221L133.985 10.912C133.48 10.6207 132.941 10.3792 132.384 10.1987ZM42.088 34.1697C41.8438 34.5427 41.6354 34.9381 41.4537 35.3457L148.958 159.456L150.307 159.111L42.088 34.1697ZM40.9146 37.0001C40.8224 37.4337 40.7626 37.878 40.7412 38.3278L146.259 160.144L147.338 159.869L40.9146 37.0001ZM41.1696 41.4855L41.5824 43.1034L143.56 160.833L144.369 160.626L41.1696 41.4855ZM42.6831 47.4179L42.9583 48.4965L140.861 161.522L141.4 161.384L42.6831 47.4179ZM44.1967 53.3503L44.3343 53.8896L138.162 162.21L138.432 162.141L44.1967 53.3503ZM46.9486 64.1365L47.0862 64.6758L132.764 163.588L133.033 163.519L46.9486 64.1365ZM48.187 68.9903L48.4622 70.0689L130.064 164.276L130.604 164.138L48.187 68.9903ZM49.4254 73.8441L49.8381 75.462L127.365 164.965L128.175 164.758L49.4254 73.8441ZM50.6637 78.6979L51.2141 80.8551L124.666 165.653L125.746 165.378L50.6637 78.6979ZM51.9021 83.5517L52.5901 86.2482L121.967 166.342L123.317 165.998L51.9021 83.5517ZM56.03 99.731L56.1676 100.27L114.95 168.132L115.22 168.064L56.03 99.731ZM57.2684 104.585L57.5436 105.663L112.251 168.821L112.791 168.683L57.2684 104.585ZM58.7819 110.517L58.9195 111.056L109.552 169.51L109.822 169.441L58.7819 110.517ZM62.9098 126.696L63.5978 129.393L100.375 171.851L101.724 171.507L62.9098 126.696ZM64.4234 132.629L64.9738 134.786L97.6758 172.54L98.7554 172.264L64.4234 132.629ZM65.9369 138.561L66.3497 140.179L94.9767 173.228L95.7865 173.022L65.9369 138.561ZM67.4505 144.494L67.7257 145.572L92.2777 173.917L92.8175 173.779L67.4505 144.494ZM68.9641 150.426L69.1017 150.965L89.5786 174.605L89.8485 174.537L68.9641 150.426ZM71.716 161.212L71.8536 161.752L84.1805 175.983L84.4504 175.914L71.716 161.212ZM72.9544 166.066L73.2296 167.145L81.0867 176.216C81.3162 176.241 81.5484 176.256 81.7815 176.263L72.9544 166.066ZM74.3052 171.044C75.0168 172.821 76.2865 174.246 77.8602 175.154L74.3052 171.044Z" fill="#AA0000"/>
</g>
<g filter="url(#filter4_d_709_5318)">
<path d="M157.885 83.8373L78.5029 58.5332C74.1138 57.1342 69.4227 59.5547 68.0249 63.9397L27.5309 190.975C26.1331 195.36 28.558 200.049 32.9471 201.448L112.329 226.752C116.719 228.151 121.41 225.731 122.807 221.346L163.302 94.3103C164.699 89.9253 162.274 85.2364 157.885 83.8373Z" fill="white" stroke="black"/>
<path d="M79.3802 58.8129L64.9353 73.6324L64.7663 74.1627L79.6456 58.8975L79.3802 58.8129ZM84.6881 60.5048L61.5545 84.2383L61.3855 84.7686L84.9535 60.5894L84.6881 60.5048ZM87.342 61.3508L59.8641 89.5413L59.5261 90.6018L87.8728 61.52L87.342 61.3508ZM89.996 62.1968L58.1738 94.8442L57.6666 96.4351L90.7921 62.4506L89.996 62.1968ZM92.6499 63.0428L56.4834 100.147L55.8072 102.268L93.7115 63.3811L92.6499 63.0428ZM95.3038 63.8887L54.793 105.45L53.9478 108.102L96.6308 64.3117L95.3038 63.8887ZM103.266 66.4267L49.7218 121.359L49.5528 121.889L103.531 66.5113L103.266 66.4267ZM105.92 67.2726L48.0315 126.662L47.6934 127.723L106.45 67.4418L105.92 67.2726ZM108.574 68.1186L46.3411 131.965L46.172 132.495L108.839 68.2032L108.574 68.1186ZM116.535 70.6565L41.2699 147.874L40.4247 150.525L117.862 71.0795L116.535 70.6565ZM119.189 71.5025L39.5795 153.177L38.9034 155.298L120.251 71.8409L119.189 71.5025ZM121.843 72.3485L37.8892 158.48L37.382 160.071L122.639 72.6023L121.843 72.3485ZM124.497 73.1945L36.1988 163.783L35.8607 164.843L125.028 73.3637L124.497 73.1945ZM127.151 74.0404L34.5084 169.086L34.3394 169.616L127.417 74.125L127.151 74.0404ZM132.459 75.7324L31.1276 179.692L30.9586 180.222L132.724 75.817L132.459 75.7324ZM135.113 76.5784L29.4372 184.995L29.0992 186.055L135.644 76.7476L135.113 76.5784ZM137.767 77.4244L27.7469 190.298L27.5303 190.977C27.4408 191.258 27.3665 191.537 27.3076 191.819L138.563 77.6781L137.767 77.4244ZM140.421 78.2703L27.1833 194.444C27.2291 194.851 27.3101 195.249 27.4141 195.641L141.482 78.6087L140.421 78.2703ZM143.075 79.1163L27.9909 197.185C28.1817 197.572 28.4009 197.944 28.65 198.298L144.402 79.5393L143.075 79.1163ZM151.037 81.6542L33.957 201.77L34.2224 201.855L151.302 81.7388L151.037 81.6542ZM153.691 82.5002L36.611 202.616L37.1418 202.785L154.221 82.6694L153.691 82.5002ZM156.345 83.3462L39.2649 203.462L39.5303 203.547L156.61 83.4308L156.345 83.3462ZM77.1729 58.2279C76.9615 58.1966 76.7494 58.1685 76.5388 58.1536L66.6257 68.3294L66.2876 69.39L77.1729 58.2279ZM73.8665 58.3971C73.2993 58.5446 72.7471 58.754 72.226 59.0151L68.4356 62.9094C68.28 63.2401 68.1397 63.5798 68.0255 63.9379L67.8089 64.6173L73.8665 58.3971ZM162.598 87.6308L47.2268 206L48.5537 206.423L163.163 88.842C163.005 88.4244 162.82 88.0175 162.598 87.6308ZM163.604 90.5252L50.1461 206.931L51.2077 207.269L163.699 91.8608C163.704 91.4106 163.67 90.9635 163.604 90.5252ZM163.086 94.9879L53.0654 207.861L53.8616 208.115L162.578 96.5788L163.086 94.9879ZM161.226 100.821L55.9848 208.792L56.5156 208.961L160.888 101.882L161.226 100.821ZM159.367 106.654L58.9041 209.722L59.1695 209.807L159.198 107.185L159.367 106.654ZM155.986 117.26L64.212 211.414L64.4774 211.499L155.817 117.791L155.986 117.26ZM154.465 122.033L66.6006 212.176L67.1313 212.345L154.126 123.094L154.465 122.033ZM152.943 126.806L68.9891 212.937L69.7853 213.191L152.436 128.397L152.943 126.806ZM151.422 131.578L71.3777 213.698L72.4392 214.037L150.746 133.7L151.422 131.578ZM149.901 136.351L73.7662 214.46L75.0932 214.883L149.055 139.002L149.901 136.351ZM144.829 152.26L81.728 216.998L81.9934 217.082L144.66 152.79L144.829 152.26ZM143.308 157.033L84.1166 217.759L84.6474 217.928L142.97 158.093L143.308 157.033ZM141.449 162.866L87.0359 218.69L87.3013 218.774L141.28 163.396L141.449 162.866ZM136.377 178.775L94.9978 221.228L96.3247 221.651L135.532 181.426L136.377 178.775ZM134.518 184.608L97.9171 222.158L98.9787 222.496L133.842 186.729L134.518 184.608ZM132.659 190.441L100.836 223.089L101.633 223.342L132.152 192.032L132.659 190.441ZM130.799 196.274L103.756 224.019L104.287 224.188L130.461 197.335L130.799 196.274ZM128.94 202.108L106.675 224.95L106.941 225.034L128.771 202.638L128.94 202.108ZM125.559 212.714L111.983 226.642L112.248 226.726L125.39 213.244L125.559 212.714ZM124.038 217.486L114.627 227.147C114.86 227.154 115.093 227.153 115.323 227.141L123.7 218.547L124.038 217.486ZM122.397 222.376L118.606 226.27C120.231 225.456 121.582 224.108 122.397 222.376Z" fill="#8267AD"/>
<path d="M79.7783 58.9398L105.746 224.654L106.012 224.738L80.0437 59.0244L79.7783 58.9398ZM82.1668 59.7011L108.135 225.415L108.666 225.584L82.6976 59.8703L82.1668 59.7011ZM85.0862 60.6317L111.054 226.346L111.32 226.43L85.3516 60.7163L85.0862 60.6317ZM91.9864 62.8313L117.657 226.67C118.065 226.526 118.459 226.349 118.839 226.144L93.3134 63.2542L91.9864 62.8313ZM94.9058 63.7618L120.203 225.218C120.514 224.959 120.81 224.681 121.083 224.376L95.9673 64.1002L94.9058 63.7618ZM97.8251 64.6924L122.501 222.163C122.616 221.899 122.717 221.628 122.807 221.348L123.023 220.668L98.6213 64.9462L97.8251 64.6924ZM100.744 65.623L124.376 216.426L124.714 215.365L101.275 65.7922L100.744 65.623ZM103.664 66.5536L126.235 210.592L126.404 210.062L103.929 66.6382L103.664 66.5536ZM108.972 68.2455L129.616 199.987L129.785 199.456L109.237 68.3301L108.972 68.2455ZM111.36 69.0069L131.137 195.214L131.475 194.153L111.891 69.1761L111.36 69.0069ZM113.749 69.7683L132.659 190.441L133.166 188.85L114.545 70.0221L113.749 69.7683ZM116.137 70.5296L134.18 185.669L134.856 183.547L117.199 70.868L116.137 70.5296ZM118.526 71.291L135.701 180.896L136.547 178.244L119.853 71.714L118.526 71.291ZM127.549 74.1673L141.449 162.866L141.618 162.336L127.815 74.2519L127.549 74.1673ZM129.938 74.9287L142.97 158.093L143.308 157.033L130.469 75.0979L129.938 74.9287ZM132.857 75.8593L144.829 152.26L144.998 151.73L133.123 75.9439L132.857 75.8593ZM139.757 78.0588L149.224 138.472L150.07 135.821L141.084 78.4818L139.757 78.0588ZM142.677 78.9894L151.084 132.639L151.76 130.518L143.738 79.3278L142.677 78.9894ZM145.596 79.92L152.943 126.806L153.45 125.215L146.392 80.1738L145.596 79.92ZM148.515 80.8506L154.803 120.972L155.141 119.912L149.046 81.0198L148.515 80.8506ZM151.435 81.7811L156.662 115.139L156.831 114.609L151.7 81.8657L151.435 81.7811ZM156.743 83.4731L160.043 104.533L160.212 104.003L157.008 83.5577L156.743 83.4731ZM159.147 84.358L161.564 99.7605L161.902 98.6999L159.707 84.6644C159.526 84.5547 159.337 84.4548 159.147 84.358ZM161.745 86.4095L163.086 94.9879L163.302 94.3084C163.416 93.9503 163.498 93.5921 163.563 93.2323L162.725 87.8629C162.452 87.3483 162.122 86.858 161.745 86.4095ZM72.4639 58.8993C72.0592 59.0863 71.6729 59.3112 71.3029 59.5607L96.7228 221.777L98.0498 222.2L72.4639 58.8993ZM69.9691 60.6781C69.6613 60.997 69.3751 61.3422 69.1187 61.7123L94.0689 220.931L95.1305 221.27L69.9691 60.6781ZM67.8089 64.6173L67.3018 66.2082L91.4149 220.085L92.2111 220.339L67.8089 64.6173ZM65.9495 70.4506L65.6114 71.5112L88.761 219.239L89.2918 219.409L65.9495 70.4506ZM64.0901 76.2838L63.9211 76.8141L86.107 218.393L86.3724 218.478L64.0901 76.2838ZM60.7093 86.8898L60.5403 87.4201L80.7992 216.702L81.0646 216.786L60.7093 86.8898ZM59.188 91.6624L58.8499 92.723L78.1452 215.856L78.676 216.025L59.188 91.6624ZM57.6666 96.4351L57.1595 98.026L75.4913 215.01L76.2875 215.263L57.6666 96.4351ZM56.1453 101.208L55.4691 103.329L72.8373 214.164L73.8989 214.502L56.1453 101.208ZM54.624 105.98L53.7788 108.632L70.1834 213.318L71.5104 213.741L54.624 105.98ZM49.5528 121.889L49.3838 122.42L63.2831 211.118L63.5485 211.203L49.5528 121.889ZM48.0315 126.662L47.6934 127.723L60.6292 210.272L61.16 210.441L48.0315 126.662ZM46.172 132.495L46.003 133.026L57.9752 209.426L58.2406 209.511L46.172 132.495ZM41.1009 148.404L40.2557 151.056L48.9518 206.55L50.2788 206.973L41.1009 148.404ZM39.2415 154.237L38.5653 156.359L46.2979 205.704L47.3595 206.042L39.2415 154.237ZM37.382 160.071L36.8749 161.662L43.6439 204.858L44.4401 205.112L37.382 160.071ZM35.5226 165.904L35.1845 166.965L40.99 204.012L41.5208 204.181L35.5226 165.904ZM33.6632 171.737L33.4942 172.267L38.3361 203.166L38.6014 203.251L33.6632 171.737ZM30.2824 182.343L30.1134 182.873L33.0282 201.474L33.2936 201.559L30.2824 182.343ZM28.7611 187.116L28.423 188.176L30.2809 200.032C30.4618 200.176 30.651 200.311 30.8452 200.44L28.7611 187.116ZM27.2695 192.053C26.9316 193.937 27.2533 195.819 28.1069 197.423L27.2695 192.053Z" fill="#AA0000"/>
</g>
</g>
<defs>
<filter id="filter0_d_709_5318" x="3.88718" y="5.88867" width="132.071" height="172.036" filterUnits="userSpaceOnUse" color-interpolation-filters="sRGB">
<feFlood flood-opacity="0" result="BackgroundImageFix"/>
<feColorMatrix in="SourceAlpha" type="matrix" values="0 0 0 0 0 0 0 0 0 0 0 0 0 0 0 0 0 0 127 0" result="hardAlpha"/>
<feOffset dy="4"/>
<feGaussianBlur stdDeviation="2"/>
<feComposite in2="hardAlpha" operator="out"/>
<feColorMatrix type="matrix" values="0 0 0 0 0 0 0 0 0 0 0 0 0 0 0 0 0 0 0.25 0"/>
<feBlend mode="normal" in2="BackgroundImageFix" result="effect1_dropShadow_709_5318"/>
<feBlend mode="normal" in="SourceGraphic" in2="effect1_dropShadow_709_5318" result="shape"/>
</filter>
<filter id="filter1_d_709_5318" x="10.7673" y="81.7686" width="129.995" height="170.992" filterUnits="userSpaceOnUse" color-interpolation-filters="sRGB">
<feFlood flood-opacity="0" result="BackgroundImageFix"/>
<feColorMatrix in="SourceAlpha" type="matrix" values="0 0 0 0 0 0 0 0 0 0 0 0 0 0 0 0 0 0 127 0" result="hardAlpha"/>
<feOffset dy="4"/>
<feGaussianBlur stdDeviation="2"/>
<feComposite in2="hardAlpha" operator="out"/>
<feColorMatrix type="matrix" values="0 0 0 0 0 0 0 0 0 0 0 0 0 0 0 0 0 0 0.25 0"/>
<feBlend mode="normal" in2="BackgroundImageFix" result="effect1_dropShadow_709_5318"/>
<feBlend mode="normal" in="SourceGraphic" in2="effect1_dropShadow_709_5318" result="shape"/>
</filter>
<filter id="filter2_d_709_5318" x="55.7391" y="8.74023" width="129.509" height="170.743" filterUnits="userSpaceOnUse" color-interpolation-filters="sRGB">
<feFlood flood-opacity="0" result="BackgroundImageFix"/>
<feColorMatrix in="SourceAlpha" type="matrix" values="0 0 0 0 0 0 0 0 0 0 0 0 0 0 0 0 0 0 127 0" result="hardAlpha"/>
<feOffset dy="4"/>
<feGaussianBlur stdDeviation="2"/>
<feComposite in2="hardAlpha" operator="out"/>
<feColorMatrix type="matrix" values="0 0 0 0 0 0 0 0 0 0 0 0 0 0 0 0 0 0 0.25 0"/>
<feBlend mode="normal" in2="BackgroundImageFix" result="effect1_dropShadow_709_5318"/>
<feBlend mode="normal" in="SourceGraphic" in2="effect1_dropShadow_709_5318" result="shape"/>
</filter>
<filter id="filter3_d_709_5318" x="36.2332" y="9.30078" width="139.379" height="175.464" filterUnits="userSpaceOnUse" color-interpolation-filters="sRGB">
<feFlood flood-opacity="0" result="BackgroundImageFix"/>
<feColorMatrix in="SourceAlpha" type="matrix" values="0 0 0 0 0 0 0 0 0 0 0 0 0 0 0 0 0 0 127 0" result="hardAlpha"/>
<feOffset dy="4"/>
<feGaussianBlur stdDeviation="2"/>
<feComposite in2="hardAlpha" operator="out"/>
<feColorMatrix type="matrix" values="0 0 0 0 0 0 0 0 0 0 0 0 0 0 0 0 0 0 0.25 0"/>
<feBlend mode="normal" in2="BackgroundImageFix" result="effect1_dropShadow_709_5318"/>
<feBlend mode="normal" in="SourceGraphic" in2="effect1_dropShadow_709_5318" result="shape"/>
</filter>
<filter id="filter4_d_709_5318" x="22.6352" y="57.6367" width="145.562" height="178.012" filterUnits="userSpaceOnUse" color-interpolation-filters="sRGB">
<feFlood flood-opacity="0" result="BackgroundImageFix"/>
<feColorMatrix in="SourceAlpha" type="matrix" values="0 0 0 0 0 0 0 0 0 0 0 0 0 0 0 0 0 0 127 0" result="hardAlpha"/>
<feOffset dy="4"/>
<feGaussianBlur stdDeviation="2"/>
<feComposite in2="hardAlpha" operator="out"/>
<feColorMatrix type="matrix" values="0 0 0 0 0 0 0 0 0 0 0 0 0 0 0 0 0 0 0.25 0"/>
<feBlend mode="normal" in2="BackgroundImageFix" result="effect1_dropShadow_709_5318"/>
<feBlend mode="normal" in="SourceGraphic" in2="effect1_dropShadow_709_5318" result="shape"/>
</filter>
<clipPath id="clip0_709_5318">
<rect width="190" height="250" fill="white"/>
</clipPath>
</defs>
</svg>
