<svg width="23" height="23" viewBox="0 0 23 23" fill="none" xmlns="http://www.w3.org/2000/svg">
<path d="M11.1418 0.000938904C10.0278 -0.0218812 9.28467 0.371904 8.54205 1.11411C7.79915 1.85632 7.42785 2.59826 7.42785 3.71143C7.42785 4.82461 7.85069 5.48472 8.54205 6.30875C9.20361 7.09715 9.65625 7.42193 10.0276 8.16386C10.3989 8.90607 10.7705 10.3902 10.7705 11.1321C10.7705 11.8743 10.7705 11.7995 10.7705 12.2453H10.0276C9.28467 12.2453 7.79915 11.5031 7.42785 11.1321L6.31364 10.019C5.57074 9.27674 4.82813 8.90578 3.71392 8.90578C2.59972 8.90578 1.85682 9.27674 1.1142 10.019C0.371309 10.7612 0 11.5031 0 12.6163C0 13.7294 0.371309 14.4714 1.1142 15.2136C1.8571 15.9558 2.59972 16.3268 3.71392 16.3268C4.82813 16.3268 5.57102 15.9558 6.31364 15.2136L7.42785 14.1004C7.79915 13.7294 9.28495 12.9872 10.0276 12.9872H10.7705C10.7521 14.0381 10.6741 15.8731 10.3992 16.6977C10.0278 17.8109 9.28495 18.9241 8.54205 19.666C7.79915 20.4082 5.57074 21.8924 5.57074 21.8924V22.2633C5.57074 22.2633 9.28467 21.5211 10.0276 21.5211H12.256C12.9989 21.5211 16.7128 22.2633 16.7128 22.2633V21.8924C16.7128 21.8924 14.4844 20.4082 13.7415 19.666C12.9986 18.9238 12.256 17.8109 11.8844 16.6977C11.6092 15.8731 11.5315 14.0381 11.5131 12.9872H12.256C12.9989 12.9872 14.4844 13.7294 14.8557 14.1004L15.9699 15.2136C16.7128 15.9558 17.4554 16.3268 18.5696 16.3268C19.6838 16.3268 20.4267 15.9558 21.1693 15.2136C21.9122 14.4714 22.2835 13.7294 22.2835 12.6163C22.2835 11.5031 21.9122 10.7612 21.1693 10.019C20.4264 9.27674 19.6838 8.90578 18.5696 8.90578C17.4554 8.90578 16.7125 9.27674 15.9699 10.019L14.8557 11.1321C14.4844 11.5031 12.9986 12.2453 12.256 12.2453H11.5131C11.5131 11.7291 11.5131 11.8743 11.5131 11.1321C11.5131 10.3899 11.8844 8.90579 12.256 8.16386C12.6273 7.42165 12.9989 7.05068 13.7415 6.30875C14.4805 5.57043 14.8557 4.82461 14.8557 3.71143C14.8557 2.59826 14.4844 1.85632 13.7415 1.11411C12.9986 0.371904 12.256 0.000938904 11.1418 0.000938904Z" fill="black"/>
</svg>
