<svg width="100" height="151" viewBox="0 0 100 151" fill="none" xmlns="http://www.w3.org/2000/svg">
<path d="M82.9938 1H11.8701C7.93768 1 4.74982 4.42164 4.74982 8.64244V130.921C4.74982 135.142 7.93768 138.564 11.8701 138.564H82.9938C86.9263 138.564 90.1141 135.142 90.1141 130.921V8.64244C90.1141 4.42164 86.9263 1 82.9938 1Z" fill="white" stroke="black"/>
<path d="M12.6561 1L4.74982 17.9722V18.4826L12.8939 1H12.6561ZM17.4118 1L4.74982 28.181V28.6914L17.6496 1H17.4118ZM19.7896 1L4.74982 33.2854V34.3063L20.2652 1H19.7896ZM22.1675 1L4.74982 38.3898V39.9211L22.8808 1H22.1675ZM24.5453 1L4.74982 43.4942V45.536L25.4964 1H24.5453ZM26.9231 1L4.74982 48.5986V51.1508L28.1121 1H26.9231ZM34.0566 1L4.74982 63.9118V64.4223L34.2944 1H34.0566ZM36.4345 1L4.74982 69.0162V70.0371L36.91 1H36.4345ZM38.8123 1L4.74982 74.1206V74.6311L39.0501 1H38.8123ZM45.9458 1L4.74982 89.4339V91.9861L47.1347 1H45.9458ZM48.3237 1L4.74982 94.5383V96.58L49.2748 1H48.3237ZM50.7015 1L4.74982 99.6427V101.174L51.4148 1H50.7015ZM53.0793 1L4.74982 104.747V105.768L53.5549 1H53.0793ZM55.4572 1L4.74982 109.851V110.362L55.6949 1H55.4572ZM60.2128 1L4.74982 120.06V120.571L60.4506 1H60.2128ZM62.5907 1L4.74982 125.165V126.186L63.0662 1H62.5907ZM64.9685 1L4.74982 130.269V130.923C4.74982 131.193 4.76176 131.458 4.78697 131.721L65.6819 1H64.9685ZM67.3463 1L5.36657 134.05C5.50924 134.392 5.67828 134.717 5.86443 135.031L68.2975 1H67.3463ZM69.7242 1L6.73382 136.219C6.98956 136.505 7.26422 136.768 7.55864 137.009L70.9131 1H69.7242ZM76.8577 1L12.775 138.564H13.0128L77.0955 1H76.8577ZM79.2355 1L15.1528 138.564H15.6284L79.7111 1H79.2355ZM81.6134 1L17.5307 138.564H17.7685L81.8511 1H81.6134ZM10.7093 1.10368C10.5292 1.13517 10.3494 1.16974 10.1743 1.21534L4.74982 12.8677V13.8886L10.7093 1.10368ZM8.06393 2.17242C7.64083 2.45924 7.24603 2.796 6.88987 3.16937L4.81669 7.62775C4.7759 7.9601 4.74982 8.29598 4.74982 8.64066V9.29466L8.06393 2.17242ZM87.8106 3.00188L24.6642 138.564H25.8531L88.5834 3.90313C88.3471 3.58207 88.0912 3.278 87.8106 3.00188ZM89.3785 5.25101L27.2798 138.564H28.2309L89.802 6.39153C89.6894 5.99672 89.5462 5.61542 89.3785 5.25101ZM90.1141 9.29466L29.8954 138.564H30.6088L90.1141 10.826V9.29466ZM90.1141 14.9095L32.511 138.564H32.9866L90.1141 15.9304V14.9095ZM90.1141 20.5244L35.1267 138.564H35.3645L90.1141 21.0348V20.5244ZM90.1141 30.7332L39.8823 138.564H40.1201L90.1141 31.2436V30.7332ZM90.1141 35.3271L42.0224 138.564H42.498L90.1141 36.348V35.3271ZM90.1141 39.9211L44.1624 138.564H44.8758L90.1141 41.4524V39.9211ZM90.1141 44.5151L46.3025 138.564H47.2536L90.1141 46.5568V44.5151ZM90.1141 49.109L48.4425 138.564H49.6315L90.1141 51.6612V49.109ZM90.1141 64.4223L55.5761 138.564H55.8138L90.1141 64.9327V64.4223ZM90.1141 69.0162L57.7161 138.564H58.1917L90.1141 70.0371V69.0162ZM90.1141 74.6311L60.3317 138.564H60.5695L90.1141 75.1415V74.6311ZM90.1141 89.9443L67.4652 138.564H68.6542L90.1141 92.4965V89.9443ZM90.1141 95.5591L70.0809 138.564H71.032L90.1141 97.6009V95.5591ZM90.1141 101.174L72.6965 138.564H73.4098L90.1141 102.705V101.174ZM90.1141 106.789L75.3121 138.564H75.7877L90.1141 107.81V106.789ZM90.1141 112.404L77.9277 138.564H78.1655L90.1141 112.914V112.404ZM90.1141 122.612L82.6834 138.564H82.9212L90.1141 123.123V122.612ZM90.1141 127.206L84.9646 138.269C85.156 138.21 85.345 138.144 85.5294 138.069L90.1141 128.227V127.206ZM90.0472 131.936L87.9741 136.394C89.0842 135.231 89.8336 133.676 90.0472 131.936Z" fill="#67AD98"/>
<path d="M13.0128 1L77.0955 138.564H77.3333L13.2506 1H13.0128ZM15.1528 1L79.2355 138.564H79.7111L15.6284 1H15.1528ZM17.7685 1L81.8511 138.564H82.0889L18.0063 1H17.7685ZM23.9508 1L87.3053 137.009C87.5997 136.768 87.8744 136.505 88.1301 136.219L25.1398 1H23.9508ZM26.5665 1L88.9995 135.031C89.1857 134.717 89.3547 134.392 89.4974 134.05L27.5176 1H26.5665ZM29.1821 1L90.077 131.721C90.1022 131.458 90.1141 131.193 90.1141 130.923V130.269L29.8954 1H29.1821ZM31.7977 1L90.1141 126.186V125.165L32.2733 1H31.7977ZM34.4133 1L90.1141 120.571V120.06L34.6511 1H34.4133ZM39.169 1L90.1141 110.362V109.851L39.4068 1H39.169ZM41.309 1L90.1141 105.768V104.747L41.7846 1H41.309ZM43.4491 1L90.1141 101.174V99.6427L44.1624 1H43.4491ZM45.5891 1L90.1141 96.58V94.5383L46.5403 1H45.5891ZM47.7292 1L90.1141 91.9861V89.4339L48.9181 1H47.7292ZM55.8138 1L90.1141 74.6311V74.1206L56.0516 1H55.8138ZM57.9539 1L90.1141 70.0371V69.0162L58.4295 1H57.9539ZM60.5695 1L90.1141 64.4223V63.9118L60.8073 1H60.5695ZM66.7519 1L90.1141 51.1508V48.5986L67.9408 1H66.7519ZM69.3675 1L90.1141 45.536V43.4942L70.3186 1H69.3675ZM71.9831 1L90.1141 39.9211V38.3898L72.6965 1H71.9831ZM74.5987 1L90.1141 34.3063V33.2854L75.0743 1H74.5987ZM77.2144 1L90.1141 28.6914V28.181L77.4521 1H77.2144ZM81.97 1L90.1141 18.4826V17.9722L82.2078 1H81.97ZM84.1547 1.10368L90.1141 13.8886V12.8677L84.6897 1.21534C84.5145 1.16974 84.3347 1.13517 84.1547 1.10368ZM86.8 2.17242L90.1141 9.29466V8.64066C90.1141 8.29598 90.088 7.9601 90.0472 7.62775L87.9741 3.16937C87.6179 2.796 87.2231 2.45924 86.8 2.17242ZM7.05335 3.00188C6.77269 3.278 6.51681 3.58207 6.28055 3.90313L69.0108 138.564H70.1997L7.05335 3.00188ZM5.48546 5.25101C5.31776 5.61542 5.17449 5.99672 5.06191 6.39153L66.633 138.564H67.5841L5.48546 5.25101ZM4.74982 9.29466V10.826L64.2552 138.564H64.9685L4.74982 9.29466ZM4.74982 14.9095V15.9304L61.8773 138.564H62.3529L4.74982 14.9095ZM4.74982 20.5244V21.0348L59.4995 138.564H59.7373L4.74982 20.5244ZM4.74982 30.7332V31.2436L54.7438 138.564H54.9816L4.74982 30.7332ZM4.74982 35.3271V36.348L52.366 138.564H52.8415L4.74982 35.3271ZM4.74982 39.9211V41.4524L49.9881 138.564H50.7015L4.74982 39.9211ZM4.74982 44.5151V46.5568L47.6103 138.564H48.5614L4.74982 44.5151ZM4.74982 49.109V51.6612L45.2325 138.564H46.4214L4.74982 49.109ZM4.74982 64.4223V64.9327L39.0501 138.564H39.2879L4.74982 64.4223ZM4.74982 69.0162V70.0371L36.6723 138.564H37.1478L4.74982 69.0162ZM4.74982 74.6311V75.1415L34.2944 138.564H34.5322L4.74982 74.6311ZM4.74982 89.9443V92.4965L26.2098 138.564H27.3987L4.74982 89.9443ZM4.74982 95.5591V97.6009L23.8319 138.564H24.7831L4.74982 95.5591ZM4.74982 101.174V102.705L21.4541 138.564H22.1675L4.74982 101.174ZM4.74982 106.789V107.81L19.0763 138.564H19.5518L4.74982 106.789ZM4.74982 112.404V112.914L16.6984 138.564H16.9362L4.74982 112.404ZM4.74982 122.612V123.123L11.9428 138.564H12.1806L4.74982 122.612ZM4.74982 127.206V128.227L9.33458 138.069C9.51892 138.144 9.70793 138.21 9.89932 138.269L4.74982 127.206ZM4.81669 131.936C5.03031 133.676 5.77976 135.231 6.88987 136.394L4.81669 131.936Z" fill="#AA0000"/>
<path d="M85.5619 6.5127H14.4382C10.5057 6.5127 7.31787 9.93433 7.31787 14.1551V136.434C7.31787 140.655 10.5057 144.076 14.4382 144.076H85.5619C89.4943 144.076 92.6822 140.655 92.6822 136.434V14.1551C92.6822 9.93433 89.4943 6.5127 85.5619 6.5127Z" fill="white" stroke="black"/>
<path d="M15.2242 6.5127L7.31787 23.4848V23.9953L15.462 6.5127H15.2242ZM19.9798 6.5127L7.31787 33.6937V34.2041L20.2176 6.5127H19.9798ZM22.3577 6.5127L7.31787 38.7981V39.819L22.8332 6.5127H22.3577ZM24.7355 6.5127L7.31787 43.9025V45.4338L25.4489 6.5127H24.7355ZM27.1134 6.5127L7.31787 49.0069V51.0486L28.0645 6.5127H27.1134ZM29.4912 6.5127L7.31787 54.1113V56.6635L30.6801 6.5127H29.4912ZM36.6247 6.5127L7.31787 69.4245V69.935L36.8625 6.5127H36.6247ZM39.0025 6.5127L7.31787 74.5289V75.5498L39.4781 6.5127H39.0025ZM41.3804 6.5127L7.31787 79.6333V80.1438L41.6182 6.5127H41.3804ZM48.5139 6.5127L7.31787 94.9465V97.4988L49.7028 6.5127H48.5139ZM50.8917 6.5127L7.31787 100.051V102.093L51.8428 6.5127H50.8917ZM53.2695 6.5127L7.31787 105.155V106.687L53.9829 6.5127H53.2695ZM55.6474 6.5127L7.31787 110.26V111.281L56.123 6.5127H55.6474ZM58.0252 6.5127L7.31787 115.364V115.875L58.263 6.5127H58.0252ZM62.7809 6.5127L7.31787 125.573V126.083L63.0187 6.5127H62.7809ZM65.1587 6.5127L7.31787 130.677V131.698L65.6343 6.5127H65.1587ZM67.5366 6.5127L7.31787 135.782V136.436C7.31787 136.706 7.32981 136.971 7.35502 137.233L68.2499 6.5127H67.5366ZM69.9144 6.5127L7.93462 139.562C8.07729 139.905 8.24634 140.23 8.43248 140.543L70.8655 6.5127H69.9144ZM72.2922 6.5127L9.30188 141.732C9.55761 142.017 9.83227 142.281 10.1267 142.521L73.4812 6.5127H72.2922ZM79.4257 6.5127L15.3431 144.076H15.5809L79.6635 6.5127H79.4257ZM81.8036 6.5127L17.7209 144.076H18.1965L82.2791 6.5127H81.8036ZM84.1814 6.5127L20.0987 144.076H20.3365L84.4192 6.5127H84.1814ZM13.2773 6.61638C13.0973 6.64787 12.9175 6.68243 12.7423 6.72804L7.31787 18.3804V19.4013L13.2773 6.61638ZM10.632 7.68511C10.2089 7.97194 9.81408 8.3087 9.45792 8.68207L7.38475 13.1404C7.34395 13.4728 7.31787 13.8087 7.31787 14.1534V14.8074L10.632 7.68511ZM90.3786 8.51458L27.2322 144.076H28.4212L91.1514 9.41583C90.9152 9.09476 90.6593 8.7907 90.3786 8.51458ZM91.9465 10.7637L29.8479 144.076H30.799L92.3701 11.9042C92.2575 11.5094 92.1142 11.1281 91.9465 10.7637ZM92.6822 14.8074L32.4635 144.076H33.1768L92.6822 16.3387V14.8074ZM92.6822 20.4222L35.0791 144.076H35.5547L92.6822 21.4431V20.4222ZM92.6822 26.0371L37.6947 144.076H37.9325L92.6822 26.5475V26.0371ZM92.6822 36.2459L42.4504 144.076H42.6882L92.6822 36.7563V36.2459ZM92.6822 40.8398L44.5904 144.076H45.066L92.6822 41.8607V40.8398ZM92.6822 45.4338L46.7305 144.076H47.4439L92.6822 46.9651V45.4338ZM92.6822 50.0278L48.8706 144.076H49.8217L92.6822 52.0695V50.0278ZM92.6822 54.6217L51.0106 144.076H52.1995L92.6822 57.1739V54.6217ZM92.6822 69.935L58.1441 144.076H58.3819L92.6822 70.4454V69.935ZM92.6822 74.5289L60.2842 144.076H60.7597L92.6822 75.5498V74.5289ZM92.6822 80.1438L62.8998 144.076H63.1376L92.6822 80.6542V80.1438ZM92.6822 95.457L70.0333 144.076H71.2222L92.6822 98.0092V95.457ZM92.6822 101.072L72.6489 144.076H73.6L92.6822 103.114V101.072ZM92.6822 106.687L75.2645 144.076H75.9779L92.6822 108.218V106.687ZM92.6822 112.302L77.8801 144.076H78.3557L92.6822 113.322V112.302ZM92.6822 117.916L80.4958 144.076H80.7336L92.6822 118.427V117.916ZM92.6822 128.125L85.2514 144.076H85.4892L92.6822 128.636V128.125ZM92.6822 132.719L87.5327 143.781C87.7241 143.723 87.9131 143.657 88.0974 143.582L92.6822 133.74V132.719ZM92.6153 137.449L90.5421 141.907C91.6522 140.743 92.4017 139.189 92.6153 137.449Z" fill="#67AD98"/>
<path d="M15.5809 6.5127L79.6635 144.076H79.9013L15.8186 6.5127H15.5809ZM17.7209 6.5127L81.8036 144.076H82.2791L18.1965 6.5127H17.7209ZM20.3365 6.5127L84.4192 144.076H84.657L20.5743 6.5127H20.3365ZM26.5189 6.5127L89.8734 142.521C90.1678 142.281 90.4424 142.017 90.6982 141.732L27.7078 6.5127H26.5189ZM29.1345 6.5127L91.5676 140.543C91.7537 140.23 91.9228 139.905 92.0654 139.562L30.0856 6.5127H29.1345ZM31.7501 6.5127L92.645 137.233C92.6702 136.971 92.6822 136.706 92.6822 136.436V135.782L32.4635 6.5127H31.7501ZM34.3658 6.5127L92.6822 131.698V130.677L34.8413 6.5127H34.3658ZM36.9814 6.5127L92.6822 126.083V125.573L37.2192 6.5127H36.9814ZM41.737 6.5127L92.6822 115.875V115.364L41.9748 6.5127H41.737ZM43.8771 6.5127L92.6822 111.281V110.26L44.3527 6.5127H43.8771ZM46.0171 6.5127L92.6822 106.687V105.155L46.7305 6.5127H46.0171ZM48.1572 6.5127L92.6822 102.093V100.051L49.1083 6.5127H48.1572ZM50.2973 6.5127L92.6822 97.4988V94.9465L51.4862 6.5127H50.2973ZM58.3819 6.5127L92.6822 80.1438V79.6333L58.6197 6.5127H58.3819ZM60.5219 6.5127L92.6822 75.5498V74.5289L60.9975 6.5127H60.5219ZM63.1376 6.5127L92.6822 69.935V69.4245L63.3754 6.5127H63.1376ZM69.3199 6.5127L92.6822 56.6635V54.1113L70.5089 6.5127H69.3199ZM71.9356 6.5127L92.6822 51.0486V49.0069L72.8867 6.5127H71.9356ZM74.5512 6.5127L92.6822 45.4338V43.9025L75.2645 6.5127H74.5512ZM77.1668 6.5127L92.6822 39.819V38.7981L77.6424 6.5127H77.1668ZM79.7824 6.5127L92.6822 34.2041V33.6937L80.0202 6.5127H79.7824ZM84.5381 6.5127L92.6822 23.9953V23.4848L84.7759 6.5127H84.5381ZM86.7227 6.61638L92.6822 19.4013V18.3804L87.2577 6.72804C87.0826 6.68243 86.9028 6.64787 86.7227 6.61638ZM89.3681 7.68511L92.6822 14.8074V14.1534C92.6822 13.8087 92.6561 13.4728 92.6153 13.1404L90.5421 8.68207C90.186 8.3087 89.7912 7.97194 89.3681 7.68511ZM9.6214 8.51458C9.34074 8.7907 9.08487 9.09476 8.8486 9.41583L71.5789 144.076H72.7678L9.6214 8.51458ZM8.05351 10.7637C7.88582 11.1281 7.74255 11.5094 7.62996 11.9042L69.201 144.076H70.1522L8.05351 10.7637ZM7.31787 14.8074V16.3387L66.8232 144.076H67.5366L7.31787 14.8074ZM7.31787 20.4222V21.4431L64.4454 144.076H64.9209L7.31787 20.4222ZM7.31787 26.0371V26.5475L62.0675 144.076H62.3053L7.31787 26.0371ZM7.31787 36.2459V36.7563L57.3119 144.076H57.5497L7.31787 36.2459ZM7.31787 40.8398V41.8607L54.934 144.076H55.4096L7.31787 40.8398ZM7.31787 45.4338V46.9651L52.5562 144.076H53.2695L7.31787 45.4338ZM7.31787 50.0278V52.0695L50.1784 144.076H51.1295L7.31787 50.0278ZM7.31787 54.6217V57.1739L47.8005 144.076H48.9894L7.31787 54.6217ZM7.31787 69.935V70.4454L41.6182 144.076H41.8559L7.31787 69.935ZM7.31787 74.5289V75.5498L39.2403 144.076H39.7159L7.31787 74.5289ZM7.31787 80.1438V80.6542L36.8625 144.076H37.1003L7.31787 80.1438ZM7.31787 95.457V98.0092L28.7778 144.076H29.9668L7.31787 95.457ZM7.31787 101.072V103.114L26.4 144.076H27.3511L7.31787 101.072ZM7.31787 106.687V108.218L24.0222 144.076H24.7355L7.31787 106.687ZM7.31787 112.302V113.322L21.6443 144.076H22.1199L7.31787 112.302ZM7.31787 117.916V118.427L19.2665 144.076H19.5043L7.31787 117.916ZM7.31787 128.125V128.636L14.5108 144.076H14.7486L7.31787 128.125ZM7.31787 132.719V133.74L11.9026 143.582C12.087 143.657 12.276 143.723 12.4674 143.781L7.31787 132.719ZM7.38475 137.449C7.59836 139.189 8.34781 140.743 9.45792 141.907L7.38475 137.449Z" fill="#AA0000"/>
<path d="M77.6888 2.46112L7.06977 11.5394C3.16524 12.0413 0.379102 15.8456 0.846748 20.0364L14.3947 141.448C14.8624 145.638 18.4067 148.629 22.3112 148.127L92.9302 139.049C96.8348 138.547 99.6209 134.743 99.1533 130.552L85.6053 9.14048C85.1377 4.94964 81.5933 1.95918 77.6888 2.46112Z" fill="white" stroke="black"/>
<path d="M7.8502 11.4391L1.88044 29.3L1.93699 29.8068L8.0863 11.4087L7.8502 11.4391ZM12.5721 10.8321L3.01153 39.4363L3.06809 39.9431L12.8082 10.8017L12.5721 10.8321ZM14.9331 10.5285L3.57708 44.5045L3.69019 45.5181L15.4053 10.4678L14.9331 10.5285ZM17.294 10.225L4.14262 49.5727L4.31229 51.0932L18.0023 10.134L17.294 10.225ZM19.655 9.92153L4.70817 54.6409L4.93439 56.6682L20.5994 9.80013L19.655 9.92153ZM22.016 9.61802L5.27371 59.7091L5.55649 62.2432L23.1965 9.46627L22.016 9.61802ZM29.0989 8.7075L6.97035 74.9136L7.0269 75.4204L29.335 8.67715L29.0989 8.7075ZM31.4598 8.40399L7.5359 79.9818L7.64901 80.9954L31.932 8.34329L31.4598 8.40399ZM33.8208 8.10048L8.10144 85.05L8.158 85.5568L34.0569 8.07013L33.8208 8.10048ZM40.9037 7.18995L9.79808 100.255L10.0809 102.789L42.0842 7.0382L40.9037 7.18995ZM43.2646 6.88645L10.3636 105.323L10.5898 107.35L44.209 6.76504L43.2646 6.88645ZM45.6256 6.58294L10.9292 110.391L11.0988 111.911L46.3339 6.49188L45.6256 6.58294ZM47.9866 6.27943L11.4947 115.459L11.6078 116.473L48.4588 6.21873L47.9866 6.27943ZM50.3475 5.97592L12.0603 120.527L12.1168 121.034L50.5836 5.94557L50.3475 5.97592ZM55.0694 5.3689L13.1914 130.664L13.2479 131.17L55.3055 5.33855L55.0694 5.3689ZM57.4304 5.06539L13.7569 135.732L13.87 136.745L57.9026 5.00469L57.4304 5.06539ZM59.7914 4.76189L14.3224 140.8L14.3949 141.449C14.4248 141.718 14.466 141.979 14.5202 142.237L60.4997 4.67083L59.7914 4.76189ZM62.1523 4.45838L15.3537 144.475C15.5333 144.797 15.7372 145.098 15.9567 145.385L63.0967 4.33697L62.1523 4.45838ZM64.5133 4.15487L16.9516 146.454C17.2372 146.705 17.5391 146.932 17.858 147.133L65.6938 4.00311L64.5133 4.15487ZM71.5962 3.24434L23.2097 148.011L23.4458 147.981L71.8323 3.21399L71.5962 3.24434ZM73.9571 2.94083L25.5707 147.708L26.0429 147.647L74.4293 2.88013L73.9571 2.94083ZM76.3181 2.63732L27.9316 147.404L28.1677 147.374L76.5542 2.60697L76.3181 2.63732ZM5.92865 11.7905C5.75336 11.8448 5.57868 11.902 5.4098 11.9697L1.31489 24.2318L1.428 25.2454L5.92865 11.7905ZM3.42049 13.1893C3.03218 13.5281 2.67749 13.9129 2.36522 14.3291L0.800728 19.0204C0.797044 19.3556 0.808362 19.6924 0.846551 20.0347L0.919012 20.684L3.42049 13.1893ZM82.6932 3.83398L35.0145 146.494L36.195 146.342L83.5603 4.63019C83.2902 4.34157 83.0024 4.07232 82.6932 3.83398ZM84.4991 5.86703L37.6116 146.16L38.556 146.039L85.046 6.94539C84.8905 6.56775 84.706 6.20744 84.4991 5.86703ZM85.6776 9.78808L40.2086 145.826L40.9169 145.735L85.8472 11.3085L85.6776 9.78808ZM86.2997 15.3631L42.8057 145.492L43.2779 145.432L86.4128 16.3767L86.2997 15.3631ZM86.9218 20.9381L45.4028 145.159L45.6388 145.128L86.9783 21.4449L86.9218 20.9381ZM88.0529 31.0745L50.1247 144.551L50.3608 144.521L88.1094 31.5813L88.0529 31.0745ZM88.5618 35.6358L52.2495 144.278L52.7217 144.218L88.675 36.6495L88.5618 35.6358ZM89.0708 40.1972L54.3744 144.005L55.0827 143.914L89.2405 41.7176L89.0708 40.1972ZM89.5798 44.7586L56.4993 143.732L57.4437 143.611L89.806 46.7858L89.5798 44.7586ZM90.0888 49.3199L58.6241 143.459L59.8046 143.307L90.3716 51.854L90.0888 49.3199ZM91.7855 64.5245L65.707 142.548L65.9431 142.518L91.842 65.0313L91.7855 64.5245ZM92.2944 69.0858L67.8319 142.275L68.3041 142.214L92.4076 70.0995L92.2944 69.0858ZM92.9165 74.6608L70.429 141.941L70.665 141.911L92.9731 75.1677L92.9165 74.6608ZM94.6132 89.8654L77.5118 141.031L78.6923 140.879L94.896 92.3995L94.6132 89.8654ZM95.2353 95.4404L80.1089 140.697L81.0533 140.576L95.4615 97.4677L95.2353 95.4404ZM95.8574 101.015L82.706 140.363L83.4142 140.272L96.027 102.536L95.8574 101.015ZM96.4795 106.59L85.303 140.029L85.7752 139.969L96.5926 107.604L96.4795 106.59ZM97.1016 112.165L87.9001 139.695L88.1362 139.665L97.1581 112.672L97.1016 112.165ZM98.2327 122.302L92.622 139.088L92.8581 139.058L98.2892 122.809L98.2327 122.302ZM98.7417 126.863L94.8544 138.504C95.0379 138.421 95.2183 138.332 95.393 138.234L98.8548 127.877L98.7417 126.863ZM99.1993 131.568L97.6348 136.259C98.6081 134.962 99.18 133.323 99.1993 131.568Z" fill="#67AD98"/>
<path d="M8.20434 11.3935L87.0737 139.802L87.3098 139.771L8.44044 11.3632L8.20434 11.3935ZM10.3292 11.1204L89.1986 139.528L89.6708 139.468L10.8014 11.0597L10.3292 11.1204ZM12.9263 10.7865L91.7957 139.195L92.0318 139.164L13.1624 10.7562L12.9263 10.7865ZM19.0648 9.99741L97.0388 136.954C97.3045 136.678 97.548 136.381 97.7703 136.065L20.2453 9.84566L19.0648 9.99741ZM21.6618 9.66355L98.5018 134.774C98.652 134.439 98.7838 134.095 98.8875 133.736L22.6062 9.54215L21.6618 9.66355ZM24.2589 9.32969L99.2049 131.35C99.2009 131.086 99.1834 130.822 99.1535 130.553L99.081 129.904L24.9672 9.23864L24.2589 9.32969ZM26.8559 8.99583L98.6286 125.85L98.5154 124.836L27.3281 8.93513L26.8559 8.99583ZM29.453 8.66197L98.0065 120.275L97.9499 119.768L29.6891 8.63162L29.453 8.66197ZM34.1749 8.05495L96.8754 110.138L96.8188 109.631L34.411 8.0246L34.1749 8.05495ZM36.2998 7.7818L96.3664 105.577L96.2533 104.563L36.772 7.72109L36.2998 7.7818ZM38.4247 7.50864L95.8574 101.015L95.6877 99.495L39.133 7.41759L38.4247 7.50864ZM40.5495 7.23548L95.3484 96.454L95.1222 94.4268L41.4939 7.11408L40.5495 7.23548ZM42.6744 6.96232L94.8394 91.8927L94.5566 89.3586L43.8549 6.81057L42.6744 6.96232ZM50.7017 5.93039L92.9165 74.6608L92.86 74.154L50.9378 5.90004L50.7017 5.93039ZM52.8265 5.65724L92.4076 70.0995L92.2944 69.0858L53.2987 5.59653L52.8265 5.65724ZM55.4236 5.32338L91.7855 64.5245L91.7289 64.0177L55.6597 5.29303L55.4236 5.32338ZM61.5621 4.53425L90.315 51.3472L90.0323 48.8131L62.7426 4.3825L61.5621 4.53425ZM64.1592 4.20039L89.6929 45.7722L89.4667 43.7449L65.1035 4.07899L64.1592 4.20039ZM66.7562 3.86653L89.0708 40.1972L88.9012 38.6767L67.4645 3.77548L66.7562 3.86653ZM69.3533 3.53268L88.4487 34.6222L88.3356 33.6086L69.8255 3.47197L69.3533 3.53268ZM71.9503 3.19882L87.8266 29.0472L87.7701 28.5404L72.1864 3.16846L71.9503 3.19882ZM76.6723 2.5918L86.6955 18.9108L86.639 18.404L76.9083 2.56145L76.6723 2.5918ZM78.8529 2.4159L86.1866 14.3494L86.0734 13.3358L79.3965 2.45847C79.2175 2.43555 79.0351 2.42418 78.8529 2.4159ZM81.5979 3.13939L85.6776 9.78808L85.6051 9.13872C85.5669 8.79648 85.5038 8.46632 85.4265 8.14154L82.874 3.97942C82.479 3.65416 82.0497 3.37018 81.5979 3.13939ZM2.50898 14.1419C2.26091 14.4519 2.04054 14.7864 1.84152 15.1354L79.0465 140.834L80.2269 140.682L2.50898 14.1419ZM1.20142 16.5752C1.07528 16.9584 0.975276 17.3553 0.907234 17.7617L76.6855 141.137L77.6299 141.016L1.20142 16.5752ZM0.919012 20.684L1.08868 22.2045L74.3245 141.441L75.0328 141.349L0.919012 20.684ZM1.54111 26.259L1.65422 27.2727L71.9636 141.744L72.4358 141.683L1.54111 26.259ZM2.16321 31.834L2.21977 32.3409L69.6026 142.048L69.8387 142.017L2.16321 31.834ZM3.2943 41.9704L3.35086 42.4772L64.8807 142.655L65.1168 142.624L3.2943 41.9704ZM3.80329 46.5318L3.9164 47.5454L62.5197 142.958L62.9919 142.897L3.80329 46.5318ZM4.31229 51.0932L4.48195 52.6136L60.1588 143.262L60.8671 143.171L4.31229 51.0932ZM4.82128 55.6545L5.0475 57.6818L57.7978 143.565L58.7422 143.444L4.82128 55.6545ZM5.33027 60.2159L5.61304 62.75L55.4368 143.869L56.6173 143.717L5.33027 60.2159ZM7.0269 75.4204L7.08346 75.9273L49.2983 144.658L49.5344 144.627L7.0269 75.4204ZM7.5359 79.9818L7.64901 80.9954L46.9374 144.961L47.4096 144.901L7.5359 79.9818ZM8.158 85.5568L8.21455 86.0636L44.5764 145.265L44.8125 145.234L8.158 85.5568ZM9.85463 100.761L10.1374 103.295L36.5491 146.297L37.7296 146.145L9.85463 100.761ZM10.4767 106.336L10.703 108.364L34.1882 146.6L35.1326 146.479L10.4767 106.336ZM11.0988 111.911L11.2685 113.432L31.8272 146.904L32.5355 146.813L11.0988 111.911ZM11.7209 117.486L11.834 118.5L29.4663 147.207L29.9384 147.146L11.7209 117.486ZM12.343 123.061L12.3996 123.568L27.1053 147.511L27.3414 147.48L12.343 123.061ZM13.4741 133.198L13.5307 133.705L22.3834 148.118L22.6195 148.087L13.4741 133.198ZM13.9831 137.759L14.0962 138.773L19.7389 147.96C19.9302 148.011 20.1252 148.052 20.3217 148.086L13.9831 137.759ZM14.5735 142.447C14.9784 144.147 15.8948 145.595 17.126 146.609L14.5735 142.447Z" fill="#AA0000"/>
<path d="M92.845 13.2515L21.9224 7.51474C18.0011 7.19756 14.5827 10.3524 14.2872 14.5613L5.72599 136.494C5.43048 140.703 8.36977 144.372 12.2911 144.69L83.2137 150.426C87.135 150.743 90.5534 147.589 90.8489 143.38L99.4101 21.4466C99.7056 17.2377 96.7663 13.5687 92.845 13.2515Z" fill="white" stroke="black"/>
<path d="M22.7062 7.57814L13.634 23.8646L13.5982 24.3736L22.9433 7.59732L22.7062 7.57814ZM27.4484 7.96172L12.9192 34.0445L12.8835 34.5535L27.6855 7.9809L27.4484 7.96172ZM29.8195 8.15352L12.5618 39.1345L12.4904 40.1525L30.2938 8.19188L29.8195 8.15352ZM32.1907 8.34531L12.2045 44.2245L12.0973 45.7515L32.902 8.40285L32.1907 8.34531ZM34.5618 8.5371L11.8471 49.3145L11.7041 51.3505L35.5102 8.61382L34.5618 8.5371ZM36.9329 8.72889L11.4897 54.4044L11.311 56.9494L38.1184 8.82479L36.9329 8.72889ZM44.0462 9.30427L10.4176 69.6744L10.3818 70.1834L44.2833 9.32345L44.0462 9.30427ZM46.4173 9.49606L10.0602 74.7643L9.98872 75.7823L46.8916 9.53442L46.4173 9.49606ZM48.7884 9.68786L9.70282 79.8543L9.66708 80.3633L49.0256 9.70704L48.7884 9.68786ZM55.9018 10.2632L8.63069 95.1242L8.452 97.6692L57.0873 10.3591L55.9018 10.2632ZM58.2729 10.455L8.27331 100.214L8.13036 102.25L59.2213 10.5317L58.2729 10.455ZM60.644 10.6468L7.91593 105.304L7.80872 106.831L61.3553 10.7044L60.644 10.6468ZM63.0151 10.8386L7.55855 110.394L7.48707 111.412L63.4893 10.877L63.0151 10.8386ZM65.3862 11.0304L7.20117 115.484L7.16543 115.993L65.6233 11.0496L65.3862 11.0304ZM70.1285 11.414L6.48642 125.664L6.45068 126.173L70.3656 11.4332L70.1285 11.414ZM72.4996 11.6058L6.12904 130.754L6.05756 131.772L72.9738 11.6441L72.4996 11.6058ZM74.8707 11.7976L5.77166 135.844L5.72587 136.496C5.70696 136.765 5.70033 137.031 5.70708 137.294L75.582 11.8551L74.8707 11.7976ZM77.2418 11.9894L6.12198 139.664C6.24027 140.017 6.38607 140.354 6.54975 140.682L78.1902 12.0661L77.2418 11.9894ZM79.6129 12.1812L7.33349 141.937C7.5685 142.243 7.82391 142.528 8.10068 142.791L80.7985 12.2771L79.6129 12.1812ZM86.7262 12.7565L13.1934 144.763L13.4305 144.782L86.9633 12.7757L86.7262 12.7565ZM89.0974 12.9483L15.5645 144.954L16.0388 144.993L89.5716 12.9867L89.0974 12.9483ZM91.4685 13.1401L17.9356 145.146L18.1728 145.165L91.7056 13.1593L91.4685 13.1401ZM20.7576 7.5245C20.5759 7.54138 20.3942 7.56134 20.2163 7.59269L13.9914 18.7746L13.9199 19.7926L20.7576 7.5245ZM18.0449 8.37684C17.6029 8.62873 17.1857 8.93269 16.8044 9.27628L14.4249 13.5548C14.361 13.883 14.3114 14.2158 14.2873 14.5595L14.2415 15.2116L18.0449 8.37684ZM97.508 15.6362L25.049 145.721L26.2345 145.817L98.2155 16.5972C98.0024 16.258 97.7685 15.9342 97.508 15.6362ZM98.914 18.0054L27.6572 145.932L28.6057 146.009L99.2565 19.1769C99.1719 18.7741 99.0557 18.3823 98.914 18.0054ZM99.3644 22.097L30.2654 146.143L30.9768 146.201L99.2572 23.624L99.3644 22.097ZM98.9713 27.696L32.8737 146.354L33.3479 146.393L98.8999 28.714L98.9713 27.696ZM98.5782 33.2949L35.4819 146.565L35.719 146.585L98.5425 33.8039L98.5782 33.2949ZM97.8635 43.4749L40.2241 146.949L40.4612 146.968L97.8277 43.9839L97.8635 43.4749ZM97.5418 48.0559L42.3581 147.122L42.8323 147.16L97.4703 49.0739L97.5418 48.0559ZM97.2202 52.6368L44.4921 147.294L45.2034 147.352L97.113 54.1638L97.2202 52.6368ZM96.8985 57.2178L46.6261 147.467L47.5745 147.544L96.7556 59.2538L96.8985 57.2178ZM96.5769 61.7988L48.7601 147.639L49.9457 147.735L96.3982 64.3438L96.5769 61.7988ZM95.5048 77.0687L55.8734 148.215L56.1106 148.234L95.469 77.5777L95.5048 77.0687ZM95.1831 81.6497L58.0074 148.387L58.4817 148.426L95.1116 82.6677L95.1831 81.6497ZM94.79 87.2487L60.6157 148.598L60.8528 148.618L94.7543 87.7577L94.79 87.2487ZM93.7179 102.519L67.729 149.174L68.9146 149.27L93.5392 105.064L93.7179 102.519ZM93.3248 108.118L70.3372 149.385L71.2857 149.461L93.1818 110.154L93.3248 108.118ZM92.9316 113.717L72.9454 149.596L73.6568 149.653L92.8244 115.244L92.9316 113.717ZM92.5385 119.315L75.5537 149.807L76.0279 149.845L92.467 120.333L92.5385 119.315ZM92.1454 124.914L78.1619 150.018L78.399 150.037L92.1097 125.423L92.1454 124.914ZM91.4306 135.094L82.9041 150.401L83.1412 150.42L91.3949 135.603L91.4306 135.094ZM91.109 139.675L85.1996 150.291C85.3945 150.248 85.5876 150.198 85.7767 150.138L91.0375 140.693L91.109 139.675ZM90.7112 144.386L88.3317 148.665C89.5202 147.594 90.3763 146.104 90.7112 144.386Z" fill="#67AD98"/>
<path d="M23.0619 7.60691L77.332 149.951L77.5691 149.97L23.299 7.62609L23.0619 7.60691ZM25.1959 7.77952L79.466 150.123L79.9402 150.161L25.6701 7.81788L25.1959 7.77952ZM27.8041 7.99049L82.0742 150.334L82.3113 150.353L28.0412 8.00967L27.8041 7.99049ZM33.969 8.48915L87.6219 149.223C87.9322 149.007 88.2246 148.767 88.4996 148.502L35.1546 8.58505L33.969 8.48915ZM36.5772 8.70013L89.4498 147.387C89.6573 147.09 89.8486 146.779 90.0149 146.449L37.5257 8.77684L36.5772 8.70013ZM39.1854 8.9111L90.7559 144.174C90.7994 143.914 90.8299 143.651 90.8488 143.382L90.8946 142.729L39.8968 8.96864L39.1854 8.9111ZM41.7937 9.12207L91.1805 138.657L91.252 137.639L42.2679 9.16043L41.7937 9.12207ZM44.4019 9.33304L91.5736 133.058L91.6093 132.549L44.639 9.35222L44.4019 9.33304ZM49.1441 9.71663L92.2884 122.878L92.3241 122.369L49.3812 9.73581L49.1441 9.71663ZM51.2781 9.88924L92.61 118.297L92.6815 117.28L51.7523 9.9276L51.2781 9.88924ZM53.4121 10.0619L92.9316 113.717L93.0389 112.19L54.1234 10.1194L53.4121 10.0619ZM55.5461 10.2345L93.2533 109.136L93.3962 107.1L56.4946 10.3112L55.5461 10.2345ZM57.6801 10.4071L93.5749 104.555L93.7536 102.01L58.8657 10.503L57.6801 10.4071ZM65.7419 11.0592L94.79 87.2487L94.8257 86.7397L65.979 11.0784L65.7419 11.0592ZM67.8759 11.2318L95.1116 82.6677L95.1831 81.6497L68.3501 11.2701L67.8759 11.2318ZM70.4841 11.4428L95.5048 77.0687L95.5405 76.5597L70.7212 11.4619L70.4841 11.4428ZM76.649 11.9414L96.4339 63.8348L96.6126 61.2898L77.8346 12.0373L76.649 11.9414ZM79.2572 12.1524L96.8271 58.2358L96.97 56.1998L80.2057 12.2291L79.2572 12.1524ZM81.8655 12.3634L97.2202 52.6368L97.3274 51.1098L82.5768 12.4209L81.8655 12.3634ZM84.4737 12.5743L97.6133 47.0379L97.6848 46.0199L84.9479 12.6127L84.4737 12.5743ZM87.0819 12.7853L98.0064 41.4389L98.0421 40.9299L87.319 12.8045L87.0819 12.7853ZM91.8241 13.1689L98.7212 31.2589L98.7569 30.7499L92.0612 13.1881L91.8241 13.1689ZM93.9953 13.4485L99.0428 26.678L99.1143 25.66L94.521 13.603C94.3495 13.5434 94.1727 13.4944 93.9953 13.4485ZM96.5584 14.7276L99.3644 22.097L99.4102 21.4448C99.4344 21.1011 99.4319 20.7641 99.4145 20.4294L97.6593 15.8164C97.3303 15.4154 96.9602 15.0477 96.5584 14.7276ZM16.9791 9.12245C16.6799 9.37515 16.4035 9.65772 16.1454 9.95882L69.2702 149.298L70.4558 149.394L16.9791 9.12245ZM15.2582 11.2388C15.0655 11.5886 14.8959 11.9573 14.756 12.3419L66.8991 149.107L67.8476 149.183L15.2582 11.2388ZM14.2415 15.2116L14.1343 16.7386L64.528 148.915L65.2393 148.972L14.2415 15.2116ZM13.8484 20.8106L13.7769 21.8286L62.1569 148.723L62.6311 148.761L13.8484 20.8106ZM13.4553 26.4096L13.4196 26.9186L59.7858 148.531L60.0229 148.55L13.4553 26.4096ZM12.7405 36.5895L12.7048 37.0985L55.0435 148.148L55.2807 148.167L12.7405 36.5895ZM12.4189 41.1705L12.3474 42.1885L52.6724 147.956L53.1467 147.994L12.4189 41.1705ZM12.0973 45.7515L11.99 47.2785L50.3013 147.764L51.0127 147.822L12.0973 45.7515ZM11.7756 50.3325L11.6327 52.3684L47.9302 147.572L48.8787 147.649L11.7756 50.3325ZM11.454 54.9134L11.2753 57.4584L45.5591 147.38L46.7447 147.476L11.454 54.9134ZM10.3818 70.1834L10.3461 70.6924L39.3942 146.882L39.6313 146.901L10.3818 70.1834ZM10.0602 74.7643L9.98872 75.7823L37.0231 146.69L37.4973 146.728L10.0602 74.7643ZM9.66708 80.3633L9.63134 80.8723L34.652 146.498L34.8891 146.517L9.66708 80.3633ZM8.59495 95.6332L8.41626 98.1782L26.5902 145.846L27.7758 145.942L8.59495 95.6332ZM8.20183 101.232L8.05888 103.268L24.2191 145.654L25.1675 145.731L8.20183 101.232ZM7.80872 106.831L7.7015 108.358L21.848 145.463L22.5593 145.52L7.80872 106.831ZM7.4156 112.43L7.34412 113.448L19.4769 145.271L19.9511 145.309L7.4156 112.43ZM7.02248 118.029L6.98675 118.538L17.1058 145.079L17.3429 145.098L7.02248 118.029ZM6.30773 128.209L6.27199 128.718L12.3635 144.695L12.6006 144.715L6.30773 128.209ZM5.98609 132.79L5.91461 133.808L9.79734 143.992C9.97591 144.082 10.1598 144.162 10.3465 144.236L5.98609 132.79ZM5.72164 137.512C5.81281 139.264 6.45131 140.875 7.47681 142.125L5.72164 137.512Z" fill="#AA0000"/>
</svg>
