<svg width="100" height="151" viewBox="0 0 100 151" fill="none" xmlns="http://www.w3.org/2000/svg">
<path d="M85.9101 4L15.0899 4C11.1743 4 8 7.17132 8 11.0833L8 124.417C8 128.329 11.1743 131.5 15.0899 131.5H85.9101C89.8257 131.5 93 128.329 93 124.417L93 11.0833C93 7.17132 89.8257 4 85.9101 4Z" fill="white" stroke="black"/>
<path d="M15.8726 4L8 19.7305V20.2036L16.1093 4L15.8726 4ZM20.6079 4L8 29.1925V29.6656L20.8447 4H20.6079ZM22.9756 4L8 33.9235V34.8697L23.4492 4H22.9756ZM25.3433 4L8 38.6545V40.0737L26.0536 4H25.3433ZM27.711 4L8 43.3854V45.2778L28.6581 4H27.711ZM30.0787 4L8 48.1164V50.4819L31.2625 4H30.0787ZM37.1818 4L8 62.3094V62.7825L37.4185 4H37.1818ZM39.5494 4L8 67.0404V67.9865L40.023 4H39.5494ZM41.9171 4L8 71.7713V72.2444L42.1539 4H41.9171ZM49.0202 4L8 85.9643V88.3298L50.204 4H49.0202ZM51.3879 4L8 90.6953V92.5877L52.335 4H51.3879ZM53.7556 4L8 95.4263L8 96.8456L54.4659 4H53.7556ZM56.1233 4L8 100.157V101.103L56.5968 4H56.1233ZM58.4909 4L8 104.888L8 105.361L58.7277 4H58.4909ZM63.2263 4L8 114.35L8 114.823L63.4631 4H63.2263ZM65.594 4L8 119.081V120.027L66.0675 4H65.594ZM67.9617 4L8 123.812L8 124.418C8 124.669 8.01189 124.914 8.037 125.158L68.672 4H67.9617ZM70.3294 4L8.61412 127.316C8.75618 127.633 8.9245 127.935 9.10985 128.225L71.2765 4H70.3294ZM72.6971 4L9.97554 129.327C10.2302 129.591 10.5037 129.836 10.7968 130.059L73.8809 4H72.6971ZM79.8001 4L15.9909 131.5H16.2277L80.0369 4L79.8001 4ZM82.1678 4L18.3586 131.5H18.8322L82.6414 4H82.1678ZM84.5355 4L20.7263 131.5H20.9631L84.7723 4H84.5355ZM13.934 4.0961C13.7547 4.12528 13.5757 4.15732 13.4013 4.19959L8 14.9995V15.9457L13.934 4.0961ZM11.3 5.08665C10.8787 5.35249 10.4856 5.66461 10.1309 6.01067L8.06659 10.1429C8.02597 10.4509 8 10.7622 8 11.0817V11.6878L11.3 5.08665ZM90.7063 5.85543L27.8294 131.5H29.0132L91.4758 6.69075C91.2405 6.39317 90.9858 6.11135 90.7063 5.85543ZM92.2675 7.94002L30.4338 131.5H31.3809L92.6892 8.9971C92.5771 8.63118 92.4345 8.27777 92.2675 7.94002ZM93 11.6878L33.0383 131.5H33.7486L93 13.1071V11.6878ZM93 16.8919L35.6428 131.5H36.1163L93 17.8381V16.8919ZM93 22.096L38.2472 131.5H38.484L93 22.5691V22.096ZM93 31.558L42.9826 131.5H43.2194L93 32.0311V31.558ZM93 35.8159L45.1135 131.5H45.587L93 36.7621V35.8159ZM93 40.0737L47.2444 131.5H47.9547L93 41.493V40.0737ZM93 44.3316L49.3753 131.5H50.3224L93 46.224V44.3316ZM93 48.5895L51.5063 131.5H52.6901L93 50.955V48.5895ZM93 62.7825L58.6093 131.5H58.8461L93 63.2556V62.7825ZM93 67.0404L60.7402 131.5H61.2138L93 67.9865V67.0404ZM93 72.2444L63.3447 131.5H63.5815L93 72.7175V72.2444ZM93 86.4374L70.4478 131.5H71.6316L93 88.8029V86.4374ZM93 91.6415L73.0522 131.5H73.9993L93 93.5339V91.6415ZM93 96.8456L75.6567 131.5H76.367L93 98.2648V96.8456ZM93 102.05L78.2611 131.5H78.7347L93 102.996V102.05ZM93 107.254L80.8656 131.5H81.1024L93 107.727V107.254ZM93 116.716L85.601 131.5H85.8377L93 117.189V116.716ZM93 120.974L87.8725 131.226C88.063 131.172 88.2512 131.111 88.4348 131.042L93 121.92V120.974ZM92.9334 125.357L90.8691 129.489C91.9745 128.411 92.7207 126.97 92.9334 125.357Z" fill="#8267AD"/>
<path d="M16.2277 4L80.0369 131.5H80.2737L16.4645 4H16.2277ZM18.3586 4L82.1678 131.5H82.6414L18.8322 4H18.3586ZM20.9631 4L84.7723 131.5H85.009L21.1999 4H20.9631ZM27.1191 4L90.2032 130.059C90.4963 129.836 90.7698 129.591 91.0245 129.327L28.3029 4H27.1191ZM29.7235 4L91.8901 128.225C92.0755 127.935 92.2438 127.633 92.3859 127.316L30.6706 4H29.7235ZM32.328 4L92.963 125.158C92.9881 124.914 93 124.669 93 124.418V123.812L33.0383 4H32.328ZM34.9325 4L93 120.027V119.081L35.406 4H34.9325ZM37.5369 4L93 114.823V114.35L37.7737 4H37.5369ZM42.2723 4L93 105.361V104.888L42.5091 4H42.2723ZM44.4032 4L93 101.103V100.157L44.8767 4H44.4032ZM46.5341 4L93 96.8456V95.4263L47.2444 4H46.5341ZM48.665 4L93 92.5877V90.6953L49.6121 4H48.665ZM50.796 4L93 88.3298V85.9643L51.9798 4H50.796ZM58.8461 4L93 72.2444V71.7713L59.0829 4H58.8461ZM60.977 4L93 67.9865V67.0404L61.4506 4H60.977ZM63.5815 4L93 62.7825V62.3094L63.8182 4H63.5815ZM69.7375 4L93 50.4819V48.1164L70.9213 4H69.7375ZM72.3419 4L93 45.2778V43.3854L73.289 4H72.3419ZM74.9464 4L93 40.0737V38.6545L75.6567 4H74.9464ZM77.5508 4L93 34.8697V33.9235L78.0244 4H77.5508ZM80.1553 4L93 29.6656V29.1925L80.3921 4H80.1553ZM84.8907 4L93 20.2036V19.7305L85.1274 4H84.8907ZM87.066 4.0961L93 15.9457V14.9995L87.5987 4.19959C87.4243 4.15732 87.2453 4.12528 87.066 4.0961ZM89.7 5.08665L93 11.6878V11.0817C93 10.7622 92.974 10.4509 92.9334 10.1429L90.8691 6.01067C90.5144 5.66461 90.1213 5.35249 89.7 5.08665ZM10.2937 5.85543C10.0142 6.11135 9.75945 6.39317 9.5242 6.69075L71.9868 131.5H73.1706L10.2937 5.85543ZM8.7325 7.94002C8.56552 8.27777 8.42286 8.63118 8.31076 8.9971L69.6191 131.5H70.5662L8.7325 7.94002ZM8 11.6878V13.1071L67.2514 131.5H67.9617L8 11.6878ZM8 16.8919V17.8381L64.8837 131.5H65.3572L8 16.8919ZM8 22.096V22.5691L62.516 131.5H62.7528L8 22.096ZM8 31.558V32.0311L57.7806 131.5H58.0174L8 31.558ZM8 35.8159V36.7621L55.413 131.5H55.8865L8 35.8159ZM8 40.0737V41.493L53.0453 131.5H53.7556L8 40.0737ZM8 44.3316V46.224L50.6776 131.5H51.6246L8 44.3316ZM8 48.5895V50.955L48.3099 131.5H49.4937L8 48.5895ZM8 62.7825V63.2556L42.1539 131.5H42.3907L8 62.7825ZM8 67.0404V67.9865L39.7862 131.5H40.2598L8 67.0404ZM8 72.2444V72.7175L37.4185 131.5H37.6553L8 72.2444ZM8 86.4374V88.8029L29.3684 131.5H30.5522L8 86.4374ZM8 91.6415V93.5339L27.0007 131.5H27.9478L8 91.6415ZM8 96.8456V98.2648L24.633 131.5H25.3433L8 96.8456ZM8 102.05V102.996L22.2653 131.5H22.7389L8 102.05ZM8 107.254V107.727L19.8976 131.5H20.1344L8 107.254ZM8 116.716V117.189L15.1623 131.5H15.399L8 116.716ZM8 120.974V121.92L12.5652 131.042C12.7488 131.111 12.937 131.172 13.1275 131.226L8 120.974ZM8.06659 125.357C8.27929 126.97 9.02555 128.411 10.1309 129.489L8.06659 125.357Z" fill="#AA0000"/>
<path d="M90.0861 18.3776L19.5036 12.5804C15.6011 12.2598 12.1779 15.1607 11.8577 19.0596L2.58045 132.013C2.26022 135.911 5.16424 139.332 9.06674 139.652L79.6493 145.45C83.5518 145.77 86.975 142.869 87.2952 138.97L96.5724 26.0175C96.8926 22.1186 93.9886 18.6981 90.0861 18.3776Z" fill="white" stroke="black"/>
<path d="M20.2836 12.6444L11.1498 27.6777L11.1111 28.1492L20.5196 12.6638L20.2836 12.6444ZM25.0031 13.0321L10.3753 37.1079L10.3366 37.5795L25.2391 13.0514L25.0031 13.0321ZM27.3629 13.2259L9.98803 41.823L9.91058 42.7661L27.8348 13.2646L27.3629 13.2259ZM29.7226 13.4197L9.60076 46.5382L9.48458 47.9527L30.4305 13.4778L29.7226 13.4197ZM32.0824 13.6135L9.21349 51.2533L9.05859 53.1393L33.0262 13.691L32.0824 13.6135ZM34.4421 13.8073L8.82623 55.9684L8.63259 58.3259L35.622 13.9042L34.4421 13.8073ZM41.5213 14.3888L7.66442 70.1137L7.6257 70.5852L41.7573 14.4081L41.5213 14.3888ZM43.8811 14.5826L7.27715 74.8288L7.1997 75.7718L44.353 14.6213L43.8811 14.5826ZM46.2408 14.7764L6.88989 79.5439L6.85116 80.0154L46.4768 14.7958L46.2408 14.7764ZM53.32 15.3578L5.72808 93.6892L5.53445 96.0468L54.4999 15.4547L53.32 15.3578ZM55.6798 15.5516L5.34081 98.4043L5.18591 100.29L56.6237 15.6292L55.6798 15.5516ZM58.0395 15.7455L4.95355 103.119L4.83737 104.534L58.7474 15.8036L58.0395 15.7455ZM60.3993 15.9393L4.56628 107.835L4.48882 108.778L60.8712 15.978L60.3993 15.9393ZM62.759 16.1331L4.17901 112.55L4.14028 113.021L62.995 16.1525L62.759 16.1331ZM67.4785 16.5207L3.40447 121.98L3.36575 122.451L67.7145 16.5401L67.4785 16.5207ZM69.8382 16.7145L3.01721 126.695L2.93975 127.638L70.3102 16.7533L69.8382 16.7145ZM72.198 16.9083L2.62994 131.41L2.58032 132.014C2.55983 132.264 2.55159 132.509 2.55668 132.754L72.9059 16.9665L72.198 16.9083ZM74.5577 17.1021L2.95518 134.952C3.07077 135.28 3.21386 135.595 3.37482 135.899L75.5016 17.1797L74.5577 17.1021ZM76.9175 17.296L4.14744 137.068C4.37955 137.353 4.63211 137.619 4.90607 137.864L78.0973 17.3929L76.9175 17.296ZM83.9967 17.8774L9.96476 139.726L10.2007 139.746L84.2326 17.8968L83.9967 17.8774ZM86.3564 18.0712L12.3245 139.92L12.7964 139.959L86.8284 18.11L86.3564 18.0712ZM88.7162 18.265L14.6842 140.114L14.9202 140.133L88.9521 18.2844L88.7162 18.265ZM18.3437 12.5815C18.1627 12.5959 17.9816 12.6132 17.8043 12.6411L11.5371 22.9626L11.4596 23.9056L18.3437 12.5815ZM15.6374 13.3531C15.1958 13.5836 14.7785 13.8625 14.3967 14.1784L12.001 18.1277C11.9353 18.4314 11.884 18.7395 11.8578 19.0579L11.8082 19.662L15.6374 13.3531ZM94.7144 20.6194L21.7635 140.695L22.9433 140.792L95.4129 21.5149C95.2028 21.199 94.9719 20.8973 94.7144 20.6194ZM96.0997 22.8248L24.3592 140.908L25.3031 140.986L96.4335 23.9128C96.3517 23.5389 96.2384 23.175 96.0997 22.8248ZM96.5229 26.62L26.9549 141.122L27.6628 141.18L96.4068 28.0345L96.5229 26.62ZM96.0969 31.8066L29.5506 141.335L30.0226 141.374L96.0195 32.7496L96.0969 31.8066ZM95.6709 36.9932L32.1463 141.548L32.3823 141.567L95.6322 37.4647L95.6709 36.9932ZM94.8964 46.4234L36.8658 141.936L37.1018 141.955L94.8577 46.8949L94.8964 46.4234ZM94.5479 50.667L38.9896 142.11L39.4615 142.149L94.4704 51.61L94.5479 50.667ZM94.1993 54.9106L41.1134 142.285L41.8213 142.343L94.0831 56.3251L94.1993 54.9106ZM93.8508 59.1542L43.2371 142.459L44.181 142.537L93.6959 61.0402L93.8508 59.1542ZM93.5022 63.3978L45.3609 142.633L46.5408 142.73L93.3086 65.7553L93.5022 63.3978ZM92.3404 77.5431L52.4401 143.215L52.6761 143.234L92.3017 78.0146L92.3404 77.5431ZM91.9919 81.7867L54.5639 143.389L55.0358 143.428L91.9144 82.7297L91.9919 81.7867ZM91.5659 86.9733L57.1596 143.603L57.3956 143.622L91.5272 87.4448L91.5659 86.9733ZM90.4041 101.119L64.2388 144.184L65.4187 144.281L90.2105 103.476L90.4041 101.119ZM89.9781 106.305L66.8345 144.397L67.7784 144.475L89.8232 108.191L89.9781 106.305ZM89.5521 111.492L69.4303 144.61L70.1382 144.668L89.4359 112.906L89.5521 111.492ZM89.1261 116.678L72.026 144.824L72.4979 144.862L89.0487 117.622L89.1261 116.678ZM88.7001 121.865L74.6217 145.037L74.8577 145.056L88.6614 122.337L88.7001 121.865ZM87.9256 131.295L79.3412 145.424L79.5772 145.444L87.8869 131.767L87.9256 131.295ZM87.577 135.539L81.6274 145.338C81.8218 145.299 82.0144 145.254 82.203 145.2L87.4996 136.482L87.577 135.539ZM87.1518 139.902L84.7562 143.852C85.9462 142.867 86.8078 141.492 87.1518 139.902Z" fill="#8267AD"/>
<path d="M20.6376 12.6735L73.7958 144.969L74.0318 144.988L20.8736 12.6929L20.6376 12.6735ZM22.7614 12.8479L75.9195 145.143L76.3915 145.182L23.2333 12.8867L22.7614 12.8479ZM25.3571 13.0611L78.5153 145.357L78.7512 145.376L25.5931 13.0805L25.3571 13.0611ZM31.4924 13.565L84.0459 144.364C84.3563 144.167 84.6489 143.945 84.9244 143.702L32.6723 13.662L31.4924 13.565ZM34.0881 13.7782L85.8773 142.675C86.0858 142.401 86.2782 142.115 86.4458 141.81L35.032 13.8558L34.0881 13.7782ZM36.6838 13.9914L87.1977 139.706C87.2426 139.465 87.2746 139.222 87.2951 138.972L87.3447 138.368L37.3918 14.0496L36.6838 13.9914ZM39.2796 14.2046L87.6545 134.596L87.7319 133.653L39.7515 14.2434L39.2796 14.2046ZM41.8753 14.4178L88.0805 129.409L88.1192 128.938L42.1113 14.4372L41.8753 14.4178ZM46.5948 14.8055L88.855 119.979L88.8938 119.508L46.8307 14.8248L46.5948 14.8055ZM48.7185 14.9799L89.2036 115.735L89.281 114.792L49.1905 15.0186L48.7185 14.9799ZM50.8423 15.1543L89.5521 111.492L89.6683 110.077L51.5502 15.2125L50.8423 15.1543ZM52.9661 15.3288L89.9006 107.248L90.0556 105.362L53.91 15.4063L52.9661 15.3288ZM55.0898 15.5032L90.2492 103.005L90.4428 100.647L56.2697 15.6001L55.0898 15.5032ZM63.113 16.1622L91.5659 86.9733L91.6046 86.5018L63.3489 16.1815L63.113 16.1622ZM65.2367 16.3366L91.9144 82.7297L91.9919 81.7867L65.7087 16.3753L65.2367 16.3366ZM67.8324 16.5498L92.3404 77.5431L92.3792 77.0716L68.0684 16.5692L67.8324 16.5498ZM73.9678 17.0537L93.3473 65.2838L93.541 62.9263L75.1476 17.1506L73.9678 17.0537ZM76.5635 17.2669L93.7733 60.0972L93.9282 58.2112L77.5074 17.3444L76.5635 17.2669ZM79.1592 17.4801L94.1993 54.9106L94.3155 53.4961L79.8671 17.5382L79.1592 17.4801ZM81.7549 17.6933L94.6253 49.724L94.7028 48.781L82.2269 17.732L81.7549 17.6933ZM84.3506 17.9065L95.0513 44.5374L95.09 44.0659L84.5866 17.9259L84.3506 17.9065ZM89.0701 18.2941L95.8258 35.1072L95.8646 34.6356L89.3061 18.3135L89.0701 18.2941ZM91.2303 18.5679L96.1744 30.8636L96.2518 29.9205L91.7527 18.7147C91.5824 18.6583 91.4066 18.6117 91.2303 18.5679ZM93.7744 19.7708L96.5229 26.62L96.5725 26.0158C96.5987 25.6974 96.5983 25.3851 96.583 25.0747L94.8639 20.7874C94.5388 20.4135 94.1725 20.0702 93.7744 19.7708ZM14.5716 14.037C14.2722 14.2691 13.9951 14.5292 13.7363 14.8065L65.7727 144.31L66.9525 144.407L14.5716 14.037ZM12.845 15.9868C12.651 16.3097 12.4798 16.6503 12.3382 17.0058L63.4129 144.116L64.3568 144.194L12.845 15.9868ZM11.8082 19.662L11.692 21.0766L61.0532 143.922L61.7611 143.98L11.8082 19.662ZM11.3822 24.8487L11.3047 25.7917L58.6934 143.728L59.1654 143.767L11.3822 24.8487ZM10.9562 30.0353L10.9175 30.5068L56.3337 143.535L56.5697 143.554L10.9562 30.0353ZM10.1817 39.4655L10.1429 39.937L51.6142 143.147L51.8502 143.166L10.1817 39.4655ZM9.83312 43.7091L9.75567 44.6521L49.2545 142.953L49.7264 142.992L9.83312 43.7091ZM9.48458 47.9527L9.3684 49.3672L46.8947 142.759L47.6026 142.818L9.48458 47.9527ZM9.13604 52.1963L8.98113 54.0823L44.535 142.566L45.4789 142.643L9.13604 52.1963ZM8.7875 56.4399L8.59387 58.7974L42.1752 142.372L43.3551 142.469L8.7875 56.4399ZM7.6257 70.5852L7.58697 71.0567L36.0399 141.868L36.2759 141.887L7.6257 70.5852ZM7.27715 74.8288L7.1997 75.7718L33.6802 141.674L34.1521 141.713L7.27715 74.8288ZM6.85116 80.0154L6.81243 80.4869L31.3204 141.48L31.5564 141.5L6.85116 80.0154ZM5.68936 94.1607L5.49572 96.5183L23.2973 140.821L24.4772 140.918L5.68936 94.1607ZM5.26336 99.3473L5.10845 101.233L20.9376 140.627L21.8815 140.705L5.26336 99.3473ZM4.83737 104.534L4.72118 105.948L18.5778 140.434L19.2857 140.492L4.83737 104.534ZM4.41137 109.721L4.33392 110.664L16.2181 140.24L16.69 140.279L4.41137 109.721ZM3.98538 114.907L3.94665 115.379L13.8583 140.046L14.0943 140.065L3.98538 114.907ZM3.21084 124.337L3.17211 124.809L9.13885 139.658L9.37482 139.678L3.21084 124.337ZM2.8623 128.581L2.78485 129.524L6.58802 138.989C6.76527 139.073 6.94785 139.149 7.13333 139.219L2.8623 128.581ZM2.56984 132.955C2.6498 134.58 3.27561 136.077 4.28898 137.243L2.56984 132.955Z" fill="#AA0000"/>
<path d="M80.9127 5.16785L10.2322 9.61353C6.32425 9.85933 3.35533 13.2237 3.6009 17.128L10.7153 130.238C10.9609 134.142 14.328 137.108 18.2359 136.862L88.9164 132.416C92.8243 132.171 95.7932 128.806 95.5477 124.902L88.4333 11.7922C88.1877 7.88785 84.8206 4.92205 80.9127 5.16785Z" fill="white" stroke="black"/>
<path d="M11.0133 9.5644L4.14372 25.7581L4.17342 26.2303L11.2496 9.54954L11.0133 9.5644ZM15.7393 9.26714L4.73769 35.2014L4.76739 35.6736L15.9756 9.25228L15.7393 9.26714ZM18.1023 9.11851L5.03467 39.923L5.09407 40.8674L18.5749 9.08879L18.1023 9.11851ZM20.4654 8.96988L5.33165 44.6447L5.42075 46.0612L21.1743 8.92529L20.4654 8.96988ZM22.8284 8.82125L5.62864 49.3664L5.74743 51.255L23.7736 8.7618L22.8284 8.82125ZM25.1914 8.67262L5.92562 54.088L6.07411 56.4488L26.3729 8.59831L25.1914 8.67262ZM32.2805 8.22673L6.81657 68.253L6.84627 68.7251L32.5168 8.21187L32.2805 8.22673ZM34.6435 8.0781L7.11356 72.9746L7.17295 73.9189L35.1161 8.04838L34.6435 8.0781ZM37.0065 7.92947L7.41054 77.6963L7.44024 78.1684L37.2428 7.91461L37.0065 7.92947ZM44.0955 7.48359L8.30149 91.8612L8.44998 94.2221L45.277 7.40927L44.0955 7.48359ZM46.4586 7.33496L8.59847 96.5829L8.71727 98.4715L47.4038 7.2755L46.4586 7.33496ZM48.8216 7.18633L8.89546 101.305L8.98455 102.721L49.5305 7.14174L48.8216 7.18633ZM51.1846 7.0377L9.19244 106.026L9.25184 106.971L51.6572 7.00797L51.1846 7.0377ZM53.5476 6.88907L9.48942 110.748L9.51912 111.22L53.7839 6.8742L53.5476 6.88907ZM58.2737 6.59181L10.0834 120.191L10.1131 120.663L58.51 6.57694L58.2737 6.59181ZM60.6367 6.44318L10.3804 124.913L10.4398 125.857L61.1093 6.41345L60.6367 6.44318ZM62.9997 6.29455L10.6774 129.634L10.7154 130.239C10.7311 130.489 10.7584 130.733 10.7987 130.975L63.7086 6.24996L62.9997 6.29455ZM65.3627 6.14592L11.5102 133.093C11.6719 133.401 11.8588 133.691 12.0621 133.969L66.3079 6.08647L65.3627 6.14592ZM67.7257 5.99729L12.9952 135.014C13.2659 135.262 13.5542 135.489 13.8608 135.693L68.9072 5.92297L67.7257 5.99729ZM74.8148 5.5514L19.1351 136.806L19.3714 136.791L75.0511 5.53654L74.8148 5.5514ZM77.1778 5.40277L21.4982 136.657L21.9708 136.627L77.6504 5.37304L77.1778 5.40277ZM79.5408 5.25414L23.8612 136.508L24.0975 136.493L79.7771 5.23928L79.5408 5.25414ZM9.0846 9.782C8.9075 9.82238 8.73084 9.86559 8.55941 9.91873L3.84674 21.0364L3.90613 21.9808L9.0846 9.782ZM6.51792 10.9359C6.11415 11.2277 5.7414 11.5639 5.40918 11.9315L3.60832 16.1852C3.58712 16.4952 3.58074 16.8075 3.6008 17.1263L3.63885 17.7313L6.51792 10.9359ZM85.8159 6.71855L30.9502 136.062L32.1317 135.988L86.6363 7.50391C86.3828 7.22169 86.1109 6.95642 85.8159 6.71855ZM87.5049 8.70102L33.5496 135.899L34.4948 135.839L87.9921 9.72954C87.8573 9.37138 87.6927 9.02762 87.5049 8.70102ZM88.4712 12.3955L36.1489 135.735L36.8578 135.691L88.5603 13.812L88.4712 12.3955ZM88.7979 17.5893L38.7482 135.572L39.2208 135.542L88.8573 18.5336L88.7979 17.5893ZM89.1246 22.7831L41.3475 135.408L41.5838 135.394L89.1543 23.2553L89.1246 22.7831ZM89.7185 32.2264L46.0736 135.111L46.3099 135.096L89.7482 32.6986L89.7185 32.2264ZM89.9858 36.4759L48.2003 134.977L48.6729 134.948L90.0452 37.4202L89.9858 36.4759ZM90.2531 40.7254L50.327 134.844L51.0359 134.799L90.3422 42.1419L90.2531 40.7254ZM90.5204 44.9749L52.4537 134.71L53.3989 134.65L90.6392 46.8635L90.5204 44.9749ZM90.7877 49.2244L54.5804 134.576L55.7619 134.502L90.9362 51.5852L90.7877 49.2244ZM91.6786 63.3893L61.6695 134.13L61.9058 134.115L91.7083 63.8615L91.6786 63.3893ZM91.9459 67.6388L63.7962 133.996L64.2688 133.967L92.0053 68.5831L91.9459 67.6388ZM92.2726 72.8326L66.3955 133.833L66.6318 133.818L92.3023 73.3048L92.2726 72.8326ZM93.1635 86.9976L73.4846 133.387L74.6661 133.313L93.312 89.3584L93.1635 86.9976ZM93.4902 92.1914L76.0839 133.224L77.0291 133.164L93.609 94.0801L93.4902 92.1914ZM93.8169 97.3852L78.6832 133.06L79.3921 133.015L93.906 98.8017L93.8169 97.3852ZM94.1436 102.579L81.2825 132.897L81.7551 132.867L94.203 103.523L94.1436 102.579ZM94.4703 107.773L83.8818 132.733L84.1181 132.718L94.5 108.245L94.4703 107.773ZM95.0642 117.216L88.6079 132.436L88.8442 132.421L95.0939 117.688L95.0642 117.216ZM95.3315 121.466L90.8577 132.02C91.0445 131.954 91.2285 131.881 91.4073 131.8L95.3909 122.41L95.3315 121.466ZM95.5402 125.845L93.7394 130.098C94.7749 128.953 95.4292 127.468 95.5402 125.845Z" fill="#8267AD"/>
<path d="M11.3677 9.54211L83.0548 132.785L83.2911 132.77L11.604 9.52724L11.3677 9.54211ZM13.4945 9.40834L85.1815 132.651L85.6541 132.622L13.9671 9.37861L13.4945 9.40834ZM16.0938 9.24485L87.7808 132.488L88.0171 132.473L16.3301 9.22998L16.0938 9.24485ZM22.2376 8.85841L93.1105 130.708C93.3891 130.468 93.6467 130.207 93.8842 129.926L23.4191 8.78409L22.2376 8.85841ZM24.8369 8.69492L94.6791 128.773C94.8458 128.471 94.9949 128.16 95.1168 127.834L25.7822 8.63546L24.8369 8.69492ZM27.4363 8.53142L95.5572 125.644C95.567 125.399 95.5635 125.153 95.5478 124.904L95.5097 124.299L28.1452 8.48684L27.4363 8.53142ZM30.0356 8.36793L95.2721 120.521L95.2127 119.577L30.5082 8.33821L30.0356 8.36793ZM32.6349 8.20444L94.9454 115.328L94.9157 114.855L32.8712 8.18958L32.6349 8.20444ZM37.3609 7.90718L94.3515 105.884L94.3218 105.412L37.5972 7.89232L37.3609 7.90718ZM39.4877 7.77341L94.0842 101.635L94.0248 100.69L39.9603 7.74369L39.4877 7.77341ZM41.6144 7.63965L93.8169 97.3852L93.7278 95.9687L42.3233 7.59506L41.6144 7.63965ZM43.7411 7.50588L93.5496 93.1357L93.4308 91.2471L44.6863 7.44643L43.7411 7.50588ZM45.8678 7.37211L93.2823 88.8863L93.1338 86.5254L47.0493 7.2978L45.8678 7.37211ZM53.9021 6.86677L92.2726 72.8326L92.2429 72.3605L54.1384 6.85191L53.9021 6.86677ZM56.0288 6.73301L92.0053 68.5831L91.9459 67.6388L56.5014 6.70328L56.0288 6.73301ZM58.6281 6.56951L91.6786 63.3893L91.6489 62.9172L58.8644 6.55465L58.6281 6.56951ZM64.772 6.18308L90.9065 51.113L90.758 48.7522L65.9535 6.10876L64.772 6.18308ZM67.3713 6.01958L90.5798 45.9192L90.461 44.0305L68.3165 5.96013L67.3713 6.01958ZM69.9706 5.85609L90.2531 40.7254L90.164 39.3089L70.6795 5.8115L69.9706 5.85609ZM72.5699 5.6926L89.9264 35.5316L89.867 34.5872L73.0425 5.66287L72.5699 5.6926ZM75.1692 5.52911L89.5997 30.3378L89.57 29.8656L75.4055 5.51424L75.1692 5.52911ZM79.8953 5.23185L89.0058 20.8945L88.9761 20.4223L80.1316 5.21698L79.8953 5.23185ZM82.0723 5.1912L88.7385 16.645L88.6791 15.7006L82.6105 5.26105C82.4338 5.22981 82.2531 5.20907 82.0723 5.1912ZM84.7634 6.01445L88.4712 12.3955L88.4332 11.7905C88.4131 11.4717 88.3676 11.1626 88.3078 10.8577L85.9881 6.86326C85.6124 6.54015 85.2005 6.25332 84.7634 6.01445ZM5.5619 11.7664C5.29906 12.0393 5.06246 12.3366 4.84635 12.6484L75.0205 133.29L76.202 133.216L5.5619 11.7664ZM4.13464 13.9449C3.98919 14.2924 3.869 14.6541 3.78009 15.0263L72.6575 133.439L73.6027 133.38L4.13464 13.9449ZM3.63885 17.7313L3.72794 19.1478L70.2945 133.588L71.0034 133.543L3.63885 17.7313ZM3.96553 22.9251L4.02493 23.8694L67.9315 133.736L68.4041 133.707L3.96553 22.9251ZM4.29221 28.1189L4.32191 28.5911L65.5685 133.885L65.8048 133.87L4.29221 28.1189ZM4.88618 37.5622L4.91588 38.0344L60.8424 134.182L61.0787 134.167L4.88618 37.5622ZM5.15346 41.8117L5.21286 42.756L58.4794 134.331L58.952 134.301L5.15346 41.8117ZM5.42075 46.0612L5.50984 47.4777L56.1164 134.479L56.8253 134.435L5.42075 46.0612ZM5.68803 50.3107L5.80683 52.1993L53.7534 134.628L54.6986 134.569L5.68803 50.3107ZM5.95532 54.5602L6.10381 56.921L51.3903 134.777L52.5719 134.702L5.95532 54.5602ZM6.84627 68.7251L6.87597 69.1973L45.2465 135.163L45.4828 135.148L6.84627 68.7251ZM7.11356 72.9746L7.17295 73.9189L42.8835 135.312L43.3561 135.282L7.11356 72.9746ZM7.44024 78.1684L7.46994 78.6406L40.5205 135.46L40.7568 135.446L7.44024 78.1684ZM8.33119 92.3334L8.47968 94.6942L32.4862 135.966L33.6677 135.891L8.33119 92.3334ZM8.65787 97.5272L8.77666 99.4159L30.1232 136.114L31.0684 136.055L8.65787 97.5272ZM8.98455 102.721L9.07365 104.138L27.7602 136.263L28.4691 136.218L8.98455 102.721ZM9.31123 107.915L9.37063 108.859L25.3971 136.412L25.8697 136.382L9.31123 107.915ZM9.63792 113.109L9.66761 113.581L23.0341 136.56L23.2704 136.545L9.63792 113.109ZM10.2319 122.552L10.2616 123.024L18.3081 136.858L18.5444 136.843L10.2319 122.552ZM10.4992 126.801L10.5586 127.746L15.6874 136.563C15.8749 136.621 16.0666 136.67 16.2602 136.712L10.4992 126.801ZM10.8408 131.172C11.1543 132.769 11.9896 134.16 13.1605 135.167L10.8408 131.172Z" fill="#AA0000"/>
<path d="M78.6172 12.6142L8.06326 18.7491C4.16233 19.0883 1.27472 22.5227 1.6136 26.42L11.4313 139.327C11.7701 143.225 15.2072 146.109 19.1081 145.77L89.6621 139.635C93.563 139.296 96.4506 135.861 96.1117 131.964L86.2941 19.0568C85.9552 15.1594 82.5181 12.275 78.6172 12.6142Z" fill="white" stroke="black"/>
<path d="M8.84297 18.6813L2.36268 35.0347L2.40366 35.506L9.07885 18.6608L8.84297 18.6813ZM13.5605 18.2711L3.18233 44.4611L3.22332 44.9324L13.7964 18.2506L13.5605 18.2711ZM15.9193 18.066L3.59216 49.1743L3.67413 50.1169L16.3911 18.025L15.9193 18.066ZM18.2781 17.8609L4.00199 53.8875L4.12494 55.3014L18.9858 17.7994L18.2781 17.8609ZM20.6369 17.6558L4.41182 58.6007L4.57575 60.4859L21.5804 17.5737L20.6369 17.6558ZM22.9957 17.4507L4.82164 63.3139L5.02656 65.6705L24.1751 17.3481L22.9957 17.4507ZM30.0721 16.8354L6.05113 77.4535L6.09211 77.9248L30.3079 16.8149L30.0721 16.8354ZM32.4308 16.6303L6.46096 82.1667L6.54292 83.1093L32.9026 16.5892L32.4308 16.6303ZM34.7896 16.4252L6.87078 86.8799L6.91177 87.3512L35.0255 16.4047L34.7896 16.4252ZM41.866 15.8099L8.10027 101.019L8.30518 103.376L43.0454 15.7073L41.866 15.8099ZM44.2248 15.6047L8.51009 105.733L8.67403 107.618L45.1683 15.5227L44.2248 15.6047ZM46.5836 15.3996L8.91992 110.446L9.04287 111.86L47.2912 15.3381L46.5836 15.3996ZM48.9424 15.1945L9.32975 115.159L9.41172 116.102L49.4141 15.1535L48.9424 15.1945ZM51.3011 14.9894L9.73958 119.872L9.78056 120.344L51.537 14.9689L51.3011 14.9894ZM56.0187 14.5792L10.5592 129.299L10.6002 129.77L56.2546 14.5587L56.0187 14.5792ZM58.3775 14.3741L10.9691 134.012L11.051 134.954L58.8493 14.3331L58.3775 14.3741ZM60.7363 14.169L11.3789 138.725L11.4314 139.329C11.4531 139.578 11.4862 139.822 11.5323 140.062L61.4439 14.1075L60.7363 14.169ZM63.0951 13.9639L12.2942 142.163C12.4633 142.466 12.6571 142.752 12.8669 143.025L64.0386 13.8819L63.0951 13.9639ZM65.4539 13.7588L13.8247 144.048C14.1013 144.289 14.395 144.509 14.7063 144.706L66.6333 13.6563L65.4539 13.7588ZM72.5302 13.1435L20.0058 145.692L20.2416 145.671L72.7661 13.123L72.5302 13.1435ZM74.889 12.9384L22.3646 145.487L22.8363 145.446L75.3608 12.8974L74.889 12.9384ZM77.2478 12.7333L24.7233 145.282L24.9592 145.261L77.4837 12.7128L77.2478 12.7333ZM6.92004 18.945C6.74395 18.9896 6.56838 19.037 6.39827 19.0942L1.95285 30.3215L2.03482 31.2641L6.92004 18.945ZM4.38169 20.16C3.98502 20.4613 3.62041 20.8063 3.29709 21.1818L1.59848 25.4773C1.58469 25.7877 1.58579 26.1001 1.61346 26.4184L1.66597 27.0222L4.38169 20.16ZM83.5561 14.0472L31.7997 144.666L32.9791 144.564L84.3951 14.8127C84.1349 14.5366 83.8567 14.2779 83.5561 14.0472ZM85.292 15.9887L34.3944 144.441L35.3379 144.359L85.8038 17.0053C85.6604 16.6504 85.4876 16.3107 85.292 15.9887ZM86.3464 19.659L36.989 144.215L37.6967 144.153L86.4694 21.0729L86.3464 19.659ZM86.7973 24.8435L39.5837 143.989L40.0555 143.948L86.8792 25.7861L86.7973 24.8435ZM87.2481 30.028L42.1784 143.764L42.4142 143.743L87.289 30.4993L87.2481 30.028ZM88.0677 39.4544L46.8959 143.354L47.1318 143.333L88.1087 39.9257L88.0677 39.4544ZM88.4366 43.6963L49.0189 143.169L49.4906 143.128L88.5185 44.6389L88.4366 43.6963ZM88.8054 47.9382L51.1418 142.984L51.8494 142.923L88.9284 49.3521L88.8054 47.9382ZM89.1743 52.1801L53.2647 142.8L54.2082 142.718L89.3382 54.0653L89.1743 52.1801ZM89.5431 56.4219L55.3876 142.615L56.567 142.513L89.748 58.7785L89.5431 56.4219ZM90.7726 70.5615L62.4639 142L62.6998 141.979L90.8136 71.0329L90.7726 70.5615ZM91.1414 74.8034L64.5869 141.815L65.0586 141.774L91.2234 75.7461L91.1414 74.8034ZM91.5922 79.9879L67.1815 141.59L67.4174 141.569L91.6332 80.4593L91.5922 79.9879ZM92.8217 94.1275L74.2579 140.974L75.4373 140.872L93.0266 96.4841L92.8217 94.1275ZM93.2725 99.312L76.8525 140.749L77.7961 140.667L93.4365 101.197L93.2725 99.312ZM93.7233 104.497L79.4472 140.523L80.1548 140.462L93.8463 105.911L93.7233 104.497ZM94.1742 109.681L82.0419 140.298L82.5136 140.257L94.2561 110.624L94.1742 109.681ZM94.625 114.866L84.6365 140.072L84.8724 140.051L94.6659 115.337L94.625 114.866ZM95.4446 124.292L89.3541 139.662L89.59 139.641L95.4856 124.763L95.4446 124.292ZM95.8135 128.534L91.5934 139.192C91.7785 139.122 91.9607 139.045 92.1376 138.96L95.8954 129.477L95.8135 128.534ZM96.1269 132.907L94.4282 137.202C95.436 136.032 96.0547 134.532 96.1269 132.907Z" fill="#8267AD"/>
<path d="M9.19679 18.6505L83.811 140.144L84.0468 140.123L9.43266 18.63L9.19679 18.6505ZM11.3197 18.466L85.9339 139.959L86.4056 139.918L11.7915 18.4249L11.3197 18.466ZM13.9144 18.2403L88.5285 139.733L88.7644 139.713L14.1502 18.2198L13.9144 18.2403ZM20.0472 17.7071L93.8141 137.827C94.0869 137.58 94.3382 137.313 94.569 137.027L21.2266 17.6045L20.0472 17.7071ZM22.6419 17.4815L95.336 135.854C95.4955 135.549 95.6371 135.234 95.7511 134.906L23.5854 17.3994L22.6419 17.4815ZM25.2365 17.2558L96.1391 132.705C96.143 132.461 96.1336 132.215 96.1119 131.966L96.0594 131.362L25.9442 17.1943L25.2365 17.2558ZM27.8312 17.0302L95.7315 127.591L95.6495 126.649L28.303 16.9892L27.8312 17.0302ZM30.4259 16.8046L95.2807 122.407L95.2397 121.935L30.6618 16.7841L30.4259 16.8046ZM35.1434 16.3944L94.461 112.98L94.4201 112.509L35.3793 16.3739L35.1434 16.3944ZM37.2664 16.2098L94.0922 108.738L94.0102 107.796L37.7381 16.1688L37.2664 16.2098ZM39.3893 16.0252L93.7233 104.497L93.6004 103.083L40.0969 15.9637L39.3893 16.0252ZM41.5122 15.8406L93.3545 100.255L93.1906 98.3694L42.4557 15.7586L41.5122 15.8406ZM43.6351 15.656L92.9857 96.0128L92.7807 93.6562L44.8145 15.5535L43.6351 15.656ZM51.655 14.9587L91.5922 79.9879L91.5513 79.5166L51.8908 14.9382L51.655 14.9587ZM53.7779 14.7741L91.2234 75.7461L91.1414 74.8034L54.2496 14.7331L53.7779 14.7741ZM56.3725 14.5485L90.7726 70.5615L90.7316 70.0902L56.6084 14.528L56.3725 14.5485ZM62.5054 14.0152L89.707 58.3072L89.5021 55.9506L63.6848 13.9126L62.5054 14.0152ZM65.1 13.7896L89.2562 53.1227L89.0923 51.2374L66.0436 13.7075L65.1 13.7896ZM67.6947 13.564L88.8054 47.9382L88.6825 46.5242L68.4024 13.5024L67.6947 13.564ZM70.2894 13.3383L88.3546 42.7537L88.2726 41.811L70.7611 13.2973L70.2894 13.3383ZM72.884 13.1127L87.9038 37.5691L87.8628 37.0978L73.1199 13.0922L72.884 13.1127ZM77.6016 12.7025L87.0841 28.1427L87.0432 27.6714L77.8375 12.682L77.6016 12.7025ZM79.7771 12.6098L86.7153 23.9009L86.6333 22.9582L80.3168 12.6668C80.1393 12.6398 79.9582 12.6234 79.7771 12.6098ZM82.487 13.3685L86.3464 19.659L86.2939 19.0551C86.2663 18.7368 86.2134 18.429 86.1463 18.1256L83.7317 14.1877C83.3485 13.8737 82.9298 13.5968 82.487 13.3685ZM3.4458 21.013C3.18957 21.2922 2.96015 21.595 2.75156 21.9119L75.7911 140.841L76.9705 140.738L3.4458 21.013ZM2.07106 23.225C1.93396 23.576 1.82245 23.9404 1.74247 24.3147L73.4323 141.046L74.3758 140.964L2.07106 23.225ZM1.66597 27.0222L1.78892 28.4362L71.0735 141.251L71.7812 141.19L1.66597 27.0222ZM2.11678 32.2067L2.19875 33.1494L68.7147 141.456L69.1865 141.415L2.11678 32.2067ZM2.56759 37.3913L2.60857 37.8626L66.3559 141.661L66.5918 141.641L2.56759 37.3913ZM3.38725 46.8177L3.42823 47.289L61.6384 142.072L61.8742 142.051L3.38725 46.8177ZM3.75609 51.0595L3.83806 52.0022L59.2796 142.277L59.7513 142.236L3.75609 51.0595ZM4.12494 55.3014L4.24789 56.7154L56.9208 142.482L57.6284 142.42L4.12494 55.3014ZM4.49378 59.5433L4.65771 61.4286L54.562 142.687L55.5055 142.605L4.49378 59.5433ZM4.86263 63.7852L5.06754 66.1418L52.2032 142.892L53.3826 142.79L4.86263 63.7852ZM6.09211 77.9248L6.13309 78.3961L46.0704 143.425L46.3062 143.405L6.09211 77.9248ZM6.46096 82.1667L6.54292 83.1093L43.7116 143.63L44.1833 143.589L6.46096 82.1667ZM6.91177 87.3512L6.95275 87.8225L41.3528 143.836L41.5887 143.815L6.91177 87.3512ZM8.14125 101.491L8.34616 103.847L33.3329 144.533L34.5123 144.43L8.14125 101.491ZM8.59206 106.675L8.75599 108.561L30.9741 144.738L31.9176 144.656L8.59206 106.675ZM9.04287 111.86L9.16582 113.274L28.6153 144.943L29.323 144.882L9.04287 111.86ZM9.49368 117.044L9.57565 117.987L26.2566 145.148L26.7283 145.107L9.49368 117.044ZM9.94449 122.229L9.98548 122.7L23.8978 145.353L24.1336 145.333L9.94449 122.229ZM10.7641 131.655L10.8051 132.127L19.1802 145.764L19.4161 145.743L10.7641 131.655ZM11.133 135.897L11.215 136.84L16.5532 145.532C16.7421 145.585 16.9348 145.63 17.1294 145.667L11.133 135.897ZM11.5791 140.258C11.9307 141.847 12.7989 143.217 13.9936 144.196L11.5791 140.258Z" fill="#AA0000"/>
</svg>
