<svg width="23" height="23" viewBox="0 0 23 23" fill="none" xmlns="http://www.w3.org/2000/svg">
<path d="M11.1421 5.56586C11.1421 5.56586 11.649 2.46206 12.6276 1.48414C13.6064 0.506217 15.329 0 16.7131 0C18.0972 0 19.8198 0.506496 20.7986 1.48414C21.7774 2.46206 22.2841 4.18302 22.2841 5.56586C22.2841 6.9487 21.5412 8.90538 20.7986 9.64759C20.0557 10.3898 19.3131 10.7608 18.5702 11.503C17.8273 12.2452 17.456 12.2452 16.7131 12.9871C15.9702 13.7293 15.5989 14.1003 14.856 14.8425C14.1131 15.5847 12.9989 17.0688 12.2563 18.553C11.5134 20.0371 11.1421 22.2635 11.1421 22.2635C11.1421 22.2635 10.7708 20.0371 10.0279 18.553C9.28496 17.0688 8.17075 15.5844 7.42813 14.8425C6.68524 14.1003 6.31393 13.7293 5.57103 12.9871C4.82813 12.2449 4.45682 12.2449 3.71393 11.503C2.97103 10.7608 2.22841 10.3898 1.48552 9.64759C0.742618 8.90538 0 6.9487 0 5.56586C0 4.18302 0.506964 2.46206 1.48552 1.48414C2.46435 0.506217 4.18691 0 5.57103 0C6.95515 0 8.67771 0.506496 9.65654 1.48414C10.6354 2.46206 11.1421 5.56586 11.1421 5.56586Z" fill="#FF5555"/>
</svg>
