<svg width="102" height="152" viewBox="0 0 102 152" fill="none" xmlns="http://www.w3.org/2000/svg">
<path d="M101 146.745C101 149.083 99.1475 151 96.8758 151H5.11866C2.85253 151 1 149.083 1 146.745V5.25544C1 2.91449 2.85253 1 5.11866 1H96.8758C99.1475 1 101 2.91449 101 5.25544V146.745Z" fill="white" stroke="black" stroke-width="0.622458"/>
<path fill-rule="evenodd" clip-rule="evenodd" d="M17.438 21.0446C38.138 21.0446 58.8383 21.0446 79.538 21.0446C80.0257 21.0446 84.7174 20.8142 84.7174 21.2267C84.7174 23.5417 84.7174 25.8563 84.7174 28.1712C84.7174 39.6621 84.7174 51.153 84.7174 62.6439C84.7174 84.9424 84.7174 107.241 84.7174 129.54C84.7174 129.699 84.8218 130.422 84.6318 130.422C83.7038 130.422 82.7764 130.422 81.8489 130.422C77.0318 130.422 72.2152 130.422 67.3986 130.422C54.3277 130.422 41.2574 130.422 28.1868 130.422C24.7397 130.422 21.2926 130.422 17.8458 130.422C16.9684 130.422 17.438 127.906 17.438 127.186C17.438 117.149 17.438 107.113 17.438 97.0766C17.438 72.8651 17.438 48.6539 17.438 24.4423C17.438 23.3097 17.438 22.1773 17.438 21.0446Z" fill="#FB0F0C" stroke="#FB0F0C" stroke-width="0.0334464" stroke-miterlimit="10"/>
<path fill-rule="evenodd" clip-rule="evenodd" d="M37.8633 60.3644C40.5474 60.3644 64.2941 60.1697 64.2941 60.5568C64.2941 70.9362 64.2941 81.3156 64.2941 91.6956C64.2941 92.0077 37.8633 91.7331 37.8633 91.8117C37.8633 81.4904 37.8633 71.1691 37.8633 60.8477C37.8633 60.6865 37.8633 60.5253 37.8633 60.3644Z" fill="white" stroke="white" stroke-width="0.0334464" stroke-miterlimit="10"/>
<path fill-rule="evenodd" clip-rule="evenodd" d="M51.0796 57.5049C48.4767 60.6029 45.8735 63.7005 43.2703 66.7985C41.5151 68.8875 39.7599 70.9762 38.0044 73.0652C37.5969 73.55 35.4609 75.4182 35.4609 76.0918C35.4609 76.7112 37.426 78.4303 37.8 78.8755C39.6236 81.0459 41.4471 83.215 43.2703 85.3854C45.8735 88.4831 48.4767 91.5807 51.0796 94.679C53.6826 91.5807 56.2855 88.4831 58.889 85.3854C60.6442 83.2961 62.3994 81.2074 64.1546 79.1187C64.5621 78.6336 66.6983 76.7656 66.6983 76.0918C66.6983 75.4724 64.7333 73.7536 64.3592 73.3084C62.536 71.1383 60.7122 68.9685 58.889 66.7985C56.2855 63.7005 53.6826 60.6029 51.0796 57.5049Z" fill="white" stroke="white" stroke-width="0.0334464" stroke-miterlimit="10"/>
<path fill-rule="evenodd" clip-rule="evenodd" d="M39.064 61.793C44.0379 61.793 49.0119 61.793 53.9859 61.793C56.6615 61.793 59.3371 61.793 62.0133 61.793C63.3975 61.793 63.092 61.9146 63.092 63.3469C63.092 69.6291 63.092 75.9109 63.092 82.1934C63.092 84.6529 63.092 87.1124 63.092 89.5719C63.092 90.8718 62.361 90.3885 61.1545 90.3885C55.9088 90.3885 50.6634 90.3885 45.418 90.3885C43.4951 90.3885 41.5719 90.3885 39.649 90.3885C38.7022 90.3885 39.064 89.7564 39.064 88.8345C39.064 79.8204 39.064 70.8068 39.064 61.793Z" fill="#FB0F0C" stroke="#FB0F0C" stroke-width="0.0334464" stroke-miterlimit="10"/>
<path fill-rule="evenodd" clip-rule="evenodd" d="M51.0774 58.9336C48.7201 61.7388 46.3631 64.544 44.0058 67.3492C42.3253 69.349 40.6449 71.3488 38.9644 73.3485C38.5956 73.7877 36.6602 75.4805 36.6602 76.0905C36.6602 76.647 38.425 78.1907 38.761 78.5906C40.418 80.5625 42.075 82.5345 43.732 84.5064C46.1805 87.4202 48.6289 90.334 51.0774 93.2478C53.4346 90.4423 55.7919 87.6374 58.1486 84.8325C59.8294 82.8327 61.5102 80.8329 63.1903 78.8331C63.5591 78.394 65.4943 76.7009 65.4943 76.0905C65.4943 75.5343 63.7297 73.9903 63.3938 73.5908C61.7364 71.6188 60.0797 69.6469 58.423 67.6749C55.9743 64.7611 53.5255 61.8474 51.0774 58.9336Z" fill="#FB0F0C" stroke="#FB0F0C" stroke-width="0.0334464" stroke-miterlimit="10"/>
<path fill-rule="evenodd" clip-rule="evenodd" d="M41.4688 64.6526C46.6863 64.6526 51.9039 64.6526 57.1215 64.6526C57.7728 64.6526 60.6911 64.1986 60.6911 65.0192C60.6911 67.4448 60.6911 69.8701 60.6911 72.2955C60.6911 73.3625 60.704 87.5291 60.6794 87.5291C55.3563 87.5291 50.0338 87.5291 44.7107 87.5291C44.0752 87.5291 41.4688 87.9767 41.4688 87.162C41.4688 84.7369 41.4688 82.3113 41.4688 79.8857C41.4688 74.8082 41.4688 69.7304 41.4688 64.6526Z" fill="white" stroke="white" stroke-width="0.0334464" stroke-miterlimit="10"/>
<path fill-rule="evenodd" clip-rule="evenodd" d="M51.0806 61.793C49.0783 64.176 47.076 66.5589 45.0736 68.9419C43.7314 70.5391 42.3892 72.1364 41.047 73.7336C40.7299 74.111 39.0664 75.5661 39.0664 76.0906C39.0664 76.5612 40.5584 77.8665 40.8421 78.2041C42.2526 79.8827 43.6631 81.5612 45.0736 83.2392C47.076 85.6225 49.0783 88.0058 51.0806 90.3885C53.0832 88.0058 55.0852 85.6225 57.0872 83.2392C58.4297 81.6423 59.7722 80.0454 61.1136 78.4478C61.4313 78.0704 63.0945 76.615 63.0945 76.0906C63.0945 75.6206 61.6025 74.3152 61.3188 73.9774C59.9083 72.2988 58.4978 70.6205 57.0872 68.9419C55.0852 66.5589 53.0832 64.176 51.0806 61.793Z" fill="white" stroke="white" stroke-width="0.0334464" stroke-miterlimit="10"/>
<path fill-rule="evenodd" clip-rule="evenodd" d="M42.668 66.083C47.7932 66.083 52.9187 66.083 58.0437 66.083C59.8945 66.083 59.4876 66.2521 59.4876 68.1648C59.4876 71.3764 59.4876 74.5881 59.4876 77.7995C59.4876 80.4278 59.4876 83.0561 59.4876 85.6837C59.4876 86.608 56.3424 86.0999 55.6084 86.0999C52.3589 86.0999 49.1087 86.0999 45.8589 86.0999C44.7251 86.0999 42.668 86.7828 42.668 85.3752C42.668 78.9446 42.668 72.5139 42.668 66.083Z" fill="#FB0F0C" stroke="#FB0F0C" stroke-width="0.0334464" stroke-miterlimit="10"/>
<path fill-rule="evenodd" clip-rule="evenodd" d="M51.0783 63.2236C49.3222 65.3138 47.5658 67.4041 45.8094 69.4943C44.542 71.0026 43.2745 72.5112 42.0068 74.0195C41.7283 74.351 40.2656 75.6306 40.2656 76.0916C40.2656 76.4987 41.5577 77.6292 41.803 77.9214C43.0471 79.4015 44.2908 80.8817 45.5345 82.3619C47.3826 84.5613 49.2305 86.7607 51.0783 88.9595C52.8347 86.8696 54.5911 84.779 56.3475 82.6891C57.6149 81.1811 58.8824 79.6725 60.1498 78.1639C60.4283 77.8324 61.891 76.5525 61.891 76.0916C61.891 75.6851 60.5989 74.5539 60.3539 74.2621C59.1098 72.7816 57.8658 71.3014 56.6218 69.8212C54.774 67.6221 52.9261 65.423 51.0783 63.2236Z" fill="#FB0F0C" stroke="#FB0F0C" stroke-width="0.0334464" stroke-miterlimit="10"/>
<path fill-rule="evenodd" clip-rule="evenodd" d="M51.0802 64.6523C49.5237 66.5048 47.9673 68.3573 46.4105 70.2095C45.316 71.5125 44.2212 72.8151 43.1264 74.1177C42.8611 74.4335 41.4688 75.6517 41.4688 76.0903C41.4688 76.4744 42.6881 77.5414 42.92 77.8173C43.9928 79.0942 45.0656 80.3705 46.1385 81.6481C47.7858 83.6079 49.4332 85.5684 51.0802 87.5289C52.6367 85.6761 54.1932 83.8239 55.7502 81.9711C56.8442 80.6687 57.9393 79.3658 59.0338 78.0635C59.2994 77.7471 60.6911 76.5295 60.6911 76.0903C60.6911 75.7068 59.4717 74.6392 59.2407 74.3636C58.1679 73.0867 57.0945 71.8101 56.0217 70.5331C54.3749 68.573 52.7276 66.6128 51.0802 64.6523Z" fill="white" stroke="white" stroke-width="0.0334464" stroke-miterlimit="10"/>
<path fill-rule="evenodd" clip-rule="evenodd" d="M43.8692 67.5117C48.6542 67.5117 53.4394 67.5117 58.2243 67.5117C58.3498 67.5117 58.2865 81.5459 58.2865 82.8845C58.2865 83.1555 58.4741 84.4572 58.2865 84.669C58.0766 84.9055 56.3296 84.669 56.0341 84.669C52.8367 84.669 49.6391 84.669 46.4417 84.669C45.6051 84.669 44.7683 84.669 43.9317 84.669C43.7913 84.669 43.8692 83.3092 43.8692 83.1507C43.8692 79.9508 43.8692 76.7509 43.8692 73.5513C43.8692 71.5382 43.8692 69.5248 43.8692 67.5117Z" fill="white" stroke="white" stroke-width="0.0334464" stroke-miterlimit="10"/>
<path fill-rule="evenodd" clip-rule="evenodd" d="M51.0798 67.5117C49.8783 68.9417 48.6771 70.3714 47.4756 71.801C46.6496 72.784 45.8236 73.7669 44.9976 74.7502C44.8185 74.9634 43.8711 75.7933 43.8711 76.0903C43.8711 76.3879 44.8185 77.2179 44.9976 77.4308C45.8236 78.4137 46.6496 79.3967 47.4756 80.3796C48.6771 81.8096 49.8783 83.239 51.0798 84.669C52.2816 83.239 53.4823 81.8096 54.6841 80.3796C55.5101 79.3967 56.3361 78.4137 57.1615 77.4308C57.3409 77.2179 58.2883 76.3879 58.2883 76.0903C58.2883 75.7933 57.3409 74.9634 57.1615 74.7502C56.3361 73.7669 55.5101 72.784 54.6841 71.801C53.4823 70.3714 52.2816 68.9417 51.0798 67.5117Z" fill="#FB0F0C"/>
<path fill-rule="evenodd" clip-rule="evenodd" d="M69.1016 58.9336C68.3008 58.9336 67.5 58.9336 66.6992 58.9336C67.5 59.8866 68.3008 60.8399 69.1016 61.7929C69.1016 60.8399 69.1016 59.8866 69.1016 58.9336Z" fill="white" stroke="white" stroke-width="0.0334464" stroke-miterlimit="10"/>
<path fill-rule="evenodd" clip-rule="evenodd" d="M69.1016 63.2236C68.3008 62.2706 67.5 61.3173 66.6992 60.3643C66.6992 61.2907 66.6992 62.2171 66.6992 63.1437C66.6992 63.3116 68.7921 63.2236 69.1016 63.2236Z" fill="white" stroke="white" stroke-width="0.0334464" stroke-miterlimit="10"/>
<path fill-rule="evenodd" clip-rule="evenodd" d="M33.0586 58.9336C33.8594 58.9336 34.6602 58.9336 35.461 58.9336C34.6602 59.8866 33.8594 60.8399 33.0586 61.7929C33.0586 60.8399 33.0586 59.8866 33.0586 58.9336Z" fill="white" stroke="white" stroke-width="0.0334464" stroke-miterlimit="10"/>
<path fill-rule="evenodd" clip-rule="evenodd" d="M33.0586 63.2236C33.8594 62.2706 34.6602 61.3173 35.461 60.3643C35.461 61.2907 35.461 62.2171 35.461 63.1437C35.461 63.3116 33.3684 63.2236 33.0586 63.2236Z" fill="white" stroke="white" stroke-width="0.0334464" stroke-miterlimit="10"/>
<path fill-rule="evenodd" clip-rule="evenodd" d="M35.461 88.958C34.6602 88.958 33.8594 88.958 33.0586 88.958C33.8594 89.9113 34.6602 90.8646 35.461 91.8173C35.461 90.8646 35.461 89.9113 35.461 88.958Z" fill="white" stroke="white" stroke-width="0.0334464" stroke-miterlimit="10"/>
<path fill-rule="evenodd" clip-rule="evenodd" d="M35.461 93.248C34.6602 92.2947 33.8594 91.3414 33.0586 90.3887C33.0586 91.3148 33.0586 92.2415 33.0586 93.1682C33.0586 93.3363 35.1515 93.248 35.461 93.248Z" fill="white" stroke="white" stroke-width="0.0334464" stroke-miterlimit="10"/>
<path fill-rule="evenodd" clip-rule="evenodd" d="M66.6992 88.958C67.5 88.958 68.3008 88.958 69.1016 88.958C68.3008 89.9113 67.5 90.8646 66.6992 91.8173C66.6992 90.8646 66.6992 89.9113 66.6992 88.958Z" fill="white" stroke="white" stroke-width="0.0334464" stroke-miterlimit="10"/>
<path fill-rule="evenodd" clip-rule="evenodd" d="M66.6992 93.248C67.5 92.2947 68.3008 91.3414 69.1016 90.3887C69.1016 91.3148 69.1016 92.2415 69.1016 93.1682C69.1016 93.3363 67.0088 93.248 66.6992 93.248Z" fill="white" stroke="white" stroke-width="0.0334464" stroke-miterlimit="10"/>
<path fill-rule="evenodd" clip-rule="evenodd" d="M35.461 78.9512C34.6602 78.9512 33.8594 78.9512 33.0586 78.9512C33.8594 79.9045 34.6602 80.8572 35.461 81.8105C35.461 80.8572 35.461 79.9045 35.461 78.9512Z" fill="white" stroke="white" stroke-width="0.0334464" stroke-miterlimit="10"/>
<path fill-rule="evenodd" clip-rule="evenodd" d="M35.461 83.2392C34.6602 82.2865 33.8594 81.3332 33.0586 80.3799C33.0586 81.3066 33.0586 82.2327 33.0586 83.1594C33.0586 83.3275 35.1515 83.2392 35.461 83.2392Z" fill="white" stroke="white" stroke-width="0.0334464" stroke-miterlimit="10"/>
<path fill-rule="evenodd" clip-rule="evenodd" d="M33.0586 68.9424C33.8594 68.9424 34.6602 68.9424 35.461 68.9424C34.6602 69.8954 33.8594 70.8487 33.0586 71.8017C33.0586 70.8487 33.0586 69.8954 33.0586 68.9424Z" fill="white" stroke="white" stroke-width="0.0334464" stroke-miterlimit="10"/>
<path fill-rule="evenodd" clip-rule="evenodd" d="M33.0586 73.2327C33.8594 72.2794 34.6602 71.3264 35.461 70.373C35.461 71.2994 35.461 72.2261 35.461 73.1525C35.461 73.3204 33.3684 73.2327 33.0586 73.2327Z" fill="white" stroke="white" stroke-width="0.0334464" stroke-miterlimit="10"/>
<path fill-rule="evenodd" clip-rule="evenodd" d="M69.1016 68.9424C68.3008 68.9424 67.5 68.9424 66.6992 68.9424C67.5 69.8954 68.3008 70.8487 69.1016 71.8017C69.1016 70.8487 69.1016 69.8954 69.1016 68.9424Z" fill="white" stroke="white" stroke-width="0.0334464" stroke-miterlimit="10"/>
<path fill-rule="evenodd" clip-rule="evenodd" d="M69.1016 73.2327C68.3008 72.2794 67.5 71.3264 66.6992 70.373C66.6992 71.2994 66.6992 72.2261 66.6992 73.1525C66.6992 73.3204 68.7921 73.2327 69.1016 73.2327Z" fill="white" stroke="white" stroke-width="0.0334464" stroke-miterlimit="10"/>
<path fill-rule="evenodd" clip-rule="evenodd" d="M66.6992 78.9512C67.5 78.9512 68.3008 78.9512 69.1016 78.9512C68.3008 79.9045 67.5 80.8572 66.6992 81.8105C66.6992 80.8572 66.6992 79.9045 66.6992 78.9512Z" fill="white" stroke="white" stroke-width="0.0334464" stroke-miterlimit="10"/>
<path fill-rule="evenodd" clip-rule="evenodd" d="M66.6992 83.2392C67.5 82.2865 68.3008 81.3332 69.1016 80.3799C69.1016 81.3066 69.1016 82.2327 69.1016 83.1594C69.1016 83.3275 67.0088 83.2392 66.6992 83.2392Z" fill="white" stroke="white" stroke-width="0.0334464" stroke-miterlimit="10"/>
<path fill-rule="evenodd" clip-rule="evenodd" d="M42.6983 16.219C42.2073 14.9651 41.6879 13.6879 41.3511 12.3777C41.0474 11.1969 40.8056 8.31427 42.3281 7.74748C43.7887 7.20429 44.3195 9.80987 44.3005 10.8337C44.2718 12.3716 43.5633 13.9428 43.0298 15.3565C42.9214 15.6444 42.8106 15.9332 42.6983 16.219Z" fill="#FB0F0C"/>
<path fill-rule="evenodd" clip-rule="evenodd" d="M42.691 16.2481C41.4836 15.7236 40.1393 15.2098 39.0706 14.4134C38.1221 13.7063 36.6113 11.6107 37.4928 10.3289C38.3824 9.03501 40.2387 10.5179 40.8384 11.392C41.6988 12.645 42.103 14.359 42.5547 15.805C42.6007 15.9523 42.6458 16.1014 42.691 16.2481" fill="#FB0F0C"/>
<path fill-rule="evenodd" clip-rule="evenodd" d="M42.6953 16.2482C43.9027 15.7235 45.2466 15.2099 46.3157 14.4136C47.2642 13.7067 48.7747 11.6105 47.8935 10.329C47.0039 9.03484 45.1473 10.518 44.5475 11.3921C43.6705 12.67 43.2599 14.4269 42.8011 15.9028C42.7657 16.0174 42.7302 16.1342 42.6953 16.2482Z" fill="#FB0F0C"/>
<path fill-rule="evenodd" clip-rule="evenodd" d="M39.6015 16.4201C38.6246 16.121 37.4146 16.2199 36.7902 17.1538C36.4575 17.6517 36.3819 19.5807 37.4409 19.2056C37.6256 19.1403 37.7766 18.2947 38.0017 18.0999C38.4308 17.7285 39.2345 17.74 39.7557 17.697C40.4569 17.6399 41.185 17.717 41.8741 17.6187C41.875 17.6145 41.8762 17.6105 41.8782 17.6066C41.2251 17.0846 40.3927 16.6726 39.6015 16.4201Z" fill="#FB0F0C"/>
<path fill-rule="evenodd" clip-rule="evenodd" d="M45.7379 16.4202C46.7149 16.1208 47.9249 16.22 48.5489 17.154C48.8816 17.6518 48.9576 19.5811 47.8982 19.2058C47.7135 19.1404 47.5629 18.2951 47.3378 18.1C46.9089 17.7286 46.1049 17.7401 45.5837 17.6972C44.8823 17.64 44.1545 17.7171 43.465 17.6188C43.4642 17.6146 43.463 17.6107 43.4609 17.6067C44.1143 17.0847 44.9465 16.6728 45.7379 16.4202Z" fill="#FB0F0C"/>
<path fill-rule="evenodd" clip-rule="evenodd" d="M41.8672 19.1981C42.0099 20.4578 44.1269 19.8453 43.1144 18.1117C42.4033 16.8934 41.9959 18.0333 41.8672 19.1981Z" fill="#FB0F0C"/>
<path fill-rule="evenodd" clip-rule="evenodd" d="M59.5185 16.2192C59.0273 14.9655 58.5079 13.6877 58.1714 12.3778C57.8677 11.197 57.6261 8.3147 59.148 7.74762C60.609 7.20382 61.1401 9.81031 61.1207 10.8338C61.092 12.372 60.3838 13.9429 59.8504 15.3566C59.7413 15.6445 59.6311 15.9331 59.5185 16.2192Z" fill="#FB0F0C"/>
<path fill-rule="evenodd" clip-rule="evenodd" d="M59.5111 16.248C58.3041 15.7236 56.9592 15.2097 55.8911 14.4134C54.9425 13.7062 53.4318 11.6103 54.3129 10.3288C55.2028 9.03524 57.0589 10.5175 57.6592 11.3919C58.5192 12.6449 58.9231 14.3592 59.3745 15.8049C59.4209 15.9522 59.466 16.1013 59.5111 16.248" fill="#FB0F0C"/>
<path fill-rule="evenodd" clip-rule="evenodd" d="M59.5156 16.2481C60.7227 15.7233 62.067 15.2098 63.1357 14.4134C64.0848 13.7063 65.595 11.6107 64.7133 10.3289C63.8239 9.03501 61.9673 10.5179 61.3676 11.392C60.49 12.6698 60.0808 14.4267 59.6217 15.9027C59.586 16.0176 59.5508 16.1338 59.5156 16.2481Z" fill="#FB0F0C"/>
<path fill-rule="evenodd" clip-rule="evenodd" d="M56.4213 16.4202C55.4447 16.1207 54.2347 16.2202 53.6109 17.1539C53.2779 17.652 53.2017 19.581 54.2616 19.2057C54.4457 19.1404 54.597 18.2947 54.8221 18.1C55.2506 17.7286 56.0549 17.74 56.5761 17.6971C57.2773 17.6399 58.0054 17.7171 58.6942 17.6188C58.6948 17.6145 58.6966 17.6106 58.6983 17.6067C58.0446 17.0846 57.2134 16.6727 56.4213 16.4202Z" fill="#FB0F0C"/>
<path fill-rule="evenodd" clip-rule="evenodd" d="M62.5582 16.4202C63.5349 16.1207 64.7455 16.2202 65.3698 17.1539C65.7022 17.6517 65.7779 19.5807 64.7191 19.2057C64.5339 19.1404 64.3832 18.2947 64.1581 18.1C63.7295 17.7286 62.9252 17.74 62.404 17.6971C61.7029 17.6396 60.9748 17.7171 60.2854 17.6188C60.2848 17.6145 60.2836 17.6106 60.2812 17.6067C60.9349 17.0849 61.7668 16.6727 62.5582 16.4202Z" fill="#FB0F0C"/>
<path fill-rule="evenodd" clip-rule="evenodd" d="M58.6875 19.1981C58.8305 20.4578 60.9475 19.8454 59.935 18.1117C59.2239 16.8932 58.8159 18.0337 58.6875 19.1981Z" fill="#FB0F0C"/>
<path fill-rule="evenodd" clip-rule="evenodd" d="M76.3391 16.2191C75.8484 14.9648 75.3284 13.6879 74.9913 12.3777C74.6883 11.197 74.4461 8.31433 75.9692 7.74755C77.4295 7.20405 77.9601 9.81024 77.9413 10.8337C77.912 12.372 77.2038 13.9426 76.6703 15.3565C76.5625 15.6444 76.4511 15.9333 76.3391 16.2191Z" fill="#FB0F0C"/>
<path fill-rule="evenodd" clip-rule="evenodd" d="M76.3315 16.2481C75.1238 15.7233 73.7802 15.2098 72.7109 14.4134C71.7623 13.7063 70.2522 11.6104 71.1333 10.3289C72.0226 9.03501 73.8793 10.5179 74.479 11.392C75.356 12.6698 75.7664 14.4264 76.2248 15.9027C76.2612 16.0176 76.2963 16.1338 76.3315 16.2481Z" fill="#FB0F0C"/>
<path fill-rule="evenodd" clip-rule="evenodd" d="M76.3359 16.2481C77.5436 15.7236 78.8879 15.2098 79.9566 14.4134C80.9051 13.7063 82.4153 11.6104 81.5347 10.3289C80.6448 9.03501 78.7882 10.5179 78.1885 11.392C77.3114 12.6698 76.9011 14.4267 76.4426 15.9027C76.4069 16.0173 76.3711 16.1341 76.3359 16.2481Z" fill="#FB0F0C"/>
<path fill-rule="evenodd" clip-rule="evenodd" d="M73.2427 16.4202C72.2654 16.1207 71.0554 16.2202 70.431 17.1539C70.0981 17.652 70.0224 19.5807 71.0818 19.2057C71.2664 19.1404 71.4171 18.2947 71.6422 18.1C72.0714 17.7286 72.8757 17.74 73.3963 17.6971C74.098 17.6399 74.8255 17.7171 75.515 17.6188C75.5161 17.6145 75.5173 17.6106 75.5191 17.6067C74.8654 17.0846 74.0341 16.6727 73.2427 16.4202Z" fill="#FB0F0C"/>
<path fill-rule="evenodd" clip-rule="evenodd" d="M79.3774 16.4201C80.3552 16.121 81.5652 16.2199 82.189 17.1538C82.522 17.6517 82.5982 19.5804 81.5383 19.2056C81.3542 19.1403 81.2029 18.295 80.9778 18.0999C80.5487 17.7285 79.7449 17.74 79.2238 17.697C78.5226 17.6399 77.7945 17.717 77.1051 17.6187C77.1039 17.6145 77.1027 17.6105 77.1016 17.6066C77.7546 17.0846 78.5865 16.6726 79.3774 16.4201Z" fill="#FB0F0C"/>
<path fill-rule="evenodd" clip-rule="evenodd" d="M75.5078 19.1981C75.6509 20.4584 77.7672 19.8448 76.7553 18.1117C76.0436 16.8932 75.6368 18.0337 75.5078 19.1981Z" fill="#FB0F0C"/>
<path fill-rule="evenodd" clip-rule="evenodd" d="M25.8782 16.2192C25.3869 14.9655 24.8675 13.6877 24.5307 12.3778C24.227 11.197 23.9855 8.3144 25.5077 7.74762C26.9686 7.20382 27.4992 9.81031 27.4801 10.8338C27.4514 12.372 26.7429 13.9426 26.2094 15.3566C26.101 15.6445 25.9902 15.9331 25.8782 16.2192Z" fill="#FB0F0C"/>
<path fill-rule="evenodd" clip-rule="evenodd" d="M25.8706 16.2481C24.6629 15.7233 23.3192 15.2098 22.2502 14.4134C21.3017 13.7063 19.7912 11.6107 20.6723 10.3289C21.562 9.03501 23.4186 10.5179 24.0183 11.392C24.8783 12.645 25.2828 14.3593 25.7342 15.805C25.7803 15.9523 25.8254 16.1014 25.8706 16.2481" fill="#FB0F0C"/>
<path fill-rule="evenodd" clip-rule="evenodd" d="M25.875 16.2481C27.0824 15.7236 28.4266 15.2098 29.4953 14.4134C30.4439 13.7063 31.9546 11.6107 31.0732 10.3289C30.1833 9.03501 28.3273 10.5179 27.7272 11.392C26.8672 12.645 26.463 14.3593 26.0113 15.805C25.9653 15.9523 25.9201 16.1011 25.875 16.2481" fill="#FB0F0C"/>
<path fill-rule="evenodd" clip-rule="evenodd" d="M22.781 16.4202C21.804 16.1207 20.594 16.2202 19.97 17.1539C19.6373 17.6517 19.5614 19.581 20.6207 19.2057C20.8051 19.1404 20.956 18.2947 21.1812 18.1C21.61 17.7286 22.414 17.74 22.9352 17.6971C23.6366 17.6399 24.3648 17.7171 25.0539 17.6188C25.0545 17.6145 25.0559 17.6106 25.058 17.6067C24.4046 17.0849 23.5724 16.6724 22.781 16.4202Z" fill="#FB0F0C"/>
<path fill-rule="evenodd" clip-rule="evenodd" d="M28.917 16.4201C29.8943 16.121 31.1043 16.2199 31.7286 17.1538C32.0613 17.6517 32.1373 19.5807 31.0779 19.2056C30.8932 19.1403 30.7423 18.2947 30.5172 18.0999C30.0883 17.7285 29.2843 17.74 28.7631 17.697C28.062 17.6399 27.3339 17.717 26.6447 17.6187C26.6438 17.6145 26.6424 17.6105 26.6406 17.6066C27.294 17.0846 28.1259 16.6729 28.917 16.4201Z" fill="#FB0F0C"/>
<path fill-rule="evenodd" clip-rule="evenodd" d="M25.0469 19.198C25.1899 20.4577 27.3066 19.8452 26.2944 18.1116C25.5833 16.8934 25.1756 18.0336 25.0469 19.198Z" fill="#FB0F0C"/>
<path fill-rule="evenodd" clip-rule="evenodd" d="M42.55 135.249C42.059 136.502 41.5393 137.78 41.2025 139.09C40.8991 140.27 40.657 143.154 42.1798 143.72C43.6407 144.263 44.171 141.657 44.1519 140.634C44.1232 139.095 43.4144 137.525 42.8815 136.111C42.7728 135.823 42.6623 135.535 42.55 135.249Z" fill="#FB0F0C"/>
<path fill-rule="evenodd" clip-rule="evenodd" d="M42.5424 135.219C41.3348 135.743 39.9911 136.257 38.9224 137.053C37.9735 137.761 36.4631 139.856 37.3442 141.138C38.2341 142.431 40.0905 140.949 40.6902 140.075C41.5505 138.821 41.9544 137.107 42.4061 135.662C42.4521 135.515 42.4973 135.365 42.5424 135.219Z" fill="#FB0F0C"/>
<path fill-rule="evenodd" clip-rule="evenodd" d="M42.5469 135.219C43.7545 135.743 45.0982 136.257 46.1669 137.053C47.1158 137.761 48.6259 139.856 47.7448 141.138C46.8552 142.431 44.9988 140.949 44.3988 140.075C43.5218 138.797 43.1114 137.04 42.653 135.564C42.6172 135.449 42.582 135.333 42.5469 135.219Z" fill="#FB0F0C"/>
<path fill-rule="evenodd" clip-rule="evenodd" d="M39.4529 135.047C38.4759 135.346 37.2659 135.247 36.6419 134.313C36.3092 133.815 36.2332 131.886 37.2926 132.261C37.477 132.326 37.6282 133.172 37.853 133.367C38.2822 133.738 39.0859 133.727 39.6074 133.77C40.3085 133.827 41.0372 133.75 41.7258 133.848C41.7263 133.853 41.7278 133.857 41.7299 133.86C41.0768 134.382 40.2443 134.794 39.4529 135.047Z" fill="#FB0F0C"/>
<path fill-rule="evenodd" clip-rule="evenodd" d="M45.5853 135.047C46.5622 135.346 47.7725 135.247 48.3966 134.313C48.7293 133.815 48.8052 131.886 47.7459 132.261C47.5615 132.326 47.4102 133.172 47.1851 133.367C46.756 133.738 45.9526 133.727 45.4311 133.769C44.7299 133.827 44.0012 133.75 43.3127 133.848C43.3118 133.852 43.3104 133.856 43.3086 133.86C43.9614 134.382 44.7941 134.794 45.5853 135.047Z" fill="#FB0F0C"/>
<path fill-rule="evenodd" clip-rule="evenodd" d="M41.7188 132.271C41.8615 131.011 43.9784 131.623 42.9663 133.356C42.2552 134.575 41.8483 133.436 41.7188 132.271Z" fill="#FB0F0C"/>
<path fill-rule="evenodd" clip-rule="evenodd" d="M59.3701 135.249C58.8788 136.502 58.3594 137.78 58.0229 139.09C57.7192 140.27 57.4777 143.153 58.9996 143.72C60.4605 144.263 60.9916 141.657 60.9723 140.634C60.9436 139.096 60.2354 137.524 59.7019 136.111C59.5929 135.823 59.4827 135.535 59.3701 135.249Z" fill="#FB0F0C"/>
<path fill-rule="evenodd" clip-rule="evenodd" d="M59.3627 135.219C58.155 135.743 56.8108 136.257 55.7426 137.053C54.7941 137.761 53.2834 139.856 54.1645 141.138C55.0544 142.431 56.9104 140.949 57.5108 140.075C58.3878 138.797 58.7976 137.04 59.2566 135.564C59.2918 135.45 59.3275 135.332 59.3627 135.219Z" fill="#FB0F0C"/>
<path fill-rule="evenodd" clip-rule="evenodd" d="M59.3633 135.219C60.5709 135.743 61.9146 136.257 62.9833 137.053C63.9325 137.761 65.4426 139.856 64.5609 141.138C63.671 142.431 61.815 140.949 61.2152 140.075C60.3382 138.797 59.9278 137.04 59.4688 135.564C59.4336 135.45 59.3985 135.332 59.3633 135.219Z" fill="#FB0F0C"/>
<path fill-rule="evenodd" clip-rule="evenodd" d="M56.2692 135.047C55.2925 135.346 54.0825 135.247 53.4581 134.313C53.1257 133.815 53.0495 131.886 54.1089 132.261C54.2935 132.326 54.4448 133.172 54.6699 133.367C55.099 133.738 55.9022 133.727 56.4239 133.77C57.1245 133.827 57.8538 133.75 58.542 133.848C58.5426 133.852 58.5444 133.857 58.5461 133.86C57.8931 134.382 57.0606 134.794 56.2692 135.047Z" fill="#FB0F0C"/>
<path fill-rule="evenodd" clip-rule="evenodd" d="M62.4059 135.047C63.3826 135.346 64.5926 135.247 65.2175 134.313C65.5493 133.815 65.6255 131.886 64.5668 132.261C64.3815 132.326 64.2309 133.172 64.0057 133.367C63.5766 133.738 62.7729 133.727 62.2511 133.769C61.5505 133.827 60.8218 133.75 60.133 133.848C60.1324 133.853 60.1313 133.856 60.1289 133.86C60.782 134.382 61.6145 134.794 62.4059 135.047Z" fill="#FB0F0C"/>
<path fill-rule="evenodd" clip-rule="evenodd" d="M58.5391 132.271C58.6827 131.011 60.799 131.623 59.7872 133.356C59.0761 134.575 58.6692 133.436 58.5391 132.271Z" fill="#FB0F0C"/>
<path fill-rule="evenodd" clip-rule="evenodd" d="M76.1868 135.249C75.6955 136.502 75.1761 137.78 74.839 139.09C74.5359 140.27 74.2938 143.154 75.8168 143.72C77.2778 144.263 77.8077 141.657 77.789 140.634C77.7602 139.096 77.0527 137.524 76.518 136.111C76.4095 135.823 76.2987 135.535 76.1868 135.249Z" fill="#FB0F0C"/>
<path fill-rule="evenodd" clip-rule="evenodd" d="M76.1795 135.219C74.9718 135.743 73.6275 136.257 72.5588 137.053C71.6103 137.761 70.1001 139.856 70.9807 141.138C71.8706 142.431 73.7272 140.949 74.3269 140.075C75.1875 138.821 75.5915 137.107 76.0434 135.662C76.0892 135.515 76.1337 135.365 76.1795 135.219Z" fill="#FB0F0C"/>
<path fill-rule="evenodd" clip-rule="evenodd" d="M76.1836 135.219C77.3913 135.743 78.7355 136.257 79.8042 137.053C80.7528 137.761 82.2629 139.856 81.3818 141.138C80.4925 142.431 78.6358 140.949 78.0361 140.075C77.1755 138.821 76.7722 137.107 76.3196 135.662C76.2739 135.515 76.2287 135.365 76.1836 135.219Z" fill="#FB0F0C"/>
<path fill-rule="evenodd" clip-rule="evenodd" d="M73.0899 135.047C72.1126 135.346 70.9026 135.247 70.2789 134.313C69.9459 133.815 69.8697 131.886 70.9296 132.261C71.1137 132.326 71.2649 133.172 71.49 133.367C71.9192 133.738 72.7229 133.727 73.2441 133.769C73.9452 133.827 74.6745 133.75 75.3628 133.848C75.3634 133.853 75.3651 133.856 75.3669 133.86C74.7132 134.382 73.8819 134.794 73.0899 135.047Z" fill="#FB0F0C"/>
<path fill-rule="evenodd" clip-rule="evenodd" d="M79.2256 135.047C80.2029 135.346 81.4135 135.247 82.0372 134.313C82.3702 133.815 82.4458 131.886 81.3865 132.261C81.2024 132.326 81.0512 133.172 80.826 133.367C80.3969 133.738 79.5938 133.727 79.072 133.769C78.3709 133.827 77.6422 133.75 76.9533 133.848C76.9522 133.853 76.951 133.856 76.9492 133.86C77.6017 134.382 78.4348 134.794 79.2256 135.047Z" fill="#FB0F0C"/>
<path fill-rule="evenodd" clip-rule="evenodd" d="M75.3594 132.271C75.5018 131.011 77.6187 131.623 76.6069 133.356C75.8952 134.575 75.4883 133.436 75.3594 132.271Z" fill="#FB0F0C"/>
<path fill-rule="evenodd" clip-rule="evenodd" d="M25.7299 135.249C25.2383 136.502 24.7189 137.78 24.3821 139.09C24.0787 140.27 23.8369 143.154 25.3594 143.72C26.82 144.263 27.3512 141.657 27.3318 140.634C27.3031 139.095 26.5943 137.525 26.0611 136.111C25.9527 135.823 25.8419 135.535 25.7299 135.249Z" fill="#FB0F0C"/>
<path fill-rule="evenodd" clip-rule="evenodd" d="M25.7223 135.219C24.5143 135.743 23.1707 136.257 22.1019 137.053C21.1531 137.761 19.6429 139.856 20.5238 141.138C21.4137 142.432 23.27 140.948 23.87 140.075C24.7301 138.821 25.134 137.107 25.586 135.662C25.632 135.515 25.6771 135.365 25.7223 135.219Z" fill="#FB0F0C"/>
<path fill-rule="evenodd" clip-rule="evenodd" d="M25.7266 135.219C26.9342 135.743 28.2779 136.257 29.3466 137.053C30.2955 137.76 31.8059 139.856 30.9248 141.138C30.0349 142.431 28.1788 140.949 27.5788 140.075C26.7018 138.797 26.2914 137.04 25.8327 135.564C25.7969 135.45 25.7617 135.332 25.7266 135.219Z" fill="#FB0F0C"/>
<path fill-rule="evenodd" clip-rule="evenodd" d="M22.6329 135.047C21.6556 135.346 20.4456 135.247 19.8215 134.313C19.4888 133.815 19.4129 131.886 20.4723 132.261C20.6566 132.326 20.8082 133.172 21.033 133.367C21.4621 133.738 22.2656 133.727 22.7871 133.77C23.4882 133.827 24.2169 133.75 24.9054 133.848C24.9063 133.853 24.9078 133.857 24.9095 133.86C24.2565 134.382 23.4243 134.794 22.6329 135.047Z" fill="#FB0F0C"/>
<path fill-rule="evenodd" clip-rule="evenodd" d="M28.765 135.047C29.7422 135.346 30.9522 135.247 31.5766 134.313C31.909 133.815 31.9849 131.886 30.9256 132.261C30.7412 132.326 30.5899 133.172 30.3651 133.367C29.936 133.738 29.1325 133.727 28.6111 133.77C27.9099 133.827 27.1812 133.75 26.4924 133.848C26.4918 133.853 26.4903 133.857 26.4883 133.86C27.1414 134.382 27.9738 134.794 28.765 135.047Z" fill="#FB0F0C"/>
<path fill-rule="evenodd" clip-rule="evenodd" d="M24.8984 132.271C25.0418 131.011 27.1578 131.623 26.1463 133.356C25.4349 134.576 25.0286 133.436 24.8984 132.271Z" fill="#FB0F0C"/>
<path fill-rule="evenodd" clip-rule="evenodd" d="M88.8125 136.099C89.9568 136.732 91.1944 137.51 92.4607 137.848C93.6133 138.155 95.7953 137.858 96.0051 136.287C96.208 134.77 94.1286 134.089 93.0071 134.224C91.6083 134.391 90.1415 135.363 88.9163 136.04C88.8823 136.058 88.8465 136.08 88.8125 136.099Z" fill="#FB0F0C"/>
<path fill-rule="evenodd" clip-rule="evenodd" d="M88.7891 136.107C89.2815 137.717 90.8093 143.863 93.5599 142.41C94.9001 141.703 93.822 139.362 93.1202 138.566C92.1301 137.445 90.488 136.856 89.1607 136.27C89.0376 136.215 88.9122 136.161 88.7891 136.107Z" fill="#FB0F0C"/>
<path fill-rule="evenodd" clip-rule="evenodd" d="M88.7891 136.103C89.2827 134.492 90.8104 128.344 93.5623 129.8C94.9012 130.508 93.8249 132.842 93.1226 133.639C92.1318 134.762 90.4898 135.353 89.1619 135.941C89.0376 135.996 88.9122 136.049 88.7891 136.103Z" fill="#FB0F0C"/>
<path fill-rule="evenodd" clip-rule="evenodd" d="M88.6415 139.784C88.8643 140.82 88.9106 142.373 88.0248 143.129C87.4485 143.622 85.9577 143.459 86.3006 142.355C86.3645 142.15 87.0575 141.936 87.2298 141.686C87.5863 141.167 87.5347 140.198 87.5681 139.6C87.6144 138.765 87.5405 137.905 87.6343 137.079C87.6378 137.078 87.6414 137.077 87.6443 137.074C88.1068 137.886 88.4386 138.865 88.6415 139.784Z" fill="#FB0F0C"/>
<path fill-rule="evenodd" clip-rule="evenodd" d="M88.6419 132.484C88.8653 131.447 88.9128 129.894 88.0252 129.138C87.4489 128.647 85.9563 128.806 86.3011 129.912C86.3644 130.115 87.0591 130.33 87.2303 130.58C87.5867 131.098 87.5351 132.069 87.5685 132.667C87.6148 133.502 87.541 134.362 87.6348 135.188C87.6383 135.189 87.6418 135.191 87.6447 135.193C88.1061 134.382 88.4414 133.402 88.6419 132.484Z" fill="#FB0F0C"/>
<path fill-rule="evenodd" clip-rule="evenodd" d="M86.3069 137.088C85.2095 136.814 85.6785 134.366 87.2197 135.603C88.1465 136.347 87.4477 136.887 86.3069 137.088Z" fill="#FB0F0C"/>
<path fill-rule="evenodd" clip-rule="evenodd" d="M88.8125 116.081C89.9568 116.714 91.195 117.492 92.4613 117.83C93.6115 118.138 95.7964 117.841 96.0034 116.269C96.2027 114.754 94.1274 114.072 93.0053 114.206C91.6077 114.372 90.1398 115.344 88.9169 116.022C88.8823 116.041 88.8465 116.062 88.8125 116.081Z" fill="#FB0F0C"/>
<path fill-rule="evenodd" clip-rule="evenodd" d="M88.7891 116.092C89.2839 117.702 90.8104 123.848 93.5623 122.395C94.9018 121.687 93.8249 119.349 93.1226 118.553C92.1307 117.431 90.4892 116.841 89.1619 116.254C89.0376 116.199 88.9122 116.145 88.7891 116.092Z" fill="#FB0F0C"/>
<path fill-rule="evenodd" clip-rule="evenodd" d="M88.7891 116.086C89.2815 114.475 90.8081 108.33 93.5599 109.783C94.9001 110.491 93.8226 112.829 93.1202 113.624C92.1295 114.747 90.488 115.336 89.1607 115.924C89.0376 115.978 88.9122 116.032 88.7891 116.086Z" fill="#FB0F0C"/>
<path fill-rule="evenodd" clip-rule="evenodd" d="M88.642 119.765C88.8654 120.805 88.9129 122.353 88.0253 123.111C87.4502 123.603 85.9559 123.448 86.3012 122.339C86.3645 122.137 87.0592 121.922 87.2304 121.672C87.5868 121.153 87.5352 120.183 87.5686 119.585C87.6149 118.749 87.5411 117.889 87.6349 117.063C87.6384 117.062 87.6419 117.06 87.6448 117.059C88.1062 117.868 88.4409 118.847 88.642 119.765Z" fill="#FB0F0C"/>
<path fill-rule="evenodd" clip-rule="evenodd" d="M88.6423 112.466C88.8651 111.431 88.9114 109.877 88.0256 109.12C87.4499 108.629 85.955 108.79 86.3015 109.895C86.3654 110.097 87.0589 110.311 87.2307 110.562C87.5871 111.082 87.5355 112.051 87.5689 112.649C87.6152 113.485 87.5414 114.345 87.6352 115.171C87.6387 115.172 87.6422 115.174 87.6451 115.175C88.1077 114.364 88.4395 113.385 88.6423 112.466Z" fill="#FB0F0C"/>
<path fill-rule="evenodd" clip-rule="evenodd" d="M86.3105 117.071C85.2131 116.798 85.6832 114.345 87.2233 115.583C88.1513 116.33 87.4514 116.869 86.3105 117.071Z" fill="#FB0F0C"/>
<path fill-rule="evenodd" clip-rule="evenodd" d="M88.8125 96.0639C89.9557 96.6984 91.1968 97.4763 92.463 97.8133C93.6156 98.1206 95.7953 97.8241 96.0051 96.2526C96.2074 94.7368 94.1291 94.0526 93.0071 94.1863C91.6077 94.3539 90.1409 95.3277 88.9163 96.0046C88.8823 96.024 88.8471 96.0451 88.8125 96.0639Z" fill="#FB0F0C"/>
<path fill-rule="evenodd" clip-rule="evenodd" d="M88.7891 96.0742C89.2839 97.6857 90.8104 103.831 93.5623 102.377C94.9018 101.67 93.8249 99.3316 93.1226 98.5361C92.1307 97.4135 90.4892 96.8237 89.1619 96.2363C89.0376 96.1819 88.9122 96.1281 88.7891 96.0742Z" fill="#FB0F0C"/>
<path fill-rule="evenodd" clip-rule="evenodd" d="M88.7891 96.0683C89.2839 94.4581 90.8104 88.3124 93.5623 89.7653C94.9018 90.4731 93.8249 92.8116 93.1226 93.607C92.1307 94.7291 90.4892 95.3195 89.1619 95.9062C89.0376 95.9613 88.9122 96.0151 88.7891 96.0683Z" fill="#FB0F0C"/>
<path fill-rule="evenodd" clip-rule="evenodd" d="M88.6419 99.7518C88.8647 100.788 88.911 102.341 88.0252 103.098C87.4489 103.59 85.9563 103.428 86.3011 102.323C86.3644 102.12 87.0591 101.906 87.2303 101.655C87.5867 101.136 87.5351 100.166 87.5685 99.5685C87.6148 98.7374 87.5292 97.8591 87.6406 97.0449C88.112 97.8349 88.4408 98.8409 88.6419 99.7518Z" fill="#FB0F0C"/>
<path fill-rule="evenodd" clip-rule="evenodd" d="M88.6419 92.4506C88.8647 91.415 88.911 89.8616 88.0252 89.1055C87.4489 88.6125 85.9563 88.774 86.3011 89.8798C86.3644 90.083 87.0591 90.2972 87.2303 90.547C87.5867 91.066 87.5351 92.0362 87.5685 92.6345C87.6148 93.4656 87.5292 94.3439 87.6406 95.1581C88.112 94.3681 88.4408 93.3615 88.6419 92.4506Z" fill="#FB0F0C"/>
<path fill-rule="evenodd" clip-rule="evenodd" d="M86.3108 97.055C85.2127 96.7822 85.6835 94.3348 87.2235 95.5675C88.1527 96.3122 87.4493 96.8511 86.3108 97.055Z" fill="#FB0F0C"/>
<path fill-rule="evenodd" clip-rule="evenodd" d="M88.8125 56.0327C89.9563 56.6657 91.1956 57.4448 92.4607 57.7817C93.6133 58.0887 95.7953 57.7923 96.0051 56.2208C96.208 54.7043 94.1286 54.0229 93.0071 54.1572C91.6077 54.3251 90.1415 55.2965 88.9163 55.9731C88.8823 55.9924 88.8465 56.0136 88.8125 56.0327Z" fill="#FB0F0C"/>
<path fill-rule="evenodd" clip-rule="evenodd" d="M88.7891 56.041C89.2815 57.6512 90.8093 63.7961 93.5599 62.3437C94.9001 61.6363 93.822 59.2957 93.1202 58.4999C92.1307 57.3787 90.488 56.789 89.1607 56.2031C89.0376 56.1484 88.9122 56.0942 88.7891 56.041Z" fill="#FB0F0C"/>
<path fill-rule="evenodd" clip-rule="evenodd" d="M88.7891 56.036C89.2827 54.4249 90.811 48.2767 93.5623 49.733C94.9012 50.4413 93.8249 52.7753 93.1226 53.572C92.1318 54.6949 90.4892 55.2859 89.1619 55.8739C89.0376 55.9286 88.9122 55.9822 88.7891 56.036Z" fill="#FB0F0C"/>
<path fill-rule="evenodd" clip-rule="evenodd" d="M88.6433 59.7171C88.866 60.753 88.9123 62.3067 88.0265 63.0631C87.4157 63.5854 85.9782 63.3665 86.3165 62.2601C86.3675 62.0944 87.1097 61.7953 87.2697 61.5379C87.6044 60.9983 87.5458 60.0256 87.5763 59.4171C87.615 58.6271 87.5277 57.7766 87.6461 57.0078C88.1086 57.8193 88.4404 58.7983 88.6433 59.7171" fill="#FB0F0C"/>
<path fill-rule="evenodd" clip-rule="evenodd" d="M88.6421 52.4169C88.8654 51.3801 88.9129 49.8279 88.0253 49.0712C87.4496 48.5797 85.9559 48.7394 86.3012 49.8455C86.3645 50.0487 87.0592 50.2629 87.2304 50.513C87.5868 51.0317 87.5352 52.0025 87.5686 52.6002C87.615 53.4355 87.5411 54.2957 87.6349 55.1214C87.6384 55.1226 87.6419 55.1241 87.6449 55.1262C88.1068 54.3157 88.4416 53.3357 88.6421 52.4169Z" fill="#FB0F0C"/>
<path fill-rule="evenodd" clip-rule="evenodd" d="M86.3069 57.021C85.2095 56.7476 85.6785 54.2993 87.2197 55.5363C88.1465 56.2806 87.4477 56.8196 86.3069 57.021Z" fill="#FB0F0C"/>
<path fill-rule="evenodd" clip-rule="evenodd" d="M88.8125 36.0149C89.9568 36.6485 91.195 37.4249 92.4613 37.7639C93.6121 38.0718 95.7964 37.7748 96.0034 36.203C96.2027 34.6871 94.1274 34.006 93.0053 34.1394C91.6077 34.3055 90.1398 35.2787 88.9169 35.955C88.8823 35.9744 88.8465 35.9958 88.8125 36.0149Z" fill="#FB0F0C"/>
<path fill-rule="evenodd" clip-rule="evenodd" d="M88.7891 36.0254C89.2839 37.6362 90.8104 43.7817 93.5623 42.3284C94.9018 41.6213 93.8249 39.2824 93.1226 38.487C92.1307 37.3646 90.4892 36.7752 89.1619 36.1875C89.0376 36.1328 88.9122 36.0789 88.7891 36.0254Z" fill="#FB0F0C"/>
<path fill-rule="evenodd" clip-rule="evenodd" d="M88.7891 36.0193C89.2815 34.4082 90.8081 28.2634 93.5599 29.7166C94.9001 30.4237 93.822 32.7623 93.1202 33.5577C92.1295 34.6801 90.4886 35.2702 89.1607 35.8575C89.0376 35.9119 88.9122 35.9658 88.7891 36.0193Z" fill="#FB0F0C"/>
<path fill-rule="evenodd" clip-rule="evenodd" d="M88.6422 39.6991C88.8656 40.7383 88.913 42.2865 88.0255 43.0448C87.4504 43.5365 85.9554 43.3817 86.3013 42.2729C86.3646 42.0697 87.0593 41.8555 87.2305 41.6054C87.587 41.0867 87.5354 40.1159 87.5688 39.5182C87.6151 38.6829 87.5412 37.8227 87.635 36.997C87.6385 36.9958 87.6421 36.9943 87.645 36.9922C88.1064 37.8018 88.4411 38.7812 88.6422 39.6991Z" fill="#FB0F0C"/>
<path fill-rule="evenodd" clip-rule="evenodd" d="M88.6415 32.3996C88.8648 31.3637 88.9106 29.8107 88.0248 29.0542C87.4491 28.5625 85.9577 28.7209 86.3006 29.8261C86.3645 30.0311 87.0575 30.2444 87.2298 30.4957C87.5862 31.0153 87.5347 31.985 87.5681 32.5832C87.6144 33.4186 87.5405 34.2787 87.6343 35.1044C87.6378 35.1056 87.6414 35.1071 87.6443 35.1092C88.1068 34.2981 88.4386 33.3187 88.6415 32.3996Z" fill="#FB0F0C"/>
<path fill-rule="evenodd" clip-rule="evenodd" d="M86.3107 37.0036C85.2132 36.7317 85.6828 34.2788 87.2235 35.5168C88.1515 36.2626 87.4515 36.8025 86.3107 37.0036Z" fill="#FB0F0C"/>
<path fill-rule="evenodd" clip-rule="evenodd" d="M88.8125 15.9974C89.9551 16.6319 91.1968 17.4095 92.463 17.7464C93.6156 18.0534 95.7953 17.7567 96.0051 16.1858C96.2074 14.6696 94.1291 13.9855 93.0071 14.1195C91.6077 14.2867 90.1409 15.2609 88.9163 15.9378C88.8823 15.9571 88.8471 15.9783 88.8125 15.9974Z" fill="#FB0F0C"/>
<path fill-rule="evenodd" clip-rule="evenodd" d="M88.7891 16.0073C89.2839 17.6182 90.8104 23.7639 93.5623 22.3103C94.9018 21.6032 93.8249 19.2644 93.1226 18.4689C92.1307 17.3466 90.4892 16.7571 89.1619 16.1694C89.0376 16.115 88.9122 16.0612 88.7891 16.0073Z" fill="#FB0F0C"/>
<path fill-rule="evenodd" clip-rule="evenodd" d="M88.7891 16.004C89.2839 14.3931 90.8104 8.24771 93.5623 9.70097C94.9018 10.4081 93.8249 12.7469 93.1226 13.5424C92.1307 14.6647 90.4892 15.2542 89.1619 15.8419C89.0376 15.8966 88.9122 15.9504 88.7891 16.004Z" fill="#FB0F0C"/>
<path fill-rule="evenodd" clip-rule="evenodd" d="M88.6419 19.6849C88.8647 20.7205 88.911 22.2739 88.0252 23.0306C87.4489 23.523 85.9563 23.3615 86.3011 22.256C86.3644 22.0531 87.0591 21.8387 87.2303 21.5888C87.5867 21.0698 87.5351 20.0993 87.5685 19.5013C87.6148 18.6702 87.5292 17.7916 87.6406 16.978C88.112 17.7674 88.4408 18.7743 88.6419 19.6849Z" fill="#FB0F0C"/>
<path fill-rule="evenodd" clip-rule="evenodd" d="M88.6419 12.3834C88.8647 11.3476 88.911 9.7945 88.0252 9.03777C87.4489 8.54539 85.9563 8.70659 86.3011 9.81234C86.3644 10.0153 87.0591 10.2294 87.2303 10.4795C87.5867 10.9985 87.5351 11.9688 87.5685 12.567C87.6148 13.3982 87.5292 14.2765 87.6406 15.0903C88.112 14.3004 88.4408 13.2941 88.6419 12.3834Z" fill="#FB0F0C"/>
<path fill-rule="evenodd" clip-rule="evenodd" d="M86.3108 16.9863C85.2127 16.7138 85.6835 14.2664 87.2235 15.4992C88.1527 16.2432 87.4493 16.7828 86.3108 16.9863Z" fill="#FB0F0C"/>
<path fill-rule="evenodd" clip-rule="evenodd" d="M88.8125 76.048C89.9551 76.6825 91.1968 77.4604 92.463 77.7974C93.6156 78.104 95.7953 77.8076 96.0051 76.2361C96.2074 74.7197 94.1291 74.0385 93.0071 74.1728C91.6077 74.3407 90.1415 75.3118 88.9163 75.9887C88.8823 76.0075 88.8471 76.0292 88.8125 76.048Z" fill="#FB0F0C"/>
<path fill-rule="evenodd" clip-rule="evenodd" d="M88.7891 76.0586C89.2839 77.6694 90.8104 83.8152 93.5623 82.3616C94.9018 81.6545 93.8249 79.316 93.1226 78.5199C92.1307 77.3978 90.4892 76.8081 89.1619 76.2207C89.0376 76.1657 88.9122 76.1124 88.7891 76.0586Z" fill="#FB0F0C"/>
<path fill-rule="evenodd" clip-rule="evenodd" d="M88.7891 76.0526C89.2839 74.442 90.8104 68.2963 93.5623 69.7499C94.9018 70.457 93.8249 72.7955 93.1226 73.591C92.1307 74.7133 90.4892 75.3034 89.1619 75.8911C89.0376 75.9455 88.9122 75.9987 88.7891 76.0526Z" fill="#FB0F0C"/>
<path fill-rule="evenodd" clip-rule="evenodd" d="M88.6415 79.7353C88.8643 80.7709 88.9106 82.3243 88.0248 83.0804C87.4479 83.574 85.9577 83.4119 86.3006 82.3061C86.364 82.1029 87.0581 81.8863 87.2298 81.6371C87.5863 81.1175 87.5347 80.1473 87.5681 79.549C87.6144 78.7149 87.5405 77.8553 87.6343 77.0302C87.6379 77.029 87.6414 77.0278 87.6443 77.0254C88.1069 77.8372 88.4387 78.8159 88.6415 79.7353Z" fill="#FB0F0C"/>
<path fill-rule="evenodd" clip-rule="evenodd" d="M88.6419 72.4333C88.8647 71.3968 88.9116 69.8449 88.0252 69.0876C87.4489 68.5952 85.9563 68.7564 86.3011 69.8621C86.3644 70.0651 87.0591 70.2798 87.2303 70.5296C87.5867 71.0486 87.5351 72.0189 87.5685 72.6168C87.6148 73.448 87.5292 74.3263 87.6406 75.1405C88.1108 74.3499 88.4409 73.3442 88.6419 72.4333Z" fill="#FB0F0C"/>
<path fill-rule="evenodd" clip-rule="evenodd" d="M86.3099 77.0348C85.2148 76.7693 85.6809 74.3122 87.2227 75.5529C88.1472 76.2969 87.4484 76.8377 86.3099 77.0348Z" fill="#FB0F0C"/>
<path fill-rule="evenodd" clip-rule="evenodd" d="M13.3468 136.099C12.2027 136.732 10.9646 137.51 9.69859 137.848C8.54603 138.155 6.36432 137.858 6.15445 136.287C5.95161 134.77 8.03043 134.089 9.15191 134.224C10.5513 134.391 12.0181 135.363 13.2427 136.04C13.2773 136.058 13.3131 136.08 13.3468 136.099Z" fill="#FB0F0C"/>
<path fill-rule="evenodd" clip-rule="evenodd" d="M13.3705 136.107C12.878 137.717 11.35 143.862 8.59904 142.41C7.25918 141.703 8.33728 139.362 9.03931 138.566C10.0295 137.445 11.6713 136.856 12.9982 136.27C13.1219 136.215 13.2468 136.161 13.3705 136.107Z" fill="#FB0F0C"/>
<path fill-rule="evenodd" clip-rule="evenodd" d="M13.3722 136.103C12.8789 134.491 11.3506 128.344 8.59873 129.8C7.26004 130.508 8.33609 132.842 9.039 133.639C10.03 134.761 11.6712 135.353 12.9997 135.941C13.1231 135.996 13.2488 136.049 13.3722 136.103Z" fill="#FB0F0C"/>
<path fill-rule="evenodd" clip-rule="evenodd" d="M13.5158 139.784C13.2927 140.82 13.2467 142.373 14.1325 143.129C14.7091 143.622 16.1999 143.459 15.8564 142.355C15.7927 142.15 15.0998 141.937 14.9275 141.686C14.571 141.167 14.6223 140.198 14.5889 139.6C14.5426 138.765 14.6167 137.905 14.5229 137.079C14.5194 137.078 14.5159 137.077 14.5127 137.074C14.051 137.886 13.7189 138.865 13.5158 139.784Z" fill="#FB0F0C"/>
<path fill-rule="evenodd" clip-rule="evenodd" d="M13.5165 132.484C13.2926 131.447 13.246 129.894 14.1333 129.138C14.7098 128.647 16.2021 128.806 15.8571 129.912C15.7938 130.115 15.1 130.33 14.9282 130.58C14.5718 131.098 14.6231 132.069 14.5896 132.667C14.5433 133.502 14.6175 134.363 14.5237 135.188C14.5202 135.189 14.5167 135.191 14.5134 135.193C14.0521 134.382 13.717 133.402 13.5165 132.484Z" fill="#FB0F0C"/>
<path fill-rule="evenodd" clip-rule="evenodd" d="M15.8502 137.088C16.9479 136.814 16.4778 134.366 14.9371 135.603C14.01 136.347 14.7091 136.887 15.8502 137.088Z" fill="#FB0F0C"/>
<path fill-rule="evenodd" clip-rule="evenodd" d="M13.3443 116.081C12.1994 116.714 10.9627 117.492 9.69613 117.83C8.54504 118.138 6.36099 117.841 6.15405 116.269C5.95443 114.754 8.02973 114.072 9.15151 114.206C10.5497 114.372 12.0174 115.345 13.2403 116.022C13.2752 116.041 13.3103 116.062 13.3443 116.081Z" fill="#FB0F0C"/>
<path fill-rule="evenodd" clip-rule="evenodd" d="M13.3723 116.092C12.8776 117.703 11.3513 123.848 8.59886 122.395C7.25988 121.688 8.33622 119.349 9.03913 118.553C10.0308 117.431 11.6717 116.841 12.9998 116.254C13.1232 116.199 13.2489 116.145 13.3723 116.092Z" fill="#FB0F0C"/>
<path fill-rule="evenodd" clip-rule="evenodd" d="M13.3703 116.086C12.8773 114.475 11.351 108.33 8.59885 109.783C7.25958 110.49 8.3368 112.828 9.03912 113.624C10.0296 114.746 11.6705 115.337 12.998 115.924C13.1214 115.978 13.2469 116.032 13.3703 116.086Z" fill="#FB0F0C"/>
<path fill-rule="evenodd" clip-rule="evenodd" d="M13.5164 119.765C13.2927 120.805 13.2458 122.353 14.1331 123.111C14.7085 123.603 16.2029 123.448 15.857 122.339C15.7937 122.136 15.0998 121.922 14.9281 121.672C14.5716 121.153 14.6229 120.183 14.5895 119.585C14.5432 118.749 14.6174 117.889 14.5236 117.063C14.52 117.062 14.5165 117.06 14.5133 117.059C14.0525 117.869 13.7175 118.847 13.5164 119.765Z" fill="#FB0F0C"/>
<path fill-rule="evenodd" clip-rule="evenodd" d="M13.5158 112.466C13.2927 111.43 13.2467 109.877 14.1325 109.12C14.7085 108.629 16.2031 108.79 15.8564 109.895C15.7927 110.097 15.0992 110.311 14.9275 110.562C14.5707 111.082 14.6223 112.051 14.5889 112.649C14.5426 113.485 14.6167 114.345 14.5229 115.171C14.5194 115.172 14.5159 115.174 14.5127 115.175C14.051 114.364 13.7189 113.386 13.5158 112.466Z" fill="#FB0F0C"/>
<path fill-rule="evenodd" clip-rule="evenodd" d="M15.8507 117.071C16.9487 116.798 16.4774 114.345 14.9376 115.583C14.0093 116.33 14.7098 116.869 15.8507 117.071Z" fill="#FB0F0C"/>
<path fill-rule="evenodd" clip-rule="evenodd" d="M13.3467 96.0639C12.2038 96.6984 10.9622 97.4763 9.69646 97.8133C8.54391 98.1206 6.36396 97.8241 6.15438 96.2526C5.95213 94.7368 8.02948 94.0526 9.15184 94.1863C10.5515 94.3539 12.0183 95.3277 13.2427 96.0046C13.2772 96.024 13.3127 96.0458 13.3467 96.0639Z" fill="#FB0F0C"/>
<path fill-rule="evenodd" clip-rule="evenodd" d="M13.3723 96.0742C12.8776 97.6857 11.3516 103.83 8.59886 102.377C7.25988 101.671 8.33622 99.3316 9.03913 98.5361C10.0305 97.4141 11.6719 96.8243 12.9998 96.2363C13.1232 96.1819 13.2489 96.1281 13.3723 96.0742Z" fill="#FB0F0C"/>
<path fill-rule="evenodd" clip-rule="evenodd" d="M13.3724 96.0702C12.8776 94.4593 11.3513 88.3148 8.59892 89.7672C7.25964 90.4743 8.33657 92.8134 9.03919 93.6088C10.0308 94.7309 11.672 95.3207 12.9999 95.908C13.1233 95.9631 13.249 96.0169 13.3724 96.0702Z" fill="#FB0F0C"/>
<path fill-rule="evenodd" clip-rule="evenodd" d="M13.5158 99.7518C13.2927 100.788 13.2467 102.341 14.1325 103.098C14.7091 103.59 16.2014 103.428 15.8564 102.323C15.793 102.12 15.0992 101.906 14.9275 101.655C14.5707 101.136 14.6223 100.166 14.5889 99.5685C14.5429 98.7374 14.6291 97.8585 14.5168 97.0449C14.0457 97.8355 13.7171 98.8409 13.5158 99.7518Z" fill="#FB0F0C"/>
<path fill-rule="evenodd" clip-rule="evenodd" d="M13.5158 92.4503C13.2927 91.4147 13.2467 89.8614 14.1325 89.1052C14.7091 88.6129 16.2011 88.7738 15.8564 89.8795C15.793 90.0827 15.0989 90.2969 14.9275 90.5467C14.5707 91.0657 14.6223 92.036 14.5889 92.6342C14.5429 93.4653 14.6291 94.3442 14.5168 95.1578C14.0454 94.3672 13.7171 93.3613 13.5158 92.4503Z" fill="#FB0F0C"/>
<path fill-rule="evenodd" clip-rule="evenodd" d="M15.8508 97.0548C16.9491 96.7814 16.4772 94.3352 14.9377 95.5674C14.008 96.312 14.7123 96.851 15.8508 97.0548Z" fill="#FB0F0C"/>
<path fill-rule="evenodd" clip-rule="evenodd" d="M13.3467 56.0327C12.2036 56.6657 10.964 57.4445 9.69855 57.7817C8.54599 58.0887 6.36429 57.7923 6.15441 56.2208C5.95186 54.7043 8.03039 54.0229 9.15188 54.1572C10.5515 54.3251 12.0177 55.2965 13.2427 55.9731C13.2773 55.9921 13.3127 56.0139 13.3467 56.0327Z" fill="#FB0F0C"/>
<path fill-rule="evenodd" clip-rule="evenodd" d="M13.3705 56.041C12.8777 57.6512 11.35 63.7958 8.59904 62.3437C7.25918 61.6366 8.33728 59.2957 9.03931 58.4999C10.0292 57.3787 11.6713 56.7887 12.9982 56.2031C13.1216 56.1484 13.2471 56.0942 13.3705 56.041Z" fill="#FB0F0C"/>
<path fill-rule="evenodd" clip-rule="evenodd" d="M13.3723 56.0359C12.879 54.4244 11.3503 48.2772 8.5988 49.7328C7.26011 50.4412 8.33587 52.7752 9.03907 53.5718C10.0301 54.6948 11.6716 55.2858 12.9997 55.8737C13.1231 55.9285 13.2492 55.982 13.3723 56.0359Z" fill="#FB0F0C"/>
<path fill-rule="evenodd" clip-rule="evenodd" d="M13.5158 59.7171C13.2927 60.7533 13.2467 62.3064 14.1325 63.0631C14.744 63.5851 16.1811 63.3665 15.8426 62.2601C15.7919 62.0944 15.0491 61.7953 14.8893 61.5379C14.5543 60.9983 14.6129 60.0256 14.583 59.4171C14.544 58.6271 14.6317 57.776 14.5127 57.0078C14.0507 57.8196 13.7189 58.7983 13.5158 59.7171" fill="#FB0F0C"/>
<path fill-rule="evenodd" clip-rule="evenodd" d="M13.5164 52.4168C13.2927 51.38 13.2458 49.8275 14.1331 49.0711C14.7094 48.5799 16.2023 48.7393 15.857 49.8453C15.7937 50.0486 15.0998 50.2627 14.9281 50.5129C14.5716 51.0315 14.6229 52.0024 14.5895 52.6C14.5432 53.4354 14.6174 54.2959 14.5236 55.1212C14.52 55.1224 14.5165 55.124 14.5133 55.1261C14.0519 54.3152 13.7169 53.3356 13.5164 52.4168Z" fill="#FB0F0C"/>
<path fill-rule="evenodd" clip-rule="evenodd" d="M15.8503 57.021C16.948 56.7469 16.4778 54.2995 14.9372 55.5362C14.0098 56.2809 14.7094 56.8195 15.8503 57.021Z" fill="#FB0F0C"/>
<path fill-rule="evenodd" clip-rule="evenodd" d="M13.3443 36.0149C12.2 36.6482 10.9624 37.4249 9.69613 37.7639C8.54504 38.0718 6.36099 37.7748 6.15405 36.203C5.95443 34.6871 8.02973 34.006 9.15151 34.1394C10.5497 34.3055 12.0171 35.279 13.2403 35.955C13.2752 35.9744 13.3103 35.9958 13.3443 36.0149Z" fill="#FB0F0C"/>
<path fill-rule="evenodd" clip-rule="evenodd" d="M13.3723 36.0254C12.8775 37.6365 11.3512 43.781 8.59879 42.3284C7.25981 41.6216 8.33644 39.2824 9.03906 38.487C10.0307 37.3649 11.6716 36.7752 12.9997 36.1875C13.1231 36.1328 13.2492 36.0789 13.3723 36.0254Z" fill="#FB0F0C"/>
<path fill-rule="evenodd" clip-rule="evenodd" d="M13.3704 36.0192C12.8777 34.4081 11.3511 28.2636 8.59898 29.7165C7.25941 30.4234 8.33693 32.7622 9.03925 33.5576C10.03 34.6797 11.6706 35.2701 12.9982 35.8574C13.1216 35.9119 13.247 35.9657 13.3704 36.0192Z" fill="#FB0F0C"/>
<path fill-rule="evenodd" clip-rule="evenodd" d="M13.5164 39.6991C13.2927 40.7383 13.2458 42.2868 14.1331 43.0448C14.7085 43.5362 16.2029 43.3817 15.857 42.2729C15.7937 42.0697 15.0998 41.8555 14.9281 41.6054C14.5716 41.0867 14.6229 40.1159 14.5895 39.5182C14.5432 38.6829 14.6174 37.8224 14.5236 36.997C14.52 36.9958 14.5165 36.9943 14.5133 36.9922C14.0525 37.8021 13.7175 38.7809 13.5164 39.6991Z" fill="#FB0F0C"/>
<path fill-rule="evenodd" clip-rule="evenodd" d="M13.5158 32.3996C13.2927 31.3634 13.2467 29.8107 14.1325 29.0542C14.7082 28.5625 16.1993 28.7209 15.8564 29.8261C15.7927 30.0311 15.1001 30.2444 14.9274 30.4957C14.5707 31.0153 14.6223 31.985 14.5889 32.5832C14.5426 33.4183 14.6167 34.2787 14.5229 35.1044C14.5191 35.1056 14.5159 35.1071 14.5127 35.1092C14.051 34.2975 13.7189 33.3187 13.5158 32.3996Z" fill="#FB0F0C"/>
<path fill-rule="evenodd" clip-rule="evenodd" d="M15.8505 37.0036C16.9483 36.7311 16.4775 34.2789 14.9375 35.5168C14.0094 36.2627 14.7097 36.8025 15.8505 37.0036Z" fill="#FB0F0C"/>
<path fill-rule="evenodd" clip-rule="evenodd" d="M13.3467 15.9974C12.2038 16.6319 10.9622 17.4095 9.69646 17.7464C8.54391 18.0534 6.36396 17.7567 6.15438 16.1858C5.95213 14.6696 8.02948 13.9855 9.15184 14.1195C10.5515 14.2867 12.0183 15.2609 13.2427 15.9378C13.2772 15.9571 13.3127 15.9783 13.3467 15.9974Z" fill="#FB0F0C"/>
<path fill-rule="evenodd" clip-rule="evenodd" d="M13.3723 16.0073C12.8775 17.6188 11.3512 23.7633 8.59879 22.3103C7.25981 21.6035 8.33644 19.2644 9.03906 18.4689C10.0307 17.3469 11.6719 16.7574 12.9997 16.1694C13.1231 16.115 13.2492 16.0612 13.3723 16.0073Z" fill="#FB0F0C"/>
<path fill-rule="evenodd" clip-rule="evenodd" d="M13.3724 16.0038C12.8779 14.3927 11.3513 8.24818 8.59892 9.70083C7.25964 10.4077 8.33657 12.7468 9.03919 13.5422C10.0308 14.6643 11.672 15.2541 12.9999 15.8417C13.1233 15.8965 13.2493 15.9503 13.3724 16.0038Z" fill="#FB0F0C"/>
<path fill-rule="evenodd" clip-rule="evenodd" d="M13.5158 19.6849C13.2927 20.7208 13.2467 22.2739 14.1325 23.0306C14.7091 23.523 16.2014 23.3615 15.8564 22.256C15.793 22.0528 15.0992 21.8387 14.9275 21.5888C14.5707 21.0698 14.6223 20.0993 14.5889 19.5013C14.5429 18.6705 14.6291 17.7913 14.5168 16.978C14.0454 17.768 13.7169 18.774 13.5158 19.6849Z" fill="#FB0F0C"/>
<path fill-rule="evenodd" clip-rule="evenodd" d="M13.5158 12.3834C13.2927 11.3473 13.2467 9.7945 14.1325 9.03777C14.7091 8.54539 16.2014 8.70659 15.8564 9.81234C15.793 10.0153 15.0992 10.2294 14.9275 10.4795C14.5707 10.9985 14.6223 11.9688 14.5889 12.567C14.5429 13.3979 14.6291 14.2768 14.5168 15.0903C14.0457 14.2994 13.7171 13.2944 13.5158 12.3834Z" fill="#FB0F0C"/>
<path fill-rule="evenodd" clip-rule="evenodd" d="M15.8508 16.9882C16.9489 16.7151 16.4775 14.2686 14.9377 15.5011C14.008 16.2454 14.7123 16.785 15.8508 16.9882Z" fill="#FB0F0C"/>
<path fill-rule="evenodd" clip-rule="evenodd" d="M13.3467 76.048C12.2039 76.6825 10.9619 77.4604 9.6965 77.7974C8.54365 78.104 6.364 77.8076 6.15441 76.2361C5.95187 74.7197 8.0301 74.0385 9.15188 74.1728C10.5515 74.3407 12.0177 75.3118 13.2427 75.9887C13.2773 76.0075 13.3127 76.0292 13.3467 76.048Z" fill="#FB0F0C"/>
<path fill-rule="evenodd" clip-rule="evenodd" d="M13.3723 76.0586C12.8775 77.6694 11.3512 83.814 8.59879 82.3616C7.25981 81.6545 8.33644 79.316 9.03906 78.5199C10.0307 77.3984 11.6719 76.8081 12.9997 76.2207C13.1231 76.1657 13.2489 76.1124 13.3723 76.0586Z" fill="#FB0F0C"/>
<path fill-rule="evenodd" clip-rule="evenodd" d="M13.3723 76.0525C12.8775 74.4413 11.3512 68.2968 8.59879 69.7497C7.25981 70.4566 8.33644 72.7954 9.03906 73.5908C10.0307 74.7129 11.6716 75.303 12.9997 75.8909C13.1231 75.9454 13.2489 75.9986 13.3723 76.0525Z" fill="#FB0F0C"/>
<path fill-rule="evenodd" clip-rule="evenodd" d="M13.5158 79.7353C13.2927 80.7715 13.2467 82.3243 14.1325 83.0804C14.7097 83.574 16.1996 83.4119 15.8564 82.3061C15.793 82.1023 15.0992 81.8869 14.9274 81.6371C14.5707 81.1181 14.6223 80.1473 14.5889 79.549C14.5426 78.7149 14.6167 77.8553 14.5229 77.0302C14.5194 77.029 14.5159 77.0278 14.5127 77.0254C14.051 77.8372 13.7189 78.8159 13.5158 79.7353Z" fill="#FB0F0C"/>
<path fill-rule="evenodd" clip-rule="evenodd" d="M13.5155 72.4332C13.2933 71.3964 13.2459 69.8448 14.1323 69.0875C14.7088 68.5951 16.2011 68.7566 15.8561 69.8621C15.7928 70.065 15.0987 70.2794 14.9272 70.5296C14.5705 71.0486 14.6221 72.0188 14.5886 72.6168C14.5426 73.4476 14.6288 74.3268 14.5165 75.1404C14.0464 74.3492 13.7169 73.3445 13.5155 72.4332Z" fill="#FB0F0C"/>
<path fill-rule="evenodd" clip-rule="evenodd" d="M15.8485 77.0349C16.9436 76.7687 16.4767 74.3123 14.9355 75.5529C14.011 76.2969 14.7098 76.8377 15.8485 77.0349Z" fill="#FB0F0C"/>
<path d="M44.7617 91.6396H44.7778" stroke="black" stroke-width="0.0334464" stroke-miterlimit="10"/>
<path fill-rule="evenodd" clip-rule="evenodd" d="M46.2734 70.3728C47.263 70.3728 55.8846 70.2884 55.8846 70.456C55.8846 72.4775 55.8846 74.4991 55.8846 76.5207C55.8846 77.6881 55.8846 78.8562 55.8846 80.0236C55.8846 80.2916 56.0716 81.6042 55.8846 81.8111C55.2732 82.4892 46.2734 81.4118 46.2734 81.7282C46.2734 77.9428 46.2734 74.1579 46.2734 70.3728Z" fill="#FB0F0C" stroke="#FB0F0C" stroke-width="0.0334464" stroke-miterlimit="10"/>
<path fill-rule="evenodd" clip-rule="evenodd" d="M46.875 72.5171C47.2757 72.0404 47.6761 71.5638 48.0765 71.0874C48.2767 71.8021 48.4769 72.5171 48.6771 73.2321C48.0765 72.9937 47.4759 72.7554 46.875 72.5171Z" fill="white"/>
<path fill-rule="evenodd" clip-rule="evenodd" d="M54.082 71.0874C54.4818 71.5638 54.8828 72.0404 55.2826 72.5171C54.6823 72.7554 54.082 72.9937 53.4805 73.2321C53.681 72.5171 53.8815 71.8021 54.082 71.0874Z" fill="white"/>
<path fill-rule="evenodd" clip-rule="evenodd" d="M54.1198 81.0551C54.5202 80.5785 54.9207 80.1018 55.3216 79.6251C54.7202 79.3868 54.1198 79.1485 53.5195 78.9102C53.7194 79.6251 53.9193 80.3401 54.1198 81.0551Z" fill="white"/>
<path fill-rule="evenodd" clip-rule="evenodd" d="M48.0765 81.0955C47.6761 80.6189 47.2757 80.1428 46.875 79.6662C47.4759 79.4278 48.0765 79.1895 48.6771 78.9512C48.4769 79.6662 48.2767 80.3805 48.0765 81.0955Z" fill="white"/>
<path fill-rule="evenodd" clip-rule="evenodd" d="M51.0792 70.373C50.6832 71.787 50.2872 73.2006 49.8911 74.6143C49.7437 75.1405 46.8477 75.8646 46.2734 76.092C46.8477 76.3201 49.7437 77.0435 49.8911 77.5704C50.2872 78.9834 50.6832 80.3976 51.0792 81.8113C51.4755 80.3976 51.8712 78.9834 52.2669 77.5704C52.4146 77.0435 55.3107 76.3201 55.8846 76.092C55.3107 75.8646 52.4146 75.1405 52.2669 74.6143C51.8712 73.2006 51.4755 71.787 51.0792 70.373Z" fill="white"/>
<path fill-rule="evenodd" clip-rule="evenodd" d="M80.515 72.5161C80.3192 73.447 80.124 74.378 79.9282 75.3089C79.8602 75.6334 77.8799 75.981 77.5117 76.0904C77.8799 76.2005 79.8602 76.5477 79.9282 76.872C80.124 77.8029 80.3192 78.7338 80.515 79.6654C80.7103 78.7338 80.9061 77.8029 81.1019 76.872C81.1699 76.5477 83.1502 76.2005 83.5184 76.0904C83.1502 75.981 81.1699 75.6334 81.1019 75.3089C80.9061 74.378 80.7103 73.447 80.515 72.5161Z" fill="white" stroke="white" stroke-width="0.0334464" stroke-miterlimit="10"/>
<path fill-rule="evenodd" clip-rule="evenodd" d="M80.5072 62.5034C80.312 63.4344 80.1162 64.3653 79.921 65.2965C79.853 65.6207 77.8727 65.9683 77.5039 66.0777C77.8727 66.1875 79.853 66.5347 79.921 66.8593C80.1162 67.7902 80.312 68.7214 80.5072 69.6524C80.703 68.7214 80.8988 67.7902 81.0946 66.8593C81.1626 66.5347 83.143 66.1875 83.5111 66.0777C83.143 65.9683 81.1626 65.6207 81.0946 65.2965C80.8988 64.3653 80.703 63.4344 80.5072 62.5034Z" fill="white" stroke="white" stroke-width="0.0334464" stroke-miterlimit="10"/>
<path fill-rule="evenodd" clip-rule="evenodd" d="M80.5228 82.5171C80.327 83.448 80.1318 84.379 79.9366 85.3099C79.868 85.6341 77.8883 85.9819 77.5195 86.0914C77.8877 86.2009 79.868 86.5487 79.9366 86.8729C80.1318 87.8039 80.327 88.7348 80.5228 89.6663C80.7187 88.7348 80.9145 87.8039 81.1097 86.8729C81.1783 86.5487 83.1586 86.2009 83.5268 86.0914C83.1586 85.9819 81.1783 85.6341 81.1097 85.3099C80.9145 84.379 80.7187 83.448 80.5228 82.5171Z" fill="white" stroke="white" stroke-width="0.0334464" stroke-miterlimit="10"/>
<path fill-rule="evenodd" clip-rule="evenodd" d="M72.1049 72.5161C71.9097 73.447 71.7139 74.378 71.5181 75.3089C71.4501 75.6334 69.4697 75.981 69.1016 76.0904C69.4697 76.2005 71.4501 76.5477 71.5181 76.872C71.7139 77.8029 71.9097 78.7338 72.1049 79.6654C72.3007 78.7338 72.4959 77.8029 72.6917 76.872C72.7597 76.5477 74.74 76.2005 75.1082 76.0904C74.74 75.981 72.7597 75.6334 72.6917 75.3089C72.4959 74.378 72.3007 73.447 72.1049 72.5161Z" fill="white" stroke="white" stroke-width="0.0334464" stroke-miterlimit="10"/>
<path fill-rule="evenodd" clip-rule="evenodd" d="M72.0971 62.5034C71.9019 63.4344 71.7061 64.3653 71.5102 65.2965C71.4422 65.6207 69.4619 65.9683 69.0938 66.0777C69.4619 66.1875 71.4422 66.5347 71.5102 66.8593C71.7061 67.7902 71.9019 68.7214 72.0971 69.6524C72.2929 68.7214 72.4881 67.7902 72.6839 66.8593C72.7519 66.5347 74.7322 66.1875 75.1004 66.0777C74.7322 65.9683 72.7519 65.6207 72.6839 65.2965C72.4881 64.3653 72.2929 63.4344 72.0971 62.5034Z" fill="white" stroke="white" stroke-width="0.0334464" stroke-miterlimit="10"/>
<path fill-rule="evenodd" clip-rule="evenodd" d="M72.1127 82.5171C71.9175 83.448 71.7223 84.379 71.5265 85.3099C71.4585 85.6341 69.4781 85.9819 69.1094 86.0914C69.4781 86.2009 71.4585 86.5487 71.5265 86.8729C71.7223 87.8039 71.9175 88.7348 72.1127 89.6663C72.3085 88.7348 72.5043 87.8039 72.7001 86.8729C72.7681 86.5487 74.7485 86.2009 75.1166 86.0914C74.7485 85.9819 72.7681 85.6341 72.7001 85.3099C72.5043 84.379 72.3085 83.448 72.1127 82.5171Z" fill="white" stroke="white" stroke-width="0.0334464" stroke-miterlimit="10"/>
<path fill-rule="evenodd" clip-rule="evenodd" d="M55.284 101.826C55.0888 102.757 54.8936 103.688 54.6977 104.62C54.6297 104.944 52.6494 105.291 52.2812 105.4C52.6494 105.51 54.6297 105.858 54.6977 106.183C54.8936 107.113 55.0888 108.044 55.284 108.975C55.4798 108.044 55.6756 107.113 55.8714 106.183C55.9394 105.858 57.9197 105.51 58.2879 105.4C57.9197 105.291 55.9394 104.944 55.8714 104.62C55.6756 103.688 55.4798 102.757 55.284 101.826Z" fill="white" stroke="white" stroke-width="0.0334464" stroke-miterlimit="10"/>
<path fill-rule="evenodd" clip-rule="evenodd" d="M46.8747 101.826C46.6792 102.757 46.4837 103.688 46.2882 104.62C46.2199 104.944 44.2395 105.291 43.8711 105.4C44.2395 105.51 46.2199 105.858 46.2882 106.183C46.4837 107.113 46.6792 108.044 46.8747 108.975C47.0705 108.044 47.266 107.113 47.4615 106.183C47.5298 105.858 49.5102 105.51 49.8783 105.4C49.5102 105.291 47.5298 104.944 47.4615 104.62C47.266 103.688 47.0705 102.757 46.8747 101.826Z" fill="white" stroke="white" stroke-width="0.0334464" stroke-miterlimit="10"/>
<path fill-rule="evenodd" clip-rule="evenodd" d="M63.6875 101.811C63.4917 102.742 63.2959 103.673 63.1007 104.604C63.0327 104.928 61.0518 105.275 60.6836 105.385C61.0518 105.495 63.0327 105.843 63.1007 106.167C63.2959 107.098 63.4917 108.029 63.6875 108.96C63.8833 108.029 64.0785 107.098 64.2738 106.167C64.3423 105.843 66.3221 105.495 66.6908 105.385C66.3221 105.275 64.3423 104.928 64.2738 104.604C64.0785 103.673 63.8833 102.742 63.6875 101.811Z" fill="white" stroke="white" stroke-width="0.0334464" stroke-miterlimit="10"/>
<path fill-rule="evenodd" clip-rule="evenodd" d="M38.4877 101.836C38.2922 102.767 38.0967 103.698 37.9012 104.629C37.8332 104.954 35.8528 105.301 35.4844 105.41C35.8528 105.52 37.8332 105.867 37.9012 106.192C38.0967 107.123 38.2922 108.054 38.4877 108.985C38.6835 108.054 38.879 107.123 39.0748 106.192C39.1428 105.867 41.1232 105.52 41.4913 105.41C41.1232 105.301 39.1428 104.954 39.0748 104.629C38.879 103.698 38.6835 102.767 38.4877 101.836Z" fill="white" stroke="white" stroke-width="0.0334464" stroke-miterlimit="10"/>
<path fill-rule="evenodd" clip-rule="evenodd" d="M80.4961 101.824C80.3003 102.756 80.1051 103.686 79.9099 104.618C79.8413 104.942 77.8609 105.289 77.4922 105.399C77.8609 105.508 79.8413 105.856 79.9099 106.181C80.1051 107.111 80.3003 108.043 80.4961 108.973C80.6919 108.043 80.8871 107.111 81.0829 106.181C81.1509 105.856 83.1313 105.508 83.5 105.399C83.1313 105.289 81.1509 104.942 81.0829 104.618C80.8871 103.686 80.6919 102.756 80.4961 101.824Z" fill="white" stroke="white" stroke-width="0.0334464" stroke-miterlimit="10"/>
<path fill-rule="evenodd" clip-rule="evenodd" d="M72.0853 101.824C71.8901 102.756 71.6943 103.686 71.4991 104.618C71.4305 104.942 69.4508 105.289 69.082 105.399C69.4508 105.508 71.4305 105.856 71.4991 106.181C71.6943 107.111 71.8901 108.043 72.0853 108.973C72.2812 108.043 72.477 107.111 72.6728 106.181C72.7408 105.856 74.7211 105.508 75.0893 105.399C74.7211 105.289 72.7408 104.942 72.6728 104.618C72.477 103.686 72.2812 102.756 72.0853 101.824Z" fill="white" stroke="white" stroke-width="0.0334464" stroke-miterlimit="10"/>
<path fill-rule="evenodd" clip-rule="evenodd" d="M55.284 111.835C55.0888 112.766 54.8936 113.697 54.6977 114.628C54.6297 114.952 52.6494 115.3 52.2812 115.409C52.6494 115.519 54.6297 115.866 54.6977 116.191C54.8936 117.122 55.0888 118.053 55.284 118.984C55.4798 118.053 55.6756 117.122 55.8714 116.191C55.9394 115.866 57.9197 115.519 58.2879 115.409C57.9197 115.3 55.9394 114.952 55.8714 114.628C55.6756 113.697 55.4798 112.766 55.284 111.835Z" fill="white" stroke="white" stroke-width="0.0334464" stroke-miterlimit="10"/>
<path fill-rule="evenodd" clip-rule="evenodd" d="M46.8747 111.835C46.6792 112.766 46.4837 113.697 46.2882 114.628C46.2199 114.952 44.2395 115.3 43.8711 115.409C44.2395 115.519 46.2199 115.866 46.2882 116.191C46.4837 117.122 46.6792 118.053 46.8747 118.984C47.0705 118.053 47.266 117.122 47.4615 116.191C47.5298 115.866 49.5102 115.519 49.8783 115.409C49.5102 115.3 47.5298 114.952 47.4615 114.628C47.266 113.697 47.0705 112.766 46.8747 111.835Z" fill="white" stroke="white" stroke-width="0.0334464" stroke-miterlimit="10"/>
<path fill-rule="evenodd" clip-rule="evenodd" d="M63.6875 111.819C63.4917 112.75 63.2959 113.681 63.1007 114.613C63.0327 114.937 61.0518 115.284 60.6836 115.394C61.0518 115.503 63.0327 115.851 63.1007 116.176C63.2959 117.106 63.4917 118.038 63.6875 118.968C63.8833 118.038 64.0785 117.106 64.2738 116.176C64.3423 115.851 66.3221 115.503 66.6908 115.394C66.3221 115.284 64.3423 114.937 64.2738 114.613C64.0785 113.681 63.8833 112.75 63.6875 111.819Z" fill="white" stroke="white" stroke-width="0.0334464" stroke-miterlimit="10"/>
<path fill-rule="evenodd" clip-rule="evenodd" d="M38.4877 111.845C38.2922 112.776 38.0967 113.707 37.9012 114.638C37.8332 114.962 35.8528 115.31 35.4844 115.419C35.8528 115.529 37.8332 115.876 37.9012 116.201C38.0967 117.131 38.2922 118.062 38.4877 118.993C38.6835 118.062 38.879 117.131 39.0748 116.201C39.1428 115.876 41.1232 115.529 41.4913 115.419C41.1232 115.31 39.1428 114.962 39.0748 114.638C38.879 113.707 38.6835 112.776 38.4877 111.845Z" fill="white" stroke="white" stroke-width="0.0334464" stroke-miterlimit="10"/>
<path fill-rule="evenodd" clip-rule="evenodd" d="M80.4961 111.833C80.3003 112.764 80.1051 113.695 79.9099 114.626C79.8413 114.951 77.8609 115.298 77.4922 115.407C77.8609 115.517 79.8413 115.865 79.9099 116.189C80.1051 117.12 80.3003 118.051 80.4961 118.982C80.6919 118.051 80.8871 117.12 81.0829 116.189C81.1509 115.865 83.1313 115.517 83.5 115.407C83.1313 115.298 81.1509 114.951 81.0829 114.626C80.8871 113.695 80.6919 112.764 80.4961 111.833Z" fill="white" stroke="white" stroke-width="0.0334464" stroke-miterlimit="10"/>
<path fill-rule="evenodd" clip-rule="evenodd" d="M72.0853 111.833C71.8901 112.764 71.6943 113.695 71.4991 114.626C71.4305 114.951 69.4508 115.298 69.082 115.407C69.4508 115.517 71.4305 115.865 71.4991 116.189C71.6943 117.12 71.8901 118.051 72.0853 118.982C72.2812 118.051 72.477 117.12 72.6728 116.189C72.7408 115.865 74.7211 115.517 75.0893 115.407C74.7211 115.298 72.7408 114.951 72.6728 114.626C72.477 113.695 72.2812 112.764 72.0853 111.833Z" fill="white" stroke="white" stroke-width="0.0334464" stroke-miterlimit="10"/>
<path fill-rule="evenodd" clip-rule="evenodd" d="M55.284 121.844C55.0888 122.774 54.8936 123.706 54.6977 124.637C54.6297 124.961 52.6494 125.309 52.2812 125.417C52.6494 125.528 54.6297 125.875 54.6977 126.199C54.8936 127.131 55.0888 128.061 55.284 128.992C55.4798 128.061 55.6756 127.131 55.8714 126.199C55.9394 125.875 57.9197 125.528 58.2879 125.417C57.9197 125.309 55.9394 124.961 55.8714 124.637C55.6756 123.706 55.4798 122.774 55.284 121.844Z" fill="white" stroke="white" stroke-width="0.0334464" stroke-miterlimit="10"/>
<path fill-rule="evenodd" clip-rule="evenodd" d="M46.8747 121.844C46.6792 122.774 46.4837 123.706 46.2882 124.637C46.2199 124.961 44.2395 125.309 43.8711 125.417C44.2395 125.528 46.2199 125.875 46.2882 126.199C46.4837 127.131 46.6792 128.061 46.8747 128.992C47.0705 128.061 47.266 127.131 47.4615 126.199C47.5298 125.875 49.5102 125.528 49.8783 125.417C49.5102 125.309 47.5298 124.961 47.4615 124.637C47.266 123.706 47.0705 122.774 46.8747 121.844Z" fill="white" stroke="white" stroke-width="0.0334464" stroke-miterlimit="10"/>
<path fill-rule="evenodd" clip-rule="evenodd" d="M63.6875 121.826C63.4917 122.757 63.2959 123.688 63.1007 124.62C63.0327 124.944 61.0518 125.291 60.6836 125.4C61.0518 125.51 63.0327 125.857 63.1007 126.182C63.2959 127.113 63.4917 128.044 63.6875 128.975C63.8833 128.044 64.0785 127.113 64.2738 126.182C64.3423 125.857 66.3221 125.51 66.6908 125.4C66.3221 125.291 64.3423 124.944 64.2738 124.62C64.0785 123.688 63.8833 122.757 63.6875 121.826Z" fill="white" stroke="white" stroke-width="0.0334464" stroke-miterlimit="10"/>
<path fill-rule="evenodd" clip-rule="evenodd" d="M38.4877 121.854C38.2922 122.784 38.0967 123.715 37.9012 124.646C37.8332 124.97 35.8528 125.318 35.4844 125.427C35.8528 125.537 37.8332 125.885 37.9012 126.209C38.0967 127.14 38.2922 128.071 38.4877 129.002C38.6835 128.071 38.879 127.14 39.0748 126.209C39.1428 125.885 41.1232 125.537 41.4913 125.427C41.1232 125.318 39.1428 124.97 39.0748 124.646C38.879 123.715 38.6835 122.784 38.4877 121.854Z" fill="white" stroke="white" stroke-width="0.0334464" stroke-miterlimit="10"/>
<path fill-rule="evenodd" clip-rule="evenodd" d="M80.4961 121.842C80.3003 122.772 80.1051 123.704 79.9099 124.635C79.8413 124.959 77.8609 125.307 77.4922 125.416C77.8609 125.526 79.8413 125.873 79.9099 126.197C80.1051 127.129 80.3003 128.059 80.4961 128.99C80.6919 128.059 80.8871 127.129 81.0829 126.197C81.1509 125.873 83.1313 125.526 83.5 125.416C83.1313 125.307 81.1509 124.959 81.0829 124.635C80.8871 123.704 80.6919 122.772 80.4961 121.842Z" fill="white" stroke="white" stroke-width="0.0334464" stroke-miterlimit="10"/>
<path fill-rule="evenodd" clip-rule="evenodd" d="M72.0853 121.842C71.8901 122.772 71.6943 123.704 71.4991 124.635C71.4305 124.959 69.4508 125.307 69.082 125.416C69.4508 125.526 71.4305 125.873 71.4991 126.197C71.6943 127.129 71.8901 128.059 72.0853 128.99C72.2812 128.059 72.477 127.129 72.6728 126.197C72.7408 125.873 74.7211 125.526 75.0893 125.416C74.7211 125.307 72.7408 124.959 72.6728 124.635C72.477 123.704 72.2812 122.772 72.0853 121.842Z" fill="white" stroke="white" stroke-width="0.0334464" stroke-miterlimit="10"/>
<path fill-rule="evenodd" clip-rule="evenodd" d="M55.284 92.5337C55.0888 93.4652 54.8936 94.3956 54.6977 95.3271C54.6297 95.6513 52.6494 95.9985 52.2812 96.1086C52.6494 96.2181 54.6297 96.5653 54.6977 96.8901C54.8936 97.8205 55.0888 98.752 55.284 99.6823C55.4798 98.752 55.6756 97.8205 55.8714 96.8901C55.9394 96.5653 57.9197 96.2175 58.2879 96.1086C57.9197 95.9985 55.9394 95.6513 55.8714 95.3271C55.6756 94.3956 55.4798 93.4652 55.284 92.5337Z" fill="white" stroke="white" stroke-width="0.0334464" stroke-miterlimit="10"/>
<path fill-rule="evenodd" clip-rule="evenodd" d="M46.8747 92.5337C46.6792 93.4652 46.4837 94.3956 46.2882 95.3271C46.2199 95.6513 44.2395 95.9985 43.8711 96.1086C44.2395 96.2175 46.2199 96.5653 46.2882 96.8901C46.4837 97.8205 46.6792 98.752 46.8747 99.6823C47.0705 98.752 47.266 97.8205 47.4615 96.8901C47.5298 96.5653 49.5102 96.2175 49.8783 96.1086C49.5102 95.9985 47.5298 95.6513 47.4615 95.3271C47.266 94.3956 47.0705 93.4652 46.8747 92.5337Z" fill="white" stroke="white" stroke-width="0.0334464" stroke-miterlimit="10"/>
<path fill-rule="evenodd" clip-rule="evenodd" d="M63.6875 92.5161C63.4917 93.447 63.2959 94.378 63.1007 95.3089C63.0327 95.6331 61.0518 95.981 60.6836 96.0904C61.0518 96.1999 63.0327 96.5477 63.1007 96.872C63.2959 97.8029 63.4917 98.7338 63.6875 99.6648C63.8833 98.7338 64.0785 97.8029 64.2738 96.872C64.3423 96.5477 66.3221 96.1999 66.6908 96.0904C66.3221 95.981 64.3423 95.6331 64.2738 95.3089C64.0785 94.378 63.8833 93.447 63.6875 92.5161Z" fill="white" stroke="white" stroke-width="0.0334464" stroke-miterlimit="10"/>
<path fill-rule="evenodd" clip-rule="evenodd" d="M38.4877 92.5435C38.2922 93.4744 38.0967 94.4053 37.9012 95.3369C37.8332 95.6611 35.8528 96.0083 35.4844 96.1178C35.8528 96.2273 37.8332 96.5751 37.9012 96.8999C38.0967 97.8302 38.2922 98.7618 38.4877 99.6921C38.6835 98.7618 38.879 97.8302 39.0748 96.8999C39.1428 96.5751 41.1232 96.2273 41.4913 96.1178C41.1232 96.0083 39.1428 95.6611 39.0748 95.3369C38.879 94.4053 38.6835 93.4744 38.4877 92.5435Z" fill="white" stroke="white" stroke-width="0.0334464" stroke-miterlimit="10"/>
<path fill-rule="evenodd" clip-rule="evenodd" d="M80.4961 92.5317C80.3003 93.4633 80.1051 94.3936 79.9099 95.3251C79.8413 95.6494 77.8609 95.9966 77.4922 96.1067C77.8609 96.2162 79.8413 96.5634 79.9099 96.8882C80.1051 97.8185 80.3003 98.7501 80.4961 99.681C80.6919 98.7501 80.8871 97.8185 81.0829 96.8882C81.1509 96.5634 83.1313 96.2162 83.5 96.1067C83.1313 95.9966 81.1509 95.6494 81.0829 95.3251C80.8871 94.3936 80.6919 93.4633 80.4961 92.5317Z" fill="white" stroke="white" stroke-width="0.0334464" stroke-miterlimit="10"/>
<path fill-rule="evenodd" clip-rule="evenodd" d="M72.0853 92.5317C71.8901 93.4633 71.6943 94.3936 71.4991 95.3251C71.4305 95.6494 69.4508 95.9966 69.082 96.1067C69.4508 96.2162 71.4305 96.5634 71.4991 96.8882C71.6943 97.8185 71.8901 98.7501 72.0853 99.681C72.2812 98.7501 72.477 97.8185 72.6728 96.8882C72.7408 96.5634 74.7211 96.2162 75.0893 96.1067C74.7211 95.9966 72.7408 95.6494 72.6728 95.3251C72.477 94.3936 72.2812 93.4633 72.0853 92.5317Z" fill="white" stroke="white" stroke-width="0.0334464" stroke-miterlimit="10"/>
<path fill-rule="evenodd" clip-rule="evenodd" d="M46.8747 52.5C46.6792 53.4309 46.4837 54.3619 46.2882 55.2928C46.2199 55.6173 44.2395 55.9648 43.8711 56.0743C44.2395 56.1838 46.2199 56.5313 46.2882 56.8558C46.4837 57.7868 46.6792 58.7177 46.8747 59.6486C47.0705 58.7177 47.266 57.7868 47.4615 56.8558C47.5298 56.5313 49.5102 56.1838 49.8783 56.0743C49.5102 55.9648 47.5298 55.6173 47.4615 55.2928C47.266 54.3619 47.0705 53.4309 46.8747 52.5Z" fill="white" stroke="white" stroke-width="0.0334464" stroke-miterlimit="10"/>
<path fill-rule="evenodd" clip-rule="evenodd" d="M38.4646 52.5C38.269 53.4309 38.0735 54.3619 37.878 55.2928C37.81 55.6173 35.8294 55.9648 35.4609 56.0743C35.8294 56.1838 37.81 56.5313 37.878 56.8558C38.0735 57.7868 38.269 58.7177 38.4646 59.6486C38.6604 58.7177 38.8559 57.7868 39.0514 56.8558C39.1197 56.5313 41.1 56.1838 41.4682 56.0743C41.1 55.9648 39.1197 55.6173 39.0514 55.2928C38.8559 54.3619 38.6604 53.4309 38.4646 52.5Z" fill="white" stroke="white" stroke-width="0.0334464" stroke-miterlimit="10"/>
<path fill-rule="evenodd" clip-rule="evenodd" d="M63.6908 52.5C63.4956 53.4309 63.3004 54.3619 63.1046 55.2928C63.0366 55.6173 61.0562 55.9648 60.6875 56.0743C61.0562 56.1838 63.0366 56.5313 63.1046 56.8558C63.3004 57.7868 63.4956 58.7177 63.6908 59.6486C63.8866 58.7177 64.0824 57.7868 64.2782 56.8558C64.3463 56.5313 66.3266 56.1838 66.6947 56.0743C66.3266 55.9648 64.3463 55.6173 64.2782 55.2928C64.0824 54.3619 63.8866 53.4309 63.6908 52.5Z" fill="white" stroke="white" stroke-width="0.0334464" stroke-miterlimit="10"/>
<path fill-rule="evenodd" clip-rule="evenodd" d="M55.2813 52.5C55.0855 53.4309 54.8896 54.3619 54.6944 55.2928C54.6264 55.6173 52.6461 55.9648 52.2773 56.0743C52.6461 56.1838 54.6264 56.5313 54.6944 56.8558C54.8896 57.7868 55.0855 58.7177 55.2813 59.6486C55.4771 58.7177 55.6723 57.7868 55.8681 56.8558C55.9361 56.5313 57.9164 56.1838 58.2846 56.0743C57.9164 55.9648 55.9361 55.6173 55.8681 55.2928C55.6723 54.3619 55.4771 53.4309 55.2813 52.5Z" fill="white" stroke="white" stroke-width="0.0334464" stroke-miterlimit="10"/>
<path fill-rule="evenodd" clip-rule="evenodd" d="M38.4685 42.4834C38.273 43.4143 38.0771 44.3453 37.8816 45.2762C37.8133 45.6007 35.8333 45.9482 35.4648 46.0577C35.8333 46.1675 37.8136 46.5147 37.8816 46.8392C38.0771 47.7702 38.273 48.7011 38.4685 49.6323C38.664 48.7011 38.8595 47.7702 39.0553 46.8392C39.1233 46.5147 41.1036 46.1675 41.4718 46.0577C41.1036 45.9482 39.1233 45.6007 39.0553 45.2762C38.8595 44.3453 38.664 43.4143 38.4685 42.4834Z" fill="white" stroke="white" stroke-width="0.0334464" stroke-miterlimit="10"/>
<path fill-rule="evenodd" clip-rule="evenodd" d="M46.8747 42.4912C46.6792 43.4221 46.4837 44.3534 46.2882 45.2843C46.2199 45.6088 44.2395 45.956 43.8711 46.0658C44.2395 46.1753 46.2199 46.5228 46.2882 46.8474C46.4837 47.7783 46.6792 48.7092 46.8747 49.6402C47.0705 48.7092 47.266 47.7783 47.4615 46.8474C47.5298 46.5228 49.5102 46.1753 49.8783 46.0658C49.5102 45.956 47.5298 45.6088 47.4615 45.2843C47.266 44.3534 47.0705 43.4221 46.8747 42.4912Z" fill="white" stroke="white" stroke-width="0.0334464" stroke-miterlimit="10"/>
<path fill-rule="evenodd" clip-rule="evenodd" d="M55.284 42.4912C55.0888 43.4221 54.8936 44.3534 54.6977 45.2843C54.6297 45.6088 52.6494 45.956 52.2812 46.0658C52.6494 46.1753 54.6297 46.5228 54.6977 46.8474C54.8936 47.7783 55.0888 48.7092 55.284 49.6402C55.4798 48.7092 55.6756 47.7783 55.8714 46.8474C55.9394 46.5228 57.9197 46.1753 58.2879 46.0658C57.9197 45.956 55.9394 45.6088 55.8714 45.2843C55.6756 44.3534 55.4798 43.4221 55.284 42.4912Z" fill="white" stroke="white" stroke-width="0.0334464" stroke-miterlimit="10"/>
<path fill-rule="evenodd" clip-rule="evenodd" d="M63.6953 42.4912C63.4995 43.4221 63.3037 44.3534 63.1085 45.2843C63.0405 45.6088 61.0602 45.956 60.6914 46.0658C61.0602 46.1753 63.0405 46.5228 63.1085 46.8474C63.3037 47.7783 63.4995 48.7092 63.6953 49.6402C63.8911 48.7092 64.0863 47.7783 64.2821 46.8474C64.3501 46.5228 66.3305 46.1753 66.6992 46.0658C66.3305 45.956 64.3501 45.6088 64.2821 45.2843C64.0863 44.3534 63.8911 43.4221 63.6953 42.4912Z" fill="white" stroke="white" stroke-width="0.0334464" stroke-miterlimit="10"/>
<path fill-rule="evenodd" clip-rule="evenodd" d="M80.5072 52.4883C80.312 53.4192 80.1162 54.3501 79.9204 55.2814C79.8524 55.6059 77.8721 55.9531 77.5039 56.0626C77.8721 56.1724 79.8524 56.5199 79.9204 56.8441C80.1162 57.7751 80.312 58.706 80.5072 59.6372C80.7025 58.706 80.8983 57.7751 81.0941 56.8441C81.1621 56.5199 83.1424 56.1724 83.5106 56.0626C83.1424 55.9531 81.1621 55.6059 81.0941 55.2814C80.8983 54.3501 80.7025 53.4192 80.5072 52.4883Z" fill="white" stroke="white" stroke-width="0.0334464" stroke-miterlimit="10"/>
<path fill-rule="evenodd" clip-rule="evenodd" d="M80.515 42.4912C80.3192 43.4221 80.124 44.3534 79.9282 45.2843C79.8602 45.6088 77.8799 45.956 77.5117 46.0658C77.8799 46.1753 79.8602 46.5228 79.9282 46.8474C80.124 47.7783 80.3192 48.7092 80.515 49.6402C80.7103 48.7092 80.9061 47.7783 81.1019 46.8474C81.1699 46.5228 83.1502 46.1753 83.5184 46.0658C83.1502 45.956 81.1699 45.6088 81.1019 45.2843C80.9061 44.3534 80.7103 43.4221 80.515 42.4912Z" fill="white" stroke="white" stroke-width="0.0334464" stroke-miterlimit="10"/>
<path fill-rule="evenodd" clip-rule="evenodd" d="M72.0977 52.4883C71.9019 53.4192 71.706 54.3501 71.5108 55.2814C71.4428 55.6059 69.4625 55.9531 69.0938 56.0626C69.4625 56.1724 71.4428 56.5199 71.5108 56.8441C71.706 57.7751 71.9019 58.706 72.0977 59.6372C72.2935 58.706 72.4887 57.7751 72.6839 56.8441C72.7525 56.5199 74.7328 56.1724 75.101 56.0626C74.7328 55.9531 72.7525 55.6059 72.6839 55.2814C72.4887 54.3501 72.2935 53.4192 72.0977 52.4883Z" fill="white" stroke="white" stroke-width="0.0334464" stroke-miterlimit="10"/>
<path fill-rule="evenodd" clip-rule="evenodd" d="M72.1049 42.4912C71.9097 43.4221 71.7139 44.3534 71.5181 45.2843C71.4501 45.6088 69.4697 45.956 69.1016 46.0658C69.4697 46.1753 71.4501 46.5228 71.5181 46.8474C71.7139 47.7783 71.9097 48.7092 72.1049 49.6402C72.3007 48.7092 72.4959 47.7783 72.6917 46.8474C72.7597 46.5228 74.74 46.1753 75.1082 46.0658C74.74 45.956 72.7597 45.6088 72.6917 45.2843C72.4959 44.3534 72.3007 43.4221 72.1049 42.4912Z" fill="white" stroke="white" stroke-width="0.0334464" stroke-miterlimit="10"/>
<path fill-rule="evenodd" clip-rule="evenodd" d="M46.8747 32.4824C46.6792 33.4134 46.4837 34.3443 46.2882 35.2755C46.2199 35.5997 44.2395 35.9473 43.8711 36.057C44.2395 36.1665 46.2199 36.5137 46.2882 36.8383C46.4837 37.7692 46.6792 38.7004 46.8747 39.6314C47.0705 38.7004 47.266 37.7692 47.4615 36.8383C47.5298 36.5137 49.5102 36.1665 49.8783 36.057C49.5102 35.9473 47.5298 35.5997 47.4615 35.2755C47.266 34.3443 47.0705 33.4134 46.8747 32.4824Z" fill="white" stroke="white" stroke-width="0.0334464" stroke-miterlimit="10"/>
<path fill-rule="evenodd" clip-rule="evenodd" d="M38.4646 32.4824C38.269 33.4134 38.0735 34.3443 37.878 35.2755C37.81 35.5997 35.8294 35.9473 35.4609 36.057C35.8294 36.1665 37.81 36.5137 37.878 36.8383C38.0735 37.7692 38.269 38.7004 38.4646 39.6314C38.6604 38.7004 38.8559 37.7692 39.0514 36.8383C39.1197 36.5137 41.1 36.1665 41.4682 36.057C41.1 35.9473 39.1197 35.5997 39.0514 35.2755C38.8559 34.3443 38.6604 33.4134 38.4646 32.4824Z" fill="white" stroke="white" stroke-width="0.0334464" stroke-miterlimit="10"/>
<path fill-rule="evenodd" clip-rule="evenodd" d="M63.6908 32.4824C63.4956 33.4134 63.3004 34.3443 63.1046 35.2755C63.0366 35.5997 61.0562 35.9473 60.6875 36.057C61.0562 36.1665 63.0366 36.5137 63.1046 36.8383C63.3004 37.7692 63.4956 38.7004 63.6908 39.6314C63.8866 38.7004 64.0824 37.7692 64.2782 36.8383C64.3463 36.5137 66.3266 36.1665 66.6947 36.057C66.3266 35.9473 64.3463 35.5997 64.2782 35.2755C64.0824 34.3443 63.8866 33.4134 63.6908 32.4824Z" fill="white" stroke="white" stroke-width="0.0334464" stroke-miterlimit="10"/>
<path fill-rule="evenodd" clip-rule="evenodd" d="M55.2813 32.4824C55.0855 33.4134 54.8896 34.3443 54.6944 35.2755C54.6264 35.5997 52.6461 35.9473 52.2773 36.057C52.6461 36.1665 54.6264 36.5137 54.6944 36.8383C54.8896 37.7692 55.0855 38.7004 55.2813 39.6314C55.4771 38.7004 55.6723 37.7692 55.8681 36.8383C55.9361 36.5137 57.9164 36.1665 58.2846 36.057C57.9164 35.9473 55.9361 35.5997 55.8681 35.2755C55.6723 34.3443 55.4771 33.4134 55.2813 32.4824Z" fill="white" stroke="white" stroke-width="0.0334464" stroke-miterlimit="10"/>
<path fill-rule="evenodd" clip-rule="evenodd" d="M38.4685 22.4678C38.273 23.3987 38.0771 24.3296 37.8816 25.2606C37.8136 25.5851 35.8333 25.9326 35.4648 26.0421C35.8333 26.1519 37.8133 26.4994 37.8816 26.8236C38.0771 27.7546 38.273 28.6855 38.4685 29.6164C38.664 28.6855 38.8595 27.7546 39.0553 26.8236C39.1233 26.4994 41.1036 26.1519 41.4718 26.0421C41.1036 25.9326 39.1233 25.5851 39.0553 25.2606C38.8595 24.3296 38.664 23.3987 38.4685 22.4678Z" fill="white" stroke="white" stroke-width="0.0334464" stroke-miterlimit="10"/>
<path fill-rule="evenodd" clip-rule="evenodd" d="M46.8747 22.4756C46.6792 23.4065 46.4837 24.3375 46.2882 25.2684C46.2199 25.5929 44.2395 25.9404 43.8711 26.0499C44.2395 26.1594 46.2199 26.5069 46.2882 26.8314C46.4837 27.7624 46.6792 28.6933 46.8747 29.6242C47.0705 28.6933 47.266 27.7624 47.4615 26.8314C47.5298 26.5069 49.5102 26.1594 49.8783 26.0499C49.5102 25.9404 47.5298 25.5929 47.4615 25.2684C47.266 24.3375 47.0705 23.4065 46.8747 22.4756Z" fill="white" stroke="white" stroke-width="0.0334464" stroke-miterlimit="10"/>
<path fill-rule="evenodd" clip-rule="evenodd" d="M55.284 22.4756C55.0888 23.4065 54.8936 24.3375 54.6977 25.2684C54.6297 25.5929 52.6494 25.9404 52.2812 26.0499C52.6494 26.1594 54.6297 26.5069 54.6977 26.8314C54.8936 27.7624 55.0888 28.6933 55.284 29.6242C55.4798 28.6933 55.6756 27.7624 55.8714 26.8314C55.9394 26.5069 57.9197 26.1594 58.2879 26.0499C57.9197 25.9404 55.9394 25.5929 55.8714 25.2684C55.6756 24.3375 55.4798 23.4065 55.284 22.4756Z" fill="white" stroke="white" stroke-width="0.0334464" stroke-miterlimit="10"/>
<path fill-rule="evenodd" clip-rule="evenodd" d="M63.6953 22.4756C63.4995 23.4065 63.3037 24.3375 63.1085 25.2684C63.0405 25.5929 61.0602 25.9404 60.6914 26.0499C61.0602 26.1594 63.0405 26.5069 63.1085 26.8314C63.3037 27.7624 63.4995 28.6933 63.6953 29.6242C63.8911 28.6933 64.0863 27.7624 64.2821 26.8314C64.3501 26.5069 66.3305 26.1594 66.6992 26.0499C66.3305 25.9404 64.3501 25.5929 64.2821 25.2684C64.0863 24.3375 63.8911 23.4065 63.6953 22.4756Z" fill="white" stroke="white" stroke-width="0.0334464" stroke-miterlimit="10"/>
<path fill-rule="evenodd" clip-rule="evenodd" d="M80.5072 32.4707C80.312 33.4016 80.1162 34.3326 79.9204 35.2635C79.8524 35.588 77.8721 35.9355 77.5039 36.045C77.8721 36.1545 79.8524 36.502 79.9204 36.8266C80.1162 37.7575 80.312 38.6884 80.5072 39.6194C80.7025 38.6884 80.8983 37.7575 81.0941 36.8266C81.1621 36.502 83.1424 36.1545 83.5106 36.045C83.1424 35.9355 81.1621 35.588 81.0941 35.2635C80.8983 34.3326 80.7025 33.4016 80.5072 32.4707Z" fill="white" stroke="white" stroke-width="0.0334464" stroke-miterlimit="10"/>
<path fill-rule="evenodd" clip-rule="evenodd" d="M80.515 22.4756C80.3192 23.4065 80.124 24.3375 79.9282 25.2684C79.8602 25.5929 77.8799 25.9404 77.5117 26.0499C77.8799 26.1594 79.8602 26.5069 79.9282 26.8314C80.124 27.7624 80.3192 28.6933 80.515 29.6242C80.7103 28.6933 80.9061 27.7624 81.1019 26.8314C81.1699 26.5069 83.1502 26.1594 83.5184 26.0499C83.1502 25.9404 81.1699 25.5929 81.1019 25.2684C80.9061 24.3375 80.7103 23.4065 80.515 22.4756Z" fill="white" stroke="white" stroke-width="0.0334464" stroke-miterlimit="10"/>
<path fill-rule="evenodd" clip-rule="evenodd" d="M72.0977 32.4707C71.9019 33.4016 71.706 34.3326 71.5108 35.2635C71.4428 35.588 69.4625 35.9355 69.0938 36.045C69.4625 36.1545 71.4428 36.502 71.5108 36.8266C71.706 37.7575 71.9019 38.6884 72.0977 39.6194C72.2935 38.6884 72.4887 37.7575 72.6839 36.8266C72.7525 36.502 74.7328 36.1545 75.101 36.045C74.7328 35.9355 72.7525 35.588 72.6839 35.2635C72.4887 34.3326 72.2935 33.4016 72.0977 32.4707Z" fill="white" stroke="white" stroke-width="0.0334464" stroke-miterlimit="10"/>
<path fill-rule="evenodd" clip-rule="evenodd" d="M72.1049 22.4756C71.9097 23.4065 71.7139 24.3375 71.5181 25.2684C71.4501 25.5929 69.4697 25.9404 69.1016 26.0499C69.4697 26.1594 71.4501 26.5069 71.5181 26.8314C71.7139 27.7624 71.9097 28.6933 72.1049 29.6242C72.3007 28.6933 72.4959 27.7624 72.6917 26.8314C72.7597 26.5069 74.74 26.1594 75.1082 26.0499C74.74 25.9404 72.7597 25.5929 72.6917 25.2684C72.4959 24.3375 72.3007 23.4065 72.1049 22.4756Z" fill="white" stroke="white" stroke-width="0.0334464" stroke-miterlimit="10"/>
<path fill-rule="evenodd" clip-rule="evenodd" d="M21.6361 82.5347C21.4406 83.4662 21.2451 84.3965 21.0496 85.3281C20.9816 85.6523 19.0013 85.9995 18.6328 86.1096C19.0013 86.2191 20.9816 86.5663 21.0496 86.8911C21.2451 87.8214 21.4406 88.753 21.6361 89.6839C21.8319 88.753 22.0275 87.8214 22.223 86.8911C22.2913 86.5663 24.2716 86.2191 24.6398 86.1096C24.2716 85.9995 22.2913 85.6523 22.223 85.3281C22.0275 84.3965 21.8319 83.4662 21.6361 82.5347Z" fill="white" stroke="white" stroke-width="0.0334464" stroke-miterlimit="10"/>
<path fill-rule="evenodd" clip-rule="evenodd" d="M21.6557 72.5317C21.4602 73.4627 21.2646 74.3936 21.0691 75.3245C21.0011 75.6488 19.0208 75.996 18.6523 76.1061C19.0208 76.2156 21.0011 76.5634 21.0691 76.8876C21.2646 77.8185 21.4602 78.7495 21.6557 79.6804C21.8515 78.7495 22.047 77.8185 22.2428 76.8876C22.3108 76.5634 24.2911 76.2156 24.6593 76.1061C24.2911 75.996 22.3108 75.6488 22.2428 75.3245C22.047 74.3936 21.8515 73.4627 21.6557 72.5317Z" fill="white" stroke="white" stroke-width="0.0334464" stroke-miterlimit="10"/>
<path fill-rule="evenodd" clip-rule="evenodd" d="M21.6635 62.5054C21.468 63.4363 21.2725 64.3675 21.0769 65.2985C21.0086 65.6227 19.0286 65.9702 18.6602 66.08C19.0286 66.1895 21.0086 66.537 21.0769 66.8615C21.2725 67.7925 21.468 68.7234 21.6635 69.6543C21.8593 68.7234 22.0548 67.7925 22.2506 66.8615C22.3186 66.537 24.2989 66.1895 24.6671 66.08C24.2989 65.9702 22.3186 65.6227 22.2506 65.2985C22.0548 64.3675 21.8593 63.4363 21.6635 62.5054Z" fill="white" stroke="white" stroke-width="0.0334464" stroke-miterlimit="10"/>
<path fill-rule="evenodd" clip-rule="evenodd" d="M21.6442 101.826C21.4487 102.757 21.2532 103.688 21.0577 104.62C20.9897 104.944 19.0091 105.291 18.6406 105.4C19.0091 105.51 20.9897 105.858 21.0577 106.183C21.2532 107.113 21.4487 108.044 21.6442 108.975C21.8398 108.044 22.0353 107.113 22.2311 106.183C22.2991 105.858 24.2794 105.51 24.6476 105.4C24.2794 105.291 22.2991 104.944 22.2311 104.62C22.0353 103.688 21.8398 102.757 21.6442 101.826Z" fill="white" stroke="white" stroke-width="0.0334464" stroke-miterlimit="10"/>
<path fill-rule="evenodd" clip-rule="evenodd" d="M21.6442 111.835C21.4487 112.766 21.2532 113.697 21.0577 114.628C20.9897 114.952 19.0091 115.3 18.6406 115.409C19.0091 115.519 20.9897 115.866 21.0577 116.191C21.2532 117.122 21.4487 118.053 21.6442 118.984C21.8398 118.053 22.0353 117.122 22.2311 116.191C22.2991 115.866 24.2794 115.519 24.6476 115.409C24.2794 115.3 22.2991 114.952 22.2311 114.628C22.0353 113.697 21.8398 112.766 21.6442 111.835Z" fill="white" stroke="white" stroke-width="0.0334464" stroke-miterlimit="10"/>
<path fill-rule="evenodd" clip-rule="evenodd" d="M21.6442 121.844C21.4487 122.774 21.2532 123.706 21.0577 124.637C20.9897 124.961 19.0091 125.309 18.6406 125.417C19.0091 125.528 20.9897 125.875 21.0577 126.199C21.2532 127.131 21.4487 128.061 21.6442 128.992C21.8398 128.061 22.0353 127.131 22.2311 126.199C22.2991 125.875 24.2794 125.528 24.6476 125.417C24.2794 125.309 22.2991 124.961 22.2311 124.637C22.0353 123.706 21.8398 122.774 21.6442 121.844Z" fill="white" stroke="white" stroke-width="0.0334464" stroke-miterlimit="10"/>
<path fill-rule="evenodd" clip-rule="evenodd" d="M21.6442 92.5337C21.4487 93.4652 21.2532 94.3956 21.0577 95.3271C20.9897 95.6513 19.0091 95.9985 18.6406 96.1086C19.0091 96.2175 20.9897 96.5653 21.0577 96.8901C21.2532 97.8205 21.4487 98.752 21.6442 99.6823C21.8398 98.752 22.0353 97.8205 22.2311 96.8901C22.2991 96.5653 24.2794 96.2181 24.6476 96.1086C24.2794 95.9985 22.2991 95.6513 22.2311 95.3271C22.0353 94.3956 21.8398 93.4652 21.6442 92.5337Z" fill="white" stroke="white" stroke-width="0.0334464" stroke-miterlimit="10"/>
<path fill-rule="evenodd" clip-rule="evenodd" d="M21.6521 52.498C21.4565 53.429 21.2607 54.3599 21.0652 55.2908C20.9972 55.6154 19.0169 55.9629 18.6484 56.0724C19.0169 56.1819 20.9969 56.5297 21.0652 56.8539C21.2607 57.7848 21.4565 58.7158 21.6521 59.6467C21.8476 58.7158 22.0431 57.7848 22.2389 56.8539C22.3069 56.5297 24.2872 56.1819 24.6557 56.0724C24.2872 55.9629 22.3069 55.6154 22.2389 55.2908C22.0431 54.3599 21.8476 53.429 21.6521 52.498Z" fill="white" stroke="white" stroke-width="0.0334464" stroke-miterlimit="10"/>
<path fill-rule="evenodd" clip-rule="evenodd" d="M21.6442 42.4912C21.4487 43.4221 21.2532 44.3534 21.0577 45.2843C20.9897 45.6088 19.0091 45.956 18.6406 46.0658C19.0091 46.1753 20.9897 46.5228 21.0577 46.8474C21.2532 47.7783 21.4487 48.7092 21.6442 49.6402C21.8398 48.7092 22.0353 47.7783 22.2311 46.8474C22.2991 46.5228 24.2794 46.1753 24.6476 46.0658C24.2794 45.956 22.2991 45.6088 22.2311 45.2843C22.0353 44.3534 21.8398 43.4221 21.6442 42.4912Z" fill="white" stroke="white" stroke-width="0.0334464" stroke-miterlimit="10"/>
<path fill-rule="evenodd" clip-rule="evenodd" d="M21.6521 32.4805C21.4565 33.4117 21.2607 34.3426 21.0652 35.2736C20.9972 35.5978 19.0169 35.9453 18.6484 36.0551C19.0169 36.1646 20.9972 36.5121 21.0652 36.8366C21.2607 37.7676 21.4565 38.6985 21.6521 39.6294C21.8476 38.6985 22.0431 37.7676 22.2389 36.8366C22.3069 36.5121 24.2872 36.1646 24.6557 36.0551C24.2872 35.9453 22.3069 35.5978 22.2389 35.2736C22.0431 34.3426 21.8476 33.4117 21.6521 32.4805Z" fill="white" stroke="white" stroke-width="0.0334464" stroke-miterlimit="10"/>
<path fill-rule="evenodd" clip-rule="evenodd" d="M21.6442 22.4756C21.4487 23.4065 21.2532 24.3375 21.0577 25.2684C20.9897 25.5929 19.0091 25.9404 18.6406 26.0499C19.0091 26.1594 20.9897 26.5069 21.0577 26.8314C21.2532 27.7624 21.4487 28.6933 21.6442 29.6242C21.8398 28.6933 22.0353 27.7624 22.2311 26.8314C22.2991 26.5069 24.2794 26.1594 24.6476 26.0499C24.2794 25.9404 22.2991 25.5929 22.2311 25.2684C22.0353 24.3375 21.8398 23.4065 21.6442 22.4756Z" fill="white" stroke="white" stroke-width="0.0334464" stroke-miterlimit="10"/>
<path fill-rule="evenodd" clip-rule="evenodd" d="M30.0466 82.5347C29.8511 83.4662 29.6556 84.3965 29.4601 85.3281C29.3918 85.6523 27.4114 85.9995 27.043 86.1096C27.4114 86.2191 29.3918 86.5663 29.4601 86.8911C29.6556 87.8214 29.8511 88.753 30.0466 89.6839C30.2421 88.753 30.4376 87.8214 30.6334 86.8911C30.7014 86.5663 32.682 86.2191 33.0502 86.1096C32.682 85.9995 30.7014 85.6523 30.6334 85.3281C30.4376 84.3965 30.2421 83.4662 30.0466 82.5347Z" fill="white" stroke="white" stroke-width="0.0334464" stroke-miterlimit="10"/>
<path fill-rule="evenodd" clip-rule="evenodd" d="M30.0658 72.5317C29.8703 73.4627 29.6748 74.3936 29.4793 75.3245C29.411 75.6488 27.431 75.996 27.0625 76.1061C27.431 76.2156 29.411 76.5634 29.4793 76.8876C29.6748 77.8185 29.8703 78.7495 30.0658 79.6804C30.2616 78.7495 30.4571 77.8185 30.6527 76.8876C30.721 76.5634 32.7013 76.2156 33.0695 76.1061C32.7013 75.996 30.721 75.6488 30.6527 75.3245C30.4571 74.3936 30.2616 73.4627 30.0658 72.5317Z" fill="white" stroke="white" stroke-width="0.0334464" stroke-miterlimit="10"/>
<path fill-rule="evenodd" clip-rule="evenodd" d="M30.0739 62.5054C29.8784 63.4363 29.6829 64.3675 29.4874 65.2985C29.4191 65.6227 27.4388 65.9702 27.0703 66.08C27.4388 66.1895 29.4191 66.537 29.4874 66.8615C29.6829 67.7925 29.8784 68.7234 30.0739 69.6543C30.2694 68.7234 30.4653 67.7925 30.6608 66.8615C30.7291 66.537 32.7091 66.1895 33.0776 66.08C32.7091 65.9702 30.7291 65.6227 30.6608 65.2985C30.4653 64.3675 30.2694 63.4363 30.0739 62.5054Z" fill="white" stroke="white" stroke-width="0.0334464" stroke-miterlimit="10"/>
<path fill-rule="evenodd" clip-rule="evenodd" d="M30.0544 101.826C29.8589 102.757 29.6631 103.688 29.4676 104.62C29.3996 104.944 27.4192 105.291 27.0508 105.4C27.4192 105.51 29.3993 105.858 29.4676 106.183C29.6631 107.113 29.8589 108.044 30.0544 108.975C30.2499 108.044 30.4454 107.113 30.6409 106.183C30.7092 105.858 32.6896 105.51 33.058 105.4C32.6896 105.291 30.7092 104.944 30.6409 104.62C30.4454 103.688 30.2499 102.757 30.0544 101.826Z" fill="white" stroke="white" stroke-width="0.0334464" stroke-miterlimit="10"/>
<path fill-rule="evenodd" clip-rule="evenodd" d="M30.0544 111.835C29.8589 112.766 29.6631 113.697 29.4676 114.628C29.3996 114.952 27.4192 115.3 27.0508 115.409C27.4192 115.519 29.3996 115.866 29.4676 116.191C29.6631 117.122 29.8589 118.053 30.0544 118.984C30.2499 118.053 30.4454 117.122 30.6409 116.191C30.7092 115.866 32.6896 115.519 33.058 115.409C32.6896 115.3 30.7092 114.952 30.6409 114.628C30.4454 113.697 30.2499 112.766 30.0544 111.835Z" fill="white" stroke="white" stroke-width="0.0334464" stroke-miterlimit="10"/>
<path fill-rule="evenodd" clip-rule="evenodd" d="M30.0544 121.844C29.8589 122.774 29.6631 123.706 29.4676 124.637C29.3996 124.961 27.4192 125.309 27.0508 125.417C27.4192 125.528 29.3996 125.875 29.4676 126.199C29.6631 127.131 29.8589 128.061 30.0544 128.992C30.2499 128.061 30.4454 127.131 30.6409 126.199C30.7092 125.875 32.6896 125.528 33.058 125.417C32.6896 125.309 30.7092 124.961 30.6409 124.637C30.4454 123.706 30.2499 122.774 30.0544 121.844Z" fill="white" stroke="white" stroke-width="0.0334464" stroke-miterlimit="10"/>
<path fill-rule="evenodd" clip-rule="evenodd" d="M30.0544 92.5337C29.8589 93.4652 29.6631 94.3956 29.4676 95.3271C29.3996 95.6513 27.4192 95.9985 27.0508 96.1086C27.4192 96.2181 29.3996 96.5653 29.4676 96.8901C29.6631 97.8205 29.8589 98.752 30.0544 99.6823C30.2499 98.752 30.4454 97.8205 30.6409 96.8901C30.7092 96.5653 32.6896 96.2175 33.058 96.1086C32.6896 95.9985 30.7092 95.6513 30.6409 95.3271C30.4454 94.3956 30.2499 93.4652 30.0544 92.5337Z" fill="white" stroke="white" stroke-width="0.0334464" stroke-miterlimit="10"/>
<path fill-rule="evenodd" clip-rule="evenodd" d="M30.0619 52.498C29.8664 53.429 29.6709 54.3599 29.4754 55.2908C29.4074 55.6154 27.427 55.9629 27.0586 56.0724C27.427 56.1819 29.4074 56.5297 29.4754 56.8539C29.6709 57.7848 29.8664 58.7158 30.0619 59.6467C30.2577 58.7158 30.4532 57.7848 30.6488 56.8539C30.7171 56.5297 32.6974 56.1819 33.0655 56.0724C32.6974 55.9629 30.7171 55.6154 30.6488 55.2908C30.4532 54.3599 30.2577 53.429 30.0619 52.498Z" fill="white" stroke="white" stroke-width="0.0334464" stroke-miterlimit="10"/>
<path fill-rule="evenodd" clip-rule="evenodd" d="M30.0544 42.4912C29.8589 43.4221 29.6631 44.3534 29.4676 45.2843C29.3996 45.6088 27.4192 45.956 27.0508 46.0658C27.4192 46.1753 29.3996 46.5228 29.4676 46.8474C29.6631 47.7783 29.8589 48.7092 30.0544 49.6402C30.2499 48.7092 30.4454 47.7783 30.6409 46.8474C30.7092 46.5228 32.6896 46.1753 33.058 46.0658C32.6896 45.956 30.7092 45.6088 30.6409 45.2843C30.4454 44.3534 30.2499 43.4221 30.0544 42.4912Z" fill="white" stroke="white" stroke-width="0.0334464" stroke-miterlimit="10"/>
<path fill-rule="evenodd" clip-rule="evenodd" d="M30.0619 32.4805C29.8664 33.4117 29.6709 34.3426 29.4754 35.2736C29.4074 35.5978 27.427 35.9453 27.0586 36.0551C27.427 36.1646 29.4074 36.5121 29.4754 36.8366C29.6709 37.7676 29.8664 38.6985 30.0619 39.6294C30.2577 38.6985 30.4532 37.7676 30.6488 36.8366C30.7171 36.5121 32.6974 36.1646 33.0655 36.0551C32.6974 35.9453 30.7171 35.5978 30.6488 35.2736C30.4532 34.3426 30.2577 33.4117 30.0619 32.4805Z" fill="white" stroke="white" stroke-width="0.0334464" stroke-miterlimit="10"/>
<path fill-rule="evenodd" clip-rule="evenodd" d="M30.0544 22.4756C29.8589 23.4065 29.6631 24.3375 29.4676 25.2684C29.3996 25.5929 27.4192 25.9404 27.0508 26.0499C27.4192 26.1594 29.3996 26.5069 29.4676 26.8314C29.6631 27.7624 29.8589 28.6933 30.0544 29.6242C30.2499 28.6933 30.4454 27.7624 30.6409 26.8314C30.7092 26.5069 32.6896 26.1594 33.058 26.0499C32.6896 25.9404 30.7092 25.5929 30.6409 25.2684C30.4454 24.3375 30.2499 23.4065 30.0544 22.4756Z" fill="white" stroke="white" stroke-width="0.0334464" stroke-miterlimit="10"/>
<path d="M5.87402 4.96112C4.46176 4.96112 4.97296 8.93709 4.97296 9.73132C4.97296 13.3622 4.97296 16.9931 4.97296 20.624C4.97296 32.6314 4.97296 44.6392 4.97296 56.6467C4.97296 82.3877 4.97296 108.128 4.97296 133.869C4.97296 137.069 4.97296 140.269 4.97296 143.468C4.97296 144.553 4.57314 146.866 6.12816 146.866C14.1348 146.866 22.1411 146.866 30.1477 146.866C52 146.866 73.8516 146.866 95.7033 146.866C97.353 146.866 97.0311 145.047 97.0311 143.821C97.0311 140.756 97.0311 137.691 97.0311 134.625C97.0311 123.269 97.0311 111.911 97.0311 100.554C97.0311 74.1919 97.0311 47.8291 97.0311 21.4663C97.0311 17.7111 97.0311 13.9553 97.0311 10.1998C97.0311 8.93437 97.3119 7.27726 97.0311 6.0336C97.0311 4.18897 91.9543 4.96112 90.9535 4.96112C86.1686 4.96112 81.3843 4.96112 76.5999 4.96112C53.5781 4.96112 30.5561 4.96112 7.53426 4.96112C6.98085 4.96112 6.42743 4.96112 5.87402 4.96112" stroke="#FB0F0C" stroke-width="1.60543" stroke-miterlimit="10"/>
</svg>
