<svg width="102" height="152" viewBox="0 0 102 152" fill="none" xmlns="http://www.w3.org/2000/svg">
<path d="M101 146.749C101 149.085 99.1486 151 96.8783 151H5.17859C2.91388 151 1.0625 149.085 1.0625 146.749V5.37453C1.0625 3.03519 2.91388 1.12256 5.17859 1.12256H96.8783C99.1486 1.12256 101 3.03519 101 5.37453V146.749Z" fill="white" stroke="black"/>
<path fill-rule="evenodd" clip-rule="evenodd" d="M5.43744 2.00146C3.50961 2.00146 1.95703 3.55871 1.95703 5.49401V146.558C1.95703 148.492 3.50961 150.049 5.43744 150.049H96.6725C98.6012 150.049 100.153 148.492 100.153 146.558V5.49401C100.153 3.55871 98.6012 2.00146 96.6725 2.00146H5.43744Z" fill="white"/>
<path d="M5.43744 2.00146C3.50961 2.00146 1.95703 3.55871 1.95703 5.49401V146.558C1.95703 148.492 3.50961 150.049 5.43744 150.049H96.6725C98.6012 150.049 100.153 148.492 100.153 146.558V5.49401C100.153 3.55871 98.6012 2.00146 96.6725 2.00146H5.43744Z" stroke="black" stroke-miterlimit="10"/>
<path fill-rule="evenodd" clip-rule="evenodd" d="M6.42306 5.42822C5.93736 5.42822 5.54688 5.82048 5.54688 6.30733V145.745C5.54688 146.232 5.93736 146.624 6.42306 146.624H95.4661C95.9518 146.624 96.3431 146.232 96.3431 145.745V6.30733C96.3431 5.82048 95.9518 5.42822 95.4661 5.42822H6.42306Z" fill="white"/>
<path d="M6.42306 5.42822C5.93736 5.42822 5.54688 5.82048 5.54688 6.30733V145.745C5.54688 146.232 5.93736 146.624 6.42306 146.624H95.4661C95.9518 146.624 96.3431 146.232 96.3431 145.745V6.30733C96.3431 5.82048 95.9518 5.42822 95.4661 5.42822H6.42306Z" stroke="black" stroke-miterlimit="10"/>
<path fill-rule="evenodd" clip-rule="evenodd" d="M24.0435 23.8154C23.8095 23.8154 23.6211 24.004 23.6211 24.2394V128.259C23.6211 128.495 23.8095 128.683 24.0435 128.683H76.9589C77.1938 128.683 77.3813 128.495 77.3813 128.259V24.2394C77.3813 24.004 77.1938 23.8154 76.9589 23.8154H24.0435V23.8154Z" fill="black"/>
<path d="M24.0435 23.8154C23.8095 23.8154 23.6211 24.004 23.6211 24.2394V128.259C23.6211 128.495 23.8095 128.683 24.0435 128.683H76.9589C77.1938 128.683 77.3813 128.495 77.3813 128.259V24.2394C77.3813 24.004 77.1938 23.8154 76.9589 23.8154H24.0435V23.8154Z" stroke="black" stroke-miterlimit="10"/>
<path fill-rule="evenodd" clip-rule="evenodd" d="M32.4175 27.5049C29.646 27.5049 27.4141 29.7445 27.4141 32.5257V119.528C27.4141 122.31 29.646 124.549 32.4175 124.549H68.3582C71.13 124.549 73.3616 122.31 73.3616 119.528V32.5257C73.3616 29.7445 71.13 27.5049 68.3582 27.5049H32.4175Z" fill="white"/>
<path d="M32.4175 27.5049C29.646 27.5049 27.4141 29.7445 27.4141 32.5257V119.528C27.4141 122.31 29.646 124.549 32.4175 124.549H68.3582C71.13 124.549 73.3616 122.31 73.3616 119.528V32.5257C73.3616 29.7445 71.13 27.5049 68.3582 27.5049H32.4175Z" stroke="black" stroke-miterlimit="10" stroke-linejoin="round"/>
<path fill-rule="evenodd" clip-rule="evenodd" d="M32.9759 31.5034C32.0438 31.5034 31.293 32.2568 31.293 33.1924V118.859C31.293 119.795 32.0438 120.548 32.9759 120.548H67.5814C68.5147 120.548 69.2664 119.795 69.2664 118.859V33.1924C69.2664 32.2568 68.5147 31.5034 67.5814 31.5034H32.9759Z" fill="black"/>
<path d="M32.9759 31.5034C32.0438 31.5034 31.293 32.2568 31.293 33.1924V118.859C31.293 119.795 32.0438 120.548 32.9759 120.548H67.5814C68.5147 120.548 69.2664 119.795 69.2664 118.859V33.1924C69.2664 32.2568 68.5147 31.5034 67.5814 31.5034H32.9759Z" stroke="black" stroke-miterlimit="10" stroke-linejoin="round"/>
<path fill-rule="evenodd" clip-rule="evenodd" d="M6.5 6.43555H10.4972L6.53838 10.3983L6.5 6.43555V6.43555Z" fill="black"/>
<path d="M6.5 6.43555H10.4972L6.53838 10.3983L6.5 6.43555V6.43555Z" stroke="black" stroke-miterlimit="10"/>
<path fill-rule="evenodd" clip-rule="evenodd" d="M95.3289 6.48633H91.332L95.2902 10.4491L95.3289 6.48633Z" fill="black"/>
<path d="M95.3289 6.48633H91.332L95.2902 10.4491L95.3289 6.48633Z" stroke="black" stroke-miterlimit="10"/>
<path fill-rule="evenodd" clip-rule="evenodd" d="M95.4037 145.743H91.4062L95.3656 141.781L95.4037 145.743Z" fill="black"/>
<path d="M95.4037 145.743H91.4062L95.3656 141.781L95.4037 145.743Z" stroke="black" stroke-miterlimit="10"/>
<path fill-rule="evenodd" clip-rule="evenodd" d="M6.49609 145.723H10.4933L6.53505 141.761L6.49609 145.723Z" fill="black"/>
<path d="M6.49609 145.723H10.4933L6.53505 141.761L6.49609 145.723Z" stroke="black" stroke-miterlimit="10"/>
<path fill-rule="evenodd" clip-rule="evenodd" d="M8.02734 81.694V85.4903L21.4829 78.3916V74.502L8.02734 81.694Z" fill="black"/>
<path d="M8.02734 81.694V85.4903L21.4829 78.3916V74.502L8.02734 81.694Z" stroke="black" stroke-miterlimit="10" stroke-linecap="round" stroke-linejoin="round"/>
<path fill-rule="evenodd" clip-rule="evenodd" d="M8.09766 88.8731V92.6693L21.5529 85.5694V81.6807L8.09766 88.8731Z" fill="black"/>
<path d="M8.09766 88.8731V92.6693L21.5529 85.5694V81.6807L8.09766 88.8731Z" stroke="black" stroke-miterlimit="10" stroke-linecap="round" stroke-linejoin="round"/>
<path fill-rule="evenodd" clip-rule="evenodd" d="M7.96094 85.5091V81.7129L21.4159 88.8122V92.7015L7.96094 85.5091Z" fill="white"/>
<path d="M7.96094 85.5091V81.7129L21.4159 88.8122V92.7015L7.96094 85.5091Z" stroke="black" stroke-miterlimit="10" stroke-linecap="round" stroke-linejoin="round"/>
<path fill-rule="evenodd" clip-rule="evenodd" d="M8.12891 74.417V78.2133L21.5842 71.113V67.2246L8.12891 74.417Z" fill="black"/>
<path d="M8.12891 74.417V78.2133L21.5842 71.113V67.2246L8.12891 74.417Z" stroke="black" stroke-miterlimit="10" stroke-linecap="round" stroke-linejoin="round"/>
<path fill-rule="evenodd" clip-rule="evenodd" d="M8.0625 78.3689V74.5732L21.5184 81.6726V85.5619L8.0625 78.3689Z" fill="white"/>
<path d="M8.0625 78.3689V74.5732L21.5184 81.6726V85.5619L8.0625 78.3689Z" stroke="black" stroke-miterlimit="10" stroke-linecap="round" stroke-linejoin="round"/>
<path fill-rule="evenodd" clip-rule="evenodd" d="M8.05859 67.2383V71.0345L21.5139 63.9355V60.0459L8.05859 67.2383Z" fill="black"/>
<path d="M8.05859 67.2383V71.0345L21.5139 63.9355V60.0459L8.05859 67.2383Z" stroke="black" stroke-miterlimit="10" stroke-linecap="round" stroke-linejoin="round"/>
<path fill-rule="evenodd" clip-rule="evenodd" d="M7.99219 71.0523V67.2563L21.4478 74.3563V78.2444L7.99219 71.0523Z" fill="white"/>
<path d="M7.99219 71.0523V67.2563L21.4478 74.3563V78.2444L7.99219 71.0523Z" stroke="black" stroke-miterlimit="10" stroke-linecap="round" stroke-linejoin="round"/>
<path fill-rule="evenodd" clip-rule="evenodd" d="M8.09375 63.9127V60.1167L21.549 67.2166V71.105L8.09375 63.9127Z" fill="white"/>
<path d="M8.09375 63.9127V60.1167L21.549 67.2166V71.105L8.09375 63.9127Z" stroke="black" stroke-miterlimit="10" stroke-linecap="round" stroke-linejoin="round"/>
<path fill-rule="evenodd" clip-rule="evenodd" d="M8.11719 96.1177V99.9133L21.5725 92.8146V88.9253L8.11719 96.1177Z" fill="black"/>
<path d="M8.11719 96.1177V99.9133L21.5725 92.8146V88.9253L8.11719 96.1177Z" stroke="black" stroke-miterlimit="10" stroke-linecap="round" stroke-linejoin="round"/>
<path fill-rule="evenodd" clip-rule="evenodd" d="M7.98047 92.7532V88.9575L21.4358 96.0568V99.9468L7.98047 92.7532Z" fill="white"/>
<path d="M7.98047 92.7532V88.9575L21.4358 96.0568V99.9468L7.98047 92.7532Z" stroke="black" stroke-miterlimit="10" stroke-linecap="round" stroke-linejoin="round"/>
<path fill-rule="evenodd" clip-rule="evenodd" d="M7.98047 45.5215V49.3174L21.4358 42.2178V38.3291L7.98047 45.5215Z" fill="black"/>
<path d="M7.98047 45.5215V49.3174L21.4358 42.2178V38.3291L7.98047 45.5215Z" stroke="black" stroke-miterlimit="10" stroke-linecap="round" stroke-linejoin="round"/>
<path fill-rule="evenodd" clip-rule="evenodd" d="M8.04688 52.6992V56.4964L21.5027 49.3965V45.5068L8.04688 52.6992Z" fill="black"/>
<path d="M8.04688 52.6992V56.4964L21.5027 49.3965V45.5068L8.04688 52.6992Z" stroke="black" stroke-miterlimit="10" stroke-linecap="round" stroke-linejoin="round"/>
<path fill-rule="evenodd" clip-rule="evenodd" d="M7.91406 49.3358V45.5396L21.3699 52.6386V56.5282L7.91406 49.3358Z" fill="white"/>
<path d="M7.91406 49.3358V45.5396L21.3699 52.6386V56.5282L7.91406 49.3358Z" stroke="black" stroke-miterlimit="10" stroke-linecap="round" stroke-linejoin="round"/>
<path fill-rule="evenodd" clip-rule="evenodd" d="M8.07812 38.2432V42.0403L21.5334 34.9401V31.0508L8.07812 38.2432Z" fill="black"/>
<path d="M8.07812 38.2432V42.0403L21.5334 34.9401V31.0508L8.07812 38.2432Z" stroke="black" stroke-miterlimit="10" stroke-linecap="round" stroke-linejoin="round"/>
<path fill-rule="evenodd" clip-rule="evenodd" d="M8.01172 42.1954V38.3994L21.4676 45.4984V49.3878L8.01172 42.1954Z" fill="white"/>
<path d="M8.01172 42.1954V38.3994L21.4676 45.4984V49.3878L8.01172 42.1954Z" stroke="black" stroke-miterlimit="10" stroke-linecap="round" stroke-linejoin="round"/>
<path fill-rule="evenodd" clip-rule="evenodd" d="M8.00781 31.064V34.8599L21.4628 27.7603V23.8716L8.00781 31.064Z" fill="black"/>
<path d="M8.00781 31.064V34.8599L21.4628 27.7603V23.8716L8.00781 31.064Z" stroke="black" stroke-miterlimit="10" stroke-linecap="round" stroke-linejoin="round"/>
<path fill-rule="evenodd" clip-rule="evenodd" d="M7.94141 34.8785V31.0825L21.397 38.1812V42.0709L7.94141 34.8785Z" fill="white"/>
<path d="M7.94141 34.8785V31.0825L21.397 38.1812V42.0709L7.94141 34.8785Z" stroke="black" stroke-miterlimit="10" stroke-linecap="round" stroke-linejoin="round"/>
<path fill-rule="evenodd" clip-rule="evenodd" d="M8.04297 27.7395V23.9438L21.4988 31.0426V34.9319L8.04297 27.7395Z" fill="white"/>
<path d="M8.04297 27.7395V23.9438L21.4988 31.0426V34.9319L8.04297 27.7395Z" stroke="black" stroke-miterlimit="10" stroke-linecap="round" stroke-linejoin="round"/>
<path fill-rule="evenodd" clip-rule="evenodd" d="M8.06641 59.9448V63.7408L21.522 56.6412V52.7524L8.06641 59.9448Z" fill="black"/>
<path d="M8.06641 59.9448V63.7408L21.522 56.6412V52.7524L8.06641 59.9448Z" stroke="black" stroke-miterlimit="10" stroke-linecap="round" stroke-linejoin="round"/>
<path fill-rule="evenodd" clip-rule="evenodd" d="M7.92969 56.5799V52.7837L21.385 59.8836V63.7723L7.92969 56.5799Z" fill="white"/>
<path d="M7.92969 56.5799V52.7837L21.385 59.8836V63.7723L7.92969 56.5799Z" stroke="black" stroke-miterlimit="10" stroke-linecap="round" stroke-linejoin="round"/>
<path fill-rule="evenodd" clip-rule="evenodd" d="M8.02734 117.768V121.565L21.4829 114.465V110.575L8.02734 117.768Z" fill="black"/>
<path d="M8.02734 117.768V121.565L21.4829 114.465V110.575L8.02734 117.768Z" stroke="black" stroke-miterlimit="10" stroke-linecap="round" stroke-linejoin="round"/>
<path fill-rule="evenodd" clip-rule="evenodd" d="M8.09766 124.948V128.743L21.5529 121.644V117.755L8.09766 124.948Z" fill="black"/>
<path d="M8.09766 124.948V128.743L21.5529 121.644V117.755L8.09766 124.948Z" stroke="black" stroke-miterlimit="10" stroke-linecap="round" stroke-linejoin="round"/>
<path fill-rule="evenodd" clip-rule="evenodd" d="M7.96094 121.584V117.787L21.4159 124.887V128.776L7.96094 121.584Z" fill="white"/>
<path d="M7.96094 121.584V117.787L21.4159 124.887V128.776L7.96094 121.584Z" stroke="black" stroke-miterlimit="10" stroke-linecap="round" stroke-linejoin="round"/>
<path fill-rule="evenodd" clip-rule="evenodd" d="M8.12891 110.491V114.286L21.5842 107.187V103.298L8.12891 110.491Z" fill="black"/>
<path d="M8.12891 110.491V114.286L21.5842 107.187V103.298L8.12891 110.491Z" stroke="black" stroke-miterlimit="10" stroke-linecap="round" stroke-linejoin="round"/>
<path fill-rule="evenodd" clip-rule="evenodd" d="M8.0625 114.444V110.647L21.5184 117.747V121.637L8.0625 114.444Z" fill="white"/>
<path d="M8.0625 114.444V110.647L21.5184 117.747V121.637L8.0625 114.444Z" stroke="black" stroke-miterlimit="10" stroke-linecap="round" stroke-linejoin="round"/>
<path fill-rule="evenodd" clip-rule="evenodd" d="M8.05859 103.313V107.109L21.5139 100.008V96.1206L8.05859 103.313Z" fill="black"/>
<path d="M8.05859 103.313V107.109L21.5139 100.008V96.1206L8.05859 103.313Z" stroke="black" stroke-miterlimit="10" stroke-linecap="round" stroke-linejoin="round"/>
<path fill-rule="evenodd" clip-rule="evenodd" d="M7.99219 107.127V103.331L21.4478 110.43V114.319L7.99219 107.127Z" fill="white"/>
<path d="M7.99219 107.127V103.331L21.4478 110.43V114.319L7.99219 107.127Z" stroke="black" stroke-miterlimit="10" stroke-linecap="round" stroke-linejoin="round"/>
<path fill-rule="evenodd" clip-rule="evenodd" d="M8.09375 99.9867V96.1904L21.549 103.29V107.179L8.09375 99.9867Z" fill="white"/>
<path d="M8.09375 99.9867V96.1904L21.549 103.29V107.179L8.09375 99.9867Z" stroke="black" stroke-miterlimit="10" stroke-linecap="round" stroke-linejoin="round"/>
<path fill-rule="evenodd" clip-rule="evenodd" d="M80.0039 70.9814V67.1836L93.4586 74.2874V78.1783L80.0039 70.9814Z" fill="black"/>
<path d="M80.0039 70.9814V67.1836L93.4586 74.2874V78.1783L80.0039 70.9814Z" stroke="black" stroke-miterlimit="10" stroke-linecap="round" stroke-linejoin="round"/>
<path fill-rule="evenodd" clip-rule="evenodd" d="M80.0742 63.7976V59.9995L93.5307 67.1037V70.9951L80.0742 63.7976Z" fill="black"/>
<path d="M80.0742 63.7976V59.9995L93.5307 67.1037V70.9951L80.0742 63.7976Z" stroke="black" stroke-miterlimit="10" stroke-linecap="round" stroke-linejoin="round"/>
<path fill-rule="evenodd" clip-rule="evenodd" d="M79.9375 67.1652V70.963L93.3922 63.86V59.9683L79.9375 67.1652Z" fill="white"/>
<path d="M79.9375 67.1652V70.963L93.3922 63.86V59.9683L79.9375 67.1652Z" stroke="black" stroke-miterlimit="10" stroke-linecap="round" stroke-linejoin="round"/>
<path fill-rule="evenodd" clip-rule="evenodd" d="M80.1016 78.264V74.4653L93.5586 81.5689V85.4612L80.1016 78.264Z" fill="black"/>
<path d="M80.1016 78.264V74.4653L93.5586 81.5689V85.4612L80.1016 78.264Z" stroke="black" stroke-miterlimit="10" stroke-linecap="round" stroke-linejoin="round"/>
<path fill-rule="evenodd" clip-rule="evenodd" d="M80.0391 74.3094V78.1072L93.4944 71.0042V67.1128L80.0391 74.3094Z" fill="white"/>
<path d="M80.0391 74.3094V78.1072L93.4944 71.0042V67.1128L80.0391 74.3094Z" stroke="black" stroke-miterlimit="10" stroke-linecap="round" stroke-linejoin="round"/>
<path fill-rule="evenodd" clip-rule="evenodd" d="M80.0352 85.447V81.6489L93.4904 88.7531V92.6442L80.0352 85.447Z" fill="black"/>
<path d="M80.0352 85.447V81.6489L93.4904 88.7531V92.6442L80.0352 85.447Z" stroke="black" stroke-miterlimit="10" stroke-linecap="round" stroke-linejoin="round"/>
<path fill-rule="evenodd" clip-rule="evenodd" d="M79.9688 81.63V85.4275L93.4252 78.3252V74.4331L79.9688 81.63Z" fill="white"/>
<path d="M79.9688 81.63V85.4275L93.4252 78.3252V74.4331L79.9688 81.63Z" stroke="black" stroke-miterlimit="10" stroke-linecap="round" stroke-linejoin="round"/>
<path fill-rule="evenodd" clip-rule="evenodd" d="M80.0703 88.7739V92.5726L93.5256 85.469V81.5767L80.0703 88.7739Z" fill="white"/>
<path d="M80.0703 88.7739V92.5726L93.5256 85.469V81.5767L80.0703 88.7739Z" stroke="black" stroke-miterlimit="10" stroke-linecap="round" stroke-linejoin="round"/>
<path fill-rule="evenodd" clip-rule="evenodd" d="M80.0938 56.5504V52.7515L93.549 59.8553V63.7468L80.0938 56.5504Z" fill="black"/>
<path d="M80.0938 56.5504V52.7515L93.549 59.8553V63.7468L80.0938 56.5504Z" stroke="black" stroke-miterlimit="10" stroke-linecap="round" stroke-linejoin="round"/>
<path fill-rule="evenodd" clip-rule="evenodd" d="M79.957 59.9164V63.7153L93.4135 56.6112V52.7197L79.957 59.9164Z" fill="white"/>
<path d="M79.957 59.9164V63.7153L93.4135 56.6112V52.7197L79.957 59.9164Z" stroke="black" stroke-miterlimit="10" stroke-linecap="round" stroke-linejoin="round"/>
<path fill-rule="evenodd" clip-rule="evenodd" d="M79.9531 107.177V103.378L93.4096 110.482V114.373L79.9531 107.177Z" fill="black"/>
<path d="M79.9531 107.177V103.378L93.4096 110.482V114.373L79.9531 107.177Z" stroke="black" stroke-miterlimit="10" stroke-linecap="round" stroke-linejoin="round"/>
<path fill-rule="evenodd" clip-rule="evenodd" d="M80.0234 99.9946V96.1953L93.4787 103.299V107.191L80.0234 99.9946Z" fill="black"/>
<path d="M80.0234 99.9946V96.1953L93.4787 103.299V107.191L80.0234 99.9946Z" stroke="black" stroke-miterlimit="10" stroke-linecap="round" stroke-linejoin="round"/>
<path fill-rule="evenodd" clip-rule="evenodd" d="M79.8867 103.36V107.159L93.342 100.055V96.1636L79.8867 103.36Z" fill="white"/>
<path d="M79.8867 103.36V107.159L93.342 100.055V96.1636L79.8867 103.36Z" stroke="black" stroke-miterlimit="10" stroke-linecap="round" stroke-linejoin="round"/>
<path fill-rule="evenodd" clip-rule="evenodd" d="M80.0508 114.459V110.661L93.5067 117.764V121.656L80.0508 114.459Z" fill="black"/>
<path d="M80.0508 114.459V110.661L93.5067 117.764V121.656L80.0508 114.459Z" stroke="black" stroke-miterlimit="10" stroke-linecap="round" stroke-linejoin="round"/>
<path fill-rule="evenodd" clip-rule="evenodd" d="M79.9883 110.504V114.302L93.4436 107.199V103.307L79.9883 110.504Z" fill="white"/>
<path d="M79.9883 110.504V114.302L93.4436 107.199V103.307L79.9883 110.504Z" stroke="black" stroke-miterlimit="10" stroke-linecap="round" stroke-linejoin="round"/>
<path fill-rule="evenodd" clip-rule="evenodd" d="M79.9844 121.643V117.845L93.4402 124.948V128.839L79.9844 121.643Z" fill="black"/>
<path d="M79.9844 121.643V117.845L93.4402 124.948V128.839L79.9844 121.643Z" stroke="black" stroke-miterlimit="10" stroke-linecap="round" stroke-linejoin="round"/>
<path fill-rule="evenodd" clip-rule="evenodd" d="M79.918 117.826V121.624L93.3733 114.52V110.628L79.918 117.826Z" fill="white"/>
<path d="M79.918 117.826V121.624L93.3733 114.52V110.628L79.918 117.826Z" stroke="black" stroke-miterlimit="10" stroke-linecap="round" stroke-linejoin="round"/>
<path fill-rule="evenodd" clip-rule="evenodd" d="M80.0195 124.971V128.769L93.4748 121.666V117.774L80.0195 124.971Z" fill="white"/>
<path d="M80.0195 124.971V128.769L93.4748 121.666V117.774L80.0195 124.971Z" stroke="black" stroke-miterlimit="10" stroke-linecap="round" stroke-linejoin="round"/>
<path fill-rule="evenodd" clip-rule="evenodd" d="M80.043 92.7452V88.9478L93.4983 96.0507V99.9418L80.043 92.7452Z" fill="black"/>
<path d="M80.043 92.7452V88.9478L93.4983 96.0507V99.9418L80.043 92.7452Z" stroke="black" stroke-miterlimit="10" stroke-linecap="round" stroke-linejoin="round"/>
<path fill-rule="evenodd" clip-rule="evenodd" d="M79.9062 96.1118V99.9098L93.361 92.8057V88.9146L79.9062 96.1118Z" fill="white"/>
<path d="M79.9062 96.1118V99.9098L93.361 92.8057V88.9146L79.9062 96.1118Z" stroke="black" stroke-miterlimit="10" stroke-linecap="round" stroke-linejoin="round"/>
<path fill-rule="evenodd" clip-rule="evenodd" d="M80.0039 34.8867V31.0874L93.4586 38.1916V42.083L80.0039 34.8867Z" fill="black"/>
<path d="M80.0039 34.8867V31.0874L93.4586 38.1916V42.083L80.0039 34.8867Z" stroke="black" stroke-miterlimit="10" stroke-linecap="round" stroke-linejoin="round"/>
<path fill-rule="evenodd" clip-rule="evenodd" d="M80.0742 27.7028V23.9038L93.5307 31.0077V34.8994L80.0742 27.7028Z" fill="black"/>
<path d="M80.0742 27.7028V23.9038L93.5307 31.0077V34.8994L80.0742 27.7028Z" stroke="black" stroke-miterlimit="10" stroke-linecap="round" stroke-linejoin="round"/>
<path fill-rule="evenodd" clip-rule="evenodd" d="M79.9375 31.0682V34.8672L93.3922 27.7633V23.8716L79.9375 31.0682Z" fill="white"/>
<path d="M79.9375 31.0682V34.8672L93.3922 27.7633V23.8716L79.9375 31.0682Z" stroke="black" stroke-miterlimit="10" stroke-linecap="round" stroke-linejoin="round"/>
<path fill-rule="evenodd" clip-rule="evenodd" d="M80.1016 42.1679V38.3701L93.5586 45.474V49.3645L80.1016 42.1679Z" fill="black"/>
<path d="M80.1016 42.1679V38.3701L93.5586 45.474V49.3645L80.1016 42.1679Z" stroke="black" stroke-miterlimit="10" stroke-linecap="round" stroke-linejoin="round"/>
<path fill-rule="evenodd" clip-rule="evenodd" d="M80.0391 38.2141V42.0122L93.4944 34.908V31.0166L80.0391 38.2141Z" fill="white"/>
<path d="M80.0391 38.2141V42.0122L93.4944 34.908V31.0166L80.0391 38.2141Z" stroke="black" stroke-miterlimit="10" stroke-linecap="round" stroke-linejoin="round"/>
<path fill-rule="evenodd" clip-rule="evenodd" d="M80.0352 49.3518V45.5537L93.4904 52.6567V56.5484L80.0352 49.3518Z" fill="black"/>
<path d="M80.0352 49.3518V45.5537L93.4904 52.6567V56.5484L80.0352 49.3518Z" stroke="black" stroke-miterlimit="10" stroke-linecap="round" stroke-linejoin="round"/>
<path fill-rule="evenodd" clip-rule="evenodd" d="M79.9688 45.5344V49.3328L93.4252 42.2287V38.3369L79.9688 45.5344Z" fill="white"/>
<path d="M79.9688 45.5344V49.3328L93.4252 42.2287V38.3369L79.9688 45.5344Z" stroke="black" stroke-miterlimit="10" stroke-linecap="round" stroke-linejoin="round"/>
<path fill-rule="evenodd" clip-rule="evenodd" d="M80.0703 52.6787V56.4771L93.5256 49.3739V45.4824L80.0703 52.6787Z" fill="white"/>
<path d="M80.0703 52.6787V56.4771L93.5256 49.3739V45.4824L80.0703 52.6787Z" stroke="black" stroke-miterlimit="10" stroke-linecap="round" stroke-linejoin="round"/>
<path fill-rule="evenodd" clip-rule="evenodd" d="M41.9726 7.96924H38.1992L45.2573 21.471H49.1244L41.9726 7.96924Z" fill="black"/>
<path d="M41.9726 7.96924H38.1992L45.2573 21.471H49.1244L41.9726 7.96924Z" stroke="black" stroke-miterlimit="10" stroke-linecap="round" stroke-linejoin="round"/>
<path fill-rule="evenodd" clip-rule="evenodd" d="M34.8361 8.03809H31.0625L38.1203 21.5398H41.9868L34.8361 8.03809Z" fill="black"/>
<path d="M34.8361 8.03809H31.0625L38.1203 21.5398H41.9868L34.8361 8.03809Z" stroke="black" stroke-miterlimit="10" stroke-linecap="round" stroke-linejoin="round"/>
<path fill-rule="evenodd" clip-rule="evenodd" d="M38.1816 7.90234H41.9552L34.8975 21.4041H31.0312L38.1816 7.90234Z" fill="white"/>
<path d="M38.1816 7.90234H41.9552L34.8975 21.4041H31.0312L38.1816 7.90234Z" stroke="black" stroke-miterlimit="10" stroke-linecap="round" stroke-linejoin="round"/>
<path fill-rule="evenodd" clip-rule="evenodd" d="M49.2117 8.06836H45.4375L52.4953 21.5701H56.3621L49.2117 8.06836Z" fill="black"/>
<path d="M49.2117 8.06836H45.4375L52.4953 21.5701H56.3621L49.2117 8.06836Z" stroke="black" stroke-miterlimit="10" stroke-linecap="round" stroke-linejoin="round"/>
<path fill-rule="evenodd" clip-rule="evenodd" d="M45.2793 8.00391H49.0535L41.9957 21.5057H38.1289L45.2793 8.00391Z" fill="white"/>
<path d="M45.2793 8.00391H49.0535L41.9957 21.5057H38.1289L45.2793 8.00391Z" stroke="black" stroke-miterlimit="10" stroke-linecap="round" stroke-linejoin="round"/>
<path fill-rule="evenodd" clip-rule="evenodd" d="M70.719 8.06152H66.9453L74.0034 21.5633H77.8696L70.719 8.06152Z" fill="black"/>
<path d="M70.719 8.06152H66.9453L74.0034 21.5633H77.8696L70.719 8.06152Z" stroke="black" stroke-miterlimit="10" stroke-linecap="round" stroke-linejoin="round"/>
<path fill-rule="evenodd" clip-rule="evenodd" d="M56.3479 7.99902H52.5742L59.6323 21.502H63.4997L56.3479 7.99902Z" fill="black"/>
<path d="M56.3479 7.99902H52.5742L59.6323 21.502H63.4997L56.3479 7.99902Z" stroke="black" stroke-miterlimit="10" stroke-linecap="round" stroke-linejoin="round"/>
<path fill-rule="evenodd" clip-rule="evenodd" d="M52.5566 7.93115H56.3297L49.2728 21.4332H45.4062L52.5566 7.93115Z" fill="white"/>
<path d="M52.5566 7.93115H56.3297L49.2728 21.4332H45.4062L52.5566 7.93115Z" stroke="black" stroke-miterlimit="10" stroke-linecap="round" stroke-linejoin="round"/>
<path fill-rule="evenodd" clip-rule="evenodd" d="M63.5822 8.12988H59.8086L66.8667 21.6316H70.7323L63.5822 8.12988Z" fill="black"/>
<path d="M63.5822 8.12988H59.8086L66.8667 21.6316H70.7323L63.5822 8.12988Z" stroke="black" stroke-miterlimit="10" stroke-linecap="round" stroke-linejoin="round"/>
<path fill-rule="evenodd" clip-rule="evenodd" d="M59.654 8.03418H63.4282L56.3695 21.5359H52.5039L59.654 8.03418Z" fill="white"/>
<path d="M59.654 8.03418H63.4282L56.3695 21.5359H52.5039L59.654 8.03418Z" stroke="black" stroke-miterlimit="10" stroke-linecap="round" stroke-linejoin="round"/>
<path fill-rule="evenodd" clip-rule="evenodd" d="M66.9274 7.99316H70.7016L63.6441 21.4961H59.7773L66.9274 7.99316Z" fill="white"/>
<path d="M66.9274 7.99316H70.7016L63.6441 21.4961H59.7773L66.9274 7.99316Z" stroke="black" stroke-miterlimit="10" stroke-linecap="round" stroke-linejoin="round"/>
<path fill-rule="evenodd" clip-rule="evenodd" d="M77.9338 8.09717H74.1602L81.2182 21.5989H85.0839L77.9338 8.09717Z" fill="black"/>
<path d="M77.9338 8.09717H74.1602L81.2182 21.5989H85.0839L77.9338 8.09717Z" stroke="black" stroke-miterlimit="10" stroke-linecap="round" stroke-linejoin="round"/>
<path fill-rule="evenodd" clip-rule="evenodd" d="M74.0262 8.09521H77.7993L70.7418 21.5973H66.875L74.0262 8.09521Z" fill="white"/>
<path d="M74.0262 8.09521H77.7993L70.7418 21.5973H66.875L74.0262 8.09521Z" stroke="black" stroke-miterlimit="10" stroke-linecap="round" stroke-linejoin="round"/>
<path fill-rule="evenodd" clip-rule="evenodd" d="M27.6369 8.05664H23.8633L30.9214 21.5584H34.787L27.6369 8.05664Z" fill="black"/>
<path d="M27.6369 8.05664H23.8633L30.9214 21.5584H34.787L27.6369 8.05664Z" stroke="black" stroke-miterlimit="10" stroke-linecap="round" stroke-linejoin="round"/>
<path fill-rule="evenodd" clip-rule="evenodd" d="M20.5705 7.92236H16.7969L23.855 21.4244H27.7212L20.5705 7.92236Z" fill="black"/>
<path d="M20.5705 7.92236H16.7969L23.855 21.4244H27.7212L20.5705 7.92236Z" stroke="black" stroke-miterlimit="10" stroke-linecap="round" stroke-linejoin="round"/>
<path fill-rule="evenodd" clip-rule="evenodd" d="M30.9791 7.92041H34.7527L27.6946 21.4225H23.8281L30.9791 7.92041V7.92041Z" fill="white"/>
<path d="M30.9791 7.92041H34.7527L27.6946 21.4225H23.8281L30.9791 7.92041V7.92041Z" stroke="black" stroke-miterlimit="10" stroke-linecap="round" stroke-linejoin="round"/>
<path fill-rule="evenodd" clip-rule="evenodd" d="M13.4221 7.92236H9.64844L16.7062 21.4244H20.5724L13.4221 7.92236Z" fill="black"/>
<path d="M13.4221 7.92236H9.64844L16.7062 21.4244H20.5724L13.4221 7.92236Z" stroke="black" stroke-miterlimit="10" stroke-linecap="round" stroke-linejoin="round"/>
<path fill-rule="evenodd" clip-rule="evenodd" d="M23.8532 7.92236H27.6268L20.5688 21.4244H16.7031L23.8532 7.92236Z" fill="white"/>
<path d="M23.8532 7.92236H27.6268L20.5688 21.4244H16.7031L23.8532 7.92236Z" stroke="black" stroke-miterlimit="10" stroke-linecap="round" stroke-linejoin="round"/>
<path fill-rule="evenodd" clip-rule="evenodd" d="M16.7985 7.92236H20.5724L13.5152 21.4244H9.64844L16.7985 7.92236Z" fill="white"/>
<path d="M16.7985 7.92236H20.5724L13.5152 21.4244H9.64844L16.7985 7.92236Z" stroke="black" stroke-miterlimit="10" stroke-linecap="round" stroke-linejoin="round"/>
<path fill-rule="evenodd" clip-rule="evenodd" d="M85.0711 8.02832H81.2969L88.3555 21.531H92.2212L85.0711 8.02832Z" fill="black"/>
<path d="M85.0711 8.02832H81.2969L88.3555 21.531H92.2212L85.0711 8.02832Z" stroke="black" stroke-miterlimit="10" stroke-linecap="round" stroke-linejoin="round"/>
<path fill-rule="evenodd" clip-rule="evenodd" d="M81.2813 7.96094H85.0544L77.9969 21.4627H74.1289L81.2813 7.96094Z" fill="white"/>
<path d="M81.2813 7.96094H85.0544L77.9969 21.4627H74.1289L81.2813 7.96094Z" stroke="black" stroke-miterlimit="10" stroke-linecap="round" stroke-linejoin="round"/>
<path fill-rule="evenodd" clip-rule="evenodd" d="M88.3766 8.06396H92.1503L85.0934 21.5657H81.2266L88.3766 8.06396Z" fill="white"/>
<path d="M88.3766 8.06396H92.1503L85.0934 21.5657H81.2266L88.3766 8.06396Z" stroke="black" stroke-miterlimit="10" stroke-linecap="round" stroke-linejoin="round"/>
<path fill-rule="evenodd" clip-rule="evenodd" d="M42.1802 130.774H38.4062L45.4637 144.276H49.3305L42.1802 130.774Z" fill="black"/>
<path d="M42.1802 130.774H38.4062L45.4637 144.276H49.3305L42.1802 130.774Z" stroke="black" stroke-miterlimit="10" stroke-linecap="round" stroke-linejoin="round"/>
<path fill-rule="evenodd" clip-rule="evenodd" d="M35.0441 130.843H31.2695L38.3276 144.346H42.1944L35.0441 130.843Z" fill="black"/>
<path d="M35.0441 130.843H31.2695L38.3276 144.346H42.1944L35.0441 130.843Z" stroke="black" stroke-miterlimit="10" stroke-linecap="round" stroke-linejoin="round"/>
<path fill-rule="evenodd" clip-rule="evenodd" d="M38.3847 130.708H42.1595L35.1018 144.21H31.2344L38.3847 130.708Z" fill="white"/>
<path d="M38.3847 130.708H42.1595L35.1018 144.21H31.2344L38.3847 130.708Z" stroke="black" stroke-miterlimit="10" stroke-linecap="round" stroke-linejoin="round"/>
<path fill-rule="evenodd" clip-rule="evenodd" d="M49.414 130.873H45.6406L52.6981 144.374H56.5643L49.414 130.873Z" fill="black"/>
<path d="M49.414 130.873H45.6406L52.6981 144.374H56.5643L49.414 130.873Z" stroke="black" stroke-miterlimit="10" stroke-linecap="round" stroke-linejoin="round"/>
<path fill-rule="evenodd" clip-rule="evenodd" d="M45.4866 130.81H49.2602L42.2024 144.312H38.3359L45.4866 130.81Z" fill="white"/>
<path d="M45.4866 130.81H49.2602L42.2024 144.312H38.3359L45.4866 130.81Z" stroke="black" stroke-miterlimit="10" stroke-linecap="round" stroke-linejoin="round"/>
<path fill-rule="evenodd" clip-rule="evenodd" d="M70.9227 130.867H67.1484L74.2071 144.368H78.0739L70.9227 130.867Z" fill="black"/>
<path d="M70.9227 130.867H67.1484L74.2071 144.368H78.0739L70.9227 130.867Z" stroke="black" stroke-miterlimit="10" stroke-linecap="round" stroke-linejoin="round"/>
<path fill-rule="evenodd" clip-rule="evenodd" d="M56.5516 130.804H52.7773L59.8348 144.307H63.7022L56.5516 130.804Z" fill="black"/>
<path d="M56.5516 130.804H52.7773L59.8348 144.307H63.7022L56.5516 130.804Z" stroke="black" stroke-miterlimit="10" stroke-linecap="round" stroke-linejoin="round"/>
<path fill-rule="evenodd" clip-rule="evenodd" d="M52.7591 130.737H56.534L49.4759 144.239H45.6094L52.7591 130.737Z" fill="white"/>
<path d="M52.7591 130.737H56.534L49.4759 144.239H45.6094L52.7591 130.737Z" stroke="black" stroke-miterlimit="10" stroke-linecap="round" stroke-linejoin="round"/>
<path fill-rule="evenodd" clip-rule="evenodd" d="M63.7871 130.937H60.0117L67.0704 144.438H70.9372L63.7871 130.937Z" fill="black"/>
<path d="M63.7871 130.937H60.0117L67.0704 144.438H70.9372L63.7871 130.937Z" stroke="black" stroke-miterlimit="10" stroke-linecap="round" stroke-linejoin="round"/>
<path fill-rule="evenodd" clip-rule="evenodd" d="M59.8571 130.839H63.6313L56.5727 144.341H52.707L59.8571 130.839Z" fill="white"/>
<path d="M59.8571 130.839H63.6313L56.5727 144.341H52.707L59.8571 130.839Z" stroke="black" stroke-miterlimit="10" stroke-linecap="round" stroke-linejoin="round"/>
<path fill-rule="evenodd" clip-rule="evenodd" d="M67.1305 130.799H70.9042L63.8479 144.302H59.9805L67.1305 130.799Z" fill="white"/>
<path d="M67.1305 130.799H70.9042L63.8479 144.302H59.9805L67.1305 130.799Z" stroke="black" stroke-miterlimit="10" stroke-linecap="round" stroke-linejoin="round"/>
<path fill-rule="evenodd" clip-rule="evenodd" d="M78.032 130.945H74.2578L81.3165 144.448H85.1821L78.032 130.945Z" fill="black"/>
<path d="M78.032 130.945H74.2578L81.3165 144.448H85.1821L78.032 130.945Z" stroke="black" stroke-miterlimit="10" stroke-linecap="round" stroke-linejoin="round"/>
<path fill-rule="evenodd" clip-rule="evenodd" d="M74.2294 130.901H78.0024L70.9449 144.403H67.0781L74.2294 130.901Z" fill="white"/>
<path d="M74.2294 130.901H78.0024L70.9449 144.403H67.0781L74.2294 130.901Z" stroke="black" stroke-miterlimit="10" stroke-linecap="round" stroke-linejoin="round"/>
<path fill-rule="evenodd" clip-rule="evenodd" d="M27.8398 130.861H24.0664L31.1239 144.363H34.9901L27.8398 130.861Z" fill="black"/>
<path d="M27.8398 130.861H24.0664L31.1239 144.363H34.9901L27.8398 130.861Z" stroke="black" stroke-miterlimit="10" stroke-linecap="round" stroke-linejoin="round"/>
<path fill-rule="evenodd" clip-rule="evenodd" d="M20.6492 130.888H16.875L23.9331 144.391H27.7993L20.6492 130.888Z" fill="black"/>
<path d="M20.6492 130.888H16.875L23.9331 144.391H27.7993L20.6492 130.888Z" stroke="black" stroke-miterlimit="10" stroke-linecap="round" stroke-linejoin="round"/>
<path fill-rule="evenodd" clip-rule="evenodd" d="M31.1855 130.726H34.9586L27.9014 144.227H24.0352L31.1855 130.726Z" fill="white"/>
<path d="M31.1855 130.726H34.9586L27.9014 144.227H24.0352L31.1855 130.726Z" stroke="black" stroke-miterlimit="10" stroke-linecap="round" stroke-linejoin="round"/>
<path fill-rule="evenodd" clip-rule="evenodd" d="M85.1682 130.876H81.3945L88.4514 144.379H92.3188L85.1682 130.876Z" fill="black"/>
<path d="M85.1682 130.876H81.3945L88.4514 144.379H92.3188L85.1682 130.876Z" stroke="black" stroke-miterlimit="10" stroke-linecap="round" stroke-linejoin="round"/>
<path fill-rule="evenodd" clip-rule="evenodd" d="M81.3784 130.81H85.152L78.0945 144.312H74.2266L81.3784 130.81Z" fill="white"/>
<path d="M81.3784 130.81H85.152L78.0945 144.312H74.2266L81.3784 130.81Z" stroke="black" stroke-miterlimit="10" stroke-linecap="round" stroke-linejoin="round"/>
<path fill-rule="evenodd" clip-rule="evenodd" d="M88.4749 130.911H92.2479L85.1904 144.413H81.3242L88.4749 130.911Z" fill="white"/>
<path d="M88.4749 130.911H92.2479L85.1904 144.413H81.3242L88.4749 130.911Z" stroke="black" stroke-miterlimit="10" stroke-linecap="round" stroke-linejoin="round"/>
<path fill-rule="evenodd" clip-rule="evenodd" d="M23.9896 130.751H27.7638L20.7058 144.255H16.8398L23.9896 130.751Z" fill="white"/>
<path d="M23.9896 130.751H27.7638L20.7058 144.255H16.8398L23.9896 130.751Z" stroke="black" stroke-miterlimit="10" stroke-linecap="round" stroke-linejoin="round"/>
<path fill-rule="evenodd" clip-rule="evenodd" d="M13.4461 130.907H9.67188L16.73 144.409H20.5965L13.4461 130.907Z" fill="black"/>
<path d="M13.4461 130.907H9.67188L16.73 144.409H20.5965L13.4461 130.907Z" stroke="black" stroke-miterlimit="10" stroke-linecap="round" stroke-linejoin="round"/>
<path fill-rule="evenodd" clip-rule="evenodd" d="M16.7916 130.771H20.5658L13.508 144.273H9.64062L16.7916 130.771Z" fill="white"/>
<path d="M16.7916 130.771H20.5658L13.508 144.273H9.64062L16.7916 130.771Z" stroke="black" stroke-miterlimit="10" stroke-linecap="round" stroke-linejoin="round"/>
<path d="M100.938 146.626C100.938 148.962 99.0866 150.878 96.8158 150.878H5.11609C2.85138 150.878 1 148.962 1 146.626V5.25167C1 2.91263 2.85138 1 5.11609 1H96.8158C99.0866 1 100.938 2.91263 100.938 5.25167V146.626Z" stroke="black"/>
</svg>
