<svg width="102" height="152" viewBox="0 0 102 152" fill="none" xmlns="http://www.w3.org/2000/svg">
<path d="M101 146.745C101 149.085 99.1475 151 96.8759 151H5.11878C2.85275 151 1 149.085 1 146.745V5.2551C1 2.91569 2.85275 1 5.11878 1H96.8759C99.1475 1 101 2.91569 101 5.2551V146.745Z" fill="white" stroke="black" stroke-width="0.622432"/>
<path fill-rule="evenodd" clip-rule="evenodd" d="M72.789 29.7196V6.61768H50.5625V29.7196H72.789Z" fill="white"/>
<path fill-rule="evenodd" clip-rule="evenodd" d="M94.9994 29.7196V6.61768H72.7852V29.7196H94.9994Z" fill="#D11209"/>
<path fill-rule="evenodd" clip-rule="evenodd" d="M94.9994 52.8217V29.7197H72.7852V52.8217H94.9994Z" fill="white"/>
<path fill-rule="evenodd" clip-rule="evenodd" d="M72.789 52.8217V29.7197H50.5625V52.8217H72.789Z" fill="#D11209"/>
<path fill-rule="evenodd" clip-rule="evenodd" d="M28.347 75.9231V52.8218H6.13281V75.9231H28.347Z" fill="white"/>
<path fill-rule="evenodd" clip-rule="evenodd" d="M50.5585 75.9231V52.8218H28.3438V75.9231H50.5585Z" fill="#D11209"/>
<path fill-rule="evenodd" clip-rule="evenodd" d="M72.789 75.9231V52.8218H50.5625V75.9231H72.789Z" fill="white"/>
<path fill-rule="evenodd" clip-rule="evenodd" d="M94.9994 75.9231V52.8218H72.7852V75.9231H94.9994Z" fill="#D11209"/>
<path fill-rule="evenodd" clip-rule="evenodd" d="M50.5585 52.8217V29.7197H28.3438V52.8217H50.5585Z" fill="white"/>
<path fill-rule="evenodd" clip-rule="evenodd" d="M28.347 52.8217V29.7197H6.13281V52.8217H28.347Z" fill="#D11209"/>
<path fill-rule="evenodd" clip-rule="evenodd" d="M28.347 29.7196V6.61768H6.13281V29.7196H28.347Z" fill="white"/>
<path fill-rule="evenodd" clip-rule="evenodd" d="M50.5585 29.7196V6.61768H28.3438V29.7196H50.5585Z" fill="#D11209"/>
<path fill-rule="evenodd" clip-rule="evenodd" d="M50.5585 145.241V122.133H28.3438V145.241H50.5585Z" fill="white"/>
<path fill-rule="evenodd" clip-rule="evenodd" d="M28.347 145.241V122.133H6.13281V145.241H28.347Z" fill="#D11209"/>
<path fill-rule="evenodd" clip-rule="evenodd" d="M28.347 122.133V99.0308H6.13281V122.133H28.347Z" fill="white"/>
<path fill-rule="evenodd" clip-rule="evenodd" d="M50.5585 122.133V99.0308H28.3438V122.133H50.5585Z" fill="#D11209"/>
<path fill-rule="evenodd" clip-rule="evenodd" d="M94.9994 99.0309V75.9229H72.7852V99.0309H94.9994Z" fill="white"/>
<path fill-rule="evenodd" clip-rule="evenodd" d="M72.789 99.0309V75.9229H50.5625V99.0309H72.789Z" fill="#D11209"/>
<path fill-rule="evenodd" clip-rule="evenodd" d="M50.5585 99.0309V75.9229H28.3438V99.0309H50.5585Z" fill="white"/>
<path fill-rule="evenodd" clip-rule="evenodd" d="M28.347 99.0309V75.9229H6.13281V99.0309H28.347Z" fill="#D11209"/>
<path fill-rule="evenodd" clip-rule="evenodd" d="M72.789 122.133V99.0308H50.5625V122.133H72.789Z" fill="white"/>
<path fill-rule="evenodd" clip-rule="evenodd" d="M94.9994 122.133V99.0308H72.7852V122.133H94.9994Z" fill="#D11209"/>
<path fill-rule="evenodd" clip-rule="evenodd" d="M94.9994 145.241V122.133H72.7852V145.241H94.9994Z" fill="white"/>
<path fill-rule="evenodd" clip-rule="evenodd" d="M72.789 145.241V122.133H50.5625V145.241H72.789Z" fill="#D11209"/>
<path fill-rule="evenodd" clip-rule="evenodd" d="M70.008 6.61768L72.789 9.49665L53.3429 29.7196L50.5625 26.828L70.008 6.61768Z" fill="#D11209"/>
<path fill-rule="evenodd" clip-rule="evenodd" d="M92.2189 6.61768L94.9994 9.49665L75.5662 29.7196L72.7852 26.828L92.2189 6.61768Z" fill="white"/>
<path fill-rule="evenodd" clip-rule="evenodd" d="M75.5662 29.7197L72.7852 32.6114L92.2189 52.8217L94.9994 49.9294L75.5662 29.7197Z" fill="#D11209"/>
<path fill-rule="evenodd" clip-rule="evenodd" d="M53.3429 29.7197L50.5625 32.6114L70.008 52.8217L72.789 49.9294L53.3429 29.7197Z" fill="white"/>
<path fill-rule="evenodd" clip-rule="evenodd" d="M25.5669 52.8218L28.347 55.7065L8.90739 75.9231L6.13281 73.0445L25.5669 52.8218Z" fill="#D11209"/>
<path fill-rule="evenodd" clip-rule="evenodd" d="M47.7901 52.8218L50.5585 55.7065L31.1245 75.9231L28.3438 73.0445L47.7901 52.8218Z" fill="white"/>
<path fill-rule="evenodd" clip-rule="evenodd" d="M70.008 52.8218L72.789 55.7065L53.3429 75.9231L50.5625 73.0445L70.008 52.8218Z" fill="#D11209"/>
<path fill-rule="evenodd" clip-rule="evenodd" d="M92.2189 52.8218L94.9994 55.7065L75.5662 75.9231L72.7852 73.0445L92.2189 52.8218Z" fill="white"/>
<path fill-rule="evenodd" clip-rule="evenodd" d="M31.1245 29.7197L28.3438 32.6114L47.7901 52.8217L50.5585 49.9294L31.1245 29.7197Z" fill="#D11209"/>
<path fill-rule="evenodd" clip-rule="evenodd" d="M8.90739 29.7197L6.13281 32.6114L25.5669 52.8217L28.347 49.9294L8.90739 29.7197Z" fill="white"/>
<path fill-rule="evenodd" clip-rule="evenodd" d="M25.5669 6.61768L28.347 9.49665L8.90739 29.7196L6.13281 26.828L25.5669 6.61768Z" fill="#D11209"/>
<path fill-rule="evenodd" clip-rule="evenodd" d="M47.7901 6.61768L50.5585 9.49665L31.1245 29.7196L28.3438 26.828L47.7901 6.61768Z" fill="white"/>
<path fill-rule="evenodd" clip-rule="evenodd" d="M31.1245 145.241L28.3438 142.349L47.7901 122.133L50.5585 125.024L31.1245 145.241Z" fill="#D11209"/>
<path fill-rule="evenodd" clip-rule="evenodd" d="M8.90739 145.241L6.13281 142.349L25.5669 122.133L28.347 125.024L8.90739 145.241Z" fill="white"/>
<path fill-rule="evenodd" clip-rule="evenodd" d="M25.5669 122.133L28.347 119.241L8.90739 99.0308L6.13281 101.923L25.5669 122.133Z" fill="#D11209"/>
<path fill-rule="evenodd" clip-rule="evenodd" d="M47.7901 122.133L50.5585 119.241L31.1245 99.0308L28.3438 101.923L47.7901 122.133Z" fill="white"/>
<path fill-rule="evenodd" clip-rule="evenodd" d="M75.5662 99.0309L72.7852 96.1455L92.2189 75.9229L94.9994 78.8148L75.5662 99.0309Z" fill="#D11209"/>
<path fill-rule="evenodd" clip-rule="evenodd" d="M53.3429 99.0309L50.5625 96.1455L70.008 75.9229L72.789 78.8148L53.3429 99.0309Z" fill="white"/>
<path fill-rule="evenodd" clip-rule="evenodd" d="M31.1245 99.0309L28.3438 96.1455L47.7901 75.9229L50.5585 78.8148L31.1245 99.0309Z" fill="#D11209"/>
<path fill-rule="evenodd" clip-rule="evenodd" d="M8.90739 99.0309L6.13281 96.1455L25.5669 75.9229L28.347 78.8148L8.90739 99.0309Z" fill="white"/>
<path fill-rule="evenodd" clip-rule="evenodd" d="M70.008 122.133L72.789 119.241L53.3429 99.0308L50.5625 101.923L70.008 122.133Z" fill="#D11209"/>
<path fill-rule="evenodd" clip-rule="evenodd" d="M92.2189 122.133L94.9994 119.241L75.5662 99.0308L72.7852 101.923L92.2189 122.133Z" fill="white"/>
<path fill-rule="evenodd" clip-rule="evenodd" d="M75.5662 145.241L72.7852 142.349L92.2189 122.133L94.9994 125.024L75.5662 145.241Z" fill="#D11209"/>
<path fill-rule="evenodd" clip-rule="evenodd" d="M53.3429 145.241L50.5625 142.349L70.008 122.133L72.789 125.024L53.3429 145.241Z" fill="white"/>
<path fill-rule="evenodd" clip-rule="evenodd" d="M53.3429 6.61768L50.5625 9.49665L70.008 29.7196L72.789 26.828L53.3429 6.61768Z" fill="#D11209"/>
<path fill-rule="evenodd" clip-rule="evenodd" d="M61.6725 6.61768L50.5625 18.1717L61.6725 29.7196L72.789 18.1717L61.6725 6.61768Z" fill="#D11209"/>
<path fill-rule="evenodd" clip-rule="evenodd" d="M75.5662 6.61768L72.7852 9.49665L92.2189 29.7196L94.9994 26.828L75.5662 6.61768Z" fill="white"/>
<path fill-rule="evenodd" clip-rule="evenodd" d="M83.8835 6.61768L72.7852 18.1717L83.8835 29.7196L94.9994 18.1717L83.8835 6.61768Z" fill="white"/>
<path fill-rule="evenodd" clip-rule="evenodd" d="M92.2189 29.7197L94.9994 32.6114L75.5662 52.8217L72.7852 49.9294L92.2189 29.7197Z" fill="#D11209"/>
<path fill-rule="evenodd" clip-rule="evenodd" d="M83.8835 29.7197L94.9994 41.2737L83.8835 52.8217L72.7852 41.2737L83.8835 29.7197Z" fill="#D11209"/>
<path fill-rule="evenodd" clip-rule="evenodd" d="M70.008 29.7197L72.789 32.6114L53.3429 52.8217L50.5625 49.9294L70.008 29.7197Z" fill="white"/>
<path fill-rule="evenodd" clip-rule="evenodd" d="M61.6725 29.7197L72.789 41.2737L61.6725 52.8217L50.5625 41.2737L61.6725 29.7197Z" fill="white"/>
<path fill-rule="evenodd" clip-rule="evenodd" d="M8.90739 52.8218L6.13281 55.7065L25.5669 75.9231L28.347 73.0445L8.90739 52.8218Z" fill="#D11209"/>
<path fill-rule="evenodd" clip-rule="evenodd" d="M17.2493 52.8218L6.13281 64.3752L17.2493 75.9231L28.347 64.3752L17.2493 52.8218Z" fill="#D11209"/>
<path fill-rule="evenodd" clip-rule="evenodd" d="M31.1245 52.8218L28.3438 55.7065L47.7901 75.9231L50.5585 73.0445L31.1245 52.8218Z" fill="white"/>
<path fill-rule="evenodd" clip-rule="evenodd" d="M39.4605 52.8218L28.3438 64.3752L39.4605 75.9231L50.5585 64.3752L39.4605 52.8218Z" fill="white"/>
<path fill-rule="evenodd" clip-rule="evenodd" d="M53.3429 52.8218L50.5625 55.7065L70.008 75.9231L72.789 73.0445L53.3429 52.8218Z" fill="#D11209"/>
<path fill-rule="evenodd" clip-rule="evenodd" d="M61.6725 52.8218L50.5625 64.3752L61.6725 75.9231L72.789 64.3752L61.6725 52.8218Z" fill="#D11209"/>
<path fill-rule="evenodd" clip-rule="evenodd" d="M75.5662 52.8218L72.7852 55.7065L92.2189 75.9231L94.9994 73.0445L75.5662 52.8218Z" fill="white"/>
<path fill-rule="evenodd" clip-rule="evenodd" d="M83.8835 52.8218L72.7852 64.3752L83.8835 75.9231L94.9994 64.3752L83.8835 52.8218Z" fill="white"/>
<path fill-rule="evenodd" clip-rule="evenodd" d="M47.7901 29.7197L50.5585 32.6114L31.1245 52.8217L28.3438 49.9294L47.7901 29.7197Z" fill="#D11209"/>
<path fill-rule="evenodd" clip-rule="evenodd" d="M39.4605 29.7197L50.5585 41.2737L39.4605 52.8217L28.3438 41.2737L39.4605 29.7197Z" fill="#D11209"/>
<path fill-rule="evenodd" clip-rule="evenodd" d="M25.5669 29.7197L28.347 32.6114L8.90739 52.8217L6.13281 49.9294L25.5669 29.7197Z" fill="white"/>
<path fill-rule="evenodd" clip-rule="evenodd" d="M17.2493 29.7197L28.347 41.2737L17.2493 52.8217L6.13281 41.2737L17.2493 29.7197Z" fill="white"/>
<path fill-rule="evenodd" clip-rule="evenodd" d="M8.90739 6.61768L6.13281 9.49665L25.5669 29.7196L28.347 26.828L8.90739 6.61768Z" fill="#D11209"/>
<path fill-rule="evenodd" clip-rule="evenodd" d="M17.2493 6.61768L6.13281 18.1717L17.2493 29.7196L28.347 18.1717L17.2493 6.61768Z" fill="#D11209"/>
<path fill-rule="evenodd" clip-rule="evenodd" d="M31.1245 6.61768L28.3438 9.49665L47.7901 29.7196L50.5585 26.828L31.1245 6.61768Z" fill="white"/>
<path fill-rule="evenodd" clip-rule="evenodd" d="M39.4605 6.61768L28.3438 18.1717L39.4605 29.7196L50.5585 18.1717L39.4605 6.61768Z" fill="white"/>
<path fill-rule="evenodd" clip-rule="evenodd" d="M47.7901 145.241L50.5585 142.349L31.1245 122.133L28.3438 125.024L47.7901 145.241Z" fill="#D11209"/>
<path fill-rule="evenodd" clip-rule="evenodd" d="M39.4605 145.241L50.5585 133.68L39.4605 122.133L28.3438 133.68L39.4605 145.241Z" fill="#D11209"/>
<path fill-rule="evenodd" clip-rule="evenodd" d="M25.5669 145.241L28.347 142.349L8.90739 122.133L6.13281 125.024L25.5669 145.241Z" fill="white"/>
<path fill-rule="evenodd" clip-rule="evenodd" d="M17.2493 145.241L28.347 133.68L17.2493 122.133L6.13281 133.68L17.2493 145.241Z" fill="white"/>
<path fill-rule="evenodd" clip-rule="evenodd" d="M17.2493 122.133L6.13281 110.585L17.2493 99.0308L28.347 110.585L17.2493 122.133Z" fill="#D11209"/>
<path fill-rule="evenodd" clip-rule="evenodd" d="M31.1245 122.133L28.3438 119.241L47.7901 99.0308L50.5585 101.923L31.1245 122.133Z" fill="white"/>
<path fill-rule="evenodd" clip-rule="evenodd" d="M39.4605 122.133L28.3438 110.585L39.4605 99.0308L50.5585 110.585L39.4605 122.133Z" fill="white"/>
<path fill-rule="evenodd" clip-rule="evenodd" d="M92.2189 99.0309L94.9994 96.1455L75.5662 75.9229L72.7852 78.8148L92.2189 99.0309Z" fill="#D11209"/>
<path fill-rule="evenodd" clip-rule="evenodd" d="M83.8835 99.0309L94.9994 87.4769L83.8835 75.9229L72.7852 87.4769L83.8835 99.0309Z" fill="#D11209"/>
<path fill-rule="evenodd" clip-rule="evenodd" d="M70.008 99.0309L72.789 96.1455L53.3429 75.9229L50.5625 78.8148L70.008 99.0309Z" fill="white"/>
<path fill-rule="evenodd" clip-rule="evenodd" d="M61.6725 99.0309L72.789 87.4769L61.6725 75.9229L50.5625 87.4769L61.6725 99.0309Z" fill="white"/>
<path fill-rule="evenodd" clip-rule="evenodd" d="M47.7901 99.0309L50.5585 96.1455L31.1245 75.9229L28.3438 78.8148L47.7901 99.0309Z" fill="#D11209"/>
<path fill-rule="evenodd" clip-rule="evenodd" d="M39.4605 99.0309L50.5585 87.4769L39.4605 75.9229L28.3438 87.4769L39.4605 99.0309Z" fill="#D11209"/>
<path fill-rule="evenodd" clip-rule="evenodd" d="M25.5669 99.0309L28.347 96.1455L8.90739 75.9229L6.13281 78.8148L25.5669 99.0309Z" fill="white"/>
<path fill-rule="evenodd" clip-rule="evenodd" d="M17.2493 99.0309L28.347 87.4769L17.2493 75.9229L6.13281 87.4769L17.2493 99.0309Z" fill="white"/>
<path fill-rule="evenodd" clip-rule="evenodd" d="M53.3429 122.133L50.5625 119.241L70.008 99.0308L72.789 101.923L53.3429 122.133Z" fill="#D11209"/>
<path fill-rule="evenodd" clip-rule="evenodd" d="M61.6725 122.133L50.5625 110.585L61.6725 99.0308L72.789 110.585L61.6725 122.133Z" fill="#D11209"/>
<path fill-rule="evenodd" clip-rule="evenodd" d="M75.5662 122.133L72.7852 119.241L92.2189 99.0308L94.9994 101.923L75.5662 122.133Z" fill="white"/>
<path fill-rule="evenodd" clip-rule="evenodd" d="M83.8835 122.133L72.7852 110.585L83.8835 99.0308L94.9994 110.585L83.8835 122.133Z" fill="white"/>
<path fill-rule="evenodd" clip-rule="evenodd" d="M92.2189 145.241L94.9994 142.349L75.5662 122.133L72.7852 125.024L92.2189 145.241Z" fill="#D11209"/>
<path fill-rule="evenodd" clip-rule="evenodd" d="M83.8835 145.241L94.9994 133.68L83.8835 122.133L72.7852 133.68L83.8835 145.241Z" fill="#D11209"/>
<path fill-rule="evenodd" clip-rule="evenodd" d="M70.008 145.241L72.789 142.349L53.3429 122.133L50.5625 125.024L70.008 145.241Z" fill="white"/>
<path fill-rule="evenodd" clip-rule="evenodd" d="M61.6725 145.241L72.789 133.68L61.6725 122.133L50.5625 133.68L61.6725 145.241Z" fill="white"/>
<path fill-rule="evenodd" clip-rule="evenodd" d="M67.2337 23.9358V12.0298H56.1172V23.9358H67.2337Z" fill="white"/>
<path fill-rule="evenodd" clip-rule="evenodd" d="M89.4479 23.9358V12.0298H78.3438V23.9358H89.4479Z" fill="#D11209"/>
<path fill-rule="evenodd" clip-rule="evenodd" d="M61.6723 13.834L57.5078 18.1713L61.6723 22.49L65.8433 18.1713L61.6723 13.834Z" fill="#D11209"/>
<path fill-rule="evenodd" clip-rule="evenodd" d="M83.8852 13.834L79.7266 18.1713L83.8852 22.49L88.0556 18.1713L83.8852 13.834Z" fill="white"/>
<path fill-rule="evenodd" clip-rule="evenodd" d="M89.4479 47.0447V35.1387H78.3438V47.0447H89.4479Z" fill="white"/>
<path fill-rule="evenodd" clip-rule="evenodd" d="M67.2337 47.0447V35.1387H56.1172V47.0447H67.2337Z" fill="#D11209"/>
<path fill-rule="evenodd" clip-rule="evenodd" d="M83.8852 36.9424L88.0556 41.2737L83.8852 45.5984L79.7266 41.2737L83.8852 36.9424" fill="#D11209"/>
<path fill-rule="evenodd" clip-rule="evenodd" d="M61.6723 36.9424L65.8433 41.2737L61.6723 45.5984L57.5078 41.2737L61.6723 36.9424" fill="white"/>
<path fill-rule="evenodd" clip-rule="evenodd" d="M22.792 70.1521V58.2397H11.6875V70.1521H22.792Z" fill="white"/>
<path fill-rule="evenodd" clip-rule="evenodd" d="M45.0127 70.1521V58.2397H33.9023V70.1521H45.0127Z" fill="#D11209"/>
<path fill-rule="evenodd" clip-rule="evenodd" d="M17.2494 60.0376L13.0781 64.375L17.2494 68.7126L21.4019 64.375L17.2494 60.0376Z" fill="#D11209"/>
<path fill-rule="evenodd" clip-rule="evenodd" d="M39.4639 60.0376L35.293 64.375L39.4639 68.7126L43.6226 64.375L39.4639 60.0376Z" fill="white"/>
<path fill-rule="evenodd" clip-rule="evenodd" d="M67.2337 70.1521V58.2397H56.1172V70.1521H67.2337Z" fill="white"/>
<path fill-rule="evenodd" clip-rule="evenodd" d="M89.4479 70.1521V58.2397H78.3438V70.1521H89.4479Z" fill="#D11209"/>
<path fill-rule="evenodd" clip-rule="evenodd" d="M61.6723 60.0376L57.5078 64.375L61.6723 68.7126L65.8433 64.375L61.6723 60.0376Z" fill="#D11209"/>
<path fill-rule="evenodd" clip-rule="evenodd" d="M83.8852 60.0376L79.7266 64.375L83.8852 68.7126L88.0556 64.375L83.8852 60.0376Z" fill="white"/>
<path fill-rule="evenodd" clip-rule="evenodd" d="M45.0127 47.0447V35.1387H33.9023V47.0447H45.0127Z" fill="white"/>
<path fill-rule="evenodd" clip-rule="evenodd" d="M22.792 47.0447V35.1387H11.6875V47.0447H22.792Z" fill="#D11209"/>
<path fill-rule="evenodd" clip-rule="evenodd" d="M39.4639 36.9424L43.6226 41.2737L39.4639 45.5984L35.293 41.2737L39.4639 36.9424" fill="#D11209"/>
<path fill-rule="evenodd" clip-rule="evenodd" d="M17.2494 36.9424L21.4019 41.2737L17.2494 45.5984L13.0781 41.2737L17.2494 36.9424" fill="white"/>
<path fill-rule="evenodd" clip-rule="evenodd" d="M22.792 23.9358V12.0298H11.6875V23.9358H22.792Z" fill="white"/>
<path fill-rule="evenodd" clip-rule="evenodd" d="M45.0127 23.9358V12.0298H33.9023V23.9358H45.0127Z" fill="#D11209"/>
<path fill-rule="evenodd" clip-rule="evenodd" d="M17.2494 13.834L13.0781 18.1713L17.2494 22.49L21.4019 18.1713L17.2494 13.834Z" fill="#D11209"/>
<path fill-rule="evenodd" clip-rule="evenodd" d="M39.4639 13.834L35.293 18.1713L39.4639 22.49L43.6226 18.1713L39.4639 13.834Z" fill="white"/>
<path fill-rule="evenodd" clip-rule="evenodd" d="M45.0127 139.816V127.917H33.9023V139.816H45.0127Z" fill="white"/>
<path fill-rule="evenodd" clip-rule="evenodd" d="M22.792 139.816V127.917H11.6875V139.816H22.792Z" fill="#D11209"/>
<path fill-rule="evenodd" clip-rule="evenodd" d="M39.4639 138.017L43.6226 133.68L39.4639 129.355L35.293 133.68L39.4639 138.017Z" fill="#D11209"/>
<path fill-rule="evenodd" clip-rule="evenodd" d="M17.2494 138.017L21.4019 133.68L17.2494 129.355L13.0781 133.68L17.2494 138.017Z" fill="white"/>
<path fill-rule="evenodd" clip-rule="evenodd" d="M45.0127 116.72V104.808H33.9023V116.72H45.0127Z" fill="#D11209"/>
<path fill-rule="evenodd" clip-rule="evenodd" d="M39.4639 114.916L35.293 110.585L39.4639 106.248L43.6226 110.585L39.4639 114.916Z" fill="white"/>
<path fill-rule="evenodd" clip-rule="evenodd" d="M89.4479 93.613V81.6948H78.3438V93.613H89.4479Z" fill="white"/>
<path fill-rule="evenodd" clip-rule="evenodd" d="M67.2337 93.613V81.6948H56.1172V93.613H67.2337Z" fill="#D11209"/>
<path fill-rule="evenodd" clip-rule="evenodd" d="M83.8852 91.8143L88.0556 87.4772L83.8852 83.1401L79.7266 87.4772L83.8852 91.8143Z" fill="#D11209"/>
<path fill-rule="evenodd" clip-rule="evenodd" d="M61.6723 91.8143L65.8433 87.4772L61.6723 83.1401L57.5078 87.4772L61.6723 91.8143Z" fill="white"/>
<path fill-rule="evenodd" clip-rule="evenodd" d="M45.0127 93.613V81.6948H33.9023V93.613H45.0127Z" fill="white"/>
<path fill-rule="evenodd" clip-rule="evenodd" d="M22.792 93.613V81.6948H11.6875V93.613H22.792Z" fill="#D11209"/>
<path fill-rule="evenodd" clip-rule="evenodd" d="M39.4639 91.8143L43.6226 87.4772L39.4639 83.1401L35.293 87.4772L39.4639 91.8143Z" fill="#D11209"/>
<path fill-rule="evenodd" clip-rule="evenodd" d="M17.2494 91.8143L21.4019 87.4772L17.2494 83.1401L13.0781 87.4772L17.2494 91.8143Z" fill="white"/>
<path fill-rule="evenodd" clip-rule="evenodd" d="M67.2337 116.72V104.808H56.1172V116.72H67.2337Z" fill="white"/>
<path fill-rule="evenodd" clip-rule="evenodd" d="M89.4479 116.72V104.808H78.3438V116.72H89.4479Z" fill="#D11209"/>
<path fill-rule="evenodd" clip-rule="evenodd" d="M61.6723 114.916L57.5078 110.585L61.6723 106.248L65.8433 110.585L61.6723 114.916Z" fill="#D11209"/>
<path fill-rule="evenodd" clip-rule="evenodd" d="M83.8852 114.916L79.7266 110.585L83.8852 106.248L88.0556 110.585L83.8852 114.916Z" fill="white"/>
<path fill-rule="evenodd" clip-rule="evenodd" d="M89.4479 139.816V127.917H78.3438V139.816H89.4479Z" fill="white"/>
<path fill-rule="evenodd" clip-rule="evenodd" d="M67.2337 139.816V127.917H56.1172V139.816H67.2337Z" fill="#D11209"/>
<path fill-rule="evenodd" clip-rule="evenodd" d="M83.8852 138.017L88.0556 133.68L83.8852 129.355L79.7266 133.68L83.8852 138.017Z" fill="#D11209"/>
<path fill-rule="evenodd" clip-rule="evenodd" d="M61.6723 138.017L65.8433 133.68L61.6723 129.355L57.5078 133.68L61.6723 138.017Z" fill="white"/>
<path fill-rule="evenodd" clip-rule="evenodd" d="M8.90739 122.133L6.13281 119.241L25.5669 99.0308L28.347 101.923L8.90739 122.133Z" fill="#D11209"/>
<path fill-rule="evenodd" clip-rule="evenodd" d="M22.792 116.72V104.808H11.6875V116.72H22.792Z" fill="white"/>
<path fill-rule="evenodd" clip-rule="evenodd" d="M17.2494 114.916L13.0781 110.585L17.2494 106.248L21.4019 110.585L17.2494 114.916Z" fill="#D11209"/>
<path d="M98.2344 147.381H3.53906V3.67773H98.2344V147.381Z" stroke="#D11209" stroke-width="3.73459" stroke-miterlimit="10" stroke-linejoin="round"/>
</svg>
