<svg width="102" height="152" viewBox="0 0 102 152" fill="none" xmlns="http://www.w3.org/2000/svg">
<path d="M92.6589 1L9.34107 1C4.73442 1 1 4.73096 1 9.33334L1 142.667C1 147.269 4.73442 151 9.34107 151H92.6589C97.2656 151 101 147.269 101 142.667L101 9.33334C101 4.73096 97.2656 1 92.6589 1Z" fill="white" stroke="black"/>
<path d="M10.2618 1L1 19.5065L1 20.0631L10.5404 1H10.2618ZM15.8329 1L1 30.6382V31.1948L16.1114 1H15.8329ZM18.6184 1L1 36.2041L1 37.3173L19.1755 1L18.6184 1ZM21.4039 1L1 41.7699L1 43.4397L22.2396 1H21.4039ZM24.1894 1L1 47.3358L1 49.5622L25.3036 1H24.1894ZM26.9749 1L1 52.9017L1 55.6846L28.3677 1L26.9749 1ZM35.3315 1L1 69.5993V70.1558L35.61 1H35.3315ZM38.117 1L1 75.1651L1 76.2783L38.6741 1H38.117ZM40.9025 1L1 80.731L1 81.2876L41.1811 1H40.9025ZM49.2591 1L1 97.4286L1 100.212L50.6518 1H49.2591ZM52.0446 1L1 102.994L1 105.221L53.1588 1H52.0446ZM54.8301 1L1 108.56L1 110.23L55.6657 1L54.8301 1ZM57.6156 1L1 114.126L1 115.239L58.1727 1H57.6156ZM60.4011 1L1 119.692V120.249L60.6797 1H60.4011ZM65.9721 1L1 130.824V131.38L66.2507 1H65.9721ZM68.7577 1L1 136.39L1 137.503L69.3148 1H68.7577ZM71.5432 1L1 141.955L1 142.669C1 142.963 1.01399 143.252 1.04352 143.538L72.3788 1H71.5432ZM74.3287 1L1.72249 146.078C1.88962 146.451 2.08765 146.806 2.30571 147.147L75.4429 1L74.3287 1ZM77.1142 1L3.32416 148.443C3.62374 148.755 3.9455 149.042 4.29039 149.304L78.507 1H77.1142ZM85.4707 1L10.4011 151H10.6797L85.7493 1H85.4707ZM88.2563 1L13.1866 151H13.7437L88.8134 1H88.2563ZM91.0418 1L15.9721 151H16.2507L91.3203 1H91.0418ZM7.9812 1.11306C7.77027 1.14739 7.55966 1.18508 7.35446 1.23481L1 13.9406L1 15.0538L7.9812 1.11306ZM4.88231 2.27841C4.38668 2.59117 3.92419 2.95837 3.50696 3.36549L1.07834 8.22692C1.03055 8.58932 1 8.95556 1 9.3314L1 10.0445L4.88231 2.27841ZM98.3015 3.18286L24.3287 151H25.7214L99.2068 4.16558C98.93 3.8155 98.6303 3.48394 98.3015 3.18286ZM100.138 5.63532L27.3928 151H28.507L100.634 6.87894C100.503 6.44844 100.335 6.03267 100.138 5.63532ZM101 10.0445L30.4568 151H31.2925L101 11.7143V10.0445ZM101 16.167L33.5209 151H34.078L101 17.2801V16.167ZM101 22.2894L36.585 151H36.8635L101 22.846V22.2894ZM101 33.4211L42.156 151H42.4345L101 33.9777V33.4211ZM101 38.4304L44.663 151H45.2201L101 39.5436V38.4304ZM101 43.4397L47.1699 151H48.0056L101 45.1095V43.4397ZM101 48.449L49.6769 151H50.7911L101 50.6753V48.449ZM101 53.4583L52.1838 151H53.5766L101 56.2412V53.4583ZM101 70.1558L60.5404 151H60.8189L101 70.7124V70.1558ZM101 75.1651L63.0474 151H63.6045L101 76.2783V75.1651ZM101 81.2876L66.1114 151H66.39L101 81.8442V81.2876ZM101 97.9852L74.468 151H75.8607L101 100.768V97.9852ZM101 104.108L77.532 151H78.6462L101 106.334V104.108ZM101 110.23L80.5961 151H81.4318L101 111.9V110.23ZM101 116.353L83.6602 151H84.2173L101 117.466V116.353ZM101 122.475L86.7242 151H87.0028L101 123.032V122.475ZM101 133.607L92.2953 151H92.5738L101 134.163V133.607ZM101 138.616L94.9676 150.678C95.1918 150.614 95.4132 150.543 95.6292 150.461L101 139.729V138.616ZM100.922 143.773L98.493 148.635C99.7935 147.366 100.671 145.671 100.922 143.773Z" fill="#8267AD"/>
<path d="M10.6797 1L85.7493 151H86.0279L10.9582 1H10.6797ZM13.1866 1L88.2563 151H88.8134L13.7437 1H13.1866ZM16.2507 1L91.3203 151H91.5989L16.5292 1H16.2507ZM23.493 1L97.7096 149.304C98.0545 149.042 98.3763 148.755 98.6758 148.443L24.8858 1H23.493ZM26.5571 1L99.6943 147.147C99.9123 146.806 100.11 146.451 100.278 146.078L27.6713 1L26.5571 1ZM29.6212 1L100.956 143.538C100.986 143.252 101 142.963 101 142.669V141.955L30.4568 1H29.6212ZM32.6852 1L101 137.503V136.39L33.2423 1H32.6852ZM35.7493 1L101 131.38V130.824L36.0279 1H35.7493ZM41.3203 1L101 120.249V119.692L41.5989 1H41.3203ZM43.8273 1L101 115.239V114.126L44.3844 1H43.8273ZM46.3343 1L101 110.23V108.56L47.1699 1L46.3343 1ZM48.8412 1L101 105.221V102.994L49.9554 1H48.8412ZM51.3482 1L101 100.212V97.4286L52.7409 1H51.3482ZM60.8189 1L101 81.2876V80.731L61.0975 1H60.8189ZM63.3259 1L101 76.2783V75.1651L63.883 1H63.3259ZM66.39 1L101 70.1558V69.5993L66.6685 1H66.39ZM73.6323 1L101 55.6846V52.9017L75.0251 1L73.6323 1ZM76.6964 1L101 49.5622V47.3358L77.8106 1H76.6964ZM79.7604 1L101 43.4397V41.7699L80.5961 1H79.7604ZM82.8245 1L101 37.3173V36.2041L83.3816 1L82.8245 1ZM85.8886 1L101 31.1948V30.6382L86.1671 1H85.8886ZM91.4596 1L101 20.0631V19.5065L91.7382 1H91.4596ZM94.0188 1.11306L101 15.0538V13.9406L94.6455 1.23481C94.4403 1.18508 94.2297 1.14739 94.0188 1.11306ZM97.1177 2.27841L101 10.0445V9.3314C101 8.95556 100.969 8.58932 100.922 8.22692L98.493 3.36549C98.0758 2.95837 97.6133 2.59117 97.1177 2.27841ZM3.69847 3.18286C3.36969 3.48394 3.06995 3.8155 2.79318 4.16558L76.2785 151H77.6713L3.69847 3.18286ZM1.86177 5.63532C1.66532 6.03267 1.49749 6.44844 1.3656 6.87894L73.493 151H74.6072L1.86177 5.63532ZM1 10.0445L1 11.7143L70.7075 151H71.5432L1 10.0445ZM1 16.167L1 17.2801L67.922 151H68.4791L1 16.167ZM1 22.2894V22.846L65.1365 151H65.415L1 22.2894ZM1 33.4211V33.9777L59.5655 151H59.844L1 33.4211ZM1 38.4304L1 39.5436L56.7799 151H57.337L1 38.4304ZM1 43.4397L1 45.1095L53.9944 151H54.8301L1 43.4397ZM1 48.449L1 50.6753L51.2089 151H52.3231L1 48.449ZM1 53.4583L1 56.2412L48.4234 151H49.8162L1 53.4583ZM1 70.1558L1 70.7124L41.1811 151H41.4596L1 70.1558ZM1 75.1651L1 76.2783L38.3955 151H38.9526L1 75.1651ZM1 81.2876V81.8442L35.61 151H35.8886L1 81.2876ZM1 97.9852L1 100.768L26.1393 151H27.532L1 97.9852ZM1 104.108L1 106.334L23.3538 151H24.468L1 104.108ZM1 110.23L1 111.9L20.5682 151H21.4039L1 110.23ZM1 116.353L1 117.466L17.7827 151H18.3398L1 116.353ZM1 122.475V123.032L14.9972 151H15.2758L1 122.475ZM1 133.607L1 134.163L9.42618 151H9.70473L1 133.607ZM1 138.616L1 139.729L6.37082 150.461C6.58677 150.543 6.80818 150.614 7.03238 150.678L1 138.616ZM1.07834 143.773C1.32858 145.671 2.20652 147.366 3.50696 148.635L1.07834 143.773Z" fill="#AA0000"/>
</svg>
