<svg width="23" height="23" viewBox="0 0 23 23" fill="none" xmlns="http://www.w3.org/2000/svg">
<path d="M11.142 0C10.7707 1.85538 10.3468 2.33544 9.65653 3.33952C9.06183 4.20473 8.22979 4.88738 7.42812 5.56586C6.61559 6.25352 5.68774 6.79258 4.82841 7.42124C3.82952 8.15176 2.65041 8.69805 1.8571 9.64758C0.970194 10.7093 0 11.9752 0 13.3581C0 14.4643 0.670751 15.5775 1.48551 16.3266C2.46685 17.2286 3.86657 17.8416 5.19944 17.8108C6.69498 17.7763 8.20779 16.9926 9.28494 15.9554C10.0822 15.1878 10.7705 12.9868 10.7705 12.9868V13.729C10.7705 14.1 10.7334 15.7578 10.3991 16.6976C10.0081 17.7971 9.3323 18.8068 8.54205 19.6661C7.70361 20.577 5.57074 21.8925 5.57074 21.8925V22.2634C5.57074 22.2634 8.52673 21.6454 10.0276 21.5212C10.768 21.46 11.5156 21.46 12.256 21.5212C13.7568 21.6454 16.7128 22.2634 16.7128 22.2634V21.8925C16.7128 21.8925 14.5791 20.577 13.7415 19.6661C12.9515 18.8068 12.2755 17.7971 11.8844 16.6976C11.5501 15.7581 11.5131 13.729 11.5131 13.729V12.9868C11.5131 12.9868 12.2014 15.1876 12.9986 15.9554C14.0757 16.9923 15.5886 17.7763 17.0841 17.8108C18.4172 17.8414 19.817 17.2286 20.798 16.3266C21.6128 15.5775 22.2835 14.4646 22.2835 13.3581C22.2835 11.9752 21.3133 10.7093 20.4264 9.64758C19.6331 8.69805 18.4543 8.15176 17.4551 7.42124C16.5958 6.79285 15.6679 6.2538 14.8554 5.56586C14.0537 4.88738 13.2217 4.20473 12.627 3.33952C11.9368 2.33544 11.5128 1.85538 11.1415 0" fill="black"/>
</svg>
